<?xml version="1.0" encoding="UTF-8"?>
<svg xmlns="http://www.w3.org/2000/svg" version="1.1" viewBox="0 0 500 500">
  <defs>
    <style>
      .cls-1 {
        fill: none;
        stroke: #000;
        stroke-miterlimit: 10;
        stroke-width: 2px;
      }

      .cls-2 {
        fill: #fff;
        stroke-width: 0px;
      }
    </style>
  </defs>
  <g id="BACKGROUND">
    <rect class="cls-2" x="0" width="500" height="500"/>
  </g>
  <g id="OBJECTS">
    <g>
      <path class="cls-1" d="M315.5,333.1s-2.4-4.6-5.6-2.6c-3.2,1.9-1.7,6.7,1.3,10.9s13.5,8.5,20.2,25,5.1,25.4,14.2,36c9.1,10.6,26.2,43.9,29,38.7,3.5-6.5-1.5-19.9-10-29.5-8.1-9.2-16.6-16.6-22.2-21.5-7.8-6.8-5.9-55.9-4-73.3,2-17.4,14.7-58.6,27.4-53.3,12.7,5.3,7.9,31.4,16.3,43.5,8.3,12.1,15.1,25,4.8,40.1-10.3,15.1-35.3,43.1-29.7,26.1,5.6-17,27-27.6,42-15.1,15.1,12.5,20.3,27.8,17.3,42.3s-5.8,34.4-20.5,27.6c-14.7-6.8-38.5-29.8-25.9-38.1,12.7-8.3,20.3-2.5,14,4.3-6.3,6.8-26.8,3.8-33.9-7.6-7.1-11.3-.2-72.8,10.1-75.1,10.3-2.3,5.9,30.2.8,41.2-5.2,11-12.3,34.8-17.4,33.6-5.2-1.1-9.5-5-14.7-4.3s-3.8,7.7,2.5,8.5c6.3.8,3.1-6.2,1.5-10-1.6-3.8-22.2-20-32.9-25.6-10.7-5.7-15.1-11.3-12.3-14,2.8-2.6,6.3.8,7.5,4.5"/>
      <path class="cls-1" d="M386.2,297.5c-.9-7.3,20.6-46.9,38-31.4,17.4,15.5-.4,31.8,10.7,46.9,11.1,15.1,2.4,26.5-19,39.3-21.4,12.9-36.1,23-36.1,17.8,0-5.3,21.8-11,48-10.6,26.2.4,32.5,23.8,18.6,42-13.9,18.1-31.8,35-50.4,22.1-12.4-8.6-19.3-15.9-18.6-18.4.4-1.3,5.6.7,10.1,2.4,15,5.7,42.4,12,40.3-21.8-1.1-18.2-25.4-14.7-38.8-10.2-8.9,2.9-21.1,2.7-9.2-12.8,11.9-15.5,20.6-20.4,18.7-35.5-2-15.1-11.4-22.5-12.3-29.8Z"/>
    </g>
    <path class="cls-1" d="M225.6,150.7s1.7-2.7-1-5.2c-2.7-2.5-10.8-.4-19.4,10.4-8.6,10.8-19.4,24.7-20.7,25-1.4.4,24.2-105.5,7.6-123-16.6-17.5-36.8,1.3-40.2,18.8-3.5,17.5-11.6,29.4-22.8,33.5-11.2,4.1-4,16.3,11.9,24.7,15.9,8.4,32.5,30.5,30.6,38.3-1.9,7.8-12.7-15.4-8.5-45.7,4.2-30.4,17.4-80.4-1.6-86.6-19-6.1-24.9,26.5-33,32.3-8,5.7-31.2,22-21,35.5,10.3,13.4,46.2,58.4,47.2,48.4,1-10.1-50.3-34.7-66.9-36.1-16.6-1.4-21,14.2-21.8,26.4-.8,12.3.2,40.7,29.4,45,29.2,4.3,64.2-.8,65.7-7.8,1.6-7-39.2-49.1-60.8-44.4-8.9,2-15.6,12-20.6,23.2-7.1,15.9-8.7,34.7,11.5,41.4,34.4,11.4,76.1-10.1,89.7-17.6,13.7-7.6-1.8,12.8-15.1,27.4-10.3,11.3-14.1,22.4-17.9,15.9-3.8-6.5,3.4-15.5,13-23.6,13.3-11.3,30.3-23.5,31.7-29.4,2.4-10.1-4.2-6.5,2.4-24,4.7-12.5,12.8-26.4,21.1-27.9,2-.4,7.8-.1,4.4,5.6"/>
    <path class="cls-1" d="M281.9,165.4s-6.9-3.4-4.3-7.6,7-5.7,15-2c8,3.7,42.1,29.9,54.1,44.8,12,14.9,34.1,18.9,20.3,3-13.3-15.3-24.8-17.3-35.2-22-10.4-4.7-46.4-80.4-41.5-104.5,4.9-24.2,22.8-12.4,31.8,7.7,9,20.2,29,28.9,31.7,36.4,6.3,17.4-4,36.3-15,47.9-9.5,10.1-8.3-10.5-4.3-22.6,3.9-12.1,11.3-26.8,17.4-42.3,10.8-27.6,30.8-39.6,40.2-30.8,15.3,14.4,11.4,36.7,18.3,43.7,7,7,17.4,19.9,1.2,29.5-20,11.9-65,30.9-48.5,16.4,16.5-14.5,59.9-14.7,67-5.1,7.1,9.6-2,20.5-2.4,29.1-.4,8.5,4.4,14.1-5.5,19-9.9,4.9-30.4-4.6-42.1-11.2-7.5-4.3-16.6-7.6-28.1-8.6-11.5-1-26.8-3.5-34.8-6.6-6.2-2.4-23.6-5.2-25.9-2.2-4.3,5.7-.3,10.8,4.1,10.1"/>
    <path class="cls-1" d="M164.7,298.3c4-.2,6.9-6.7,0-7.6-6.9-.9-8,13.1-8.4,22.9-.4,9.7-8.7,36.1-10.3,47.8-1.6,11.8-11.3,45.1-19.3,52.8-8,7.6-3.1-10.5,1.5-20.1,4.6-9.7,22.9-25.9,26.3-35.5,3.4-9.5-11.6-6.1-8.2,24.8,3.2,29.6-3,43.7,4.7,55.7,7.7,12,42.8-1.5,50.2-13.4,10.9-17.7-14.3-46.9-28.3-51.4-10.2-3.3-10.5,4.2,2.5,10,13,5.9,25.1,9.9,37.2,6.7,12.1-3.2,19-17.5,30.7-24,11.7-6.4,25.2-23,11.7-29.6-13.5-6.6-41.9-2.9-59,5.3-9.5,4.5-38,27.6-45,28.4-7.8.9-17.9,7.7-23.3,11.1-11,6.9-34.7,32-48.4,23-13.7-9-14.8-20.4-17.3-31.8-2.5-11.4,11.7-22,21.8-25.4,10-3.4,41.5-1.1,47.5,6.7,6,7.8-6.8,4.3-19.7-1.2-13-5.5-28.6-25.8-27.8-37.5.8-11.7,8.1-26.2,7.5-35.7-.6-9.5,3.1-24.8,16.2-18.2,13.1,6.6,27.7,34.1,30.9,51.7,3.8,20.8,1.8,54.2,6.1,57.2,4.3,2.9,15.7-12,23.8-26.4,8.1-14.4,16.4-27.3,22-27.4,5.6-.2,6.1,7.3.5,7.3"/>
  </g>
</svg>