<?xml version="1.0" encoding="UTF-8"?>
<svg id="OBJECTS" xmlns="http://www.w3.org/2000/svg" version="1.1" viewBox="0 0 500 500">
  <defs>
    <style>
      .cls-1 {
        fill: #000;
        stroke-width: 0px;
      }
    </style>
  </defs>
  <path class="cls-1" d="M197.67,113.29c3.99-.08,6.97,1.55,9.39,3.98-.42.12-.76.46-.75.93-2.18,1.62-4.81.48-7.4,1.66-.31.14-.46.51-.48.83-.1,1.5.69,1.91,1.94,2.6,1.88,1.03,3.34.88,5.02,2.59,1.27,1.3,2.21,2.89,3.31,4.32,3.67,4.75,8.76,9.06,14.68,10.61,1.5,1.73,3.09,3.39,4.79,4.94,8.56,7.83,21.86,14.12,33.52,9.93.97-.35.9-2.06-.26-1.93-17.12,1.93-29.99-6.23-40.08-19.62-5.65-7.51-11.7-24.3-23.75-21.31-.27.07-.21.48.06.48Z"/>
  <path class="cls-1" d="M184.32,132.01c1.33-1.01,2.69-1.94,4.08-2.83-1.59,6.26-1.61,12.32.19,18.66.28.97,1.48.81,1.81,0,.84-2.03,1.83-3.86,3-5.62,1.5,10.07,7.77,18.24,14.15,26.02.42.52,1.33.09,1.3-.54-.15-3.69-.28-7.39-.4-11.08,2.41,2.86,5.28,5.03,8.82,6.6.84.37,1.58-.87.73-1.25-4.02-1.79-7.18-4.34-9.72-7.95-.39-.56-1.39-.41-1.37.37.12,3.68.24,7.35.35,11.03-5.99-7.62-11.75-15.83-12.21-25.84-.05-1.03-1.24-1.23-1.81-.49-1.4,1.82-2.54,3.7-3.52,5.7-1.27-5.61-1.2-11.34.42-16.95.16-.56-.49-1.08-1-.77-1.31.81-2.56,1.67-3.8,2.56,2.01-4.98,5.08-9.26,9.11-12.92.15-.14-.05-.41-.22-.29-5.24,3.79-8.79,8.72-10.89,14.84-.18.51.51,1.09.96.74Z"/>
  <path class="cls-1" d="M208.87,112.24c5.93-.78,11.63.11,16.96,2.71-2.06.77-4.12,1.54-6.18,2.31-.52.2-.57.79-.15,1.12,7.82,6.04,16.09,12.11,25.89,13.48-3.25.8-6.49,1.6-9.74,2.41-.58.14-.76,1.07-.18,1.34,12.03,5.56,25.21,6.94,37.97,3.58-2.78,3.24-6.15,5.58-10.28,7.11-.71.26-.72,1.2,0,1.46,6.39,2.32,12.87,3.47,19.62,3.54-6.96,9.06-18.12,13.16-29.43,11.56-.87-.12-1.28,1.16-.37,1.35,12.41,2.67,25.14-3.02,32.26-13.33.38-.54-.12-1.31-.75-1.3-6.49.14-12.75-.74-18.91-2.63,4.37-1.95,7.9-4.84,10.79-8.83.43-.59-.28-1.4-.93-1.21-12.37,3.74-25.43,3.27-37.31-1.73,4.2-1.02,8.4-2.03,12.6-3.07.83-.21.65-1.53-.2-1.5-11.3.47-20.82-6.02-29.46-12.58,2.14-.81,4.28-1.62,6.42-2.43.45-.17.63-.83.14-1.09-5.99-3.23-12.15-4.23-18.84-2.93-.37.07-.28.7.09.65Z"/>
  <path class="cls-1" d="M427.51,198.43c-18.84-4.57-37.88-5.95-57.19-6.72-19.75-.79-38.37-3.63-53.41-17.42-.28-.26-.61-.04-.64.24-.25-.02-.52.18-.45.51,1.89,9.41,10.69,15.67,12.51,25.01-2.86-2.74-5.96-5.03-9.48-6.96-.45-.25-.99.16-.86.66,2.32,9.41,5.58,16.17,12.2,22.8-5.51-1.32-10.52-3.8-15.01-7.34-.45-.35-1.15-.04-1,.58.99,3.89,2.82,7.12,5.62,9.85-3.69-.16-7.39-.31-11.08-.46-.64-.43-1.28-.87-1.91-1.33-.84-.61-1.63.45-1.3,1.24-.6.17-.53,1.19.2,1.22.44.02.89.04,1.33.05,18.31,12.67,43.04,13.61,64.43,10.83,22.33-2.91,43.33-12.53,56.68-31.16.4-.56-.01-1.43-.65-1.59ZM369.4,229.5c-19.48,2.2-41.41,1.4-58.57-8.99,3.55.15,7.1.29,10.65.43.51.02.85-.71.44-1.05-2.94-2.45-4.9-5.23-6.08-8.72,4.89,3.53,10.18,5.8,16.17,7.03.58.12,1.07-.58.6-1.04-3.21-3.16-6.51-6.26-8.78-10.2-2.18-3.77-3.34-7.97-4.38-12.17,3.46,2.04,6.53,4.47,9.31,7.41.35.37,1.08.1,1.04-.43-.88-10.23-9.7-17.01-12.99-26.38,10.87,13.2,29.74,16.68,45.87,17.83,10.75.77,21.52.82,32.24,1.93,10.27,1.07,20.4,2.87,30.49,5.04-12.76,18.08-34.61,26.9-56.02,29.31Z"/>
  <path class="cls-1" d="M429.05,188.96c-9.38-1.07-16.91-4.71-24.86-9.08,7.94-4.01,14.37-11.14,19.29-18.37.42-.62-.13-1.64-.9-1.56-32.34,3.25-63.74-30.69-95.75-14.58-.32.16-.51.39-.6.64-14.74-32.94-58.29-47.13-92.41-43.8-3.76-2.01-8.62-2.62-12.77-2.34-13.11.87-25.44,2.6-38.24-1.72-12.04-4.06-22.45-11.84-32.28-19.67-10.46-8.32-20.91-16.65-31.31-25.05-.43-.35-.94-.3-1.31-.06-.06-.08-.12-.15-.22-.21-7.21-4.35-11.02-15.59-20.87-14.39-10.55,1.29-14.68,13.66-16.49,22.47-.1.47.06.94.49,1.2.51.3.97.45,1.41.5-9.24,16.37,3.32,34.12,12.35,47.39,6.46,9.49,12.91,18.98,19.38,28.47,2.99,4.38,5.91,9.14,9.31,13.44-5.46-1.74-10.81-3.64-16.04-5.75,1.87-6.29-1.23-12.36-4.07-17.94-.37-.73-1.64-.59-1.79.23-.52,2.78-1.67,5.34-3.61,7.42-1.55,1.67-3.35,2.4-5.15,3.46,1.32-1.99.96-4.82-1.08-6.33-2.41-1.78-5.81-.88-7.65,1.27.8-2.82,1.26-6.33-1.2-8.42-1.91-1.62-4.18-1.33-6.26-.38.11-.37.18-.75.19-1.15.02-1.42-.94-2.62-2.32-2.92-3.45-.75-5.35,3.09-5.72,5.89,0,0,0,.02,0,.03-8.75,17.21-5.41,38.37,7.86,52.32.47.49,1.51.14,1.43-.59-.15-1.29-.16-2.51-.05-3.73,6.34,18.05,23.75,30.14,28.36,49.04.2.83,1.44.81,1.66,0,1.31-4.97,1.87-9.91,1.71-14.99,7.76,8.87,12.78,19.46,14.94,30.96-.07.12-.13.26-.13.44-.3,15.66-3.2,30.44-10.82,44.28-3.41,6.2-8.06,11.6-11.46,17.8-3.39,6.2-5.01,13.07-6.6,19.9-.11.48.32.97.82.82,2.26-.67,4.51-1.36,6.75-2.1-13.07,21.64-18.05,47.14-14.14,72.12.14.91,1.36.84,1.79.23,2.09-2.97,4.55-5.32,7.51-7.2-4.94,13.19-3.94,27.69,2.94,40.14.44.79,1.56.54,1.83-.24.8-2.35,1.6-4.71,2.4-7.06,2.7,14.39,13.32,26.01,26.23,32.75,18.11,9.46,39.47,9.06,59.34,8.56.79-.02,1.29-1.04.67-1.62-7.98-7.44-12.62-16.33-15.9-26.58,5.84,5,12.25,8.86,19.41,11.69.69.27,1.43-.54,1.21-1.21-1.92-5.62-3.84-11.24-5.77-16.85,14.32,8.43,29.78,14.51,46.03,18.09,1.01.22,1.55-.89.95-1.64-8.54-10.73-17.2-22.02-19.79-35.75,32.03,15.03,66.74,30.58,102.77,28.77.71-.04,1.14-.75.8-1.39-7.84-14.69-13.47-30.29-16.84-46.57,15.54,15.2,32.67,28.62,51.18,40.04.67.41,1.6-.28,1.35-1.04-6.09-18.65-7.51-38.6-3.67-57.87,1.9-9.53,4.98-18.22,10.97-25.96,3.17-4.09,6.42-8.08,7.4-13.05,3.74,8.02,7.47,16.05,11.21,24.07.41.87,1.51.3,1.6-.43,3.64-28.9.32-58.18-9.63-85.53l17.64,10.35c.75.44,1.56-.43,1.16-1.16-9.41-17.21-24.57-30.55-42.88-37.44,5.24-.01,10.49-.44,15.67-1.27,18.42-2.95,35.83-11.1,50.73-22.21,3.85-2.87,7.56-5.94,11.09-9.2,2.73-2.51,6.17-5.24,7.46-8.86,1.96-5.51-1.48-8.97-6.7-9.56ZM328.13,147.59c31.51-13.94,60.67,16.53,92.33,14.61-4.95,6.78-10.96,11.72-17.52,17-.8-.45-1.61-.9-2.43-1.35-8.47-4.73-17.32-8.11-26.82-10.13-9.58-2.03-19.35-2.89-29.09-3.7-4.63-.39-9.46-.89-13.98-2.18.06-.18.08-.38.05-.59-.73-4.88-2.02-9.46-3.79-13.73.35.21.79.27,1.25.07ZM83.29,58.25c.16-1.71,1.64-4.84,2.29-6.23,3.66-7.86,11.97-14.79,19.86-7.34,3.36,3.17,5.9,7.77,10.34,9.44-.06.16-.06.33,0,.49-.32-.77-9.29-1.17-11.28-1.31-1.53-.11-3.02-.07-4.5.09.84-.69,1.29-1.76,1.32-2.88.02-.57-.41-1.04-.92-1.21-3.8-1.29-9.14.7-9.62,5.1-.05.41.56.64.82.34,1.3-1.52,2.89-2.77,4.7-3.21,0,.09,0,.17,0,.26.1.83.54,1.62,1.19,2.01-1.04.23-2.07.51-3.1.87-3.01,1.05-5.85,2.58-8.53,4.27-2.24,1.42-2.87,2.33-2.59-.69ZM102.63,131.65c2.45,4.54,4.32,9.31,3.91,14.56-3.91-1.59-7.75-3.3-11.53-5.16,3.59-1.6,6.36-5.66,7.62-9.4ZM90.71,134.35c1.55,1.08,2.1,3.48,1.22,5.15-2.36-1.22-4.68-2.5-6.98-3.85,1.34-1.69,3.83-2.64,5.76-1.3ZM82.18,128.29c1.06,1.65.89,4.08.61,6.06-2.75-1.67-5.46-3.45-8.13-5.33,2.21-1.66,5.66-3.63,7.52-.74ZM73.47,122.9c2.47-.07,2.01,2.05,1.26,3.81-.59.37-1.14.77-1.66,1.17-.76-.55-1.51-1.1-2.26-1.67-.15-.11-.32-.17-.51-.18.52-1.56,1.28-3.08,3.16-3.13ZM433.01,198.57c-.59,1.26-1.53,2.18-2.43,3.18-5.89,6.56-13.38,12.21-20.68,17.07-30.52,20.33-70.19,25.86-103.04,7.63-1.36-.75-2.56,1.31-1.21,2.08,12.78,7.28,27.2,11,41.79,11.47.05.04.1.08.17.11,17.99,6.65,33.18,19.07,43.01,35.47-5.63-3.3-11.26-6.59-16.88-9.89-.59-.35-1.5.24-1.23.95,10.15,26.83,13.75,55.59,10.63,84.07-3.75-8.06-7.51-16.12-11.26-24.18-.37-.8-1.62-.38-1.61.44.13,9.27-8.62,15.45-12.63,23.13-3.86,7.39-5.76,15.83-7.01,24.01-2.6,17.13-1.18,34.56,3.84,51.1-18.41-11.58-35.44-25.12-50.85-40.49-.69-.69-1.7.03-1.54.9,3.22,17,8.9,33.31,16.92,48.63-35.77,1.31-70.29-14.46-102.02-29.37-.78-.36-1.48.23-1.36,1.05,2.04,13.99,10.17,25.37,18.71,36.21-15.95-3.81-31.08-10.06-45.1-18.62-.71-.43-1.72.29-1.44,1.11,1.98,5.78,3.95,11.55,5.93,17.33-6.16-2.66-11.75-6.15-16.87-10.55-.73-.62-1.7.04-1.68.75-.29-.04-.61.2-.56.59,1.45,10.12,6.9,19.35,14.04,26.56-17.94.42-36.86.51-53.45-7.13-14.68-6.77-27.2-20.05-28.41-36.74-.08-1.14-1.61-1.36-1.98-.27-1.01,2.97-2.01,5.95-3.02,8.92-5.99-12.19-6.34-26.33-.82-38.85.39-.87-.41-1.79-1.33-1.33-3.64,1.87-6.62,4.28-9.16,7.35-3.19-24,2.01-48.42,14.71-69.08.38-.62.01-1.21-.51-1.43-.08-.17-.25-.29-.5-.24-2.4.55-4.78,1.18-7.15,1.82,1.96-7.7,4.22-15.15,8.65-21.87,4.09-6.21,8.54-12,11.79-18.74,5.1-10.57,8.35-22.54,8.67-34.4,3.06,22.8-2.33,45.32-19.24,61.98-.62.61,0,1.9.9,1.54,3.95-1.57,7.9-3.14,11.86-4.72-9.86,23.54-19.46,47.44-21.79,73.08-.09.97,1.23,1.12,1.68.46,3.56-5.18,7.13-10.35,10.69-15.53.99,23.62,11.31,46.08,28.7,62.19.63.59,1.77.02,1.5-.87-7.06-23.22-8.33-47.7-3.64-71.48,3.05,7.55,6.84,14.7,11.43,21.46.56.82,1.73.29,1.56-.66-3.43-19.03-3.92-41.73,10.79-55.9-5.15,9.57-6.93,20.43-5.12,31.32.14.85,1.52,1.01,1.87.24,12.82-27.79,28.38-57.74,57.98-70.22-5.61,8.55-10.09,17.68-13.39,27.39-.28.83.68,1.33,1.34,1.03,23.62-10.47,47.02-25.19,59.51-48.43-1.91,14.26-5.43,28.18-10.66,41.62-.3.77.75,1.54,1.4,1.08,22.66-15.77,41.23-39.09,44.3-67.08,3.52,9.12,6.12,18.5,7.8,28.16.13.73,1.31.89,1.62.21,4.1-9.13,4.88-18.98,1.72-28.52-.22-.68-1.25-.4-1.08.3,2.09,8.33,1.82,16.7-1.1,24.67-1.93-9.84-4.81-19.39-8.67-28.66-.36-.87-1.61-.78-1.67.23-1.62,27.82-19.64,51.28-41.44,67.3,5.19-14.18,8.58-28.87,10-43.93.07-.8-1.19-1.14-1.53-.41-11.62,24.6-35.03,40.02-59.08,50.97,3.49-9.74,8.18-18.87,14.09-27.39.44-.64-.3-1.61-1.03-1.34-30.64,11.43-47.41,40.64-60.45,68.87-1.09-10.96,1.67-21.76,7.9-30.98.43-.64-.09-1.24-.7-1.32-.22-.09-.47-.09-.73.11-17.98,13.49-19.1,36.51-15.99,57.03-4.05-6.45-7.42-13.22-10.1-20.4-.27-.72-1.45-.89-1.65,0-5.19,23.88-4.49,48.49,2.08,71.98-16.24-16.25-25.57-38.31-25.82-61.37-.01-.94-1.19-1.17-1.68-.46-3.41,4.95-6.83,9.91-10.24,14.86,2.91-24.85,12.52-48.12,22.16-71.03.26-.62-.52-1.37-1.13-1.13-3.33,1.32-6.66,2.64-9.98,3.96,14.69-16.42,22.37-41.09,15.81-62.48-1.54-14.44-7.85-27.75-17.78-38.32-.49-.52-1.52-.14-1.46.6.35,4.64.09,9.17-.8,13.68-6.04-18.23-23.58-30.26-28.5-49.09-.21-.8-1.39-.78-1.6,0-.5,1.81-.73,3.41-.73,5.11-11.11-13.16-13.16-32.46-5.43-47.79,15.73,11.78,34.33,21.04,53.8,24.39,2.12,2.53,4.43,4.86,7.06,6.79.75.55,1.46-.6.93-1.21-12.38-14.32-22.52-30.35-33.22-45.94-9.96-14.52-24.01-31.55-15.89-50.09.06-.14.06-.27.03-.39.94-.27,1.83-.96,2.89-1.62,4.61-2.87,9.42-5.38,14.98-5.59,3.3-.13,14.92,4,16.63-.62,9.94,7.99,19.78,16.1,29.7,24.11,8.15,6.58,16.41,13.2,25.8,17.93,9.43,4.75,19.64,6.93,30.18,6.89,10.7-.04,32.13-7.11,35.76,7.97.09.39.71.3.69-.09-.11-3.82-1.83-6.56-4.36-8.45,20.98,1.27,41.73,3.19,60.27,14.2,16.33,9.69,28.22,24.9,32.22,43.49-3.7-1.35-7.12-3.32-9.94-6.34-.44-.47-1.28.16-.89.69,4.59,6.33,11.42,8.89,18.94,10.16,9.3,1.56,18.8,1.73,28.13,3.12,9.13,1.36,18.27,3.45,26.73,7.23,7.82,3.49,14.87,8.49,22.72,11.93,3.55,1.56,7.22,2.78,11.06,3.32,2.94.41,4.01.2,6.58,2.37,2.34,1.97,2.9,2.31,1.59,5.08Z"/>
  <path class="cls-1" d="M93.05,69.82c.11-.11.22-.21.34-.32.25-.24.37-.58.38-.93.02-.35-.15-.68-.38-.93-.22-.24-.61-.38-.93-.38s-.7.14-.93.38c-.11.11-.21.22-.32.34-.25.26-.37.57-.38.92-.02.35.15.67.38.92.22.24.6.38.92.38.34,0,.68-.15.92-.38Z"/>
  <path class="cls-1" d="M87.71,72.11c.08-.65-.6-1.14-1.17-1.17-.29-.01-.62.14-.82.34-.19.19-.37.55-.34.82.04.35.04.74.25,1.04.11.16.19.34.31.5.34.45.88.45,1.22,0,.12-.16.2-.34.31-.5.2-.3.2-.69.25-1.04Z"/>
  <path class="cls-1" d="M94.36,79.2c.03-.74-.63-1.29-1.32-1.32-.69-.03-1.35.63-1.32,1.32.03.71.06,1.39.56,1.94.37.42,1.15.42,1.52,0,.5-.56.53-1.23.56-1.94Z"/>
  <path class="cls-1" d="M89.14,83.1c-.38-.44-1.1-.42-1.53-.09-.48.37-.56.98-.3,1.5.05.1.1.2.15.3,0,.02,0,.01.01.02.04.09.08.19.12.28.1.21.25.43.41.6.29.31.66.59,1.04.77.59.28,1.41-.04,1.37-.79-.02-.49-.14-.93-.33-1.38-.2-.48-.6-.83-.94-1.22Z"/>
  <path class="cls-1" d="M94.82,92.67c-1.67,0-1.67,2.59,0,2.59s1.67-2.59,0-2.59Z"/>
  <path class="cls-1" d="M138.12,119.81c.02-2.47.03-4.94.05-7.41,8.2,11.46,14.19,24.19,17.72,37.85.16.61.95.52,1.15,0,.68-1.79,1.02-3.43,1.09-5.16,1.03,2.11,1.59,4.25,1.79,6.76.06.71,1.17.72,1.12,0-.26-3.49-1.2-6.45-3.05-9.42-.29-.46-1.14-.31-1.09.3.16,1.86.02,3.54-.39,5.23-3.77-13.57-9.92-26.19-18.39-37.49-.31-.41-1.01-.31-1.01.27-.01,2.06-.02,4.12-.04,6.18-4.41-11.16-10.94-21.91-19.97-29.87-.24-.21-.55.11-.34.34,8.65,9.92,15.81,20.1,20.32,32.56.2.56,1.06.49,1.06-.14Z"/>
  <path class="cls-1" d="M146.11,297.66c-.05.96,1.43.95,1.49,0,1.29-21.79,2.03-44.92-8.66-64.69-.33-.61-1.23-.3-1.26.34-.09,2.73-.44,5.34-1.06,7.94-4.06-15.74-11.83-30.66-23.53-42.07-.21-.2-.49.1-.31.31,11.05,13.15,19.29,27.77,23.17,44.61.15.67,1.11.61,1.29,0,.85-2.78,1.37-5.5,1.63-8.33,9.52,19.2,8.39,40.99,7.24,61.89Z"/>
  <path class="cls-1" d="M267.46,213.05c-10.82-6.46-21.17-13.6-31.18-21.27-.15-.12-.35.14-.2.27,6.02,5.02,12.26,9.71,18.76,14.08.96.65,5.78,4.45,8.65,6.07-.89-.24-1.73-.44-1.67-.42-2.46-.55-4.91-1.09-7.37-1.64-.32-.07-.62.2-.53.53,2.87,11.03-.37,21.96-4.3,32.28-3.61,9.49-7.73,18.77-12.21,27.87-.42-10.66-3.12-20.88-8.01-30.43-.17-.33-.71-.41-.95-.12-5.81,6.92-14.07,10.25-21.87,14.36-7.72,4.07-15.02,8.85-21.92,14.18-13.11,10.13-24.33,22.23-33.46,36.04-.66,1,.95,1.94,1.6.94,12.12-18.64,28.19-34.63,47.26-46.12,8.33-5.02,18.01-8.36,25.47-14.7,3.12-2.65,3.16-3.64,5.07.82,1.16,2.72,2.16,5.5,2.97,8.36,1.78,6.29,2.59,12.76,2.64,19.29,0,.6.89.9,1.18.32,5.96-12,11.66-24.42,15.74-37.2,1.88-5.89,3.31-12.09,3.01-18.32-.08-1.69-1.51-6.06-.07-6.86.51-.28,4.92,1.11,5.52,1.25,1.84.41,3.68.83,5.52,1.24.49.11.79-.55.34-.82Z"/>
  <path class="cls-1" d="M375.98,200.31c7.22,6.15,15.99,9.33,25.41,9.78.2,0,.19-.29,0-.31-9.23-.77-17.31-4.56-24.16-10.72-.85-.76-2.1.51-1.25,1.25Z"/>
  <path class="cls-1" d="M382.56,216.81c-8.95-1.33-17.71-3.51-26.07-7.02-8.52-3.57-15.62-8.7-23.28-13.72-1.07-.7-2.28.9-1.35,1.76,13.07,12.07,33.15,18.62,50.61,19.69.41.02.5-.65.1-.71Z"/>
  <path class="cls-1" d="M339.62,212.87c-1.93-1.22-3.82-2.6-5.87-3.61-.53-.26-.93.44-.46.78,1.85,1.34,3.94,2.38,5.92,3.52.45.26.84-.42.4-.69Z"/>
  <path class="cls-1" d="M375.05,322.57c-.04,1.52,2.33,1.52,2.36,0,.44-23.41-7.9-45.66-23.14-63.34-.24-.28-.62.12-.4.4,14.37,17.66,21.76,40.25,21.18,62.94Z"/>
  <path class="cls-1" d="M354.43,340.25c-15.26,18.91-23.55,45.21-10.03,67.48.82,1.35,2.92.12,2.11-1.24-12.87-21.49-5.97-47.08,8.16-66.06.1-.14-.13-.32-.24-.19Z"/>
  <path class="cls-1" d="M298.7,390.53c-1.19,5.84-.93,11.84.14,17.69.63,3.44,1.57,6.82,2.81,10.09.52,1.39,1.97,6.49,3.31,6.82-.74-.18-1.49.84-.81,1.38.15.12.3.24.45.36.33.27.76.39,1.16.15,1.1-.66,1.14-.98,1.06-2.22-.05-.78-.88-1.79-1.21-2.48-1.1-2.29-2.13-4.6-2.96-7-2.8-8.08-3.37-16.27-3.61-24.75,0-.19-.3-.24-.34-.05Z"/>
  <path class="cls-1" d="M210.41,412.37c-.02-.49-.73-.49-.76,0-.17,3.46.29,6.74,1.6,9.96.77,1.91,1.77,3.71,3.01,5.35.27.36,3.53,4.32,3.78,4.18-.52.3-.28,1.09.3,1.1.14,0,.29,0,.43.01.28,0,.64-.22.69-.52.38-2.73-3.12-4.52-4.56-6.56-2.83-3.99-4.24-8.66-4.48-13.52Z"/>
  <path class="cls-1" d="M186.61,426.47c-.06-.36-.55-.22-.58.08-.19,1.73.19,4.81,1.86,5.78.43.25.95-.16.83-.64-.21-.84-.9-1.52-1.27-2.31-.43-.92-.68-1.91-.84-2.91Z"/>
  <path class="cls-1" d="M161.34,451.73c-9.16-2.64-18.12-4.51-26.5-9.34-7.93-4.57-13.73-10.77-18.3-18.63-.23-.39-.89-.13-.74.31,6.07,18.08,27.67,27.75,45.23,30.04,1.4.18,1.57-2.01.32-2.37Z"/>
  <path class="cls-1" d="M102.62,393.93c-1.64,4.88-2.47,10.83-.61,15.78.23.61,1.3.58,1.22-.17-.53-5.36-1.09-10.03.26-15.37.15-.57-.69-.79-.87-.24Z"/>
  <path class="cls-1" d="M102.97,333.75c-5.71,8.64-9.19,18.09-10.3,28.4-.12,1.08,1.58,1.07,1.69,0,.99-9.98,4.04-19.44,9.2-28.06.23-.38-.35-.71-.59-.35Z"/>
  <path class="cls-1" d="M124.1,313.59c-3.18,6.22-6.02,12.58-8.41,19.15-1.34,3.68-2.56,7.4-3.61,11.18-.49,1.74-.95,3.49-1.37,5.24-.14.59-.27,1.17-.41,1.76-.43.65-.57,1.18-.45,1.59-.54.21-.69.85-.46,1.35.05.1.1.21.15.31.23.48,1,.69,1.43.38,1.47-1.05,1.37-3.2,1.74-4.83.86-3.82,1.84-7.61,2.92-11.37,2.41-8.35,5.48-16.48,9.08-24.39.19-.41-.4-.77-.61-.36Z"/>
  <path class="cls-1" d="M129.88,397.86s-.09.01-.14.02c-.43-1.14-1.26-2.62-1.4-2.84-.79-1.23-1.57-2.47-2.32-3.73-1.36-2.26-2.65-4.56-3.79-6.93-2.92-6.08-4.75-12.47-4.41-19.26.03-.66-.92-.62-1,0-.98,7.49.82,14.32,4.08,21.05,1.89,3.91,4.1,7.83,6.59,11.39.7,1,1.15,2.34,2.55,2.22.6-.05.93-.51.83-1.09-.02-.1-.03-.2-.05-.3-.07-.45-.56-.58-.94-.53Z"/>
  <path class="cls-1" d="M147.83,328.32c-4.64,5.39-8,13.23-6.49,20.46.19.9,1.48.63,1.52-.21.36-7.44,1.1-13.53,5.5-19.85.22-.32-.28-.7-.53-.41Z"/>
  <path class="cls-1" d="M199.77,282.1c-6.21,4.37-11.97,9.26-17.15,14.82-2.52,2.71-4.91,5.55-7.13,8.51-1,1.34-1.97,2.71-2.91,4.1.23-.34-1.11,2.01-1.72,3.66-.03,0-.05-.02-.08-.02-.12,0-.23-.02-.35-.02-.51-.04-.83.43-.88.88-.02.15-.03.29-.05.44-.05.5.49,1,.97.97,1.93-.13,2.04-1.94,2.9-3.5,2.21-4.01,5.3-7.82,8.18-11.34,5.48-6.7,11.74-12.7,18.57-18,.27-.21-.09-.68-.37-.48Z"/>
  <path class="cls-1" d="M255.09,260.64c-4.6,5.59-8.97,11.25-14.14,16.35-5.16,5.11-11.26,9.09-16.48,14.07-.61.58.17,1.46.86,1.11,6.29-3.2,11.93-8.97,16.76-14.04,4.96-5.21,9.77-10.97,13.27-17.28.09-.17-.14-.37-.27-.21Z"/>
  <path class="cls-1" d="M288.73,239.84c-3.04,13.18-7.37,24.24-16.68,34.32-.75.82.43,2.02,1.22,1.22,9.04-9.08,16.06-22.42,16.09-35.46,0-.36-.55-.44-.63-.09Z"/>
  <path class="cls-1" d="M243.04,243.72c4.3-7.5,6.1-16.58,6.89-25.1.03-.3-.43-.29-.46,0-1.04,8.9-3.93,16.52-7.08,24.82-.15.39.46.62.66.28Z"/>
  <path class="cls-1" d="M179.18,260.15c7.64-.22,15.87-4.22,22.6-7.64,7.52-3.82,14.57-8.55,20.93-14.09.25-.22-.09-.67-.36-.46-6.47,4.95-13.27,9.29-20.68,12.72-7.4,3.43-15.5,4.87-22.84,8.19-.64.29-.3,1.31.35,1.29Z"/>
  <path class="cls-1" d="M162.48,285.59c2.75-4.34,4.94-8.58,8.65-12.27,3.58-3.57,7.75-6.49,12.37-8.55.32-.14.08-.69-.24-.56-9.16,3.65-18.97,11.01-22.01,20.86-.23.75.83,1.14,1.22.52Z"/>
  <path class="cls-1" d="M146.29,233.69c3.24,6.72,6.15,12.82,6.9,20.36.03.25.42.26.4,0-.5-7.14-2.18-14.96-6.59-20.78-.32-.42-.96-.07-.72.42Z"/>
  <path class="cls-1" d="M131.32,216.84c1.51,2.4,2.44,4.98,3.39,7.62.08.22.48.21.45-.06-.65-5.32-4.1-11.66-8.7-14.58-.46-.29-.89.35-.56.72,1.88,2.1,3.9,3.87,5.42,6.3Z"/>
  <path class="cls-1" d="M247.67,191.58c6.46,5.76,16.5,12.2,25.57,11.56.78-.06.92-1.09.18-1.35-4.13-1.47-8.58-1.86-12.73-3.42-4.6-1.72-8.85-4.17-12.8-7.08-.17-.12-.37.15-.22.28Z"/>
  <path class="cls-1" d="M310.09,169.79c.97-1.13-.47-2.5-1.6-1.6-8.06,6.35-16.02,10.85-26.17,13-4.93,1.04-9.96,1.53-15,1.69-4.97.16-11.24.73-15.61-1.98-.49-.31-.9.44-.45.77,4.18,3.06,9.5,3.19,14.51,3.37,5.25.19,10.54-.17,15.71-1.08,10.23-1.8,21.66-6.06,28.6-14.16Z"/>
  <path class="cls-1" d="M271.61,173.68c6.04-2.02,12.17-4.66,17.19-8.65.42-.33-.12-.96-.55-.71-5.56,3.18-10.82,6.32-16.86,8.57-.49.18-.29.96.22.79Z"/>
  <path class="cls-1" d="M274.7,155.13c.25-.28-.07-.74-.41-.53-3.14,1.91-6.1,3.77-9.49,5.25-.28.12-.07.51.19.46,3.52-.69,7.27-2.48,9.71-5.18Z"/>
  <path class="cls-1" d="M255.05,143.39c-2-.07-3.9-.59-5.87-.9-.17-.03-.27.18-.12.28,3.14,2,7.89,2.31,11.4,1.16.48-.16.43-.99-.13-.93-1.76.19-3.5.45-5.28.39Z"/>
  <path class="cls-1" d="M227.84,127.82c-.45-.11-.77.57-.33.77,1.71.75,3.56,1.5,5.4,1.86.45.09.77-.54.33-.77-1.68-.84-3.59-1.41-5.4-1.86Z"/>
  <path class="cls-1" d="M144.98,109.41c.14.32.62.08.54-.23-2.04-7.68-7.18-14.6-13.38-19.44-.16-.13-.39.08-.23.23,5.99,5.63,9.85,11.97,13.08,19.44Z"/>
  <path class="cls-1" d="M156.07,131.77c-.01.2.28.19.31,0,.42-3.64-.04-7.2-1.12-10.68-.06-.18-.34-.1-.28.08,1.01,3.48,1.28,6.99,1.1,10.6Z"/>
  <path class="cls-1" d="M167.02,138.83c-.16-.8-.36-1.58-.56-2.37-.06-.22-.4-.13-.35.1.2.79.39,1.58.63,2.35.05.18.31.1.27-.08Z"/>
  <path class="cls-1" d="M186.37,167.12c2.11,9.87-1.67,21.88,5.41,30.26.19.23.57-.07.41-.32-5.96-9.19-3.01-19.93-5.48-30.04-.05-.23-.39-.13-.35.1Z"/>
  <path class="cls-1" d="M195.97,184.37c.75,14.47,6.59,28.65,17.49,38.46,1.02.92,2.52-.55,1.52-1.52-10.31-10.06-17.24-22.47-18.78-36.94-.02-.15-.24-.15-.23,0Z"/>
  <path class="cls-1" d="M223.97,209.94c.71.17,1.1.23,1.83.3,1.08.11,1.57-1.66.57-2.09-6.25-2.71-13.13-5.66-15.38-12.7-.19-.61-1.04-.35-.94.26,1.19,7.03,7.31,10.84,13.36,13.58.03.3.21.57.56.66Z"/>
  <path class="cls-1" d="M273.13,247.71c2.18-9.49.08-19.46-5.94-27.13-.19-.24-.58.07-.42.33,4.98,8.19,6.68,16.95,4.81,26.37-.2,1.01,1.32,1.45,1.56.43Z"/>
  <path class="cls-1" d="M283.2,228.36c.28.53,1.13.4,1.27-.17.68-2.65-.68-5.81-1.78-8.22-1.4-3.07-3.36-5.7-5.82-7.99-.44-.41-1.01.2-.65.65,2.08,2.58,3.78,5.41,4.93,8.52.86,2.32.91,5.04,2.04,7.21Z"/>
  <path class="cls-1" d="M303.68,187.4c-5.14,2.35-9.1,5.67-14.88,6.87-5.88,1.23-11.9.84-17.67-.72-.46-.12-.78.59-.33.78,5.73,2.44,11.64,3.15,17.81,2.1,5.43-.93,12.73-3.34,16.09-8.02.48-.67-.42-1.28-1.01-1.01Z"/>
  <path class="cls-1" d="M298.16,203.89c-1.67-.3-3.38-.05-5.07-.08-1.91-.03-3.82-.16-5.72-.39-.56-.07-.67.86-.13.97,3.3.67,7.64,1.59,10.92.51.45-.15.55-.92,0-1.02Z"/>
  <path class="cls-1" d="M318.63,328.71c-2.9,11.63-3.12,23.51-.73,35.18-9.39-8.79-15.97-19.88-19.25-32.43-.23-.88-1.22-.97-1.84-.49-21.98,17.27-32.08,46.95-25.13,73.94-19.38-18.06-33.48-41.04-40.73-66.58-.22-.77-1.25-1.09-1.83-.48-10.6,11.21-16.31,26.04-16,41.33-2.6-5.24-4.5-10.72-5.69-16.52-.16-.79-1.29-1.06-1.82-.48-11.99,13.14-18.57,30.02-18.41,47.82.01,1.5,2.35,1.5,2.33,0-.16-16.43,5.56-32.29,16.26-44.72,1.6,6.86,4.17,13.3,7.77,19.4.52.89,2.19.58,2.07-.56-1.68-15.82,3.28-31.44,13.78-43.31,7.87,26.34,22.95,50,43.57,68.22.76.67,2.14.04,1.8-1.05-8.4-26.39.51-56.97,22.18-74.33,3.68,13.56,11.35,25.52,22.13,34.59.91.77,2.39.06,2.06-1.2-3.7-14.43-2.85-28.63,1.2-42.88,3.21-11.28,7.38-22.42,7.35-34.24,6.25,5.8,12.25,11.86,18.06,18.09.53.57,1.68.15,1.61-.67-1.22-13.68-5.21-27.11-12.23-38.94-.25-.42-.86-.05-.65.38,5.7,11.45,9.41,23.26,10.74,35.91-5.75-6.2-11.73-12.15-17.91-17.92-.63-.59-1.78-.2-1.75.73.42,14.45-5.52,27.46-8.94,41.21Z"/>
  <path class="cls-1" d="M339.49,289.05c.15.6,1.16.48,1.09-.15-.55-5.01-3-9.47-6.32-13.19-.32-.36-.8.16-.51.51,3.02,3.83,4.61,8.14,5.75,12.82Z"/>
  <path class="cls-1" d="M311.57,339.9c2.42-12.94,4.59-25.11,9.74-37.35.14-.33-.43-.56-.58-.24-5.45,11.44-10.19,24.61-10.72,37.38-.04.89,1.4,1.09,1.56.21Z"/>
  <path class="cls-1" d="M267.19,372.77c.63-10.06,2.05-18.86,7.45-27.61.28-.45-.42-.85-.7-.41-5.24,8.13-9.02,18.19-7.96,28.02.08.77,1.16.79,1.21,0Z"/>
  <path class="cls-1" d="M210.7,359.18c-.03-6.98,1.59-13,6.52-18.17.31-.33-.17-.81-.5-.5-5,4.75-8.11,11.84-6.96,18.8.09.55.94.4.94-.13Z"/>
  <path class="cls-1" d="M192.01,374.88c-2.77,2.57-4.88,5.5-6.41,8.97-.68,1.54-1.24,3.13-1.64,4.76-.5,2-.21,3.69-.51,5.65.07-.46-.42-.81-.8-.47-.07.07-.15.13-.22.2-.15.13-.21.38-.15.57.04.12.08.24.12.35.07.22.25.45.49.49.13.02.25.05.38.07.24.05.55.02.71-.19,1.64-2.05,1-5.59,1.71-8.11,1.26-4.48,3.69-8.41,6.75-11.88.25-.29-.14-.69-.43-.43Z"/>
</svg>