<?xml version="1.0" encoding="UTF-8"?>
<svg xmlns="http://www.w3.org/2000/svg" version="1.1" viewBox="0 0 500 500">
  <defs>
    <style>
      .cls-1 {
        fill: #333;
      }

      .cls-1, .cls-2 {
        stroke-width: 0px;
      }

      .cls-2 {
        fill: #fff;
      }
    </style>
  </defs>
  <g id="BACKGROUND">
    <rect class="cls-2" width="500" height="500"/>
  </g>
  <g id="OBJECTS">
    <g>
      <g>
        <path class="cls-1" d="M294.5,197.8c.7-6.6-3-14-10.4-14.6-6.9-.6-9,7.9-7.3,13.2.1.3.7.3.6,0-.5-5.6,1.3-14,8.9-11.3,5.2,1.9,7.4,7.7,8.1,12.7,0,0,0,0,0,0h0Z"/>
        <path class="cls-1" d="M287.3,172.6c-4.9.1-11.8,3-14.2,7.7-.1.2.1.6.4.4,2.2-1.5,3.8-3.5,6.3-4.5,2.5-1,5-1.3,7.7-1.8,1-.2.8-1.8-.2-1.8h0Z"/>
        <path class="cls-1" d="M293.5,201.7c-2.6,1.2-4.6,2.6-7.7,2.1-3.2-.5-5.2-2.2-7.3-4.4-.1-.1-.3,0-.3.2,1.2,5.6,12.5,7.1,15.3,2.1,0,0,0,0,0,0h0Z"/>
        <path class="cls-1" d="M283.8,191.6c1.9-.5,3.1,2.8,2.7,4.2-.9,2.8-4.4.6-4-1.6.1-.6.6-2.3,1.4-2.2.7,0,1.5,1.5,1.6,2.1.3,1.8-1.7,1-1.6-.4,0-.4.1-.7.3-1-.1.1-.2.3-.4.4,0,.2.7,1.8.4,1.8.3,0,.6,0,.9.1.3.1-.6-1.5-.5-1.6-.5-.1-1-.3-1.5-.4.5.7.5,1.3.7,2.1.2,1,1.7.9,2,0,.3-1.1,0-2.3-.7-3.2-.3-.5-1-.8-1.5-.4-.9.6-1.1,1.4-.9,2.4.2.9.4,2.4,1.2,2.9.7.5,1.7.2,2.2-.4.8-.9.6-2.5.3-3.6-.7-2.1-3-3.3-4.2-.9-1.1,2.1,0,5,2.4,5.5,2.5.5,3.7-2.4,3.1-4.4-.6-1.9-3-4.4-5.1-3.2-1.8,1.1-2.8,4.3-2,6.2.9,2,3.5,3.9,5.8,2.8,2.6-1.3,2.9-4.8,1.4-7.1-.6-.9-1.6-1.8-2.7-2.1-.9-.2-1.8.2-1.7,1.2,0,.3.3.5.6.4h0Z"/>
        <path class="cls-1" d="M313.7,197c.2-4.6,1.4-10.8,5.7-13.3,6.7-3.9,8.3,6,8.4,10.4,0,.3.5.4.6,0,1-4.6-.8-13.9-7.3-12.6-6.8,1.4-8.6,9.7-7.5,15.4,0,0,0,0,0,0h0Z"/>
        <path class="cls-1" d="M316.3,173.6c2.5.2,4.8.2,7.1,1,2.2.8,3.7,2.5,5.6,3.7.3.2.5-.2.4-.4-2.2-4.2-8.7-6.6-13.2-6.2-1.2.1-1.2,1.8,0,1.8h0Z"/>
        <path class="cls-1" d="M314.9,200.7c2.5,4.9,12.8,1.9,12.7-3.4,0-.2-.2-.2-.3,0-1.6,2.1-2.9,4.2-5.7,5-2.6.7-4.4-.6-6.6-1.5,0,0,0,0,0,0h0Z"/>
        <path class="cls-1" d="M319.9,189.3c0-.1,0-.2,0-.3,0-.4-.3-.6-.6-.7-2-.7-3.5,2.1-3.8,3.7-.4,2,.2,4.5,2.2,5.4,2.1,1,4-.9,4.7-2.7.9-2,0-4.8-1.6-6.2-1.9-1.6-3.8.6-4.4,2.3-.7,1.8-.4,4.9,2,5.2,2,.2,3.4-2.4,3.2-4.1-.2-1.6-1.8-4.3-3.5-2.4-1.1,1.3-1.8,6,.9,6,2.2,0,2.3-4.4,1.1-5.5-.5-.4-1.4-.5-1.8.2-.5,1.1-.8,2.1-.4,3.3.4,1.1,1.9.9,2-.3,0-.7,0-1.3.3-1.9-.6,0-1.2.2-1.8.2.3.2,0,1.7-.1,2,.2-.2.4-.3.7-.5-.1,0-.2,0-.3.1.3,0,.6,0,.9.1-.3-.2-.1-1.1,0-1.4,0-.3.1-.6.3-.9-.3,0-.6,0-.8-.1.2.2.3.5.4.7.2.4.2.8,0,1.2,0,.1-.4.7-.5.7-1.1,0-.2-2.4,0-2.7.9-1.1,1.4.5,1.6,1.3.2,1,0,1.9-.7,2.7-.9,1-1.8.3-2.1-.8-.4-1.3,0-4.3,1.8-4.3.3,0,.4-.2.4-.4h0Z"/>
      </g>
      <g>
        <path class="cls-1" d="M337.1,222.3c-3-1.2-5.5-5.8-6.7-6.1-1.1-.3-2.2,1.1-1.2,2.7,1,1.6,7.8,3.4,7.8,3.4Z"/>
        <path class="cls-1" d="M343.1,222.4c2-.8,2.9-5.8,4.3-5.7,1.4.2,1.2,2.7.6,3.2-.6.4-3.8,2.3-3.8,2.3l-1,.4-.2-.2Z"/>
      </g>
      <g>
        <path class="cls-1" d="M326.6,212.5c4.2-1.6,8.3-2.6,12.8-2.2,2.7.3,6.7,1,8.5,3.2,1.9,2.1,2.3,3.9,1.2,5.3,0,0,0,0,0,.1,1.7,8.1-1.6,16.5-10.9,16.7-.5,0-.5.8,0,.8,5,0,8.1-1.8,10.6-6.2,1.3-2.4,2.1-4.8,1.8-7.5,0-.7-.6-1.8-.6-2.5,0-2.3.6-.7.8-2.5.3-3.6-3.1-6.1-6.2-7.2-5.3-1.9-13.6-2.1-18,1.9,0,0,0,.1,0,0h0Z"/>
        <path class="cls-1" d="M340.9,222.6c-.2,4.8-1.1,9-3.3,13.3-.2.4.4.7.6.3,2.3-3.8,4-9.2,3.1-13.7,0-.3-.4-.2-.4,0h0Z"/>
        <path class="cls-1" d="M337.9,236c-5.9,2.2-12.6,1.9-18.2-1.2-4.3-2.4-7.9-5.9-12-8.6-.3-.2-.6.2-.3.4,4.4,3.9,9.5,8.3,15.1,10.4,4.5,1.7,11.6,2.3,15.5-.9,0,0,0-.2,0-.1h0Z"/>
        <path class="cls-1" d="M308.4,224.5c-1.1.6-1.9,1.7-2.5,2.8-.4.9-.9,2.1-.4,3.1,0,0,.1,0,.2,0,.5-.8.5-2,.9-2.9.5-1.1,1.3-1.8,2-2.7.1-.2,0-.4-.2-.3h0Z"/>
        <path class="cls-1" d="M250.6,217.7c.9,6.2,5.4,11.7,9.1,16.6,3.1,4.1,6.8,7,11.3,9.5.3.2.6,0,.6-.4,0-2,1.6-.5,2.9,0,2.1.8,4.3,1.3,6.6,1.7,4.2.7,8.3.9,12.5,1,5.3.2,10.5.7,15.7,1.9,3.2.8,6.4,1.7,9.7,2.1,13,1.5,23.3-5.5,28-17.5.2-.5-.6-.7-.7-.2-5.1,12.3-15.9,18.7-29,16.4-7.4-1.3-14.2-3.5-21.8-3.8-8.1-.3-16.8,0-24.1-4.2-.3-.2-.6,0-.6.4,0,2.7-5-2-6-2.8-1.7-1.5-3.2-3.3-4.6-5.1-3.5-4.7-8-9.9-9-15.8,0-.3-.5-.2-.5.1h0Z"/>
        <path class="cls-1" d="M318.9,206.8c4.1,2.1,10.7,3.4,15.3,2.7.2,0,.2-.3,0-.4-2.4-.8-5.1-.7-7.6-1.1-2.6-.4-5-1.2-7.5-1.8-.3,0-.5.3-.2.5h0Z"/>
        <path class="cls-1" d="M314.3,154c9.2,4.5,14.4,13.7,16.5,23.6,1.2,5.7.7,11.6,1.2,17.4.4,4.9,1.2,9.8,2.5,14.5.1.4.7.2.6-.2-1.3-6.9-2.4-13.7-2.6-20.7-.2-5.9-.5-11.1-2.6-16.7-2.9-7.8-7-15.6-15.3-18.5-.4-.1-.7.5-.3.7h0Z"/>
        <path class="cls-1" d="M263.8,162c-3.4-4.4-7.9-6.7-13-8.6-7.1-2.7-14.3-5.3-21-9.1-.1,0-.3,0-.4.1-3,6.6.5,16,3.4,22.1,3.7,7.7,9.6,13.8,17,17.9.5.3.9-.5.4-.7-6-3.3-11-8-14.6-13.9-1.9-3.1-3.4-6.5-4.5-10-.9-3-2.7-7.8-2.1-10.8.7-1.1,1.3-2.2,2-3.3.8.4,1.6.8,2.4,1.2,1.3.7,2.7,1.3,4,1.9,2.7,1.2,5.5,2.3,8.3,3.3,6.8,2.6,12.9,4.8,17.9,10.2.1.2.4,0,.2-.2h0Z"/>
        <path class="cls-1" d="M231.1,148.2c5.1,6,12.6,8.5,18.9,13,1.8,1.3,5.5,4,6.3,6.2.4,1.1-.3,2.4-.4,2.8-.3,1.7-1.1,3.8-1.8,5.5,0,.1.2.3.2.1,1.1-1.4,1-2.5,1.7-3.9.4-.8,1.5-1.1,1.7-1.6.7-1.7-.6-3.1-1.7-4.5-6.3-8.1-17.3-11-24.8-17.8-.2-.1-.4,0-.2.2h0Z"/>
        <path class="cls-1" d="M349.7,217.7c-6.5,8.6-18.5,3.4-24.5-2.9-.2-.2-.7,0-.5.3,3.2,4.3,9.3,7.7,14.7,8.1,3.8.3,8.9-1.8,10.3-5.6,0,0,0,0,0,0h0Z"/>
        <path class="cls-1" d="M274.5,154.8c-2.8-1.5-6.6-3.3-8.5-5.9-3-3.9.4-4.4,2.9-6.6,3.1-2.6,4.8-6.3,5.1-10.3,0-.4-.5-.6-.8-.3-2.2,2.1-4.6,4-7.3,5.5-5.9,3.2-10.4,1-14-4.1-3.8-5.4-6.8-11.7-6.6-18.5.2-6.1,2-11.4,1.1-17.6-.4-2.7-.7-7.9-3.3-9.6-.2,0-.4,0-.6,0-4.8,6.2-1.1,17-7.5,21.6-2.6,1.8-2.6,1.5-5.1.3-1.2-.6-2.3-1.3-3.3-2.1-2.2-1.6-4-3.6-5.9-5.6-3.6-4-7.2-8.1-10.7-12.1-.3-.3-.8-.1-.9.2-2.2,8.3,3.9,17.4,9.5,23.1,7.9,8,19.6,10.6,25.9,20.1,5.5,8.2,9.8,16,17.9,22.1,2.5,1.9,13.4,9.3,12.2.2,0-.6-1-.6-1,0,.8,7.4-8,.9-8.8.3-2.4-1.7-4.6-3.5-6.6-5.5-3.8-3.7-6.9-7.9-9.6-12.4-1.9-3.1-3.6-6.3-6-9.1-3.1-3.6-7-5.3-11.1-7.5-8.9-4.8-17.2-12.2-20.7-22-.5-1.3-2.6-7.4-.4-7.5.8,0,4.7,5.4,5.4,6.1,3.2,3.6,6.2,7.5,10,10.4,3.6,2.8,9.1,6.1,11.8.8,2.1-4.1,1.9-8.9,2.7-13.3.2-1.3.9-5.9,2.1-6.5,1.8-.8,3,9,3.1,9.6.5,4.8-.7,9.3-1.2,14.1-.5,4.5.3,8.7,2.1,12.8,2.2,5.1,6.6,14.1,13.3,14.3,3.8.1,7.5-2.5,10.4-4.6.3-.2,2.3-2,2.4-2,.8.3-1.5,4.7-1.7,5.2-1.9,3.1-5,3.6-7.4,5.7-4.3,3.8,7.8,9.8,10.4,11.1.4.2.7-.4.3-.6h0Z"/>
        <path class="cls-1" d="M308.4,152.5c4.8-5.3,6.7-11.1,9.2-17.5,2.7-6.9,5.3-13.4,5.4-21,0-10.8-8.2-18.1-10-28.5-.1-.8-1.5-6.2.2-6.1,1.6.1,4.1,4.7,4.9,6,2.2,3.7,4,8.4,7.5,11,5.7,4.2,10.6-5.9,12.3-9.9,1.8-4.3,3.3-8.9,4.9-13.3.3-.8.8-3.2,1.6-3.6,1.4-.7,1.9,5.4,1.9,5.8.3,3.1,0,6.3-.6,9.3-1.1,5.4-3.5,10.6-6.6,15.2-3,4.5-7.2,8.1-9.8,12.8-2.2,4-2.9,8.5-3.6,12.9-.5,2.9-1.5,4.9.9,6.9.8.7,9.9,2.9,10,2.6-.2,1.2-8.3,2.9-9.5,3.3-1.7.6-3.9,1-5.3,2.3-1.4,1.3-10.3,21.4-13,11.7-.2-.6-1.1-.4-.9.3.7,2.8,3.5,4.3,6,2.5,2-1.4,3.4-4.2,4.7-6.2,1.5-2.4,2.5-6.3,4.6-8,1.5-1.2,16.1-3.9,14.8-6.6-.3-.6-1.4-.4-1.9-.5-1.6-.4-3.4-.1-4.9-.7-4.2-1.6-4.9-4.2-4.3-8.1.7-4.3,1.4-8.8,3.7-12.6,2-3.2,4.8-5.8,7.1-8.8,6.8-8.8,14.6-25.5,7-36-.3-.4-.8-.3-.9.1-1.9,5.3-8.9,33.7-18.5,26.9-5.7-4-6-13.1-12.4-16.9-.2-.1-.5,0-.6.2-2.4,3.4.9,12.3,2.3,15.6,1.7,4.1,4.8,7.6,6.4,11.8,1.8,4.8,1.6,10,.8,14.9-.9,5.2-3,10-4.9,14.9-2.3,6.1-4.2,11.6-8.6,16.8-.3.3.2.8.5.5h0Z"/>
        <path class="cls-1" d="M265.9,156.4c-.3.3-.9.5-1.3.7-.4.3-.7.5-1,.8-.7.7-1.4,1.4-1.9,2.2-.2.4.3.8.6.5.7-.9,1.4-1.7,2.3-2.5.4-.4.9-.7,1.3-1.1.2-.2.4-.3.4-.5,0-.2-.2-.3-.4-.2h0Z"/>
        <path class="cls-1" d="M270.9,153.4c4.6-3.2,9.1-4.1,14.4-5.7,3.4-1,9.6-6.5,7.4,1.1-.1.4.2.6.6.6,4.9-1.1,10.8.7,15.3,2.5.5.2.8-.7.2-.9-4-1.6-8.3-2.7-12.6-2.8-.4,0-1.7.2-2,0-1.1-.6.3.4-.2-.6-.5-1.1-.1-3.2-.7-4.5-.1-.3-.5-.5-.8-.2-6.1,5.9-15.8,3.9-21.9,10.2-.1.1,0,.4.2.3h0Z"/>
        <path class="cls-1" d="M319.2,155.6c3.5-4.6,8.1-7.3,13.2-9.7,2.2-1,4.4-2,6.5-3.2.8-.5,1.8-1.4,2.7-1.7.4-.3.9-.6,1.3-1,.7,1,1,2.1,1,3.3,1.6,10.9-6.1,23-13.5,30.2-.4.4.2,1,.6.6,5.1-5,9.1-10.9,11.5-17.6,1.6-4.4,4.6-13.4.9-17.5-.1-.2-.4-.2-.5,0-2,.9-3.9,2.6-5.9,3.7-2.6,1.4-5.3,2.5-7.9,3.9-4.2,2.2-7.9,4.7-10.4,8.8-.2.3.3.6.5.3h0Z"/>
        <path class="cls-1" d="M341,143.9c-6.5,3.4-15.1,9.8-16.9,17.4,0,.4.5.6.6.3,1.7-3.8,3.8-7,6.9-9.8,3-2.7,6.7-4.7,9.5-7.7,0,0,0-.2-.1-.1h0Z"/>
        <path class="cls-1" d="M153.2,250.4c-16.3,9.6-28.8,25.6-48.4,28.6-.4,0-.4.6-.1.8,2.8,2.1,5.8,4.1,9.2,5.3,1.3.4,2.6.8,3.9.8,1.6.1,5.1-1.3,2.1,1.9-.2.2-.2.6,0,.7,2.7,1.3,6-.5,8.6-1.4,3.2-1.1,6-2.7,8.6-4.8.4-.3-.1-1-.5-.7-3,2.2-6,3.8-9.5,4.9-.9.3-5.1,2.1-5.7.9.2.3,1.4-2.6,1.3-2.5.1-.4-.3-.7-.6-.6-4.7,1.2-9-.2-13.1-2.7-3.7-2.2-2.5-2,1-3,5.1-1.4,9.9-3.7,14.4-6.5,10.2-6.3,19.4-14.2,29.1-21.3.4-.3,0-.9-.4-.6h0Z"/>
        <path class="cls-1" d="M296.5,245.3c-3.1,6.8-5.6,14.4-3.3,21.9.9,2.9,2.5,5.3,1.7,8.5,0,.4-.9.5-.9.9-.3,2.6,1,5.1,2.2,7.3,1,1.8,2.1,3.6,2.9,5.5.6,1.5,1.1,2.3.5,3.9-1.6,4.2,0-.1-1.5,1.1-.4.3-.8,0-1.3.7-.8,1.1-.2,5.7-.3,7.1-.2,2.8.6,15.6-5.1,13.2-.3-.1-.7,0-.7.4-.2,3.5-4.4,6.7-6.9,8.8-2.9,2.5-6.2,4.4-9.6,6.2-7.3,3.7-14.8,7.3-22.8,9.1-.6.1-.3,1,.2.9,13.4-3.1,27.5-10,37.3-19.6,1.1-1.1,1.7-3.2,2.6-4.1.8-.7,2-.2,3-.8,3.8-2,2.4-8,2.6-11.5.2-2.2-.2-6,.6-8,.9-2.4.2,0,2.2-.8,2.9-1.1.4-6.1-.5-8.1-.8-1.7-1.9-3.2-2.7-4.9-1.5-3.1-1.5-3.3-.4-6.9.5-1.7.9-.8.7-2.8-.2-1.7-2.1-4-2.6-5.5-.7-2-1.1-4.2-1.1-6.4-.1-5.5,1.7-10.7,3.9-15.8.1-.3-.4-.7-.5-.3h0Z"/>
        <path class="cls-1" d="M225.6,253.7c3.2,5.1,1.2,11.6,3.2,17.1,1.1,3.3,3.5,7.7,7,8.9,2.3.8,3.8-.9,5.3.7,1.3,1.4,2.3,3.6,3.6,5.2,1.9,2.3,4.1,4.3,5.7,6.8.9,1.4,2.4,6.1,4.5,6.3.9.1,1.1-.2,1.7-.7,0,0,1-1.8,1.1-1.8.3,0,1.9,3.7,2,3.8,2.4,5,4.7,10.1,7.2,15.1,2.7,5.5,1.4,11-2.1,15.8-.4.5.5,1,.8.5,3.5-4.7,4.9-10.3,2.6-15.8-2.9-6.9-6.4-14.2-10.1-20.7-.2-.3-.7-.3-.9,0-2.6,5-5.7-2.7-7.3-4.8-3.1-4-7-7.1-8.8-12-.1-.3-.5-.5-.8-.2-1.8.2-3.5.3-5.3.5-.6-.5-1.2-1-1.9-1.6-1.4-1.4-2.3-3.1-3.1-4.8-1.3-2.8-1.7-5.6-1.8-8.7-.2-3.6-.2-6.7-2.4-9.8-.2-.2-.6,0-.4.2h0Z"/>
        <path class="cls-1" d="M174,336c-4,9.7-6.4,19.9-1.1,29.4,4,7.2,4.6,15.9,4.8,24,0,2.5-.5,6.2,1.5,8.2.5.5,1.1.7,1.7,1,3.1,2,3.5,4.4,3.7,8,0,.6,1,.6.9,0-.1-2.3-.3-5.9-2-7.7-.2-.3-.6-.4-.8-.7-1.1-1-3.1-1.5-3.8-3.1-.5-1.1-.2-2.9-.2-4.1-.2-8.1-.4-17.3-4.1-24.7-1.2-2.4-2.7-4.5-3.3-7.2-1.8-7.7.7-15.8,3.7-22.9.2-.6-.7-.8-.9-.3h0Z"/>
        <path class="cls-1" d="M198.8,343.3c-5.8,8.3-4.5,17.7-2.6,27.2,2.2,11.1,5.9,21.9,8.5,32.9.2.7,1.2.4,1-.3-2.3-9.7-5.4-19.2-7.6-28.9-1.2-5-2-10.1-2.4-15.2-.3-3.1-.2-6.2.7-9.1.7-2.2,2.1-4.2,2.8-6.4,0-.2-.2-.3-.3-.1h0Z"/>
        <path class="cls-1" d="M169,409.1c3.6,4,9.1,7.9,10.9,13.1,1.1,3,.7,3.6-2.8,4-1.1.1-2.2.2-3.3.2-2.8.1-5.7,0-8.5,0-5.7-.2-18.5-1.1-17.4-9.5,1-8,15.3-7.7,21.1-7.5.5,0,.5-.8,0-.8-3.7-.3-7.4,0-11.1.7-2.6.5-6.9.7-9,2.2-2.9,2-2.8,8.1-.8,10.9,2.5,3.5,9,4.3,12.8,4.7,6.8.8,14.3.9,21-.9.2,0,.4-.3.3-.6-2.5-6.7-7.4-12.6-13.2-16.8-.2-.1-.4.2-.3.3h0Z"/>
        <path class="cls-1" d="M169.2,417.2c1.4,1.6,2.7,3,3.9,4.8,1.1,1.7,2,3.5,3.3,5,.3.3.7,0,.6-.4-1-2.2-2.5-4.3-3.9-6.3-1-1.3-2-2.7-3.6-3.3-.2,0-.3.2-.2.3h0Z"/>
        <path class="cls-1" d="M251.1,413.7c3.6,4,9.1,7.9,10.9,13.1,1.1,3,.7,3.6-2.8,4-1.1.1-2.2.2-3.3.2-2.8.1-5.7,0-8.5,0-5.7-.2-18.5-1.1-17.4-9.5,1-8,15.3-7.7,21.1-7.5.5,0,.5-.8,0-.8-3.7-.3-7.4,0-11.1.7-2.6.5-6.9.7-9,2.2-2.9,2-2.8,8.1-.8,10.9,2.5,3.5,9,4.3,12.8,4.7,6.8.8,14.3.9,21-.9.2,0,.4-.3.3-.6-2.5-6.7-7.4-12.6-13.2-16.8-.2-.1-.4.2-.3.3h0Z"/>
        <path class="cls-1" d="M251.4,421.8c1.4,1.6,2.7,3,3.9,4.8,1.1,1.7,2,3.5,3.3,5,.3.3.7,0,.6-.4-1-2.2-2.5-4.3-3.9-6.3-1-1.3-2-2.7-3.6-3.3-.2,0-.3.2-.2.3h0Z"/>
        <path class="cls-1" d="M298,404.6c2.7,4.9,7.4,10.2,7.9,16,.4,4.5-5.3,2.4-8.4,1.7-3-.6-5.9-1.3-8.8-2.2-3-.9-5.9-2-8.5-3.7-4.3-2.7-6.9-8.5-2.1-11.9,4.8-3.4,14.6-1,20,.4.5.1.7-.6.2-.8-3.3-1-6.6-1.5-10-1.8-2.7-.2-7.6-.9-10.2,0-3.3,1.2-4.3,6.6-3.5,9.9,1,3.9,6.7,6.1,10.1,7.5,6.8,2.7,14.8,4.6,22.2,4.4.2,0,.5-.2.5-.5-.9-7.1-4.3-14-9.1-19.4-.2-.2-.4,0-.3.3h0Z"/>
        <path class="cls-1" d="M296.4,412.4c1,1.8,2,3.5,2.7,5.4.7,1.9,1.2,3.8,2.1,5.6.2.4.7.1.6-.3-.6-2.4-1.5-4.9-2.5-7.2-.6-1.5-1.3-2.9-2.7-3.8-.2-.1-.3,0-.2.2h0Z"/>
        <path class="cls-1" d="M205,403.4c3.6,4,9.1,7.9,10.9,13.1,1.1,3,.7,3.6-2.8,4-1.1.1-2.2.2-3.3.2-2.8.1-5.7,0-8.5,0-5.7-.2-18.5-1.1-17.4-9.5,1-8,15.3-7.7,21.1-7.5.5,0,.5-.8,0-.8-3.7-.3-7.4,0-11.1.7-2.6.5-6.9.7-9,2.2-2.9,2-2.8,8.1-.8,10.9,2.5,3.5,9,4.3,12.8,4.7,6.8.8,14.3.9,21-.9.2,0,.4-.3.3-.6-2.5-6.7-7.4-12.6-13.2-16.8-.2-.1-.4.2-.3.3h0Z"/>
        <path class="cls-1" d="M205.3,411.4c1.4,1.6,2.7,3,3.9,4.8,1.1,1.7,2,3.5,3.3,5,.3.3.7,0,.6-.4-1-2.2-2.5-4.3-3.9-6.3-1-1.3-2-2.7-3.6-3.3-.2,0-.3.2-.2.3h0Z"/>
        <path class="cls-1" d="M247.8,182.8c-1.5,7.1-1.3,14.6-1.9,21.8-.4,5.5-1,11-2,16.4-.4,2.3-.9,4.6-1.5,6.9-1.4,5.5-2.3,10-9.6,10.6-5.9.4-12-1.4-17.7-2.3-4.8-.7-9.6-1-14.4-1-9.5,0-19.9.5-29,3.6-16.1,5.5-28.2,19.3-33.4,35.4-3.2,10-3.8,20.7-2.5,31,.6,4.8,1.9,9.4,2.7,14.1,1.2,7.6-.6,13.6-3.5,20.5-1.6,3.9-3.4,7.9-3.6,12.1-.3,5.8,2.6,11,4.7,16.1,2.4,5.9,4.6,12,6.5,18.1,1,3.2,2.1,6.4,1.9,9.8-.2,3.1-1.1,6-1,9.2,0,.3.2.4.4.5,2.9,1.2,4.3,4,4.8,6.7.1.7,1.1.4,1-.3-.6-3.5-2.6-4.5-4.4-7.1-2-2.8.8-10.1,0-13.9-2.5-11.4-8.7-21.6-11.9-32.7-3.3-11.8,6.2-20.8,6.8-32.1.2-4.9-1-9.6-2-14.3-1.3-6.2-2-12.5-1.8-18.9.6-22.8,13.3-45.5,35.7-53.2,10.2-3.5,22.2-3.8,32.9-3.4,6.1.2,12,1.3,18,2.2,4.3.7,9.8,1.9,14.1.5,4-1.3,5-5.6,6.1-9.2,1.6-5.6,2.6-11.4,3.2-17.2,1.1-9.8.4-20,2.3-29.7,0-.4-.6-.6-.7-.2h0Z"/>
        <path class="cls-1" d="M178.6,300.8c-1.4,9.8-2.9,19.3-6.4,28.6-1.8,5-4.1,9.8-6.7,14.4-1.9,3.4-4.2,6.8-5.1,10.6-1.7,7.4,1.6,16.6,2.9,23.9,1.7,10.2,3.3,20.5,5.3,30.7.1.7,1.1.4,1-.3-1.7-9.6-3.3-19.3-4.9-28.9-1.6-9.5-5.8-20.9-1.3-30,3.8-7.6,8-14.6,10.8-22.7,2.8-8.4,4.9-17.5,4.8-26.3,0-.2-.4-.3-.4,0h0Z"/>
        <path class="cls-1" d="M251.2,311.4c2.5,18.1-3.2,36.1-1.2,54.1.5,4.4,1.1,8.1.4,12.6-.5,3.3-1,6.6-1.1,10-.3,8.5.6,17,1.4,25.5,0,.7,1.2.7,1.1,0-.7-8.5-1.6-17-1.2-25.5.2-4.4,1.2-8.7,1.6-13.1.3-3.8-.7-7.5-1-11.3-1.5-17.5,4.4-35.1.8-52.5,0-.5-.7-.2-.7.2h0Z"/>
        <path class="cls-1" d="M285.2,323.6c4.2,5.9,8.7,11.6,13.1,17.3,2.7,3.5,6,6.9,8.1,10.7,3.4,6.1,2,11.3-1.1,17.2-3.2,5.9-8.2,11.4-9.2,18.2-.9,5.7-.3,12,1.5,17.6.2.7,1.4.4,1.2-.3-2.2-7-3-15.9.4-22.6,3.5-7,9.6-13.4,10.5-21.5.9-7.4-4.9-12.8-9.1-18.2-4.9-6.3-9.7-12.6-14.9-18.7-.2-.2-.6,0-.4.3h0Z"/>
        <path class="cls-1" d="M258.2,338.3c3.8,5.5,8.1,10.7,12.8,15.5,2.4,2.4,4.8,4.7,7.3,6.9,1,.9,2.7,1.8,3.4,3,1.9,3.1-1.2,7.3-2.6,9.9-3.1,5.4-6.5,11.1-6.9,17.5-.1,2.2,0,3.4,1.3,5,1.2,1.4,1.4-.3,2.8,2.3.7,1.4.9,3.7,1.3,5.2.2.7,1.2.4,1.1-.3-.5-2.4-.7-5.3-2.2-7.3-1.1-1.5-.8.1-2.2-2-1.5-2.3-.8-4.7,0-7.3,1.2-4.5,3.7-8.5,6-12.5,1.3-2.2,3.2-4.9,3.7-7.5.4-2.2-.6-3.2-2.1-4.6-2.9-2.8-6.1-5.3-9-8.2-5.1-5-9.4-10.7-14-16.1-.3-.3-.8.1-.6.5h0Z"/>
        <path class="cls-1" d="M170.6,334.4c13.3,9,33.5,12.2,49.1,9.9.7-.1.4-1.2-.3-1.1-8.6,1.2-17.7.4-26.2-1.3-8-1.6-14.8-5.5-22.5-7.8-.2,0-.3.2-.1.3h0Z"/>
        <path class="cls-1" d="M218.7,314.7c1.6,10,0,19.8.3,29.7.2,8.4,2.8,16,5.6,23.9,3,8.7,5.4,17.7,5.9,27,.1,1.8.1,3.5,0,5.3-.2,2.8-1.4,5.3-1.7,8-.3,2.6,2.4,5.2,1.7,7.6-.2.7.9,1,1.1.3.4-1.2.4-1,0-2.3-.7-3.2-1.9-1.5-1.4-6.5.5-4.3,1.6-7.9,1.3-12.4-.5-8.4-2.4-16.9-5.1-24.8-3.1-9.3-6.4-18-6.4-27.9,0-9.4,1.6-18.8-.8-28,0-.3-.6-.2-.5.1h0Z"/>
      </g>
      <g>
        <path class="cls-1" d="M217.7,334.3c-16,0-31.5-4-42.9-11.2l.3-.4c11.7,7.4,28,11.5,44.7,11.1v.5c-.7,0-1.4,0-2.1,0Z"/>
        <path class="cls-1" d="M252.6,327.6l-.2-.5c5.6-2.2,11.1-5,16.3-8.2l.3.4c-5.2,3.3-10.7,6.1-16.3,8.3Z"/>
      </g>
      <g>
        <path class="cls-1" d="M246.2,321.3c-.2,1-.2,2.6,1,3,.2,0,.4,0,.5-.3,0-.4,0-.8-.2-1.2-.1-.5-.1-.9,0-1.4,0-.7-1.1-.8-1.2-.2h0Z"/>
        <path class="cls-1" d="M242.5,328.4s-.1.1-.1.1c0,0,0,.2,0,.3,0,.2,0,.4,0,.5,0,.1.2.3.3.3,0,0,0,0,0,0,0,0-.1,0-.2,0,0,0,0,0,0,0,0,0,.2,0,.3,0,0,0,0,0,0,0,0,0-.1,0-.2,0,0,0,0,0,0,0,.1,0,.3-.2.3-.3,0-.2,0-.4,0-.5,0,0,0-.2,0-.3,0,0-.2-.2-.2-.2,0-.2-.4-.2-.4,0h0Z"/>
        <path class="cls-1" d="M246.5,329.4c-.1.6-.2,1.2,0,1.7,0,.2.4.2.4,0,.3-.5.2-1.1,0-1.7,0-.3-.5-.3-.6,0h0Z"/>
        <path class="cls-1" d="M244.5,339.2c-.2.5-.2,1-.2,1.6,0,.5,0,1,.2,1.4.1.2.3.2.5,0,.3-.4.2-.9.2-1.4,0-.5,0-1-.2-1.6,0-.3-.4-.3-.5,0h0Z"/>
        <path class="cls-1" d="M302.4,362c0,.7-.1,1.5-.1,2.2,0,.2.3.3.4.2.3-.4.5-.7.5-1.1,0-.5,0-.9,0-1.4-.1-.4-.7-.3-.7.1h0Z"/>
        <path class="cls-1" d="M298.6,371.1c-.4.3-.7.8-1,1.2-.1.2-.3.4-.4.7-.1.3-.1.5-.2.7,0,.2.2.4.4.3.2-.2.4-.2.6-.4.2-.2.3-.4.5-.7.3-.5.6-.9.8-1.5.1-.4-.3-.6-.6-.3h0Z"/>
        <path class="cls-1" d="M139.2,352.9s0,0,0,0c-.2,0-.4.1-.4.3-.3.8-.1,2.1.7,2.6.2,0,.4,0,.4-.2,0-.4-.2-.7-.3-1-.1-.4,0-.8,0-1.2,0-.1,0-.3-.2-.4,0,0,0,0,0,0,0,0,0,.2.1.2,0,0,0,0,0-.1,0-.2-.2-.3-.4-.2h0Z"/>
        <path class="cls-1" d="M142,345.1c-.4.2-.7.5-.8.9-.2.4-.3.9,0,1.2.2.2.4.1.6,0,.1-.2.1-.5.2-.7,0-.2.2-.4.5-.5.6-.3,0-1.1-.5-.8h0Z"/>
        <path class="cls-1" d="M144.1,354.9c-.2.4-.3.8-.1,1.2.1.3.4.8.8.7.2,0,.3-.1.2-.3,0-.2-.2-.4-.3-.7,0-.2-.1-.5,0-.7,0-.3-.4-.5-.5-.2h0Z"/>
        <path class="cls-1" d="M156.8,260.2c-1.1.7-2.3,2.2-2.4,3.6,0,.3.4.4.6.2.4-.4.7-1,1-1.5.4-.6.9-1,1.3-1.6.3-.4,0-1-.6-.7h0Z"/>
        <path class="cls-1" d="M151.3,269.7c-.3.1-.5.3-.6.6,0,.2-.2.6,0,.8,0,0,.2.1.4,0,.1,0,.1-.2.2-.3,0-.2.2-.4.4-.5.4-.2,0-.8-.4-.6h0Z"/>
        <path class="cls-1" d="M156.8,268.6c-.2.2-.5.4-.6.6-.2.2-.4.6-.1.9.3.3.6,0,.7-.3.1-.2.3-.4.5-.5.2-.1.3-.4.1-.6-.1-.2-.4-.3-.6-.1h0Z"/>
        <path class="cls-1" d="M168,259.7c-.4.5-.8.9-1.1,1.4-.2.2,0,.5.3.3.5-.4.9-.7,1.4-1.1.4-.3-.2-1-.6-.6h0Z"/>
        <path class="cls-1" d="M171.9,307.8c0,.9,0,1.8-.3,2.7,0,.2.2.4.4.2.8-.8,1-2.1.6-3.1-.1-.3-.7-.1-.7.2h0Z"/>
        <path class="cls-1" d="M289.3,272.1c-.4.5-.4.9-.3,1.5,0,.2.1.5.2.7.2.3.3.4.6.5.1,0,.4,0,.3-.2,0-.2,0-.4,0-.5,0-.2-.2-.5-.2-.7,0-.2,0-.5,0-.7,0-.2,0-.4-.2-.6,0-.2-.3-.2-.4,0h0Z"/>
        <path class="cls-1" d="M290.3,282.5c0,.3,0,.6-.3.8,0,.1,0,.3.1.4.1,0,.3,0,.4-.1.3-.4.3-.8.1-1.2,0-.2-.3,0-.3,0h0Z"/>
        <path class="cls-1" d="M286.1,276.2c0,.6-.2,1.2-.2,1.8,0,.1.2.1.2,0,.1-.6.3-1.1.3-1.7,0-.2-.3-.3-.3,0h0Z"/>
      </g>
    </g>
    <g>
      <path class="cls-1" d="M301.2,377.5c49.1,1,98,4,147,5.7.3,0,.2-.4,0-.4-48.8-4.3-98-5.6-147-6.6-.8,0-.8,1.2,0,1.2h0Z"/>
      <path class="cls-1" d="M251.2,376.8c8.9,0,17.8.1,26.8.3.8,0,.8-1.2,0-1.3-8.9,0-17.8-.2-26.8-.2-.8,0-.8,1.2,0,1.2h0Z"/>
      <path class="cls-1" d="M198.1,377c9.8-.1,19.7-.2,29.5-.2.7,0,.7-1.1,0-1.1-9.8,0-19.7.2-29.5.3-.7,0-.7,1,0,1h0Z"/>
      <path class="cls-1" d="M163.7,377.7c4.5-.1,9-.2,13.5-.3.7,0,.7-1.1,0-1.1-4.5.2-9,.3-13.5.4-.6,0-.6,1,0,.9h0Z"/>
      <path class="cls-1" d="M51.8,382.8c14.7-.3,29.5-1.7,44.3-2.5,14.7-.8,29.5-1.4,44.2-1.9.6,0,.6-1,0-.9-14.7.5-29.5,1.2-44.2,2-14.7.8-29.6,1.2-44.3,3-.2,0-.2.4,0,.4h0Z"/>
    </g>
    <g>
      <g>
        <path class="cls-1" d="M143.8,171.7c-8.2-2.9-14.8-9.1-20.9-15.2-2.9-2.9-5.6-5.9-8.1-9-2-2.5-3.8-5.3-6.4-7.3-.4-.3-.8.3-.5.6,5.9,6.5,10.9,13.5,17.4,19.4,5.1,4.7,11.3,10.5,18.4,11.9.3,0,.4-.4.1-.5h0Z"/>
        <path class="cls-1" d="M115.6,171.4c.4-3,.8-6,1.6-8.9,1.2-4,2.4-7.7,6.9-8.5,6.4-1,12.6-1.1,19-.7.5,0,.5-.8,0-.8-4.9-.5-9.8-.5-14.6,0-2.4.3-6.4.1-8.4,1.5-1.5,1.1-2.3,4.1-2.9,5.9-1.3,3.7-2,7.6-1.9,11.5,0,.2.3.2.4,0h0Z"/>
        <path class="cls-1" d="M128.1,139.9c-3.1,3.2-5.6,6.8-7.3,10.9-1.4,3.3-1.9,3.8-5.5,4.7-3.4.9-6.8,1.7-10.1,2.6-.6.2-.4,1.2.3,1,3.4-.9,6.8-1.7,10.1-2.6,1.6-.4,3.5-.5,4.6-1.8,1.3-1.5,1.7-4.4,2.5-6.2,1.5-3,3.5-5.7,5.7-8.2.2-.2-.1-.5-.3-.3h0Z"/>
        <path class="cls-1" d="M117.5,150.4c.4-5.2,2.9-9.8,7.1-12.9,2.1-1.6,5.3-4.2,7.1-.5,1.6,3.2-.8,7.5-3,9.7-.3.3,0,.9.4.8,5.8-1.8,11.5-.9,17.2,1.1,1.7.6,2.3.5,2.6,2.3.4,2-1.1,3.2-2.6,4.4-2.6,2.1-5.8,3-9,3.8-.5.1-.5.8,0,.9,4.1,1,7.8,3,10.7,6.1,1.6,1.7,2.8,3.6,3.7,5.8,1.3,3,.4,4.2-2.9,5.2-8.8,2.9-18.2-3.4-24.8-8.4-.2-.2-.7,0-.7.3-.8,4.9-5.4,10.7-10.6,11.7-1.5,1.3-2.7.8-3.6-1.4-.5-1.6-.7-3.1-.8-4.8-.1-3.3.6-6.4,1.9-9.4.1-.3,0-.8-.5-.7-4.6,1.5-17.7-.4-11.6-7.2,4.3-4.8,12.5-5.4,18.3-6,.5,0,.5-.9,0-.8-8.3.9-17.1,2.2-21.9,9.9-.1.2,0,.4,0,.6,1.8,2.3,4.1,3.9,6.9,4.8,1.2.4,6.9-.1,7.1.1.6.7-1.2,5.6-1.2,7.1-.1,3.5.7,6.7,2.1,9.9.1.2.4.3.6.2,4.4-2,9.1-4.1,12-8.1.7-.9,1-2.7,1.7-3.4,1.5-1.5,3.9,1.3,5.7,2.4,7.3,4.6,16.2,6.8,24.1,2.4.2-.1.3-.3.2-.5-1.5-6.7-5.8-12.4-12.1-15.2-.5-.2-1.6-.4-2-.8-.8-.7-.7.4.5-.3,1.8-1,3.9-1.2,5.6-2.4,2.6-1.7,4.3-4,5.1-7,0-.3,0-.5-.3-.5-3.7-1.6-7.5-3-11.5-3.5-1.7-.2-3.4-.3-5.1-.2-.4,0-3.3.6-3.4.5,1.1.7,3.1-8.5,1.5-10.7-2-2.8-5.8-.1-8,1.5-4.4,3.3-6.8,8.1-7.1,13.5,0,.4.6.4.6,0h0Z"/>
      </g>
      <g>
        <path class="cls-1" d="M396.5,265.9c12.7-5.8,25.5-17.3,32-29.7.2-.4-.3-.6-.5-.3-4.5,5.9-8.6,11.7-14,16.8-5.4,5-11.5,8.9-17.7,12.8-.3.2,0,.6.3.4h0Z"/>
        <path class="cls-1" d="M422.8,243.8c2.7,4.5,1.3,10-.1,14.8-.6,2-1.3,4-2.3,5.8-.6,1-5.1,7.4-3.8,2.7.2-.6-.7-.9-1-.4-2.5,4.3-6.4,7.1-11,8.7-1.5.5-3,.8-4.4,1.3-.7.2-3.9,2.4-2.9.1.2-.4-.1-.8-.6-.8-2.9.5-5.8,1.1-8.6,2.2-1.1.4-4.9,2.8-5.9,2.1-1.3-1,1-7.1,1.6-8.5,1.4-3.2,3.4-5.8,6.1-8.1.3-.2.1-.7-.2-.8-4-.9-1.1-4,1-6,3-2.8,6.5-4.6,10.4-5.9.5-.2.5-.8,0-1-2.8-.9,2.6-1.9,4-2.4,2.2-.7,4.4-1.2,6.6-1.6,3.8-.8,7.6-1.6,11.3-2.5.5-.1.3-.9-.2-.8-8.1,1.6-17,2.9-24.3,6.7-.4.2-.3.8.1.9,2.1.7-.6.7-1.9,1.3-1.8.9-3.6,1.9-5.1,3.1-2.8,2.2-4.8,5-6.1,8.3-.1.3.2.7.5.7,3.3-.2,1.1,1.2,0,2.6-1.3,1.6-2.3,3.3-3.1,5.1-1.4,3.3-1.8,6.8-1.6,10.4,0,.4.4.7.8.5,3.3-1.9,6.8-3.4,10.5-4.3,2.5-.6,3-1.2,3.1,1.4,0,.4.5.7.8.5,3.7-2.8,8.6-3.1,12.6-5.3,3.2-1.8,5.6-4.2,7.4-7.3-.3-.1-.6-.3-1-.4-.4,1.5-.4,2.4,0,3.9.1.4.6.5.9.2,6.3-6,12.5-19.5,7.1-27.6-.3-.5-1,0-.7.4h0Z"/>
        <path class="cls-1" d="M401.4,270.1c2.1-2.8,3.6-6.3,4.2-9.7,0-.4-.6-.6-.7-.2-.9,3.5-2.1,6.6-3.8,9.7,0,.2.1.3.2.1h0Z"/>
        <path class="cls-1" d="M416.2,262.3c1.5-3.1,1-7.5.1-10.7-.1-.4-.7-.2-.7.2.4,1.9.7,3.7.7,5.6,0,1.7-.3,3.3-.3,4.9,0,0,.1.1.2,0h0Z"/>
        <path class="cls-1" d="M395.9,260.7c1.8-.1,3.7-.4,5.5-.3.6,0,1.2,0,1.8.2.4,0,.8.4,1.2.4.3,0,.4,0,.7-.3.1-.1.1-.3,0-.5-1-.9-3.1-.9-4.3-.8-1.6,0-3.5.2-4.9,1.2,0,0,0,.1,0,.1h0Z"/>
        <path class="cls-1" d="M405.8,252.7c1.9,0,3.7-.4,5.5-.6,1.6-.1,3.4.1,5-.2.3,0,.3-.5,0-.6-3-1.1-7.8-.3-10.5,1.4,0,0,0,0,0,0h0Z"/>
      </g>
    </g>
    <g>
      <path class="cls-1" d="M361.3,377.8c.8-5.1,2.2-9.9,4.8-14.4,1.4-2.5,3.1-5.1,5.8-6.4,2.9-1.3,4.9-.2,7.5,1.2.3.2.4.6.8.8,4.6,2.4,10.8-9.4,13.5-11.7,7.6-6.5,14-.2,15.8,7.5.8,3.3.6,7.7,3,10.4,1.6,1.9,2.7,1.4,4.7,1.1,3-.5,5.1-1.2,7.5,1,1.8,1.5,2.5,3.8,2.8,6,.4,2.7,0,5.4-.2,8.2,0,.5.8.7.9.1.9-4.6,1.4-10.2-1.7-14.1-2.5-3.2-5-3.1-8.6-3-8.3.3-6.6-11.7-9.9-16.7-2.2-3.2-5.5-5.2-9.4-4.5-4.4.8-7.4,4.6-10.1,8-1,1.3-2.5,3.6-3.9,4.7-4.8,3.6-3.7,1.4-6-.2-1.1-.8-2.6-1.1-3.9-1.1-9.4.4-13.4,15.7-14.2,22.9,0,.5.7.6.8.1h0Z"/>
      <path class="cls-1" d="M72.2,381.5c-.2-1.4-.5-3.1-.3-4.5.8-4.9,2.9-5.6,7.9-5.7,1.4,0,2.2.3,3.5-.5,3.3-1.9,3.1-6.1,3.7-9.3.7-4.1,2.7-8.2,6.9-9.5,6-1.9,7.7,5,8.8,9.5,1.4,5.9,2.3,11.8,3.5,17.8.1.6,1.2.5,1.1-.1-1-7.6-1.9-16.7-5.2-23.7-2.3-5-7.7-7.4-11.8-2.9-2.1,2.3-3.7,5-4.3,8-.4,2.2-.2,4.5-1.2,6.5-2,4.1-5.2,2.3-8.3,2.7-5.7.7-5.9,7.6-4.9,11.9,0,.3.6.2.6,0h0Z"/>
      <path class="cls-1" d="M385.3,421.3c-.7-2-1.5-4-2.2-5.9-.4-1.1-1.1-1.7,0-2.2,1.2-.6,2.9.7,3.9,1.4.3.3.8,0,.9-.4,1.4-3.6,4.2-5.8,7.3-8-.3-.2-.6-.5-.9-.7-.7,3-.6,5.8.3,8.8.2.5.8.6,1.1.1,1.6-2.2,3.6-3.4,6.3-3.9-.2-.3-.4-.7-.6-1-2.4,2.9-3.6,6-3.6,9.8,0,.5.7.9,1,.4.2-.3.5-.5.7-.8.3-.4,0-.9-.5-.7-.3.2-.6.3-.9.5.3.2.6.4.9.5,0-3.5,1-6.3,3.2-8.9.4-.5,0-1.1-.6-1-3,.5-5.3,1.9-7.1,4.4h1.1c-.8-2.7-.9-5.1-.3-8,.1-.5-.4-1-.9-.7-2.7,1.9-4.8,4-6.9,6.5-1.1,1.4-.3,1.1-2.3.5-1.3-.4-2.2-.7-3.6-.4-.2,0-.3.2-.4.4-.7,2.5,2.3,7.1,3.2,9.4.2.5.9.3.7-.2h0Z"/>
      <path class="cls-1" d="M103.6,430.3c-.7-2-1.5-4-2.2-5.9-.4-1.1-1.1-1.7,0-2.2,1.2-.6,2.9.7,3.9,1.4.3.3.8,0,.9-.4,1.4-3.6,4.2-5.8,7.3-8-.3-.2-.6-.5-.9-.7-.7,3-.6,5.8.3,8.8.2.5.8.6,1.1.1,1.6-2.2,3.6-3.4,6.3-3.9-.2-.3-.4-.7-.6-1-2.4,2.9-3.6,6-3.6,9.8,0,.5.7.9,1,.4.2-.3.5-.5.7-.8.3-.4,0-.9-.5-.7-.3.2-.6.3-.9.5.3.2.6.4.9.5,0-3.5,1-6.3,3.2-8.9.4-.5,0-1.1-.6-1-3,.5-5.3,1.9-7.1,4.4.4,0,.8,0,1.1.1-.8-2.8-.9-5.3-.3-8.1.1-.5-.4-1-.9-.7-2.7,1.9-4.8,4-6.9,6.5-1.1,1.4-.3,1.1-2.3.5-1.3-.4-2.2-.7-3.6-.4-.2,0-.3.2-.4.4-.7,2.5,2.3,7.1,3.2,9.4.2.5.9.3.7-.2h0Z"/>
      <path class="cls-1" d="M307.2,452.1c-.7-2-1.5-4-2.2-5.9-.4-1.1-1.1-1.7,0-2.2,1.2-.6,2.9.7,3.9,1.4.3.3.8,0,.9-.4,1.4-3.6,4.2-5.8,7.3-8-.3-.2-.6-.5-.9-.7-.7,3-.6,5.8.3,8.8.2.5.8.6,1.1.1,1.6-2.2,3.6-3.4,6.3-3.9-.2-.3-.4-.7-.6-1-2.4,2.9-3.6,6-3.6,9.8,0,.5.7.9,1,.4.2-.3.5-.5.7-.8.3-.4,0-.9-.5-.7-.3.2-.6.3-.9.5.3.2.6.4.9.5,0-3.5,1-6.3,3.2-8.9.4-.5,0-1.1-.6-1-3,.5-5.3,1.9-7.1,4.4h1.1c-.8-2.7-.9-5.1-.3-8,.1-.5-.4-1-.9-.7-2.7,1.9-4.8,4-6.9,6.5-1.1,1.4-.3,1.1-2.3.5-1.3-.4-2.2-.7-3.6-.4-.2,0-.3.2-.4.4-.7,2.5,2.3,7.1,3.2,9.4.2.5.9.3.7-.2h0Z"/>
    </g>
  </g>
</svg>