<?xml version="1.0" encoding="UTF-8"?>
<svg xmlns="http://www.w3.org/2000/svg" version="1.1" viewBox="0 0 500 500">
  <defs>
    <style>
      .cls-1 {
        fill: #000;
      }

      .cls-1, .cls-2 {
        stroke-width: 0px;
      }

      .cls-2 {
        fill: #fff;
      }
    </style>
  </defs>
  <g id="BACKGROUND">
    <rect class="cls-2" width="500" height="500"/>
  </g>
  <g id="OBJECTS">
    <g id="Elephant_Outline" data-name="Elephant Outline">
      <circle class="cls-1" cx="180.5" cy="176.2" r="6.7"/>
      <circle class="cls-1" cx="258.4" cy="176.2" r="6.7"/>
      <path class="cls-1" d="M374,158.7c-.5,0-.9-.4-1-.9,0-.5-3.7-46.6-31.9-61.2-28-14.6-60.7,22.6-61.1,23-.3.4-1,.4-1.4,0-.4-.3-.4-1,0-1.4.3-.4,34.1-38.7,63.4-23.4,29.1,15.2,32.9,62.3,33,62.8,0,.5-.4,1-.9,1,0,0,0,0,0,0Z"/>
      <path class="cls-1" d="M254.5,292.2c-.9,0-1.9,0-2.9-.3h-.3c0,0-4.2-2.3-4.2-2.3-7,1.8-24,4.6-38-5.3-13.7-9.5-16.3-24.9-18.6-38.4-.5-3.2-.9-6.5-1.2-9.9-5.6-.9-11.1-2.1-16.3-3.6-5.6-1.6-11.1-4-17-7.4-7.5-4.3-13.1-9.4-16.6-15.2h-.1c-12.1-7.4-18.7-5.6-28.9-2.9-9.5,2.6-21.4,5.7-42.7,2.9-10.4-1.4-17.2-8.4-19.6-20.3-6.7-32.9,21.3-98.2,49.1-114.5,14.9-8.7,34.1-7.3,55.7,4,14.4,7.6,25.5,17.4,27.8,19.5,17.3-8.9,36.5-9,40.2-9,6.2.1,22.2,1.2,37.3,8.9,2.4-2.2,13.4-11.9,27.7-19.4,21.6-11.4,40.8-12.8,55.7-4,27.8,16.3,55.8,81.5,49.1,114.5-2.4,11.9-9.2,19-19.6,20.3-21.3,2.8-33.1-.4-42.7-2.9-10.1-2.7-16.7-4.5-28.7,2.7-3.6,5.9-9.2,11.1-16.8,15.4-5.9,3.4-11.5,5.8-17,7.4-.4.1-10.9,3-26.8,4.7-.7,1.4-1.3,2.7-1.9,3.9-6.5,12.8-8,21.8-4.4,26.1,4.2,5,14.4,2.6,16.3,2.1,3.1-4.1,7.6-6.2,10.3-4.8,1.1.6,2,1.8,2.4,3.4.8,3,.2,6.7-1.7,10.1.7,1.8,2.9,8.1.1,11.7-1.2,1.6-3.3,2.4-6,2.4ZM252,290.1c3.4.5,5.8,0,7-1.5,2.1-2.7.3-8.2-.5-10.2l-.2-.5.3-.4c1.8-3,2.5-6.4,1.7-9-.3-1.1-.8-1.9-1.5-2.2-1.7-.9-5.4.8-8.1,4.5l-.2.3h-.3c-.5.3-13.1,4-18.6-2.5-4.2-5-2.8-14.5,4.1-28.2.7-1.3,1.3-2.7,2.1-4.4l.2-.5h.5c16.1-1.7,26.6-4.6,27-4.7,5.4-1.5,10.8-3.9,16.6-7.2,7.4-4.2,12.8-9.3,16.2-14.9l1-1.6.3.7c12.2-7.1,19.5-5.1,29.4-2.5,9.4,2.5,21.1,5.6,41.9,2.9,9.6-1.3,15.7-7.6,18-18.8,3.1-15.3-1.3-38.7-11.7-62.7-10.1-23.4-24.2-42.5-36.5-49.8-32.9-19.2-76.4,18.9-81.2,23.3l.5,1.6-2-1c-14.9-7.8-30.9-8.9-37.1-9-3.7,0-22.9,0-40,9.1l-2.2,1.2.7-1.9c-5-4.5-48.4-42.4-81.2-23.2-12.4,7.3-26.4,26.3-36.5,49.8-10.4,24-14.7,47.4-11.7,62.7,2.3,11.2,8.3,17.5,18,18.8,20.9,2.7,32.6-.4,41.9-2.9,9.9-2.7,17.2-4.6,29.4,2.4l.4-1,1,1.8c3.4,5.8,8.9,10.8,16.3,15.1,5.7,3.3,11.2,5.7,16.6,7.2,5.4,1.5,11,2.7,16.8,3.6h.8c0,.1,0,.9,0,.9.2,3.5.6,7,1.2,10.4,2.2,13.2,4.8,28.1,17.8,37.2,13.7,9.6,30.3,6.6,36.8,4.9h.4c0,0,4.8,2.4,4.8,2.4Z"/>
      <path class="cls-1" d="M64.9,158.7s0,0,0,0c-.5,0-.9-.5-.9-1,0-.5,3.8-47.6,33-62.8,29.3-15.3,63.1,23,63.4,23.4.3.4.3,1,0,1.4-.4.3-1,.3-1.4,0-.3-.4-33.1-37.5-61.1-23-28.2,14.7-31.9,60.8-31.9,61.2,0,.5-.5.9-1,.9Z"/>
      <path class="cls-1" d="M241.6,186c-.2,0-.4,0-.5-.2-22.9-15.5-40.7-.2-40.9,0-.4.4-1,.3-1.4,0-.4-.4-.3-1,0-1.4.2-.2,19.1-16.4,43.3,0,.4.3.6.9.3,1.3-.2.3-.5.4-.8.4Z"/>
      <path class="cls-1" d="M235.7,203.2c-.2,0-.4,0-.5-.2-17.5-11.8-31.1-.2-31.3,0-.4.4-1,.3-1.4,0-.4-.4-.3-1,0-1.4.1-.1,14.9-12.7,33.6,0,.4.3.6.9.3,1.3-.2.3-.5.4-.8.4Z"/>
      <path class="cls-1" d="M235.7,213.9c-.2,0-.4,0-.5-.2-17.5-11.8-31.1-.2-31.3,0-.4.4-1,.3-1.4,0-.4-.4-.3-1,0-1.4.1-.1,14.9-12.7,33.6,0,.4.3.6.9.3,1.3-.2.3-.5.4-.8.4Z"/>
      <path class="cls-1" d="M139.8,209.9c-.3,0-.7-.2-.8-.5-14.7-26.8,18.5-64.2,19.9-65.7.4-.4,1-.4,1.4,0,.4.4.4,1,0,1.4-.3.4-33.7,38-19.7,63.5.3.5,0,1.1-.4,1.3-.1,0-.3.1-.5.1Z"/>
      <path class="cls-1" d="M299.1,209.9c-.2,0-.3,0-.5-.1-.5-.3-.6-.8-.4-1.3,14.1-25.6-19.3-63.1-19.7-63.5-.4-.4-.3-1,0-1.4.4-.4,1-.3,1.4,0,1.4,1.6,34.6,39,19.9,65.7-.2.3-.5.5-.8.5Z"/>
      <path class="cls-1" d="M451.3,346.7c-5.3-8.8-16.5-10.7-18.5-11-16.8-13.9-22.2-55-23.5-68.5,0-1.4-.2-2.9-.4-4.3,0,0,0,0,0,0,0,0,0,0,0,0-.5-4.6-1.6-9.4-3.3-14.9-4.7-15.1-12.9-29.2-24.2-42-.4-.4-1-.4-1.4,0-.4.4-.4,1,0,1.4,11.2,12.5,19.2,26.4,23.8,41.3,1.7,5.4,2.7,10.1,3.2,14.7,0,.6.2,2.2.4,4.4.4,7.2-.2,14.5-1.1,23.8-.7,7.8-1.5,16.7-1.9,28.1-.9,24.4.4,41.8,1.4,54.5,1.5,18.8,2.2,28.3-6.3,37.1-1.6,1.7-3.4,3.2-5.4,4.6,0-1.4-.4-3.3-1.6-5.1-.6-1-2.1-3.4-4.8-3.9-3.1-.5-5.8,1.7-7.1,3.9-.4.7-.7,1.4-.9,2.2-.6-1.5-1.6-2.7-3.2-3.4-3-1.2-6.2.6-7.8,3-.5.8-.9,1.6-1.2,2.4,0-.2-.2-.4-.3-.6-1-2.3-3.1-3.9-5.2-4-2.9-.2-5.1,2.3-6.5,3.9-1.3,1.5-2.3,3.3-3,5.3,0,0-.2-.1-.3-.2-2.5-1.9-7.1-5.4-10.2-40.9-1.3-15.2-1.9-30.5-1.7-45.6,7.7-3.1,16.1-8.1,23.9-15.8,7.5-7.4,13.3-16.3,17.1-26.3.2-.5,0-1.1-.6-1.2-.5-.2-1.1,0-1.2.6-3.7,9.8-9.4,18.4-16.7,25.6-7.8,7.7-16.2,12.5-23.9,15.6,0,0,0,0,0,0-4.7,1.9-9,3.1-12.7,3.8l-.8.2v.8c0,.8,4.1,73-18.9,88.1,0-1.8-.3-5.2-2.1-8.6-1.5-2.8-4.6-5.4-8.2-5-3.6.4-5.6,3.8-6.4,5-.3.6-.6,1.1-.8,1.7-.3-.6-.6-1.1-1-1.7-2.7-3.8-5.2-4.4-7-4.2-2.4.2-4.6,1.9-5.8,4.5,0,.1-.1.3-.2.4,0-.2-.1-.4-.2-.6-1-2.8-3.3-4.7-5.7-5-3.1-.3-5.7,1.9-6.9,4.3-.8,1.5-1.2,3.2-1.4,4.9-3.7-6.2-4.7-17.1-6.6-37.7l-.3-3.2c-1.3-14.5-2.8-29.6-4.3-44.8v-.9c0,0-20.8,1.2-20.8,1.2v.9c0,.2-.3,20.1-1.1,31.9-1.9,27.4-2.9,41.1-12.1,49.6-1.4,1.3-3,2.5-4.7,3.5,0,0,.1-.1.2-.2,2-3.2,1.5-7.7-1-10.5-2.5-2.8-7-3.6-10.3-1.9-2.7,1.4-4.4,3.9-5.4,6.8-.1-.5-.2-1-.4-1.5-1-3.1-3.1-5.3-5.7-6.1-3.8-1.1-7.7,1.4-9.6,4.4-.4.7-.8,1.4-1.1,2.2-.2-1.3-.6-2.7-1.2-3.9-1.7-3.8-6.3-7-10.6-5.6-3,1-4.7,3.7-5.4,6.7-2.5-8-2.5-21.4-2.4-41.7,0-11,.4-18.4.7-24.9.5-9.4.8-16.3-.2-28.1-.8-8.7-1.7-13.4-2.6-18.3-.8-3.9-1.6-8-2.3-14.5-2.3-19-2-39,1-59.3,0-.5-.3-1-.8-1.1-.5,0-1,.3-1.1.8-3,20.5-3.3,40.6-1,59.8.8,6.5,1.6,10.7,2.4,14.6,1,4.9,1.9,9.5,2.6,18.1,1,11.7.7,18.5.2,27.9-.3,6.5-.7,13.9-.7,24.9-.1,23.7-.2,38.2,4,46,0,.2.1.3.3.5.6,1,1.2,1.9,1.9,2.6,12.5,13.1,40.6,13.1,54.7,0,9.8-9,10.8-23,12.7-50.9.7-10.4,1-27.1,1.1-31.2l17-1c1.5,15,2.9,29.7,4.2,43.9l.3,3.2c2.1,23.1,3.1,34.3,8.3,40.6,0,.3.3.5.5.6,1,1,2,1.9,3.3,2.7,5.7,3.7,13.3,4.1,19.3,4.1s2.1,0,3.1,0c1.9,0,11.9-.3,18-3,25.8-11.4,23.1-81.6,22.6-90.6,3.3-.7,7-1.7,11-3.3-.1,14.9.4,30,1.8,45,3,33.6,7.2,39.4,10.9,42.3.4.3.9.7,1.4,1,0,0,0,0,0,0,4.3,2.8,9.9,4.1,15.9,4.1,11.4,0,24.2-4.8,32.3-13.3,9.1-9.5,8.3-19.2,6.8-38.6-1-12.7-2.3-30-1.4-54.3,0-.5,0-1,0-1.5,4.4,9.4,16.5,21.5,18.6,23.5,1.5,28.8,24.8,29.8,25,29.9h.7s.3-.6.3-.6c4-9.8,4.1-17.9.4-24.2ZM163.8,416.8c-.6-.7-1.2-1.5-1.7-2.4-.2-3.5,1.3-7.5,4.4-8.6,3.3-1.1,6.8,1.5,8.2,4.6,1.6,3.4,1.4,7.5,1.2,11.1l1.9.2c.4-3.1.9-6.5,2.6-9.3,1.5-2.4,4.6-4.4,7.5-3.6,2.3.7,3.8,2.9,4.4,4.8.7,2.3.7,4.9.7,7.3l1.9.2c.9-5,2.2-9.8,6-11.7,2.6-1.3,6.1-.7,8.1,1.5,2,2.2,2.3,5.7.8,8.2-.3.5-.1,1,.3,1.3.2.2.5.2.8,0-14.3,8.5-36.5,7.3-47-3.7ZM286.9,428.4c-6,0-15.1.2-21.3-3.8-1.1-.7-2.1-1.5-2.9-2.5.2-2.2.4-4.4,1.4-6.3.9-1.7,2.8-3.5,5-3.2,2.1.2,3.5,2.1,4.1,3.7.7,2,.7,4.3.7,6.5h1.9c.2-2,.4-4.2,1.4-6.1.7-1.5,2.2-3.2,4.3-3.4,1.7-.2,3.5,1,5.2,3.4,1.1,1.5,1.5,3.1,1.6,4.4,0,1,0,1.8,0,2.5h1.9c0-.6.1-1.5,0-2.5.1-1.3.6-2.9,1.5-4.5.7-1.1,2.3-3.8,4.9-4.1,2.7-.3,5.2,1.8,6.3,3.9,2,3.7,2,7.2,1.9,8.2,0,.2,0,.4.1.6-.2.1-.4.2-.7.3-5.8,2.6-15.4,2.8-17.3,2.9ZM354.5,420.5c.6-1.9,1.5-3.7,2.8-5.2,1.2-1.4,2.9-3.4,4.9-3.3,1.7.1,3,1.6,3.6,2.9.7,1.7.8,3.6.9,5.4h1.9c.3-2.3.6-4.9,1.9-6.9,1.2-1.7,3.5-3.1,5.5-2.2,2.4,1,2.9,4.3,3.1,7.2h1.9c.2-2.2.4-4.8,1.5-6.8,1-1.7,3-3.3,5-3,1.8.3,3,2.1,3.5,3,1.1,1.8,1.3,3.6,1.3,4.9,0,.2,0,.3,0,.4-11.9,7.5-28.1,9.3-37.9,3.5ZM449.4,369.5c-3.7-.4-21.4-3.3-22.5-28.4v-.4s-.3-.3-.3-.3c-.2-.2-20.4-19.8-19.9-28.6,0,0,0,0,0,0,.4-7.8,1-14.4,1.5-20.3.3-3.8.6-7.2.8-10.4,2.8,18.3,9.2,45.2,22.7,56.2l.2.2h.3c.1,0,12.1,1.5,17.3,10.2,3.3,5.5,3.2,12.9-.3,21.8Z"/>
    </g>
  </g>
</svg>