<?xml version="1.0" encoding="UTF-8"?>
<svg xmlns="http://www.w3.org/2000/svg" version="1.1" viewBox="0 0 500 500">
  <defs>
    <style>
      .cls-1 {
        fill: none;
      }

      .cls-1, .cls-2, .cls-3 {
        stroke-width: 0px;
      }

      .cls-2 {
        fill: #050505;
      }

      .cls-3 {
        fill: #fff;
      }
    </style>
  </defs>
  <g id="BACKGROUND">
    <rect class="cls-3" width="500" height="500"/>
  </g>
  <g id="OBJECTS">
    <g>
      <path class="cls-2" d="M214.6,193.5c-.6.6-3.3-2.8-8.3-3.2-6-.4-9.9,4-10.6,3.2-.9-1,3-9.5,9.5-9.5,6.5,0,10.3,8.6,9.5,9.5Z"/>
      <path class="cls-2" d="M290.6,193.5c-.6.6-3.3-2.8-8.3-3.2-6-.4-9.9,4-10.6,3.2-.9-1,3-9.5,9.5-9.5,6.5,0,10.3,8.6,9.5,9.5Z"/>
      <path class="cls-1" d="M346.8,353.4c5.3-14.3,6.8-33.9-2-44.4-1.9-2.2-6.3-7.4-13.7-8.8-2.8-.5-5.8-.4-8.7.3-.6.1-1.1-.2-1.3-.8,0,0,0,0,0-.1-1,4.1-2.2,8.4-3.8,12.9-10.8,30.9-19,52.2-24.4,65.6,13.2-15.2,33-24.3,54-24.7Z"/>
      <g>
        <path class="cls-2" d="M305,108.2l-3.4,7.6,2-.4s3.3-.6,9.5,2.5c.2,0,.3.1.5.1.4,0,.8-.2,1-.6.3-.5,0-1.2-.5-1.4-4.1-2.1-7.2-2.6-8.9-2.7l3-6.6-1.3-.3c-7.4-1.6-14-.9-17.3-.4,2.6-6,12.3-25.1,30.1-34.5.5-.3.7-.9.4-1.4-.3-.5-.9-.7-1.4-.4-21.9,11.5-31.7,37.2-31.8,37.4l-.7,1.9,2-.5c0,0,8-1.9,17-.3Z"/>
        <path class="cls-2" d="M168.2,71.5c17.8,9.3,27.4,28.5,30.1,34.5-3.2-.5-9.9-1.2-17.3.4l-1.3.3,3,6.6c-1.8.1-4.8.7-8.9,2.7-.5.3-.7.9-.5,1.4.2.4.6.6,1,.6s.3,0,.5-.1c6.1-3.1,9.4-2.5,9.4-2.5l2,.4-3.4-7.7c9-1.7,16.9.2,17,.3l2,.5-.7-1.9c0-.3-10-25.9-31.8-37.4-.5-.3-1.2,0-1.4.4-.3.5,0,1.2.4,1.4Z"/>
        <path class="cls-2" d="M273.3,324.1c3.2-5.6,4.6-10.6,4.8-11.1.2-.6-.2-1.2-.7-1.3-.6-.2-1.2.2-1.3.7,0,.2-6.4,22.5-22.1,24.3-.6,0-1,.6-.9,1.2,0,.5.5.9,1.1.9s0,0,.1,0c8.2-1,14-6.7,17.8-12.6.1,0,.2,0,.3,0s0,0,0,0c31.3-2,41.4-46.7,41.5-47.1.1-.6-.2-1.1-.8-1.3-.6-.1-1.1.2-1.3.8,0,.4-9.6,42.5-38.4,45.3Z"/>
        <path class="cls-2" d="M324,146.1c29.6-44.4,5.1-93.2,4.8-93.7l-.2-.5h-.5c-19.6-3.3-58.4,41.5-63.5,47.6-7.6-3.1-20.9-3.1-21.4-3.1s-13.8,0-21.4,3.1c-5.1-6.1-43.8-50.9-63.5-47.7h-.5c0,0-.2.6-.2.6-.3.5-24.8,49.3,4.8,93.7-3.3,4.6-22.9,32.9-21.1,46.2v1.1c.1,0,16.3-2.5,16.3-2.5-1.1,5-4.2,20.3-2.6,25.2l.2.6h.6c.2.2,11.5,2.9,24.7,3.7-2.6,3-8.5,10.5-12.9,22.5-4.4,12-7.9,30.5-2.5,54.6-2.9-.6-5.9-.7-8.7-.2-8.2,1.5-13.1,7.3-15,9.5-11.1,13.2-6.4,36.3-1.9,47.8,7.7,19.7,23.3,30.4,32.8,35.4-4.7,5-4.8,6.8-4.2,7.9.3.5.7.7,1,.9,0,0,0,0,.1,0-.2.2-.4.5-.6.9-.2.4-.8,1.8-.2,3.1.5,1.2,1.9,2,3.6,2s.2,0,.2,0c3.2-.1,15-.1,22.1,0,2.1,0,3.7,0,4.6,0,.1.6.3,1.2.6,1.8,1.1,2.3,3.3,3.7,6.4,4.3.5.6,1.6,1.3,4,1.3s3.4-.3,6-1.1c1.8,1.1,5.4,1.9,8.6-2l.2-.3.2-6.6c3,.7,10.8,2.3,19.8,2.3s11.1-.6,16.6-2.2l.2,6.7v.4s.2.3.2.3c3.3,3.9,6.8,3.2,8.6,2,2.6.8,4.6,1.1,6,1.1.3,0,.6,0,.9,0,0-.7.2-1.5.3-2.2-1.2.2-3.4.1-7.1-1l-.6-.2-.4.4c-.3.2-2.9,2.2-5.9-1.1l-2.1-58.2c2.3-2.4,19-18.9,45.8-16.4-8.9,24.7-15.5,41.1-19.5,50.7,1.5-2.3,3.2-4.4,5-6.5,5.4-13.3,13.6-34.6,24.4-65.6,1.6-4.4,2.8-8.7,3.8-12.9,0-.3,0-.5.2-.7.4-1.6.7-3.2,1-4.8-.6-.1-1-.2-1-.2-.6,0-1-.6-.9-1.2,0-.6.6-1,1.2-.9,0,0,.4,0,1,.2,3.6-21.2.3-37.6-3.7-48.6-4.7-12.8-11-20.5-13.4-23,13.5-.8,25.1-3.6,25.2-3.6h.6c0-.1.2-.7.2-.7,1.6-4.9-1.5-20.3-2.6-25.2l16.1,2.5v-1.1c1.9-13.4-17.7-41.6-21-46.2ZM159.1,53.8c19.6-2.2,61.1,47.1,61.5,47.6l.5.6.7-.3c7.1-3.2,21.2-3.2,21.3-3.2s14.2,0,21.3,3.2l.7.3.5-.6c.4-.5,41.9-49.8,61.5-47.6,2.5,5.2,22.3,49.9-4.8,90.9-3.7-2.3-20.7-11.8-38.3-4.3-17.8,7.5-30.1,29.6-36.5,65.6-1.2-.4-2.5-.6-3.9-.5-1.9-.1-3.6.1-5.1.7-6.4-36.1-18.7-58.2-36.5-65.7-17.4-7.4-34.1,1.7-38.2,4.2-27-40.9-7.2-85.6-4.8-90.8ZM198.6,402.6c-1,0-2.6,0-4.4,0-7.1,0-19,0-22.2,0-.9,0-1.6-.3-1.8-.7-.2-.4,0-1,.2-1.3.1-.2.2-.4.4-.5.2-.3.6-.7.6-1.4,0-1-.8-1.5-1.3-1.7,0,0-.2-.1-.3-.2,0-.3.3-1.7,4.4-5.8,3,1.3,6.1,2.2,9.2,2.9,3.3.7,6.8,1,10.2,1s.8,0,1.2,0c.6,0,1.1-.5,1-1.1,0-.6-.5-1.1-1.1-1-3.6,0-7.3-.2-10.8-1-3.3-.7-6.5-1.7-9.5-3.1-9-4.5-25.2-15-33-34.9-5.6-14.4-7.6-34.9,1.5-45.7,1.7-2,6.3-7.4,13.7-8.8,2.8-.5,5.8-.4,8.7.3,0,0,0,0,.1,0,1,3.9,2.2,8,3.6,12.2,19,54.6,30,79.2,31.7,82.9-.6,1.2-2,4.5-2.1,7.8ZM222.6,407.9c-3,3.3-5.6,1.4-5.9,1.1l-.4-.4-.6.2c-5.8,1.9-8,1-8.3.6v-.5c-.1,0-.8-.1-.8-.1-2.7-.4-4.4-1.5-5.3-3.2-1.9-4,1.5-10.2,1.5-10.2l.3-.5-.2-.5c0-.2-8.4-18.1-24-61.1,26.8-2.4,43.5,14,45.8,16.4l-2.1,58.2ZM303.1,221c.3.3,32.5,32.4,12.1,90.8-2.5,7.2-4.9,13.9-7.1,20-24.8-2.5-41.4,10.7-46.6,15.6v-3.7c-.2-.6-.7-1.1-1.2-1-.6,0-1,.5-1,1.1l.2,6.2h0s1.8,50,1.8,50c-14.5,4.5-32.3.9-36.2,0l2-56.8c0-.6-.4-1.1-1-1.1-.6,0-1.1.4-1.1,1v3.7c-5.4-4.9-22-18.1-46.8-15.6-2.2-6.2-4.6-12.8-7.1-20-19.9-56.9,10.2-88.8,12-90.7,5.2.2,10.6,0,15.7-.7,3.5,1.4,34.7,13.6,44.4,13.6s40.9-12.2,44.4-13.6c5,.7,10.3.9,15.4.7,0,.2.1.3.3.5ZM326.1,188.3l.4,1.5c1.3,5.4,4.2,20.1,3.1,25-3.8.9-25,5.4-42.1,2.8h-.3s-.3,0-.3,0c-.3.1-34.2,13.6-43.8,13.6s-43.5-13.4-43.8-13.6h-.3c0-.1-.3,0-.3,0-17.1,2.6-38.3-1.9-42.1-2.8-1-5,1.9-19.6,3.1-25l.4-1.5-17,2.6c-.5-13.5,19.5-41.8,21.2-44.1,1.7-1.1,19.3-11.9,36.9-4.5,17.2,7.3,29.1,29,35.3,64.7-1.8,1.1-3,2.6-3.3,4.2-.7,3.6,3.5,7.1,4.4,7.8.9.8,2.8,2.3,5.3,2.7h.6c2.5-.4,4.3-1.9,5.3-2.7,1-.9,5-4.2,4.4-7.8-.3-1.7-1.6-3.3-3.5-4.3,6.2-35.5,18.1-57.2,35.3-64.5,18.5-7.8,36.9,4.4,37.1,4.6,0,0,.2,0,.3.1,2.5,3.5,21.5,30.7,21,43.8l-17-2.6Z"/>
        <path class="cls-2" d="M232.4,336.1c-15.7-1.8-22-24.1-22.1-24.3-.2-.6-.7-.9-1.3-.7-.6.2-.9.7-.7,1.3.1.4,1.6,5.5,4.8,11.1-28.8-2.8-38.3-44.9-38.4-45.3-.1-.6-.7-.9-1.3-.8-.6.1-.9.7-.8,1.3,0,.5,10.2,45.1,41.5,47.1,0,0,0,0,0,0,.1,0,.2,0,.3,0,3.8,5.9,9.6,11.6,17.8,12.6,0,0,0,0,.1,0,.5,0,1-.4,1.1-.9,0-.6-.4-1.1-.9-1.2Z"/>
      </g>
      <path class="cls-2" d="M321,299.6c0-.2.1-.5.2-.7-.1.2-.2.5-.2.7Z"/>
      <path class="cls-2" d="M283.2,395.5l.3.5s.2.3.4.7c.8-1.9,1.7-3.8,2.7-5.7,1-1.8,2.1-3.6,3.3-5.3.9-2.1,1.9-4.6,3.1-7.5-1.8,2.1-3.4,4.2-5,6.5-2.9,7-4.5,10.3-4.5,10.4l-.2.5Z"/>
      <path class="cls-2" d="M320.3,292.7c0,.6.3,1.1.9,1.2,0,0,.4,0,1,.2.1-.7.3-1.4.4-2.1-.6-.1-1-.2-1-.2-.6,0-1.1.3-1.2.9Z"/>
      <path class="cls-2" d="M280,409.3c-.1,0-.2,0-.4,0h-.6c0-.1-.2.5-.2.5-.1.2-.5.4-1.2.5-.1.7-.2,1.5-.3,2.2,1,0,1.7-.3,2.2-.6.1-.9.3-1.8.5-2.8Z"/>
      <path class="cls-2" d="M346.3,354.7c-.1.3-.2.6-.4.8.8,0,1.6,0,2.3,0,0,0,0,0,0,0,.3-.7.5-1.4.8-2.1-.8,0-1.5,0-2.3,0-.2.4-.3.9-.5,1.3Z"/>
      <g>
        <path class="cls-2" d="M278.9,409.9l.2-.7h.6c.1.1.2,0,.4,0,.8-4.2,2-8.4,3.8-12.7-.2-.4-.4-.7-.4-.7l-.3-.5.2-.5c0,0,1.6-3.4,4.5-10.4-1.2,1.7-2.2,3.5-3.2,5.3-3.8,6.9-5.9,13.9-7,20.6.7-.1,1.1-.4,1.2-.5Z"/>
        <path class="cls-2" d="M346.4,307.6c-1.9-2.2-6.8-8-15-9.5-3.1-.6-6.4-.4-9.6.4-.3,0-.5.2-.6.4,0,.2-.1.5-.2.7,0,0,0,0,0,.1.1.6.7.9,1.3.8,3-.7,5.9-.9,8.7-.3,7.5,1.4,11.9,6.6,13.7,8.8,8.8,10.5,7.3,30,2,44.4.8,0,1.5,0,2.3,0,4.2-12.1,7.8-33.3-2.7-45.8Z"/>
        <path class="cls-2" d="M348.3,355.5c3.1,0,6.2.2,9.3.6.6,0,1.1-.3,1.2-.9,0-.6-.3-1.1-.9-1.2-2.9-.4-5.9-.6-8.8-.6-.3.7-.5,1.4-.8,2.1,0,0,0,0,0,0Z"/>
        <path class="cls-2" d="M402.7,336.9c-23.5-32.9-72.4-43.3-80.1-44.8-.1.7-.2,1.4-.4,2.1,7.5,1.4,55.8,11.7,78.8,44,10.9,15.2,14.6,33.2,11.2,53.4-4.1,23.8-14.1,39.3-30.8,47.4-3.3,1.6-6.8,2.9-10.3,3.9-1-12.1-5.3-34.2-22-54.2-9-10.7-20.5-19.5-33.5-25.4,9.3-4.7,19.7-7.4,30.5-7.7.1-.3.2-.6.4-.8.2-.4.3-.9.5-1.3-21,.3-40.8,9.4-54,24.7-1.2,2.9-2.2,5.4-3.1,7.5,6-8.8,14-16,23.3-21.1,13.3,5.8,25.1,14.6,34.3,25.5,16.5,19.7,20.6,41.6,21.6,53.4-11.8,3.1-24.7,3.6-37.3,4.1-17.1.7-33.3,1.3-44.7,8.4-2.2-4.5-10.3-22.6-7.4-43.8-.5.3-1.2.5-2.2.6-3.1,24.1,7.6,44.2,8.2,45.3l.6,1,1-.7c10.9-7.4,27.3-8,44.6-8.7,34.3-1.4,73.1-2.9,82.5-57.8,3.5-20.8-.3-39.3-11.5-55Z"/>
      </g>
    </g>
  </g>
</svg>