<?xml version="1.0" encoding="UTF-8"?>
<svg xmlns="http://www.w3.org/2000/svg" version="1.1" viewBox="0 0 500 500">
  <defs>
    <style>
      .cls-1 {
        fill: none;
      }

      .cls-1, .cls-2, .cls-3 {
        stroke-width: 0px;
      }

      .cls-2 {
        fill: #322;
      }

      .cls-3 {
        fill: #fffef8;
      }
    </style>
  </defs>
  <g id="BACKGROUND">
    <rect class="cls-3" width="500" height="500"/>
  </g>
  <g id="OBJECTS">
    <g>
      <g>
        <g>
          <path class="cls-2" d="M291.3,379.7c.9-1.5,2.3-2.5,3.9-2.5,1.6,0,3.2.7,4.4,1.8.9.9,2.4-.5,1.4-1.4-1.6-1.5-3.7-2.5-6-2.4-2.4.1-4.3,1.4-5.5,3.5-.6,1.1,1.1,2.1,1.7,1h0Z"/>
          <path class="cls-2" d="M298.6,376.5c2.1-2.9,3.2-6.5,6.9-7.7,4-1.3,7.7-.2,10.7,2.7.9.9,2.3-.5,1.4-1.4-3.3-3.2-7.8-4.7-12.3-3.3-2.1.6-3.7,1.8-5,3.5-1.3,1.7-2.1,3.6-3.4,5.2-.8,1,1,2,1.7,1h0Z"/>
          <path class="cls-2" d="M315,367.7c1.4-2.2,3.7-2,5.6-.5.6.5,1.4.3,1.7-.4,2-5.8,7.6-10.9,14-11.1,5.8-.2,11.5,3.8,12.9,9.5.3,1.2,2.2.7,1.9-.5-1.6-6.5-8.2-11.2-14.8-11-7.2.2-13.6,5.9-15.9,12.6.6-.1,1.1-.3,1.7-.4-2.9-2.3-6.6-2.4-8.7.9-.7,1.1,1,2.1,1.7,1h0Z"/>
          <path class="cls-2" d="M350.6,362.4c1.1-1.8,4-2.3,5.8-2.7,3.2-.7,5.9.4,8.7,1.8,4.6,2.5,8.9,6.3,8.8,11.9,0,1.3,2,1.3,2,0,.1-6.6-5-11.2-10.5-14-3.1-1.6-6.2-2.5-9.7-1.7-2.4.5-5.6,1.3-6.9,3.6-.7,1.1,1.1,2.1,1.7,1h0Z"/>
          <path class="cls-2" d="M365.8,377.9c3.3-2.4,8.3-3.8,12.2-2.3,2.2.8,4.5,2.2,6,4,1.3,1.6,2.3,3.5,3.9,4.8,1,.8,2.4-.6,1.4-1.4-1.8-1.5-2.8-3.6-4.3-5.3-1.8-1.9-4.4-3.4-6.9-4.2-4.3-1.4-9.8,0-13.3,2.6-1,.8,0,2.5,1,1.7h0Z"/>
          <path class="cls-2" d="M380,386.4c3-.8,6.2-1.5,9.3-.8,3.3.7,6.1,2.7,8.3,5.2.9,1,1.5,2.3,2.3,3.4.6.8,1.4,1.1,2.4,1.3,1.2.3,2.6.2,3.6,1,1.5,1.1,1.4,2.6,2,4.2s1.1,1,1.7.4c3.6-3.1,9.9-1.3,13.7.5,4.8,2.3,8.8,7.4,9.6,12.7.2,1.3,2.1.7,1.9-.5-.9-6-5.6-11.7-11.1-14.2-4.6-2.1-11.3-3.6-15.6,0,.6.1,1.1.3,1.7.4-.6-1.5-.6-3.1-1.7-4.3-1-1.1-2.2-1.7-3.6-2-1.1-.2-2.5-.1-3.2-1.1-.9-1.4-1.7-2.7-2.8-3.9-2.4-2.6-5.5-4.6-9-5.2-3.4-.6-6.7,0-10,.9-1.2.3-.7,2.3.5,1.9h0Z"/>
          <path class="cls-2" d="M399.6,389.7c1.7-4.1,10.4-6.7,12.4-1.6.3.7,1.1.9,1.7.4,4.3-3.4,7.4-9,13.5-9.3,6.1-.3,12.1,3.5,14.4,9.2.5,1.2,2.4.7,1.9-.5-2.5-6.2-8.8-10.7-15.6-10.7-3.3,0-6.1,1.2-8.6,3.2-2.5,2.1-4.5,4.7-7,6.7.6.1,1.1.3,1.7.4-2.8-7.1-13.8-4.4-16.3,1.6-.5,1.2,1.4,1.7,1.9.5h0Z"/>
          <path class="cls-2" d="M440.4,383.4c1.4-1,3.1-1.9,5-1.6,1.8.3,3.3,1.5,4.4,2.9.4.5,1.1.7,1.6.2,3.4-3.6,7.2-8.1,12.5-8.7,2.7-.3,5.7.4,8.1,1.6,1.2.6,2.2,1.3,3.2,2.2.3.3.6.5.9.8.1.1.3.4.5.5.4.2.1.6,0-.2.2-.3.3-.6.5-.9.1,0,.2,0,.4-.1-1.3-.1-1.3,1.9,0,2,.2,0,.4,0,.6-.2.3-.2.5-.5.5-.9,0-.9-1-1.5-1.6-2-.9-.8-1.8-1.5-2.9-2.2-2.7-1.8-6.3-2.8-9.5-2.7-6.3.2-10.8,5.1-14.8,9.3.5,0,1,.1,1.6.2-1.4-1.8-3.2-3.4-5.6-3.8-2.4-.4-4.6.4-6.5,1.8-1,.7,0,2.5,1,1.7h0Z"/>
          <path class="cls-2" d="M446.9,396.3c2.2-.3,4.5,0,6.4,1.1,1.9,1.2,2.7,3.2,2.7,5.5,0,1.3,2,1.3,2,0,0-2.9-1.1-5.5-3.6-7.2-2.3-1.6-5.3-1.8-8-1.4-.5,0-.8.8-.7,1.2.2.6.7.8,1.2.7h0Z"/>
          <path class="cls-2" d="M457.2,401.2c.2-.1.3-.2.5-.3,0,0,.1,0,.2-.1.2,0,0,0,0,0,.1,0,.3-.1.5-.1,0,0,.1,0,.2,0-.1,0,0,0,0,0,.1,0,.3,0,.4,0,0,0,.2,0,.1,0-.1,0,0,0,.1,0,.1,0,.3,0,.4.1,0,0,.1,0,.2,0,.2,0,0,0,0,0,1.1.5,1.8,1.2,2.7,2.1.4.4,1,.4,1.4,0,.4-.4.4-1,0-1.4-1.1-1-2.2-2-3.6-2.6-1.5-.6-3.1-.4-4.4.5-.4.3-.6.9-.4,1.4.3.4.9.7,1.4.4h0Z"/>
          <path class="cls-2" d="M314.7,374.8c1.3-1.2,2.8-2,4.5-2.2,1.8-.2,3.7.1,5.4.4.5,0,1.1-.1,1.2-.7.1-.5-.2-1.1-.7-1.2-2.1-.3-4.2-.7-6.3-.4-2.2.3-4,1.3-5.6,2.8-.9.9.5,2.3,1.4,1.4h0Z"/>
          <path class="cls-2" d="M368.4,386.2c1.6,0,3.2-.5,4.8-.7,1.7-.2,3.3,0,4.8.6,2.6,1.1,4.6,3.4,6.7,5.2,1,.9,2.4-.6,1.4-1.4-2.3-2.1-4.5-4.4-7.4-5.7-1.6-.7-3.3-1-5-.8-1.8.2-3.6.7-5.4.7-1.3,0-1.3,2.1,0,2h0Z"/>
        </g>
        <g>
          <path class="cls-2" d="M20.6,252.5c7.1-2.8,16.5,3.5,16.1,11.3,0,1.3,1.9,1.3,2,0,.5-8.9-10.4-16.4-18.6-13.2-1.2.5-.7,2.4.5,1.9h0Z"/>
          <path class="cls-2" d="M35.1,253.5c-.4-2.2,5-3.6,5.2-1.4,0,1,1.3,1.4,1.9.5,2.1-3.2,3.3-7,6.5-9.4,3.1-2.3,7-2.6,10.6-1.7,5.8,1.4,10.5,5.6,10.8,11.8.2,3.5-.9,6.8-2.5,9.9-.6,1.1,1.1,2.1,1.7,1,3.1-5.7,4.2-13.1.1-18.6-4.3-5.8-13.6-8.4-20.1-5.1-4.6,2.3-6.2,7-8.9,11.1.6.2,1.2.3,1.9.5-.5-5.3-9.9-3.2-9.1,1.9.2,1.3,2.1.7,1.9-.5h0Z"/>
          <path class="cls-2" d="M70.1,261.6c2.1,0,4.3.7,5.6,2.5,1.3,1.7,1.5,4,1,6-.2.8.5,1.4,1.2,1.2,5.5-1.1,12-.2,16,4.2,1.7,1.9,2.8,4.4,3.1,7,.2,1.6.8,4.6-.5,5.8-.9.9.5,2.3,1.4,1.4,1.7-1.6,1.4-4.7,1.2-6.9-.4-3-1.4-5.8-3.3-8.2-4.3-5.4-12-6.6-18.4-5.3.4.4.8.8,1.2,1.2.6-2.7.3-5.5-1.4-7.8-1.7-2.2-4.4-3.2-7.2-3.3-1.3,0-1.3,2,0,2h0Z"/>
          <path class="cls-2" d="M98.8,283.5c1.6-.8,3.4-1.1,5.2-.7,1.6.4,3,1.3,4.2,2.5,2.5,2.6,3.8,6.2,3.8,9.7,0,1.3,2,1.3,2,0,0-6.1-3.9-13.5-10.5-14.3-2-.3-3.9.2-5.7,1-1.2.5-.2,2.3,1,1.7h0Z"/>
          <path class="cls-2" d="M113.7,294.1c4.6-.5,9.3-.8,12.8,2.7,1.7,1.7,2.8,3.9,3.4,6.1.6,2.3.1,4.7.8,6.9.2.6.9.9,1.5.6,4.2-2.1,6.5,3.3,6.5,6.6,0,1.3,2,1.3,2,0,0-5-3.8-11.3-9.5-8.4.5.2,1,.4,1.5.6-.4-1.3-.2-2.7-.3-4,0-1.2-.3-2.5-.7-3.6-.8-2.4-2.1-4.8-4-6.6-3.9-3.6-8.9-3.5-13.9-3-1.3.1-1.3,2.1,0,2h0Z"/>
          <path class="cls-2" d="M89.4,289c2.3,0,4.7.5,6.7,1.7,2.1,1.2,3.7,3,4.7,5.1.2.5.9.6,1.4.4.5-.3.6-.9.4-1.4-2.3-5.1-7.6-7.8-13.1-7.8-1.3,0-1.3,2,0,2h0Z"/>
          <path class="cls-2" d="M29.5,268.2c2.5-1.4,5.2-2.2,8.1-2,2.8.2,5.5,1.5,7.8,3.1,1.1.7,2.1-1,1-1.7-2.7-1.8-5.6-3.1-8.8-3.4-3.2-.3-6.3.7-9.1,2.2-1.1.6-.1,2.4,1,1.7h0Z"/>
          <path class="cls-2" d="M44.4,266.9c0-.1,0-.2,0-.3,0,.2,0,0,0,0,0,0,0-.1.1-.2,0,0,0,0,0-.1,0,.1-.1.1,0,0,0,0,0,0,.1-.1,0,0,.2-.1,0,0,.1,0,.2-.1.4-.2.2,0-.2,0,0,0,0,0,.1,0,.2,0,0,0,.1,0,.2,0,.2,0-.2,0,0,0,.3,0,.6,0,.9,0,.3,0-.2,0,0,0,0,0,.1,0,.2,0,.2,0,.3,0,.5.1.3,0,.6.2.9.3,0,0,.1,0,.2,0-.3-.1,0,0,0,0,.1,0,.2.1.4.2.3.1.5.3.8.4.5.3,1.1,0,1.4-.4.3-.5,0-1.1-.4-1.4-2.4-1.6-7.1-2.7-8.1,1-.1.5.2,1.1.7,1.2.5.1,1.1-.2,1.2-.7h0Z"/>
        </g>
      </g>
      <g>
        <path class="cls-2" d="M126.6,260.7c-.1.2.1-.1.1-.1,0,0,.1-.2.2-.2,0,0,.2-.1.2-.2,0,0,0,0,.1-.1,0,0,0,0,0,0,.4-.3.8-.5,1.2-.7-.2,0,.1,0,.2,0,.1,0,.2,0,.3-.1.2,0,.4-.1.7-.2.1,0,.3,0,.4,0-.2,0,.1,0,.1,0,.2,0,.5,0,.7,0,.8,0,1.5.2,2.2.6.2.1.6.5.7.7.1.2.2.4.3.6,0-.1,0,.2,0,.2,0,.1,0,.3.1.4.1.5.7.8,1.2.7.5-.2.8-.7.7-1.2-.9-4.2-5.9-4.7-9.1-3.1-.9.5-1.7,1.1-2.3,2-.3.4,0,1.1.4,1.4.5.3,1,0,1.4-.4h0Z"/>
        <path class="cls-2" d="M136.1,261.7c1.2-.3,2.8-.9,3.9-.2.9.6,1.5,1.5,2.6,1.9.4.2.9.2,1.2-.2,2.3-2.3,4.7-5.5,8.1-5.9,3.9-.4,7.3,3.1,9.4,6,.7,1,2.5,0,1.7-1-2.4-3.4-6.2-7.2-10.7-7-4.3.2-7.1,3.7-9.9,6.5.4,0,.8-.1,1.2-.2-1.3-.6-2-1.9-3.4-2.3-1.5-.5-3.2,0-4.7.4-1.3.3-.7,2.2.5,1.9h0Z"/>
        <path class="cls-2" d="M162.9,263.4c.3-.2.5-.3.8-.5.1,0,.3,0,.5-.1,0,0,.3,0,.2,0,.6,0,.9,0,1.4.2,1,.4,2,1.3,2.8,2.1.9,1,1.8,2,2.7,3,.8.8,1.7,1.7,2.8,2.2.5.2,1.1.1,1.4-.4.2-.4.1-1.2-.4-1.4-1.7-.7-3-2.6-4.3-4-1.4-1.5-3.1-3.3-5.2-3.7-1.3-.2-2.6,0-3.6.8-1.1.7,0,2.4,1,1.7h0Z"/>
        <path class="cls-2" d="M157.4,264.4c.7,0,1.4,0,2.1,0,.3,0,.6,0,.8,0,.2,0,.3,0,.5,0,0,0,.2,0,.2,0,.1,0,.2,0,0,0,1.2.2,2.3.5,3.4,1.1.5.2,1.1.1,1.4-.4.3-.4.1-1.1-.4-1.4-1.2-.6-2.5-1.1-3.9-1.3-1.4-.2-2.8-.2-4.2-.2-1.3,0-1.3,2,0,2h0Z"/>
      </g>
      <g>
        <path class="cls-2" d="M229.6,322.3c2.4-1,4.9-4.7,7.7-3.6,1.1.5,2.3,1.6,3.7,1.2,1.2-.3,2-1.6,2.6-2.5,1.5-2.1,2.8-3.8,5-5.2,2.2-1.3,4.7-2.1,7.2-2,3.1.1,5.3,1.8,6.6,4.6.5,1.2,2.3.2,1.7-1-2.5-5.5-8.5-6.6-13.8-4.6-2.5,1-4.9,2.5-6.6,4.5-.8,1-1.5,2.2-2.3,3.2-.4.5-.7,1-1.3.9-.7-.1-1.5-.8-2.2-1.1-3.9-1.5-6.3,2.4-9.4,3.8-1.2.5-.2,2.2,1,1.7h0Z"/>
        <path class="cls-2" d="M263.1,312.9c1.2-.5,4.9-2.8,5.2-.4,0,.7.6,1.1,1.3,1,2.3-.4,4-2.8,5.5-4.4.9-.9,1.7-1.8,2.9-2.3,1.5-.7,3.3-1,4.9-1.2,2.3-.2,4.2-.2,6.3.5,2,.7,3.9,1.5,5.8,2.4.9.5,1.9,1,2.8,1.6.3.2.5.5.8.7,0,0,.1.2.2.2-.2,0,.1-.6,0-.4-.7,1.1,1,2.1,1.7,1,1-1.4-1-2.8-2-3.5-2-1.3-4.2-2.3-6.4-3.2-1.8-.7-3.6-1.5-5.6-1.5-3.3,0-7.3.1-10.2,2-1.4.9-2.5,2.2-3.6,3.3-1,1-2.2,2.5-3.6,2.8.4.3.8.6,1.3,1-.5-4.9-5.4-2.6-8.2-1.3-1.2.5-.2,2.3,1,1.7h0Z"/>
        <path class="cls-2" d="M258.5,317.1c2.5-1.9,6.1-2,8.9-.9.5.2,1.1-.2,1.2-.7.2-.6-.2-1-.7-1.2-3.6-1.5-7.8-1-10.8,1.4-.4.3-.3,1.1,0,1.4s1,.3,1.4,0h0Z"/>
        <path class="cls-2" d="M248.8,319.4c.3-.6.9-1.1,1.6-1.5.7-.4,1.5-.7,2.4-.8.4,0,.7-.1,1.2-.1.2,0,.5,0,.7,0,.1,0,.2,0,.3,0,0,0,.3,0,.2,0,.4,0,.8.2,1.2.3.2,0,0,0,.1,0,0,0,.1,0,.2.1,0,0,.2,0,.2.1.2.1,0,0,.1,0,.4.3,1,.4,1.4,0s.4-1.1,0-1.4c-1.7-1.4-4-1.5-6.1-1.2-2,.3-4.3,1.3-5.3,3.2-.6,1.1,1.1,2.1,1.7,1h0Z"/>
      </g>
    </g>
    <g>
      <path class="cls-2" d="M20.7,315.8c3.6,0,7.1-.6,10.7-1.2,4.1-.7,8.2-1.3,12.4-1.7,8.4-.9,16.8-1.3,25.3-1.3,16.7,0,33.6.6,50.2,3.1,16,2.4,31.8,6.7,47.3,11.2,15,4.4,30.2,9.6,43.7,17.7,6.4,3.8,12.6,8.1,19,11.9,6.6,4,13.7,7.3,20.7,10.4,14.4,6.3,29.3,11.7,44.2,16.9,15.1,5.2,30.3,10.3,45.2,15.9,14.5,5.5,29,11.4,44.6,12.8,8.2.7,16.4.4,24.6.9,7.3.4,14.6,1.7,21.8,2.9,13.5,2.3,27.3,5.4,39.5,11.9,3,1.6,5.9,3.5,8.7,5.6,1,.8,2.4-.6,1.4-1.4-10.6-8.2-23.4-12.7-36.4-15.6-14-3.2-28.5-5.4-42.9-5.7-8.5-.2-17-.2-25.3-1.8-7.8-1.5-15.4-4-22.8-6.7-15.1-5.5-30-11.1-45.2-16.3-15.3-5.2-30.5-10.4-45.5-16.5-7.7-3.1-15.3-6.4-22.7-10.1-6.7-3.3-13-7.5-19.3-11.5-6.3-4-12.6-8-19.5-11.2-7.2-3.3-14.7-6.1-22.2-8.6-15.3-5.1-31.1-9.2-46.9-12.6-16.2-3.4-32.7-4.7-49.2-5-16.5-.4-33.1-.2-49.5,2.6-3.9.7-7.8,1.4-11.8,1.5-1.3,0-1.3,2,0,2h0Z"/>
      <path class="cls-2" d="M21,442.5c2.8-2.4,4.9-5.7,6.9-8.8,2.2-3.5,4.3-7,7-10.1,6-7.1,12.9-13.5,20.6-18.7,14.7-9.9,31.5-16.9,48.5-21.6,8.6-2.4,17.3-4.1,26.2-5.4,9.1-1.3,18.1-1.5,27.2-.7,18,1.6,35.6,6.1,53.7,6.7,8.9.3,18-.4,26.6-2.7,4.7-1.3,9.4-2.8,14.2-3.8,4.6-1,9.3-1.7,14-2.1,2.3-.2,4.6-.3,6.9-.3,1.3,0,1.3-2,0-2-9.5,0-18.8,1.5-28,4-4.6,1.3-9.1,2.8-13.8,3.6-4.5.8-9.1,1.2-13.7,1.3-18.3.3-36.3-4.1-54.3-6.2-9-1.1-18.2-1.6-27.2-.6-8.9.9-17.8,2.6-26.5,4.7-17.3,4.2-34.1,10.9-49.4,20-7.9,4.7-15.2,10.4-21.6,17.1-3,3.1-5.9,6.3-8.3,9.9-2.3,3.3-4.2,6.9-6.6,10.2-1.1,1.5-2.3,2.9-3.7,4.1-1,.8.4,2.2,1.4,1.4h0Z"/>
      <path class="cls-2" d="M253.7,442.2c.1-2.4.8-4.7,2.2-6.7,1.2-1.7,2.8-3,4.5-4.3,2-1.6,4.1-3.1,5.8-5,1.7-1.9,3.2-4.1,4.6-6.3,1.5-2.2,3-4.5,4.9-6.4,1.7-1.8,3.5-3.5,5.2-5.3,3.5-3.8,6.8-7.8,10.5-11.6,4-4.1,8.4-8,13.8-10.2,1.2-.5.7-2.4-.5-1.9-10,4-16.8,13-23.7,20.8-1.8,2-3.6,3.9-5.5,5.7-1.9,1.9-3.5,4-5.1,6.2-1.6,2.4-3.2,4.8-5,7.1-1.7,2-3.7,3.6-5.8,5.2-1.9,1.5-3.8,3.1-5.3,5.1-1.6,2.3-2.3,4.9-2.4,7.7,0,1.3,1.9,1.3,2,0h0Z"/>
      <path class="cls-2" d="M147.9,319.9c3.9-2.8,8.9-3.5,13.6-3.7,4.8-.2,9.6.1,14.4.4,12.3.6,24.6,2.3,36.8,4,21.9,3,44.5,7.1,66.3,1.3,11.5-3.1,21.8-9.3,32.3-14.7,5.5-2.8,11-6,16.7-8,5.6-1.9,11.4-2.7,17.2-3.1,11.2-.9,22.7-1.4,33.7-3.9,5.7-1.3,10.9-3.5,16.2-5.9,5.4-2.4,10.9-4.8,16.3-7.4,5.2-2.5,10.3-5.3,15.2-8.4,4.4-2.8,8.7-5.7,13.2-8.3,4.6-2.6,9.5-4.9,14.7-6,2.7-.6,5.4-1,8.1-1.6,2.7-.6,5.4-1.3,8.2-1.9,2.9-.6,5.7-.9,8.7-.9,1.3,0,1.3-2,0-2-5.6-.1-11.1,1.3-16.5,2.6-5.3,1.3-10.6,1.9-15.7,3.9-9.8,3.9-18.1,10.5-27.1,15.7-5.3,3-10.8,5.7-16.3,8.2-5.6,2.6-11.2,5.3-16.9,7.5-10.8,4.1-22.8,5-34.2,5.9-5.6.4-11.3.7-16.9,1.6-5.8,1-11.1,3-16.4,5.6-5.6,2.7-11.2,5.6-16.7,8.5-5.5,2.9-11,6-16.8,8.2-21.6,8.3-44.9,5.1-67.2,2-11.9-1.7-23.9-3.3-35.9-4.3-5.4-.5-10.8-.7-16.2-.9-4.7-.1-9.5,0-14,1.2-2.1.6-4,1.5-5.8,2.7-1,.7,0,2.5,1,1.7h0Z"/>
      <path class="cls-2" d="M369.6,425.9c.3.2.5.4.7.7,0,0-.1-.1-.2-.2.2.3.4.6.5.9,0,0,0-.2-.1-.2.1.3.2.6.2.9v-.3c0,0,0,.2,0,.3,0,.3.1.5.3.7s.5.3.7.3c.5,0,1-.4,1-1,0-1.3-.7-2.6-1.8-3.4-.2-.2-.4-.3-.7-.3s-.5.1-.7.3c-.2.2-.3.4-.3.7,0,.2,0,.5.3.7h0Z"/>
      <path class="cls-2" d="M373.4,425.9s0,0,0,.1c0,0,0-.2-.1-.2.2.4.3.8.3,1.2,0,0,0-.2,0-.3,0,.3,0,.6,0,1,0,.2.1.5.3.7.2.2.5.3.7.3.6,0,1-.4,1-1,0-.5,0-1-.1-1.4,0-.5-.3-.9-.5-1.4,0-.2-.4-.4-.6-.5-.2,0-.6,0-.8.1-.2.1-.4.3-.5.6,0,0,0,.2,0,.3,0,.2,0,.3.1.5h0Z"/>
      <path class="cls-2" d="M440.2,425.7c-.4.4-.7.9-1,1.5-.2.5-.4,1-.6,1.4-.1.2-.2.5-.1.8,0,.2.2.5.5.6.4.2,1.1.1,1.4-.4.4-.8.7-1.7,1.2-2.5,0,0-.1.1-.2.2,0,0,.1-.2.2-.3.4-.4.4-1,0-1.4-.4-.4-1-.4-1.4,0h0Z"/>
      <path class="cls-2" d="M443,428.1c-.2.4-.4.8-.5,1.2-.1.4-.2.8-.3,1.2,0,.2.1.5.3.7s.5.3.7.3c.3,0,.5,0,.7-.3,0,0,.1-.1.2-.2,0-.2.1-.3.1-.5h0c0,0,0,.1,0,.2,0-.5.2-.9.4-1.3,0,0,0,.2-.1.2,0-.2.2-.4.3-.5.1-.2.2-.5.1-.8,0-.2-.2-.5-.5-.6-.2-.1-.5-.2-.8-.1-.2,0-.5.2-.6.5h0Z"/>
      <path class="cls-2" d="M293.1,422.5c0,0,0,.1.1.2,0,0-.1-.1-.2-.2.3.4.5.8.7,1.3,0,0,0-.2-.1-.2.2.4.3.9.4,1.3,0,.2.3.5.5.6.2.1.5.2.8.1.5-.2.8-.7.7-1.2-.2-1.2-.8-2.3-1.5-3.2-.2-.2-.5-.3-.7-.3s-.5.1-.7.3c-.2.2-.3.4-.3.7,0,.3.1.5.3.7h0Z"/>
      <path class="cls-2" d="M296.8,422.7c0,.3.1.5.2.8,0,0,0-.2,0-.3,0,.3,0,.6,0,.9,0,.3.1.5.3.7.2.2.5.3.7.3.3,0,.5,0,.7-.3.2-.2.3-.4.3-.7,0-.7,0-1.3-.2-1.9,0-.2-.2-.5-.5-.6-.2-.1-.5-.2-.8-.1-.2,0-.5.2-.6.5-.1.2-.2.5-.1.8h0Z"/>
      <path class="cls-2" d="M301.2,422.8c-.1.6-.2,1.2-.2,1.7,0,.1,0,.3,0,.4,0,.1.1.2.2.3.2.2.5.3.7.3.3,0,.5,0,.7-.3,0,0,.1-.1.2-.2,0-.2.1-.3.1-.5,0-.2,0-.4,0-.7,0,0,0,.2,0,.3,0-.3,0-.5.1-.8,0-.3,0-.5-.1-.8-.1-.2-.4-.4-.6-.5-.3,0-.5,0-.8.1-.2.1-.4.3-.5.6h0Z"/>
      <path class="cls-2" d="M316.4,407.4s0,0,0,0c0,0,0-.2-.1-.2.2.4.3.8.3,1.3,0,0,0-.2,0-.3,0,.3,0,.5,0,.8,0,.3.1.5.3.7.2.2.5.3.7.3.6,0,1-.4,1-1,0-.4,0-.9-.1-1.3,0-.4-.2-.9-.4-1.3,0-.2-.4-.4-.6-.5-.2,0-.6,0-.8.1-.2.1-.4.3-.5.6v.3c0,.2,0,.3.1.5h0Z"/>
      <path class="cls-2" d="M319.7,407.3v1.1c0,.1,0,.3,0,.4,0,.1.1.2.2.3,0,0,.2.2.3.2.1,0,.2,0,.4,0,0,0,.2,0,.3,0,.2,0,.3-.1.4-.3.2-.2.3-.4.3-.7v-1.1c0-.1,0-.3,0-.4,0-.1-.1-.2-.2-.3,0,0-.2-.2-.3-.2-.1,0-.2,0-.4,0h-.3c-.2,0-.3.2-.4.3-.2.2-.3.4-.3.7h0Z"/>
      <path class="cls-2" d="M324.9,407c-.2.4-.4.8-.5,1.2-.1.4-.2.8-.3,1.2,0,.2.1.5.3.7.2.2.5.3.7.3.3,0,.5,0,.7-.3,0,0,.1-.1.2-.2,0-.2.1-.3.1-.5,0,0,0,0,0,0,0,0,0,.2,0,.3,0-.5.2-.9.4-1.3,0,0,0,.2-.1.2,0-.2.2-.4.3-.5.1-.2.2-.5.1-.8,0-.2-.2-.5-.5-.6-.2-.1-.5-.2-.8-.1-.2,0-.5.2-.6.5h0Z"/>
      <path class="cls-2" d="M37.2,392.6c0,0,.2.1.3.2,0,0-.1-.1-.2-.2.4.3.7.6,1,1,0,0-.1-.1-.2-.2.2.3.4.6.6,1,0,0,0-.2-.1-.2.1.3.2.7.3,1,0,.2.3.5.5.6.2.1.5.2.8.1.2,0,.5-.2.6-.5.1-.3.1-.5.1-.8-.1-.7-.4-1.5-.8-2.1-.5-.7-1.1-1.2-1.7-1.7-.2-.1-.5-.2-.8-.1-.2,0-.5.2-.6.5-.1.2-.2.5-.1.8,0,.3.2.4.5.6h0Z"/>
      <path class="cls-2" d="M42.2,390.7c-.2.5-.2,1-.3,1.4,0,.5,0,1,.3,1.4,0,.1,0,.2.2.3,0,.1.2.2.3.3.2.1.5.2.8.1.2,0,.5-.2.6-.5.1-.2.2-.5.1-.8,0-.2-.2-.5-.2-.7,0,0,0,.2,0,.3,0-.3,0-.6,0-.9v.3c0-.3,0-.5.2-.8,0-.2,0-.6-.1-.8-.1-.2-.4-.4-.6-.5-.3,0-.5,0-.8.1-.2.1-.4.3-.5.6h0Z"/>
      <path class="cls-2" d="M46.5,389.4c-.5.9-.8,2-.8,3,0,.3.1.5.3.7.2.2.5.3.7.3.3,0,.5,0,.7-.3.2-.2.3-.4.3-.7,0-.3,0-.5,0-.8,0,0,0,.2,0,.3,0-.4.2-.8.3-1.2,0,0,0,.2-.1.2,0-.2.2-.4.3-.6.1-.2.2-.5.1-.8,0-.2-.2-.5-.5-.6-.5-.3-1.1-.1-1.4.4h0Z"/>
      <path class="cls-2" d="M191.7,378.4c0,0,.2.2.3.3,0,0,0,0,0,.1-.2-.2,0,0,0,0,.1.2.2.4.3.6v-.2c0,.3.1.6.1.9,0,0,0-.2,0-.3,0,.4,0,.8,0,1.2v-.3s0,0,0,0c0,.3,0,.5.1.8.1.2.4.4.6.5.3,0,.5,0,.8-.1.2-.1.4-.3.5-.6.1-.8.1-1.6-.1-2.4-.2-.7-.6-1.4-1.2-2-.4-.4-1-.4-1.4,0-.4.4-.4,1,0,1.4h0Z"/>
      <path class="cls-2" d="M195.7,377c-.2.6-.4,1.2-.6,1.8,0,.3-.1.7-.1,1.1,0,.5.1.9.3,1.3.1.2.4.4.6.5.2,0,.6,0,.8-.1.5-.3.6-.9.4-1.4,0,0,0,0,0-.1,0,0,0,.2.1.2,0-.2-.1-.3-.1-.5,0,0,0,.2,0,.3,0-.2,0-.5,0-.7,0,0,0,.2,0,.3.1-.7.4-1.3.6-2,.2-.5-.2-1.1-.7-1.2-.5-.1-1.1.2-1.2.7h0Z"/>
      <path class="cls-2" d="M199.7,378.3c-.3.6-.5,1.3-.5,2,0,.4,0,.8.3,1.2.2.4.5.7.9.9.4.3,1.1.1,1.4-.4.3-.5.1-1.1-.4-1.4,0,0,0,0-.1,0,0,0,.1.1.2.2,0,0-.2-.1-.2-.2,0,0,.1.1.2.2,0,0-.1-.2-.2-.3,0,0,0,.2.1.2,0-.1,0-.2,0-.4,0,0,0,.2,0,.3,0-.2,0-.4,0-.6,0,0,0,.2,0,.3,0-.5.2-.9.4-1.4,0-.2,0-.6-.1-.8-.1-.2-.4-.4-.6-.5-.3,0-.5,0-.8.1,0,0-.1.1-.2.2-.1.1-.2.3-.3.4h0Z"/>
      <path class="cls-2" d="M105,377.1c.2.3.4.7.6,1,0,0,.2.3,0,0,0,0,0,.1,0,.2,0,.2.1.3.2.5,0,0,0,.2,0,.2,0-.1,0-.2,0,0,0,0,0,0,0,.1,0,.1,0,.4,0,.5,0-.1,0-.2,0,0,0,0,0,0,0,.1,0,0,0,.1,0,.2,0,0,0,.2-.1.3.1-.2,0,.1,0,.1-.2.5-.1,1.1.4,1.4.5.2,1.1.1,1.4-.4.5-.9.7-1.9.5-3-.2-.9-.6-1.7-1.1-2.4-.3-.4-.9-.7-1.4-.4-.4.3-.7.9-.4,1.4h0Z"/>
      <path class="cls-2" d="M109.4,375.5c-.7,1.6-1.1,3.8.2,5.2.3.4,1.1.4,1.4,0,.4-.4.4-1,0-1.4-.1-.1.1.2,0,0,0,0,0,0,0,0,0,0-.1-.3,0,0,0,.2,0,0,0-.1,0,0,0-.1,0-.2,0,0,0,0,0-.1,0-.2,0,.2,0,0,0,0,0-.2,0-.2,0-.2,0-.3,0-.5,0,0,0-.2,0-.3,0,0,0,0,0-.1,0,.3,0,.1,0,0,0-.2,0-.3.1-.5,0-.2,0-.3.1-.5,0,0,0-.2,0-.2,0,0,.1-.4,0,0,.1-.3.2-.5.1-.8,0-.2-.2-.5-.5-.6-.4-.2-1.1-.2-1.4.4h0Z"/>
      <path class="cls-2" d="M21.2,242c7-5.2,15-8.8,22.6-12.9,3.9-2.1,7.7-4.3,11.7-6.3,2.1-1,4.2-2,6.3-2.8,1.7-.6,3.6-1.4,5.4-1.5,2.1,0,3.7,1.2,5.3,2.5,1.7,1.4,3.4,2.8,5,4.3,3.3,2.8,6.9,5.1,10.4,7.7,7.5,5.5,14.4,11.8,21.7,17.6,7.9,6.4,16.1,12.5,23.4,19.7.9.9,2.3-.5,1.4-1.4-6.7-6.6-14.1-12.3-21.4-18.1-7.3-5.9-14.3-12.1-21.8-17.8-3.7-2.9-7.8-5.3-11.4-8.4-1.7-1.5-3.4-3-5.2-4.4-1.5-1.2-3-2.6-4.9-3.2-3.5-1.2-7.6.8-10.8,2.1-4.2,1.8-8.2,4-12.2,6.2-8.9,4.9-18.4,9-26.5,15-1,.8,0,2.5,1,1.7h0Z"/>
      <path class="cls-2" d="M87.7,231.3c3.6-3,8.6-4.3,13-5.5,2.3-.6,4.6-1.2,6.9-1.9,2.8-.8,5.6-2.2,8.5-2.3,5.2-.1,7.8,5.6,12.2,7.2,4,1.5,8.5-1.8,11.7-3.8,4.9-3.1,10.3-5.4,15.6-7.8,5.7-2.6,11.4-5.4,16.9-8.4,11.3-6.1,21.8-13.5,32.8-20.3,11-6.8,22.2-13.3,33.5-19.8,5.5-3.2,11.1-6.4,16.6-9.6,3.8-2.2,7.2-4.9,10.9-7.2,3.2-2,7.6-4.7,11.5-3.5,2.6.8,4.9,2.7,6.9,4.4,2.1,1.7,4.1,3.5,6.2,5.2,10.2,7.9,19.6,16.7,29.5,25,5,4.2,10.1,8.1,15.1,12.3,4.6,3.9,9,8,13.8,11.8,4.8,3.9,10,7.2,15,10.9,4.8,3.5,9.2,7.5,13.8,11.2,2.1,1.7,4.3,3.2,6.8,4.4,1.2.6,2.2-1.2,1-1.7-5.2-2.5-9.3-6.7-13.8-10.3-4.9-4-10.1-7.6-15.2-11.2-5.1-3.6-9.8-7.6-14.5-11.8-4.8-4.2-9.8-8.2-14.8-12.3-5.2-4.2-10.2-8.5-15.3-12.9-4.8-4.1-9.5-8.5-14.4-12.5-2.4-1.9-4.9-3.7-7.2-5.7-2.1-1.8-4.2-3.6-6.3-5.3-1.9-1.4-4.1-3-6.4-3.5-1.8-.4-3.7-.1-5.4.4-4.3,1.3-8,4-11.6,6.5-4.3,3-8.7,5.6-13.2,8.2-11.3,6.5-22.6,13-33.8,19.7-5.6,3.4-11.3,6.8-16.8,10.4-5.5,3.5-10.9,7.2-16.5,10.6-11.1,6.7-22.9,11.9-34.6,17.6-2.4,1.1-4.6,2.3-6.8,3.7-2,1.3-4.1,2.7-6.4,3.4-2.4.8-4.1,0-6-1.4-1.8-1.4-3.4-3.1-5.4-4.4-4.9-3.1-10.5,0-15.4,1.4-4.7,1.3-9.4,2.4-13.9,4.3-1.9.8-3.7,1.8-5.3,3.1-1,.8.4,2.2,1.4,1.4h0Z"/>
      <path class="cls-2" d="M328.7,189.1c11.4,2.1,22.9-.2,33.8-3.6,5.6-1.8,11.1-3.9,16.6-6,2.7-1.1,5.5-2.1,8.2-3.1,2.5-.9,5.2-2.3,7.9-2.2,2.3,0,4.5,1.3,6.6,2.2,2.2.9,4.2,1.4,6.5.9,4.6-1,8.4-4.4,12.1-7.1,4.9-3.7,9.8-7.5,14.6-11.4,2.1-1.7,4.1-3.7,6.4-5.1,2.3-1.4,4.5-1,6.7.4,5.8,3.7,11.4,8.2,16.7,12.6,2.4,2,4.9,4.1,7.4,6.1,2.5,2,5,4,7.1,6.3.9,1,2.3-.5,1.4-1.4-3.7-4.2-8.5-7.3-12.7-10.9-4.7-4-9.6-7.8-14.7-11.5-2.3-1.6-4.6-3.7-7.4-4.4-2.1-.5-4.1,0-5.9,1.2-2.2,1.4-4.1,3.3-6.2,4.9-2.5,2-5,4.1-7.6,6.1-4.3,3.4-8.7,7-13.3,9.9-2,1.2-4.2,2.4-6.6,2.5-2.4,0-4.7-1.4-6.9-2.3-2.2-.9-4.4-1.3-6.7-.8-2.8.6-5.5,1.8-8.1,2.8-5.5,2.1-11,4.3-16.6,6.3-12.4,4.4-25.6,8.1-38.8,5.7-1.3-.2-1.8,1.7-.5,1.9h0Z"/>
      <path class="cls-2" d="M195.2,318.3c4.6-.2,8.8-2,12.8-4,4.3-2.1,8.5-4.4,13.1-5.8,9.6-3,18.3-8.2,26.9-13.5,9.4-5.8,18.9-11.3,28.2-17.2,4.5-2.9,8.9-5.8,13.7-8.2,4.9-2.4,9.8-4,15.1-4.9,9-1.4,18.5-2.3,27.1-5.6,3.9-1.5,7.5-3.6,10.6-6.6,3.4-3.3,6.2-6.8,10.6-8.9,4.5-2.1,9.3-2.8,14.2-3.4,2.2-.3,4.5-.6,6.6-1.2,2.3-.7,4.3-1.7,6.4-2.8,4.4-2.2,8.8-3.9,13.5-5.3,4.5-1.4,9.2-2.6,14-2.3,4.8.2,8.8,2.8,12.8,5.4,2,1.3,4,2.6,6.1,3.7,2.3,1.2,4.7,2.2,7.1,3.3,4.6,2.1,9.1,4.4,14,5.9,4.3,1.3,8.8,2.2,13.1,3.6,1.9.6,3.8,1.4,5.5,2.4,1.1.7,2.1-1.1,1-1.7-3.6-2.2-7.9-3.3-11.9-4.3-4.6-1.2-9.1-2.4-13.5-4.3-4.9-2.1-9.9-4.3-14.6-6.8-4.2-2.2-7.9-5.4-12.3-7.4-8.5-3.9-17.8-.7-26.1,2-2.3.8-4.6,1.7-6.8,2.7-2.4,1.1-4.6,2.5-7.1,3.4-4.4,1.7-9.1,1.6-13.7,2.4-4.5.8-9.3,2.4-13,5.2-3.6,2.7-6.2,6.6-9.9,9.3-7.1,5.3-16.5,6.6-25,8-5.1.9-10.4,1.3-15.4,2.7-4.9,1.4-9.7,3.8-14.1,6.3-4.7,2.7-9.2,5.8-13.8,8.7-4.7,2.9-9.5,5.8-14.2,8.6-8.9,5.4-17.7,11.3-27.2,15.6-4.5,2-9.3,3.2-13.7,5.2-4.4,2-8.6,4.6-13.2,6.3-2.2.8-4.5,1.4-6.8,1.6-1.3,0-1.3,2.1,0,2h0Z"/>
      <path class="cls-2" d="M97.1,277.6c9.2-3.2,18.9-4.2,28.5-5.2,4.7-.5,9.4-1.6,14.1-2.5,5-1,9.9-1.5,15-1.4,19.7.6,38.3,8.3,56.3,15.8,5.3,2.2,10.7,4.5,15.9,6.8,2.5,1.1,5,2.2,7.7,3,2.6.8,5.2,1.4,7.6,2.6,1.1.6,2.2-1.1,1-1.7-4.3-2.2-9.1-2.9-13.4-4.8-4.8-2.2-9.6-4.2-14.5-6.3-9.2-3.8-18.3-7.7-27.7-10.9-9.4-3.2-19-5.6-28.9-6.3-5-.4-10-.3-14.9.5-4.9.7-9.7,1.9-14.6,2.7-5.4.9-10.8,1.2-16.2,2-5.5.8-11,1.9-16.2,3.7-1.2.4-.7,2.4.5,1.9h0Z"/>
      <path class="cls-2" d="M277,177.2c.2,3.7,1.6,6.7,4.4,9.2,2.8,2.5,6.3,4.4,10,5.2,4.3.9,8.8,0,13,1,2.7.7,6.8,1.7,7.8,4.6.5,1.6.6,3.4,1.5,4.9.9,1.6,2.1,3,3.4,4.2,2.6,2.6,5.5,4.9,7,8.3,1.6,3.6,2,7.7,3.7,11.3,1.4,3.1,3.4,5.9,5.9,8.2,2.3,2.1,5.1,3.7,7.4,5.9,1,1,2,2.1,2.9,3.2.4.5.8.9,1.2,1.4.1.2.2.4.4.5.3.3,0,.4.1-.2-.3,1.2,1.6,1.8,1.9.5.2-.7-.3-1.3-.7-1.9-.7-.9-1.4-1.8-2.2-2.7-1.6-1.8-3.2-3.6-5.3-5-2.8-1.9-5.5-4.1-7.5-6.9-2.4-3.3-3.4-6.9-4.4-10.8-1-3.7-2.4-6.9-5.1-9.6-2.4-2.6-6-5-7.3-8.4-.6-1.6-.6-3.3-1.4-4.8-.7-1.3-2-2.2-3.3-2.9-3.2-1.6-6.7-2.5-10.3-2.6-2.4,0-4.8,0-7.2-.2-2.3-.3-4.5-1.1-6.6-2.3-2-1.1-3.9-2.6-5.3-4.4-1.3-1.7-1.9-3.7-2-5.9,0-1.3-2.1-1.3-2,0h0Z"/>
      <path class="cls-2" d="M393.3,173.3c.3,3.5,1.5,6.7,3.9,9.3,2.3,2.6,5.2,4.4,8.2,6,3.6,1.9,6.8,4.6,10.6,6.1,2,.8,4.1,1.1,6.2,1.6,2.2.5,4.1,1.5,5.9,2.9,3.1,2.6,6.2,5.8,8,9.4,1,1.9,1.8,3.9,2.9,5.6,1.1,1.7,2.4,3.2,4,4.5,3.1,2.7,6.7,4.6,9.9,6.9,2,1.4,3.8,2.9,5.7,4.4,1.7,1.3,3.5,2.5,5.2,3.7,1.6,1.2,3.2,2.4,4.5,3.9,1.3,1.4,2.3,3,3.4,4.5,1,1.3,2,2.7,3,4,.5.8,1.9,2.3,1.9,3.1,0,1.3,2,1.3,2,0,0-.9-.6-1.9-1.1-2.6-.8-1.3-1.8-2.5-2.7-3.7-1.9-2.5-3.6-5.3-5.9-7.5-2.8-2.8-6.3-4.7-9.4-7.2-3.5-2.7-7-5.3-10.6-7.7-3.5-2.3-6.8-4.9-8.9-8.6-1-1.8-1.8-3.8-2.9-5.6-1-1.7-2.3-3.2-3.7-4.7-2.7-2.9-5.6-5.8-9.5-7-2.1-.6-4.4-.8-6.5-1.5-2-.7-3.9-1.9-5.6-3-1.9-1.3-3.9-2.4-5.9-3.5-1.7-.9-3.4-1.9-5-3.2-3.2-2.6-5.3-6-5.7-10.2-.1-1.3-2.1-1.3-2,0h0Z"/>
      <path class="cls-2" d="M454.1,170.1c1.8,2.5,3.7,4.8,6.3,6.5,2.5,1.6,5.4,2.6,8,4.1,2.2,1.3,3.9,3.2,5.5,5.2,1.6,2,3.3,4.2,4.1,6.7.4,1.2,2.3.7,1.9-.5-.8-2.4-2.3-4.6-3.8-6.5-1.5-2-3.2-4-5.2-5.5-2.5-1.9-5.4-2.9-8.1-4.3-3-1.6-5.1-3.9-7.1-6.6-.8-1-2.5,0-1.7,1h0Z"/>
      <path class="cls-2" d="M115.7,221c0,3-.1,6.4,1.6,9,.9,1.4,2.3,2.3,3.8,3,1.8.8,3.5,1.9,5.2,3,1.6,1.1,3.3,2,5.2,2.6,1.8.6,3.5,1,5.1,2.1,3,2.1,4.3,5.5,6.3,8.4,1.1,1.6,2.5,3.1,4,4.3.6.5,1.3,1,1.9,1.5.3.2.5.4.7.7,0,0,.2.3.3.3,0,0,0,0,0,0,.2.1.4-.1.3-.7-1.1.6-.1,2.3,1,1.7,2.5-1.4-2.2-4.5-3.1-5.3-1.6-1.3-2.9-2.8-3.9-4.5-1-1.6-1.8-3.3-3-4.8-2.2-2.9-5-4.7-8.5-5.7-2.1-.6-3.9-1.7-5.7-2.9-1.7-1.1-3.5-2.1-5.4-3-3.9-2-3.8-6.1-3.8-9.9,0-1.3-2-1.3-2,0h0Z"/>
      <path class="cls-2" d="M77.1,235.6c2,1.4,4.1,2.8,5.9,4.5,1.5,1.5,2.8,3.2,4.3,4.6,1.4,1.4,2.9,2.7,4.5,3.8,1.6,1.1,3.4,2,5,3.2,3.3,2.3,5.9,5.4,5.8,9.7-.1,4.3-.6,8.3,1.5,12.3.6,1.1,2.3.1,1.7-1-1.7-3.3-1.4-6.7-1.2-10.3.1-3.2-.4-5.9-2.5-8.5-1.8-2.3-4.3-4.1-6.9-5.5-2.9-1.7-5.4-3.8-7.7-6.3-1.3-1.4-2.5-2.9-4-4.2-1.7-1.5-3.6-2.7-5.4-4-1.1-.7-2.1,1-1,1.7h0Z"/>
      <path class="cls-2" d="M161.5,268.1c-6.8,4.2-5.4,13.1-3.2,19.5,2.8,8,7.7,15.2,14,20.9,2.2,2,4.6,3.7,7.3,5,2.7,1.3,5.4,2.3,7.8,4,1.1.7,2.1-1,1-1.7-4-2.9-8.9-4-12.8-7-4-3.1-7.3-7.1-10.2-11.3-3.6-5.3-6.6-11.9-7-18.4-.2-3.6.7-7.2,4-9.2,1.1-.7,0-2.4-1-1.7h0Z"/>
      <path class="cls-2" d="M296.6,265.6c-3.9,4.5-1.6,11.1.9,15.7,3.1,5.6,7.8,10.2,12.8,14.1,3.4,2.6,7.1,4.7,11.3,5.6,1.3.3,1.8-1.7.5-1.9-6.9-1.4-12.2-6.3-17.1-11-3.7-3.5-6.8-8.3-8.1-13.2-.7-2.6-.9-5.6,1-7.8.8-1-.6-2.4-1.4-1.4h0Z"/>
      <path class="cls-2" d="M310.4,194.8c1.1,4.9-1,9.9-3,14.2-.9,2.1-2,4.1-2.4,6.4-.3,2.2.5,3.9,1.5,5.8,2.3,4.3,3.4,9.2,3.8,14,.3,3.8.7,7.5,2.6,10.9,1.4,2.4,3.2,4.5,4.7,6.9,1.5,2.4,1.5,5.1,2.8,7.5.6,1.2,2.3.1,1.7-1-1.1-2.1-1.1-4.5-2.2-6.6-1.2-2.2-2.8-4.1-4.2-6.1-2.4-3.5-3-7.1-3.4-11.2-.4-4.7-1.3-9.2-3.2-13.5-.8-1.9-2.4-3.8-2.2-6,.2-2.4,1.6-4.6,2.5-6.8,2.1-4.7,4.1-9.9,2.9-15-.3-1.3-2.2-.7-1.9.5h0Z"/>
      <path class="cls-2" d="M209.9,183.7c-1.7,3.5-3.9,6.8-6.2,10-2.3,3.1-4.9,6.1-7.1,9.3-2.1,3.1-3.8,6.5-5.8,9.6-2,3.2-4.4,6-7.3,8.4-2.8,2.3-6,4.2-9.3,5.6-3.2,1.4-6.6,2.4-9.9,3.6-3.1,1.2-6.1,2.7-8.4,5.1-1.3,1.3-2.7,2.5-4.1,3.7-2.1,1.8-4.2,3.6-6,5.6-1.1,1.2-2.8,2.9-2.4,4.8.2,1.3,2.2.7,1.9-.5,0-.2.4-.9.6-1.3.6-.8,1.3-1.6,2-2.3,1.7-1.7,3.5-3.3,5.3-4.9,1.4-1.2,2.7-2.3,4-3.6,2.4-2.5,5.6-3.9,8.8-5.1,3.1-1.1,6.3-2.1,9.3-3.4,3.2-1.4,6.2-3.2,9-5.3,2.8-2.2,5.2-4.7,7.2-7.6,2.1-3,3.8-6.3,5.7-9.4,2.2-3.6,5-6.8,7.5-10.2,2.6-3.5,5-7.2,7-11.1.6-1.1-1.2-2.2-1.7-1h0Z"/>
      <path class="cls-2" d="M241.5,165.2c-1.8,1.5-3.7,3.4-3.9,5.9-.2,2.5,1.7,4.4,3.8,5.5,4.4,2.4,10,2.2,14.1-.6-.5-.4-1-.8-1.5-1.1-1,5.8,4.2,10.2,9.7,9.4,2.7-.4,5.1-2,6.7-4.2.8-1.1,1.4-2.3,1.9-3.6.6-1.6.9-3.3,1.8-4.8-.6,0-1.2-.2-1.8-.2,1.6,4.4,5.4,8,10,9,2.2.5,4.7.3,6.3-1.4,1.7-1.9,1.6-4.9,1.8-7.2-.6.2-1.2.3-1.9.5,2.4,3.3,5.7,6,9.6,7.3,1.8.6,4,.9,5.7-.3,1.4-1,2.2-2.6,1.8-4.3-.5.4-1,.8-1.5,1.1,3.1,1.6,6.5,3,9.9,1.5,1.2-.5.2-2.2-1-1.7-2.6,1.1-5.5-.4-7.9-1.5-.8-.4-1.7.3-1.5,1.1.4,1.5-1.2,2.5-2.5,2.5-1.6,0-3.1-.6-4.5-1.3-2.5-1.3-4.7-3.2-6.4-5.5-.6-.8-1.8-.5-1.9.5-.2,1.8,0,4.6-1.3,6-1.3,1.4-3.6,1-5.3.5-3.5-1.1-6.3-3.9-7.6-7.3-.3-.8-1.3-1-1.8-.2-1.3,2-1.5,4.4-2.5,6.5-1,2-2.7,3.8-4.8,4.6-4.3,1.7-10.2-1.2-9.2-6.4.1-.8-.7-1.6-1.5-1.1-3.3,2.1-7.4,2.6-11.1,1.1-1.6-.7-3.8-1.9-3.9-3.9,0-2,1.9-3.6,3.3-4.8,1-.8-.4-2.2-1.4-1.4h0Z"/>
      <path class="cls-2" d="M50.2,223.1c-2.6,1.5-3.8,4.9-1.5,7.2,2.8,2.8,6.9,1.3,9.7-.6-.5-.2-1-.4-1.5-.6.8,3.1,3.4,6.3,6.8,6.6,1.6.1,3-.5,3.9-1.9.9-1.3,1-2.9,1.9-4.2h-1.7c2.3,3.5,6.3,5.8,10.6,5.6,1.9,0,4-.7,5.1-2.4.9-1.5,1-3.6,0-5-.7-1.1-2.5,0-1.7,1,.7,1,.5,2.5-.3,3.4-1.2,1.1-3.1,1.2-4.6,1-3-.4-5.6-2.1-7.3-4.6-.4-.6-1.3-.7-1.7,0-1,1.6-1.2,5.1-3.6,5.1-2.7,0-4.7-2.8-5.2-5.1-.1-.6-.9-1-1.5-.6-1.9,1.3-4.5,2.7-6.7,1.4-2.1-1.2-1.3-3.5.5-4.5,1.1-.6.1-2.4-1-1.7h0Z"/>
      <path class="cls-2" d="M428.8,161.1c-2.3,2.3-3.6,6.2-.8,8.8,1.2,1,2.7,1.3,4.1.8,1.5-.6,2.7-1.8,4.3-2.2-.4-.2-.8-.3-1.1-.5,1.3,2.5,3.8,4.5,6.7,3.9,3.1-.6,3.5-3.7,5.1-5.9-.5,0-1,.1-1.6.2,1.9,2.4,4.8,4.7,8,4.4,2.7-.2,5.3-2,5.7-4.8-.5.2-1,.4-1.5.6,2.1,1.3,5.2,2.6,7.2.2.8-1-.6-2.4-1.4-1.4-1.3,1.6-3.4.4-4.8-.5-.5-.3-1.4,0-1.5.6-.3,2.1-2.4,3.4-4.5,3.3-2.5-.1-4.5-2-6-3.9-.4-.6-1.2-.3-1.6.2-1.1,1.4-1.5,3.9-3.2,4.7-2.2,1-4.2-.9-5.2-2.7-.2-.4-.7-.6-1.1-.5-1,.2-1.9.8-2.7,1.3-.9.6-1.9,1.4-3,1.1-1.1-.3-1.8-1.6-1.8-2.6,0-1.4.9-2.7,1.9-3.7.9-.9-.5-2.3-1.4-1.4h0Z"/>
      <path class="cls-2" d="M461.8,184.4c1.1,1.4,2.4,2.8,3.8,4,.4.3,1,.4,1.4,0,.4-.4.4-1,0-1.4-1.4-1.2-2.6-2.6-3.8-4-.1-.2-.5-.3-.7-.3s-.5.1-.7.3c-.2.2-.3.4-.3.7,0,.3.1.5.3.7h0Z"/>
      <path class="cls-2" d="M469.9,193.1l1.6,1.8c.2.2.5.3.7.3s.5-.1.7-.3c.2-.2.3-.4.3-.7,0-.3-.1-.5-.3-.7-.5-.6-1-1.2-1.6-1.8-.2-.2-.5-.3-.7-.3s-.5.1-.7.3c-.2.2-.3.4-.3.7,0,.3.1.5.3.7h0Z"/>
      <path class="cls-2" d="M465.2,196.5c.3.4.6.9.9,1.3.1.2.3.4.6.5.1,0,.3,0,.4,0,.1,0,.3,0,.4-.1.2-.1.4-.3.5-.6,0-.3,0-.5-.1-.8-.3-.4-.6-.9-.9-1.3-.1-.2-.3-.4-.6-.5-.1,0-.3,0-.4,0-.1,0-.3,0-.4.1-.2.1-.4.3-.5.6,0,.3,0,.5.1.8h0Z"/>
      <path class="cls-2" d="M471.7,211.6c.4.7.9,1.5,1.3,2.2.1.2.4.4.6.5.2,0,.6,0,.8-.1.5-.3.6-.9.4-1.4-.4-.7-.9-1.5-1.3-2.2-.1-.2-.4-.4-.6-.5-.2,0-.6,0-.8.1-.5.3-.6.9-.4,1.4h0Z"/>
      <path class="cls-2" d="M443.3,183.6c.6,1.1,1.1,2.1,1.7,3.2.2.5.9.6,1.4.4.5-.3.6-.9.4-1.4-.6-1.1-1.1-2.1-1.7-3.2-.2-.5-.9-.6-1.4-.4-.5.3-.6.9-.4,1.4h0Z"/>
      <path class="cls-2" d="M449.7,178.5c.9,1.2,1.8,2.3,3,3.1.2.2.4.3.7.3s.5-.1.7-.3c.2-.2.3-.4.3-.7,0-.2,0-.5-.3-.7-.9-.7-1.8-1.6-2.5-2.5,0,0,.1.1.2.2-.1-.1-.2-.3-.3-.4-.2-.2-.3-.4-.6-.5-.2,0-.6,0-.8.1-.2.1-.4.3-.5.6,0,.2,0,.6.1.8h0Z"/>
      <path class="cls-2" d="M423.5,175c-.2.4-.4.9-.7,1.3,0,.1-.1.2-.1.4,0,.1,0,.3,0,.4,0,.1,0,.2.2.3,0,.1.2.2.3.3.2.1.5.2.8.1.2,0,.5-.2.6-.5.2-.4.4-.9.7-1.3,0-.1.1-.2.1-.4,0-.1,0-.3,0-.4,0-.1,0-.2-.2-.3,0-.1-.2-.2-.3-.3-.2-.1-.5-.2-.8-.1-.2,0-.5.2-.6.5h0Z"/>
      <path class="cls-2" d="M355.8,193.1c-4.6,2.7-9.8,4.1-15.1,4-1.3,0-1.3,2,0,2,5.6,0,11.2-1.4,16.1-4.3,1.1-.7.1-2.4-1-1.7h0Z"/>
      <path class="cls-2" d="M354.9,199.3c-2.5,1.5-5.4,2.3-8.4,2.4-1.3,0-1.3,2,0,2,3.3,0,6.5-1,9.4-2.6,1.1-.6.1-2.4-1-1.7h0Z"/>
      <path class="cls-2" d="M356.4,203.9c-.4.3-.8.5-1.2.7-.2.1-.4.2-.7.3,0,0-.4.2-.2,0-.1,0-.2,0-.3.1-.4.2-.9.3-1.3.4-.2,0-.5.1-.7.2-.1,0-.2,0-.4,0,0,0-.4,0-.2,0-.5,0-1,.4-1,1,0,.5.4,1.1,1,1,2.2-.3,4.2-1,6-2.3.4-.3.7-.9.4-1.4-.3-.4-.9-.7-1.4-.4h0Z"/>
      <path class="cls-2" d="M359.8,208.5c-.2.2-.4.4-.6.5,0,0,.1-.1.2-.2-.3.2-.6.4-1,.6,0,0,.2,0,.2-.1-.4.1-.7.2-1.1.3,0,0,.2,0,.3,0-.2,0-.4,0-.6,0-.5,0-1,.5-1,1,0,.5.4,1,1,1,1.5,0,3-.6,4-1.7.3-.4.4-1,0-1.4-.4-.3-1-.4-1.4,0h0Z"/>
      <path class="cls-2" d="M371.2,217.9c-.2.1-.3.3-.5.4,0,0,.1-.1.2-.2-.5.4-1.1.7-1.7,1-.2,0-.4.4-.5.6,0,.2,0,.6.1.8.1.2.3.4.6.5h.3c.2,0,.3,0,.5-.1.9-.4,1.7-.9,2.4-1.6.2-.2.3-.5.3-.7s-.1-.5-.3-.7c-.2-.2-.4-.3-.7-.3-.3,0-.5.1-.7.3h0Z"/>
      <path class="cls-2" d="M374.7,220.9c-.7.4-1.3.8-2,1.1-.2.1-.4.4-.5.6,0,.2,0,.6.1.8.1.2.3.4.6.5.3,0,.5,0,.8-.1.7-.4,1.3-.8,2-1.1.2-.1.4-.4.5-.6,0-.2,0-.6-.1-.8-.1-.2-.3-.4-.6-.5-.3,0-.5,0-.8.1h0Z"/>
      <path class="cls-2" d="M411.9,192.5c2.1,1.2,3.2,3.4,4.2,5.5,1,2.1,2,4.4,3.5,6.2,1.8,2,5.1,2.6,6.2,5.3.6,1.5.9,3.2,1.2,4.8.5,1.9.9,3.9,1.4,5.8.3,1.2,2.2.7,1.9-.5l-1.5-6c-.4-1.7-.7-3.4-1.4-5-1.3-2.9-4.3-3.4-6.3-5.5-3.4-3.6-3.7-9.6-8.3-12.2-1.1-.6-2.1,1.1-1,1.7h0Z"/>
      <path class="cls-2" d="M321.7,251.8c.5,1,.9,2,1.4,3,.1.2.4.4.6.5.2,0,.6,0,.8-.1.2-.1.4-.3.5-.6,0-.3,0-.5-.1-.8-.5-1-.9-2-1.4-3-.1-.2-.4-.4-.6-.5-.2,0-.6,0-.8.1-.2.1-.4.3-.5.6,0,.3,0,.5.1.8h0Z"/>
      <path class="cls-2" d="M328.7,251.3c.4.4.7.7,1.1,1.1,0,0,.2.2.3.2.1,0,.2,0,.4,0,.1,0,.3,0,.4,0,.1,0,.2-.1.3-.2.2-.2.3-.4.3-.7,0-.3-.1-.5-.3-.7-.4-.4-.7-.7-1.1-1.1,0,0-.2-.2-.3-.2-.1,0-.2,0-.4,0-.1,0-.3,0-.4,0-.1,0-.2.1-.3.2-.2.2-.3.4-.3.7,0,.3.1.5.3.7h0Z"/>
      <path class="cls-2" d="M327.6,237.6c.4.4.7.9,1.1,1.3,0,0,.2.2.3.2.1,0,.2,0,.4,0,.1,0,.3,0,.4,0,.1,0,.2-.1.3-.2.2-.2.3-.4.3-.7,0,0,0-.2,0-.3,0-.2-.1-.3-.3-.4-.4-.4-.7-.9-1.1-1.3,0,0-.2-.2-.3-.2-.1,0-.2,0-.4,0-.1,0-.3,0-.4,0-.1,0-.2.1-.3.2-.2.2-.3.4-.3.7,0,0,0,.2,0,.3,0,.2.1.3.3.4h0Z"/>
      <path class="cls-2" d="M219,187.4c-.8.4-1.6.9-2.5,1.3-.5.2-.6.9-.4,1.4.3.5.9.6,1.4.4.8-.4,1.6-.9,2.5-1.3.5-.2.6-.9.4-1.4-.3-.5-.9-.6-1.4-.4h0Z"/>
      <path class="cls-2" d="M221,193.9c-.4.3-.7.6-1.1.9,0,0-.2.2-.2.3,0,.1,0,.2,0,.4,0,.1,0,.3,0,.4,0,.1.1.2.2.3.2.2.4.3.7.3,0,0,.2,0,.3,0,.2,0,.3-.1.4-.3.4-.3.7-.6,1.1-.9,0,0,.2-.2.2-.3,0-.1,0-.2,0-.4,0-.1,0-.3,0-.4,0-.1-.1-.2-.2-.3-.2-.2-.4-.3-.7-.3h-.3c-.2,0-.3.2-.4.3h0Z"/>
      <path class="cls-2" d="M258.9,242.8c-.2.9-.3,1.8-.5,2.7,0,.3,0,.5.1.8.1.2.4.4.6.5.3,0,.5,0,.8-.1.2-.1.4-.3.5-.6.2-.9.3-1.8.5-2.7,0-.3,0-.5-.1-.8-.1-.2-.4-.4-.6-.5-.3,0-.5,0-.8.1-.2.1-.4.3-.5.6h0Z"/>
      <path class="cls-2" d="M264,244.9c.2.6.3,1.2.5,1.8,0,.2.2.5.5.6.2.1.5.2.8.1.2,0,.5-.2.6-.5.1-.2.2-.5.1-.8-.2-.6-.3-1.2-.5-1.8,0-.2-.2-.5-.5-.6-.2-.1-.5-.2-.8-.1-.2,0-.5.2-.6.5-.1.2-.2.5-.1.8h0Z"/>
      <path class="cls-2" d="M205.2,233.7c0,0-.1.1-.2.2,0,0,.1-.1.2-.2-.8.6-1.6,1.1-2.5,1.4,0,0,.2,0,.2-.1-.1,0-.3.1-.4.2-.2,0-.5.2-.6.5-.1.2-.2.5-.1.8.2.5.7.9,1.2.7,1.3-.5,2.5-1.2,3.6-2,.2-.2.3-.5.3-.7s-.1-.5-.3-.7c-.2-.2-.4-.3-.7-.3-.3,0-.5.1-.7.3h0Z"/>
      <path class="cls-2" d="M208.3,242.7c1.3,0,1.3-2,0-2s-1.3,2,0,2h0Z"/>
      <path class="cls-2" d="M281.4,211.6c.3.7.6,1.3.9,2,0,.2.4.4.6.5.2,0,.6,0,.8-.1.2-.1.4-.3.5-.6,0,0,0-.2,0-.3,0-.2,0-.3-.1-.5-.3-.7-.6-1.3-.9-2,0-.2-.4-.4-.6-.5-.2,0-.6,0-.8.1-.2.1-.4.3-.5.6,0,0,0,.2,0,.3,0,.2,0,.3.1.5h0Z"/>
      <path class="cls-2" d="M276.7,212.4c-.1.8-.3,1.6-.4,2.5,0,.3,0,.5.1.8.1.2.4.4.6.5.3,0,.5,0,.8-.1.2-.1.4-.3.5-.6.1-.8.3-1.6.4-2.5,0-.3,0-.5-.1-.8-.1-.2-.4-.4-.6-.5-.3,0-.5,0-.8.1-.2.1-.4.3-.5.6h0Z"/>
      <path class="cls-2" d="M99.4,230.9c-.6.4-1.2.8-1.8,1.3-.2.2-.4.3-.5.6,0,.2,0,.6.1.8.1.2.3.4.6.5.3,0,.6,0,.8-.1.6-.4,1.2-.8,1.8-1.3.2-.2.4-.3.5-.6,0-.2,0-.6-.1-.8-.1-.2-.3-.4-.6-.5-.3,0-.6,0-.8.1h0Z"/>
      <path class="cls-2" d="M105,235.9c-1.5,1.3-3,2.7-4.5,4-.4.3-.4,1.1,0,1.4.4.4,1,.4,1.4,0,1.5-1.3,3-2.7,4.5-4,.4-.3.4-1.1,0-1.4-.4-.4-1-.4-1.4,0h0Z"/>
      <path class="cls-2" d="M107.2,239c-1.4,1.1-2.6,2.4-3.7,3.8-.1.2-.2.6-.1.8,0,.2.2.5.5.6.2.1.5.2.8.1.3,0,.4-.2.6-.5-.2.2,0,0,0,0,0,0,.1-.2.2-.2.1-.2.3-.3.4-.5.3-.3.6-.6.8-.9.6-.6,1.2-1.1,1.9-1.6.2-.1.3-.5.3-.7s-.1-.5-.3-.7c-.2-.2-.4-.3-.7-.3-.3,0-.5.1-.7.3h0Z"/>
      <path class="cls-2" d="M111.2,243.7c-.9.8-1.8,1.6-2.7,2.4-.4.3-.4,1.1,0,1.4.4.4,1,.4,1.4,0,.9-.8,1.8-1.6,2.7-2.4.4-.3.4-1.1,0-1.4-.4-.4-1-.4-1.4,0h0Z"/>
      <path class="cls-2" d="M115.8,249.5c-.5.4-.9.7-1.3,1.2-.4.4-.8.9-1.1,1.4-.3.4-.1,1.1.4,1.4.5.3,1.1.1,1.4-.4.1-.2.3-.4.5-.6,0,0-.1.1-.2.2.4-.6.9-1.1,1.5-1.5,0,0-.1.1-.2.2,0,0,0,0,0,0,.1,0,.2-.1.3-.3,0,0,.1-.2.2-.3,0-.2,0-.6-.1-.8-.1-.2-.3-.4-.6-.5-.2,0-.6,0-.8.1h0Z"/>
      <path class="cls-2" d="M113.8,267.8c1.3,1.6,2.5,3.3,3.8,4.9.3.4,1.1.4,1.4,0,.4-.4.3-1,0-1.4-1.3-1.6-2.5-3.3-3.8-4.9-.3-.4-1.1-.4-1.4,0-.4.4-.3,1,0,1.4h0Z"/>
      <path class="cls-2" d="M109.9,269.5c1,1.2,1.9,2.4,2.9,3.6.2.2.5.3.7.3s.5-.1.7-.3c.2-.2.3-.4.3-.7,0-.3-.1-.5-.3-.7l-2.9-3.6c-.2-.2-.5-.3-.7-.3s-.5.1-.7.3c-.2.2-.3.4-.3.7,0,.3.1.5.3.7h0Z"/>
      <path class="cls-2" d="M201.4,304.9c2.7,2.5,5.4,5,8.1,7.4.4.4,1,.4,1.4,0,.4-.4.4-1,0-1.4-2.7-2.5-5.4-5-8.1-7.4-.4-.4-1-.4-1.4,0s-.4,1,0,1.4h0Z"/>
      <path class="cls-2" d="M208.6,304.9l5.6,5.1c.4.4,1,.4,1.4,0,.4-.4.4-1,0-1.4l-5.6-5.1c-.4-.4-1-.4-1.4,0-.4.4-.4,1,0,1.4h0Z"/>
      <path class="cls-2" d="M214.3,304.5c1.2,1.4,2.7,2.6,4.2,3.7.4.3,1.1,0,1.4-.4.3-.5.1-1.1-.4-1.4-.2-.1-.4-.2-.5-.4,0,0-.2-.1-.3-.2,0,0,0,0-.1,0,0,0-.2-.1,0,0,.1,0,0,0,0,0,0,0,0,0-.1,0,0,0-.2-.1-.2-.2-.2-.1-.3-.3-.5-.4-.7-.6-1.3-1.2-1.9-1.9-.3-.4-1.1-.4-1.4,0-.4.4-.4,1,0,1.4h0Z"/>
      <path class="cls-2" d="M219.4,304c1,.9,1.9,1.8,3,2.6.2.2.4.3.7.3s.5-.1.7-.3c.2-.2.3-.4.3-.7,0-.2,0-.5-.3-.7-1-.8-2-1.7-3-2.6-.4-.4-1-.4-1.4,0-.4.4-.4,1,0,1.4h0Z"/>
      <path class="cls-2" d="M225,302.7c.7.7,1.5,1.5,2.2,2.2.2.2.5.3.7.3s.5-.1.7-.3c.2-.2.3-.4.3-.7,0-.3-.1-.5-.3-.7-.7-.7-1.5-1.5-2.2-2.2-.2-.2-.5-.3-.7-.3s-.5.1-.7.3c-.2.2-.3.4-.3.7,0,.3.1.5.3.7h0Z"/>
      <path class="cls-2" d="M132.7,284c-.4.3-.9.6-1.3.9-.1,0-.2.1-.3.3,0,0-.1.2-.2.3,0,.1,0,.3,0,.4,0,.1,0,.3.1.4.1.2.3.4.6.5.3,0,.5,0,.8-.1.4-.3.9-.6,1.3-.9.1,0,.2-.1.3-.3,0,0,.1-.2.2-.3,0-.1,0-.3,0-.4,0-.1,0-.3-.1-.4-.1-.2-.3-.4-.6-.5-.3,0-.5,0-.8.1h0Z"/>
      <path class="cls-2" d="M135.9,289.6c1.3,0,1.3-2,0-2s-1.3,2,0,2h0Z"/>
      <path class="cls-2" d="M153.2,302.4c-.4.4-.7.7-1.1,1.1,0,0-.2.2-.2.3,0,.1,0,.2,0,.4,0,.1,0,.3,0,.4,0,.1.1.2.2.3.2.2.4.3.7.3.3,0,.5-.1.7-.3.4-.4.7-.7,1.1-1.1,0,0,.2-.2.2-.3,0-.1,0-.2,0-.4,0-.1,0-.3,0-.4,0-.1-.1-.2-.2-.3-.2-.2-.4-.3-.7-.3-.3,0-.5.1-.7.3h0Z"/>
      <path class="cls-2" d="M52.1,333.1c-.7.8-1.5,1.6-2.2,2.5-.2.2-.3.4-.3.7s.1.5.3.7c.2.2.4.3.7.3.3,0,.5,0,.7-.3.7-.8,1.5-1.6,2.2-2.5.2-.2.3-.4.3-.7s-.1-.5-.3-.7c-.2-.2-.4-.3-.7-.3-.3,0-.5,0-.7.3h0Z"/>
      <path class="cls-2" d="M57.8,335.3c0,0,0,.1,0,.2,0,.2,0,.3,0,.5,0,.2.2.4.3.6,0,.1.2.3.3.4,0,0,0,.1.2.2.2.2.3.3.6.4.1,0,.2.1.4.1.1,0,.3,0,.4,0,.1,0,.2,0,.3-.2.1,0,.2-.2.3-.3.1-.2.2-.5.1-.8,0-.2-.2-.5-.5-.6,0,0-.2,0-.2-.1,0,0,.1.1.2.2-.1,0-.2-.2-.3-.3,0,0,.1.1.2.2,0-.1-.1-.2-.2-.3,0,0,0,.2.1.2,0-.1,0-.2-.1-.4,0,0,0,.2,0,.3,0,0,0-.2,0-.2,0-.1,0-.3,0-.4,0-.1-.1-.2-.2-.3,0,0-.2-.2-.3-.2-.1,0-.2,0-.4,0-.3,0-.5,0-.7.3-.2.2-.3.4-.3.7h0Z"/>
      <path class="cls-2" d="M87.6,334.6v.9c0,.1,0,.3,0,.4,0,.1.1.2.2.3,0,0,.2.2.3.2.1,0,.2,0,.4,0h.3c.2,0,.3-.2.4-.3,0,0,.1-.1.2-.2,0-.2.1-.3.1-.5v-.9c0-.1,0-.3,0-.4,0-.1-.1-.2-.2-.3,0,0-.2-.2-.3-.2-.1,0-.2,0-.4,0,0,0-.2,0-.3,0-.2,0-.3.1-.4.3,0,0-.1.1-.2.2,0,.2-.1.3-.1.5h0Z"/>
      <path class="cls-2" d="M153.8,337.9c0,.3-.1.7,0,1.1,0,.2,0,.4.1.6,0,.2.1.4.2.6,0,.1.1.2.3.3,0,0,.2.1.3.2.2,0,.6,0,.8-.1.2-.1.4-.3.5-.6,0,0,0-.2,0-.3,0-.2,0-.3-.1-.5,0,0,0,0,0,0,0,0,0,.2.1.2,0-.2-.1-.4-.2-.6,0,0,0,.2,0,.3,0-.2,0-.4,0-.6,0,0,0,.2,0,.3,0,0,0-.2,0-.3,0-.3,0-.5-.1-.8-.1-.2-.4-.4-.6-.5-.3,0-.5,0-.8.1-.2.1-.4.3-.5.6h0Z"/>
      <path class="cls-2" d="M158.6,339.9c1.3,0,1.3-2,0-2s-1.3,2,0,2h0Z"/>
      <path class="cls-2" d="M457.2,293.1c.4.7.7,1.5,1.1,2.2.1.2.4.4.6.5.2,0,.6,0,.8-.1.2-.1.4-.3.5-.6,0-.3,0-.5-.1-.8-.4-.7-.7-1.5-1.1-2.2-.1-.2-.4-.4-.6-.5-.2,0-.6,0-.8.1-.2.1-.4.3-.5.6,0,.3,0,.5.1.8h0Z"/>
      <path class="cls-2" d="M453.1,295.1c0,0,0,.1,0,.2,0,0,0,.1,0,.2,0,0,0,0,0,.1,0,.1,0,.2.1.3,0,0,0,0,0,0,0,0,0,0,0,0,0,0,.1.2.2.3,0,0,0,0,0,0,0,0,.2.2.3.2.1,0,.2.1.4.1.1,0,.3,0,.4,0,.1,0,.2,0,.3-.2.1,0,.2-.2.3-.3,0,0,0-.2.1-.2,0-.2,0-.4,0-.5v-.2c-.2-.2-.3-.3-.5-.4,0,0,0,0,0,0,0,0,.1.1.2.2,0,0-.1,0-.2-.2,0,0,.1.1.2.2,0,0,0-.1-.1-.2,0,0,0,.2.1.2,0,0,0-.1,0-.2,0,0,0,.2,0,.3,0,0,0,0,0,0,0-.1,0-.3,0-.4,0-.1-.1-.2-.2-.3,0,0-.2-.2-.3-.2-.1,0-.2,0-.4,0,0,0-.2,0-.3,0-.2,0-.3.1-.4.3,0,0-.1.1-.2.2,0,.2-.1.3-.1.5h0Z"/>
      <path class="cls-2" d="M325.2,328.4c-.4.7-.9,1.3-1.3,2-.1.2-.2.5-.1.8,0,.2.2.5.5.6.2.1.5.2.8.1.3,0,.4-.2.6-.5l1.3-2c.1-.2.2-.5.1-.8,0-.2-.2-.5-.5-.6-.2-.1-.5-.2-.8-.1-.3,0-.4.2-.6.5h0Z"/>
      <path class="cls-2" d="M329.4,330.6c0,.3-.1.6-.2.9,0,.1,0,.3,0,.4,0,.1,0,.3.1.4,0,.1.1.2.3.3,0,0,.2.1.3.2,0,0,.2,0,.3,0,.2,0,.3,0,.5-.1,0,0,.1-.1.2-.2.1-.1.2-.3.3-.4,0-.3.1-.6.2-.9,0-.1,0-.3,0-.4,0-.1,0-.3-.1-.4,0-.1-.1-.2-.3-.3,0,0-.2-.1-.3-.2h-.3c-.2,0-.3,0-.5.1,0,0-.1.1-.2.2-.1.1-.2.3-.3.4h0Z"/>
      <path class="cls-2" d="M334.5,331.3c0,.2.1.4.2.7,0,.1,0,.2.2.3,0,.1.2.2.3.3.1,0,.2.1.4.1.1,0,.3,0,.4,0,0,0,.2,0,.2-.1.2,0,.3-.2.4-.4,0,0,0-.2.1-.2,0-.2,0-.4,0-.5,0-.2-.1-.4-.2-.7,0-.1,0-.2-.2-.3,0-.1-.2-.2-.3-.3-.1,0-.2-.1-.4-.1-.1,0-.3,0-.4,0,0,0-.2,0-.2.1-.2,0-.3.2-.4.4,0,0,0,.2-.1.2,0,.2,0,.4,0,.5h0Z"/>
      <path class="cls-2" d="M252.5,344.9c.1.4.3.7.4,1.1,0,.1,0,.2.2.3,0,.1.2.2.3.3.1,0,.2.1.4.1.1,0,.3,0,.4,0,.2,0,.5-.2.6-.5,0,0,0-.2.1-.2,0-.2,0-.4,0-.5-.1-.4-.3-.7-.4-1.1,0-.1,0-.2-.2-.3,0-.1-.2-.2-.3-.3-.1,0-.2-.1-.4-.1-.1,0-.3,0-.4,0-.2,0-.5.2-.6.5,0,0,0,.2-.1.2,0,.2,0,.4,0,.5h0Z"/>
      <path class="cls-2" d="M257.4,345c1.3,0,1.3-2,0-2s-1.3,2,0,2h0Z"/>
    </g>
    <g>
      <g>
        <path class="cls-2" d="M81,176.6c-1.3,0-2.6-.4-3.8-1-1-.5-2.7-1.3-3-2.5-.3-1.2,1.1-2.2,2.1-2.4,1.5-.2,3,.5,4.4,1.1,1,.5,2-.7,1.2-1.6-.8-.9-.8-2.5.2-3.3,1-.8,2.5-.4,3.2.6.6.9,2.3.3,1.8-.8-1.9-4.6-1-11.8,4.2-14.1,2.4-1.1,5.2,0,6.9,1.9,1.8,2.1,2.3,4.9,2.1,7.6,0,.8,1.2,1.4,1.7.7,1.2-1.4,3.4-2.8,5.3-1.7,1.3.8,1.7,2.8.5,3.9-.9.8.3,2,1.2,1.6,2.8-1.3,6.4-3.7,9.4-1.5,2.7,2,1.2,4.7-.6,6.6-.6.7,0,2,1,1.7,10.3-3.9,21.8-4.3,32.4-1,1.2.4,2.5.8,3.7,1.3,1.1.4,2.4.9,3.2,1.9,1.9,2.4-2.5,4.6-4.3,5.2-2.7.8-5.6,1-8.3,1.2-3,.2-6,.2-9.1.2-7-.2-13.9-1-20.8-1.8-1-.1-1.4,1.5-.5,1.9.9.4,1.1,1.5.7,2.4-.6,1.2-2.2,1.5-3.4,1.5-2.8,0-5.7-1.1-7.9-2.9-.7-.5-1.7-.2-1.7.7,0,2.5-4.5,2.9-6.2,3.1-2.6.3-6.9-.1-7.1-3.6,0-1.1-1.6-1.4-2-.3-.6,2.1-4.7,2-6.3,2-.8,0-7.7,0-6.6-1.8-.6-.3-1.2-.5-1.8-.8-.2.8-1.6.9-2.3,1-.9.2-1.9.3-2.8.3-2,.1-4,0-5.9-.2-1.9-.3-3.8-.8-5.6-1.5-.8-.3-1.7-.6-2.2-1.3-.9-1.2.9-1.6,1.8-1.9,3.8-1.2,8.1-.9,12-.8,4.2,0,8.4.2,12.6.5,1.3,0,1.3-1.9,0-2-4.3-.3-8.6-.5-12.9-.5-4,0-8.4-.3-12.3.9-1.4.4-3.1,1-3.5,2.6-.3,1.5.8,2.7,1.9,3.5,1.5,1,3.5,1.5,5.2,1.9,1.8.4,3.7.7,5.5.8,2.2.1,4.3,0,6.4-.4,1.6-.3,3.5-.7,3.9-2.5.3-1.1-1.2-1.8-1.8-.8-.8,1.4-.2,3,1.1,3.8,1.6,1,3.9.9,5.8,1,3,0,8.6.2,9.7-3.5-.7,0-1.3-.2-2-.3.3,4.6,5.2,6,9.1,5.6,3-.3,8.2-1.1,8.2-5.1-.6.2-1.1.5-1.7.7,3,2.4,7.8,4.4,11.7,3.1,1.6-.5,2.9-1.7,3.1-3.4.2-1.5-.4-3.2-1.8-3.8-.2.6-.3,1.2-.5,1.9,7,.8,14,1.6,21.1,1.8,3.4,0,6.9,0,10.3-.3,2.9-.2,5.9-.5,8.6-1.6,2.2-.9,4.8-2.7,5-5.2.2-2.5-2-3.9-4-4.8-5.6-2.4-11.8-3.7-17.9-3.9-6.9-.3-13.9.8-20.3,3.2.3.6.6,1.1,1,1.7,2.4-2.5,4-6.2,1.1-9-3.8-3.6-8.3-.9-12.3.8.4.5.8,1,1.2,1.6,2-1.8,1.5-5.1-.5-6.7-2.6-2.1-6.3-.6-8.1,1.6.6.2,1.1.5,1.7.7.2-3.3-.6-6.7-2.8-9.2-2.1-2.2-5.4-3.4-8.3-2.5-6.5,2.2-8.3,11-6,16.7.6-.3,1.2-.5,1.8-.8-1.3-2-4.2-2.7-6.2-1.2-2,1.5-2,4.5-.4,6.3.4-.5.8-1,1.2-1.6-1.9-.9-4-1.8-6.2-1.3-1.6.4-3.1,1.8-3.3,3.5-.2,2,1.4,3.4,2.9,4.4,1.8,1.1,3.8,1.7,5.9,1.8,1.3,0,1.3-1.9,0-2h0Z"/>
        <path class="cls-2" d="M86.6,169.5c0,0,.1-.2,0,0,0,0,0,0,0-.1,0,0,0-.2.1-.3,0,0,.1-.2.2-.3,0,0,0,0,0-.1,0,0-.1.2,0,0,.1-.2.3-.3.4-.4,0,0,0,0,.1,0,0,0,.2-.1,0,0-.1.1,0,0,0,0,0,0,0,0,.1,0,.2-.1.3-.2.5-.3,0,0,.2,0,0,0,0,0,0,0,.1,0,0,0,.2,0,.3,0,.1,0,.2,0,.3,0,0,0,0,0,.1,0,.2,0,0,0,0,0,.2,0,.4,0,.6,0,.5,0,1-.5,1-1,0-.6-.4-1-1-1-1,0-2.1.3-3,.8-.9.6-1.6,1.5-2,2.5-.2.5.2,1.1.7,1.2.6.1,1-.2,1.2-.7h0Z"/>
        <path class="cls-2" d="M102.9,168c2.1-1.3,4.8-.8,6.3,1.1.3.4.9.7,1.4.4.4-.2.7-.9.4-1.4-1-1.3-2.4-2.3-4-2.7-1.7-.4-3.5,0-5,.8-1.1.7,0,2.4,1,1.7h0Z"/>
      </g>
      <g>
        <path class="cls-2" d="M390.5,137.6c-1.1-.3-2.2-.9-3.1-1.7-.2-.2-.4-.4-.7-.6,0,0,0-.1,0,0,0,0,0-.1-.1-.2,0,0,0-.1-.1-.2,0-.1,0-.1,0,0,0-.1,0-.3-.1-.4,0-.1,0-.1,0,0,0,0,0-.1,0-.2,0,0,0-.1,0-.2,0,.1,0,.1,0,0,0-.1,0-.2,0-.3,0,0,0,0,0-.1,0,0,0,0,0,0,0-.1.1-.2.2-.3,0,0,0-.1,0,0,0,0,0,0,.1-.1,0,0,.2-.2.3-.3-.1.1.2-.1.2-.1,0,0,.4-.2.2-.1.1,0,.3,0,.4-.1,0,0,.1,0,.2,0,0,0,0,0,0,0,.5,0,1,0,1.3.3.5.3.8.5,1.2,1,.4.4,1.1.4,1.4,0s.4-1,0-1.4c-1.6-1.9-4.5-2.5-6.4-.8-.8.7-1.4,1.9-1.3,3,0,1.3.9,2.4,1.9,3.2,1.1.9,2.4,1.6,3.8,2.1.5.2,1.1-.2,1.2-.7.1-.5-.2-1.1-.7-1.2h0Z"/>
        <path class="cls-2" d="M391.5,131.4c-1-3.9-.2-10,4.4-11.3,1.8-.5,3.8.3,5.1,1.7,1.4,1.5,1.8,3.7,1.6,5.7,0,.5.5,1,1,1s.9-.5,1-1c.4-4-1.7-8.2-5.7-9.3-4.3-1.2-8,2.1-9.2,6-.8,2.5-.7,5.2-.1,7.7.3,1.2,2.2.7,1.9-.5h0Z"/>
        <path class="cls-2" d="M389.1,137.1c-1.8-.1-4.2.1-4.9,2.2-.7,2.3,1.6,3.7,3.5,4.2,4.6,1.3,9.3,1.7,14,1.3,1.3-.1,1.3-2.1,0-2-3.5.3-7,.2-10.4-.5-.9-.2-1.7-.4-2.6-.6-.8-.2-1.7-.4-2.3-1-.5-.5-.3-1.1.3-1.4.7-.4,1.6-.2,2.4-.2,1.3,0,1.3-1.9,0-2h0Z"/>
        <path class="cls-2" d="M404.5,124.3s0,0,0,0c0,0,0,0,0,0,0,0,.2-.1.2-.1.1,0,.3-.1.4-.2,0,0,0,0,0,0,0,0,0,0,.1,0,0,0,.2,0,.2,0,.1,0,.3,0,.4,0,.1,0,0,0,0,0,0,0,0,0,.1,0,0,0,.2,0,.3,0,0,0,.1,0,.2,0,0,0,0,0,.1,0,.1,0,0,0,0,0,.1,0,.3,0,.4.1,0,0,0,0,0,0,0,0,0,0,0,0,0,0,.2,0,.2.1,0,0,.2.1.2.1-.1,0-.1-.1,0,0,0,0,0,0,0,0,0,0,.1.1.2.2,0,0,0,0,0,0,0,0,0,0,0,.1,0,0,0,.2.1.3,0,.2,0-.2,0,0,0,.2.1.4.1.6,0,.2,0-.2,0,0,0,.1,0,.2,0,.3,0,.2,0,.4,0,.6,0,.2,0,.4,0,.5,0,.1,0,.1,0,0,0,0,0,.1,0,.2,0,.1,0,.2,0,.3,0,.5.1,1.1.7,1.2.5.1,1.1-.1,1.2-.7.2-1.6.4-3.2-.6-4.6-.9-1.2-2.5-1.5-3.9-1.2-.8.2-1.5.6-2.1,1.1-.4.3-.4,1.1,0,1.4.4.4,1,.4,1.4,0h0Z"/>
        <path class="cls-2" d="M409.4,128.1c3.2-.9,7-.2,8.9,2.7.4.6.8,1.4.9,2.2.1.8-.2,1.5-.7,2.1-1.1,1.2-2.6,2-4.2,2.1-.5,0-1,.4-1,1s.5,1,1,1c1.7-.1,3.3-.7,4.7-1.8,1.3-1.1,2.5-2.6,2.3-4.4-.3-3.3-3.1-6-6.2-6.9-2-.6-4.1-.5-6.1,0-1.2.4-.7,2.3.5,1.9h0Z"/>
        <path class="cls-2" d="M416.3,138.7c.7,0,1.6.5,1.8,1.3.1.7-.6,1.2-1.2,1.5-1.7.8-3.9.9-5.7,1.1-4.3.5-8.6.6-12.9.3-1.3-.1-1.3,1.9,0,2,5.8.5,11.8.2,17.6-1,1.8-.4,4-1.2,4.2-3.3.2-2.2-1.8-3.6-3.8-3.8-1.3-.1-1.3,1.9,0,2h0Z"/>
        <path class="cls-2" d="M400.6,130.1c.5-.2,1.1-.4,1.6-.5.1,0,.3,0,.4,0-.2,0,.1,0,.2,0,.3,0,.5,0,.8,0,.1,0,.1,0,0,0,0,0,.1,0,.2,0,.1,0,.2,0,.3,0,0,0,.2,0,.2,0,.1,0,.1,0,0,0,0,0,0,0,.1,0,0,0,.2.1.3.2,0,0,0,0,.1,0,0,0-.1,0,0,0,0,0,.2.1.2.2,0,0,0,0,0,0,0,0,0,0,0,.1.3.4.9.7,1.4.4.4-.3.7-.9.4-1.4-.6-1-1.7-1.6-2.8-1.8-1.4-.2-2.7.2-3.9.6-.5.2-.9.7-.7,1.2.2.5.7.9,1.2.7h0Z"/>
        <path class="cls-2" d="M392.1,134.7c.1-.2.3-.3.4-.4,0,0-.1.1-.2.2.2-.1.4-.3.6-.3,0,0-.2,0-.2.1.2,0,.5-.2.7-.2,0,0-.2,0-.3,0,.2,0,.4,0,.7,0,0,0-.2,0-.3,0,0,0,.1,0,.2,0,.3,0,.5,0,.8-.1.2-.1.4-.4.5-.6,0-.3,0-.5-.1-.8-.1-.2-.3-.4-.6-.5-.6-.1-1.3-.1-2,.1-.6.2-1.2.6-1.6,1.1-.2.2-.3.4-.3.7s.1.5.3.7c.2.2.4.3.7.3.2,0,.5,0,.7-.3h0Z"/>
      </g>
      <g>
        <path class="cls-2" d="M220.5,178.3c-3.3-2.6-5.1-6.5-5.1-10.7,0-7.5,6.1-13.6,13.6-13.6s12.6,5,13.5,11.7l-2,.3c-.8-5.7-5.8-10-11.5-10s-11.6,5.2-11.6,11.6,1.6,6.9,4.4,9.1l-1.2,1.6Z"/>
        <path class="cls-2" d="M213.3,175.1c-1.1.1-2.2.3-3.3.4-.3,0-.5,0-.7.3s-.3.5-.3.7c0,.3,0,.5.3.7.2.2.5.3.7.3,1.1-.1,2.2-.3,3.3-.4.3,0,.5,0,.7-.3.2-.2.3-.5.3-.7,0-.3,0-.5-.3-.7-.2-.2-.5-.3-.7-.3h0Z"/>
        <path class="cls-2" d="M211.6,165.4c-.3,0-.7,0-1,0,0,0,.2,0,.3,0-.7,0-1.3-.3-2-.5-.2,0-.6,0-.8.1-.2.1-.4.4-.5.6,0,.3,0,.5.1.8.1.2.3.4.6.5,1,.4,2.1.6,3.2.6.5,0,1-.5,1-1,0-.5-.4-1-1-1h0Z"/>
        <path class="cls-2" d="M216.7,155.3c-.6-.5-1.1-.9-1.7-1.4,0,0-.2-.2-.3-.2-.1,0-.2,0-.4,0-.2,0-.5.1-.7.3-.2.2-.3.4-.3.7,0,.3,0,.5.3.7.6.5,1.1.9,1.7,1.4,0,0,.2.2.3.2.1,0,.2,0,.4,0,.2,0,.5-.1.7-.3.2-.2.3-.4.3-.7,0-.3,0-.5-.3-.7h0Z"/>
        <path class="cls-2" d="M226.8,151.1v-1.9c0-.3-.1-.5-.3-.7-.2-.2-.5-.3-.7-.3-.3,0-.5,0-.7.3-.2.2-.3.4-.3.7v1.9c0,.3.1.5.3.7.2.2.5.3.7.3.3,0,.5,0,.7-.3.2-.2.3-.4.3-.7h0Z"/>
        <path class="cls-2" d="M237.4,152.4c.2-.6.4-1.2.7-1.9,0-.2,0-.6-.1-.8-.1-.2-.4-.4-.6-.5-.3,0-.5,0-.8.1-.2.1-.4.3-.5.6-.2.6-.4,1.2-.7,1.9,0,.2,0,.6.1.8s.4.4.6.5c.3,0,.5,0,.8-.1.2-.1.4-.3.5-.6h0Z"/>
        <path class="cls-2" d="M244.6,160.1c.6-.4,1.2-.7,1.8-1.1.2-.1.4-.3.5-.6,0-.2,0-.6-.1-.8-.1-.2-.3-.4-.6-.5-.3,0-.5,0-.8.1-.6.4-1.2.7-1.8,1.1-.2.1-.4.3-.5.6,0,.2,0,.6.1.8.1.2.3.4.6.5.3,0,.5,0,.8-.1h0Z"/>
      </g>
    </g>
    <g>
      <g>
        <path class="cls-1" d="M421.6,379c0,0,0-.1-.1-.2-.8.3-1.6.6-2.4.8,0,14.5-.3,29.4-4.9,43.3,1.3-.8,2.7-1.8,4.2-1.8,0,0,.1,0,.2,0,1.7,0,3.4,1.1,4.8,2,.4.2.7.4,1.1.7.5.3,1,.5,1.5.7,0,0,0,0,.1,0-4.5-14.3-3.5-29.9-3.5-44.7-.4-.3-.7-.6-1-.9Z"/>
        <path class="cls-1" d="M441.4,373.4s0,0,0,0c0,0-.2,0,0,0Z"/>
        <path class="cls-1" d="M441.2,373.4s0,0,0,0c0,0-.2,0,0,0Z"/>
        <path class="cls-1" d="M413,370s0,0,0,0c.2.1,0,0,0,0Z"/>
        <path class="cls-1" d="M444.1,369.2s0,0,0,0c0,0,0,0,0,0,0,0,0,0,0,0Z"/>
        <path class="cls-1" d="M438.8,367.6s0,0,0,0c0,0,0,0,0,0,0,0,0,0,0,0Z"/>
        <path class="cls-1" d="M449.4,347c-1.1-.4-2.4,0-3.5,0-1.1.1-1.2-1.3-.5-1.9,1.4-1,2-3.2,1.3-4.8-.9-1.8-3.1-2-4.7-1.3-.2,0-.3,0-.5,0-.4.5-.8,1.1-1.3,1.5-1,.8-2.4-.6-1.4-1.4,1.5-1.2,2.4-3.4,3-5.2.6-1.9.8-3.8.6-5.8-.3-3.5-2-6.9-4.6-9.3-2.7-2.5-6.5-3.8-10.2-3.5-2,.2-3.8.9-5.4,2-1.5,1-3,2.4-3,4.4,0,1.3-1.9,1.3-2,0-.2-1.7-3.1-1.9-4.3-1.6-2.1.4-4,3-4.1,5,0,.2,0,.3-.2.5.6.7,1.1,1.4,1.6,2.2,0,0,0,0,0,0,.8-.1,1.5-.1,2.3-.1,1.2,0,2.2.7,3.4,1,1.3.3.7,2.2-.5,1.9-.9-.2-1.8-.9-2.8-.9-1,0-2.1,0-3,.3-1.6.7-2.6,2.3-3.2,3.9-.2.5-.7.9-1.2.7-.5-.1-.9-.7-.7-1.2.7-2,1.9-3.9,3.8-5-1.4-2.2-3.2-4-5.8-4.7-2.8-.7-5.7.3-7.7,2.3-2.1,2-3.5,4.7-4.1,7.6-.4,2-.8,5.3.9,6.8.7.6.1,1.7-.7,1.7-3.4-.1-1,7.3,1.1,8.5,1.2-.7,2.6-1.1,4.1-.9.4-1.4,1.5-2.4,2.4-3.4.4-.4,1-.4,1.4,0,.4.4.4,1,0,1.4-.4.4-.8.8-1.2,1.3-.3.4-.6.8-.7,1.4-.3,1.4.2,2.7.7,4,.2.5-.2,1.1-.7,1.2-.6.2-1-.2-1.2-.7-.4-1-.7-2.1-.8-3.2-2.8-.2-5.1,1.8-5.9,4.4-.8,2.5-.1,5.4,1.1,7.7,1.1,2.1,2.7,3.5,4.7,4.7,1.1.6,3.5,2.1,4.9,1.3.2-.4.4-.7.8-1,.8-.8,1.9.1,1.6,1,0,.2,0,.4-.2.6-.2.3-.4.6-.7.8-.8,1.9,1,3.8,2.6,4.9,1.6,1.1,3.6,1.9,5.6,2.2,4.3.6,9-.3,12.7-2.5,1.1-.7,2.1,1.1,1,1.7-.2.1-.5.3-.8.4,1,.9,2.4,1.5,3.7,2,1.4.5,3.1,1,4.6.8,3.6-.6,7.2-4.1,7.3-7.8,0-1.3,2-1.3,2,0,0,.1,0,.2,0,.3,0,0,0,0,0,0,0,0,.2,0,.2.1,0,0,0,0,0,0,0,0,.1,0,.2,0,0,0,0,0,0,0,0,0,.1,0,.2,0,0,0,0,0,0,0,0,0,.2,0,.2,0,0,0,0,0,0,0,.1,0,.2-.1.4-.2,0,0,.1,0,.2-.1,0,0,0,0,0,0,.2-.2.5-.4.7-.7,0,0,0,0,0,0,0,0,0-.1.1-.2,0-.1.2-.3.2-.4,0-.2.2-.3.2-.5,0,0,0,0,0,0,0,0,0,0,0,0,0,0,0-.1,0-.2,0-.2.1-.3.1-.5,0,0,0-.2,0-.2,0,0,0,0,0,0,0,0,0,0,0,0,0-.2,0-.3,0-.5,0,0,0-.1,0-.2,0,0,0,0,0,0,0,0,0-.2,0-.3,0,0,0,0,0,0,0,0,0,0,0,0,0,0,0-.1-.1-.2,0,0,0,0,0,0,0,0-.1-.1-.2-.2,0,0,0,0,0,0,0,0,0,0,0,0,0,0-.1,0-.2-.1,0,0,0,0-.1,0-1,.1-2,.2-3,.2,0,0,0,0,0,0-.6.9-1.6,1.6-2.7,1.9-.5.2-1.1-.2-1.2-.7-.2-.5.2-1.1.7-1.2,0,0,.2,0,.2,0,0,0,.2-.1.1,0-.1,0,0,0,0,0,0,0,.1,0,.2,0,.1,0,.2-.1.3-.2,0,0,0,0,.1,0,0,0,0,0,0,0,.1-.1.3-.3.4-.4,0,0,0,0,0,0,0,0,0,0,0,0,0,0,0,0,0-.1,0,0,.1-.2.2-.3,0,0,0,0,0-.1,0-.1,0-.2.1-.3,0-.2.1-.5.2-.7,0,0,0-.1,0-.2,0,0,0,0,0,0,0,0,0,0,0,0,0,0,0,.2,0,0,0-.1,0-.2,0-.4,0-.3,0-.5,0-.8,0-.6.5-1,1-1,.5,0,1,.5,1,1,0,.7,0,1.3-.2,2,2.7,0,5.6-.7,7.6-2.6,1.8-1.7,2.9-4,3.5-6.4.6-2.4.6-5.2-.3-7.6-.5-1.2-1.3-2.7-2.7-3.2ZM413.6,367.8c-.6,0-1.2,0-1.8-.2,0,0,0,0,0,0,0,.2,0,.3,0,.5,0,.3.1.5.2.7,0,.1.1.3.2.4,0,0,0,.1.1.2,0,0,0,0,0,0,.1.1.3.3.4.4,0,0,0,0,0,0,0,0,.2.1.2.2.5.3.6.9.4,1.4-.2.5-.9.6-1.4.4-.7-.5-1.3-1.1-1.7-1.8-.4-.7-.6-1.6-.6-2.4,0-.2,0-.5.2-.6-.6-.3-1.1-.6-1.5-1-1.4-1.2-2.1-3-2.1-4.8,0-.6.5-1,1-1,.5,0,1,.5,1,1,0,.2,0,.4,0,.6,0,0,0,0,0,0,0,0,0,0,0,0,0,0,0,.2,0,.2,0,.2,0,.4.1.5,0,0,0,.2.1.3,0,0,0,0,0,0,0,0,0,0,0,0,.2.3.3.6.5.9,0,0,0,0,0,0,0,0,0,0,0,0,0,0,0,.1.1.2.1.1.2.3.4.4,0,0,.1.1.2.2,0,0,0,0,0,0,0,0,0,0,0,0,.1,0,.3.2.4.3.2,0,.3.2.5.3,0,0,0,0,0,0,0,0,.2,0,.3,0,.3.1.7.2,1,.3,0,0,.1,0,.1,0,.1,0,.2,0,.3,0,.2,0,.4,0,.6,0,.6,0,1,.5,1,1,0,.6-.5,1-1,1ZM436.8,350c-.5.3-1.1,0-1.4-.4,0,0-.1-.2-.2-.3,0,0,0,0,0,0,0,0,0,.1,0,0,0,0,0,0,0,0,0,0,0,0-.1-.1-.1-.2-.3-.3-.4-.4,0,0,0,0-.1,0,0,0-.2-.1-.3-.2,0,0-.2-.1-.3-.2,0,0,0,0,0,0,0,0,0,0,0,0,.1,0,0,0,0,0-.2,0-.4-.1-.6-.2,0,0,0,0,0,0,0,0,0,0,0,0-.1,0-.2,0-.3,0,0,0,0,0-.1,0,0,0,0,0,0,0,0,0,0,0,0,0,0,0-.1,0-.2,0,0,0-.1,0-.2,0,0,.3,0,.7.1,1,0,1.3-2,1.3-2,0,0-2.5-2.1-4.6-4.3-5.4-2.6-1-5.3,0-7,2-.8,1-2.2-.4-1.4-1.4,2.2-2.6,5.9-3.7,9.1-2.4,2.1.8,3.9,2.4,4.9,4.4,2.1-.7,4.3.3,5.5,2.2.3.5,0,1.1-.4,1.4Z"/>
        <path class="cls-1" d="M438.8,367.7s0,0,0,0c0,0,0,0,0,0Z"/>
        <path class="cls-1" d="M444.1,369.1s0,0,0,0c0,0,0,0,0,0,0,0,0,0,0,0Z"/>
        <path class="cls-3" d="M427.9,427.6c0,0-.1,0-.2,0-1.2-.4-2.4-1.2-3.5-1.9-.3-.2-.6-.4-.9-.6-.3-.2-.6-.4-.9-.6h-.1c-.9-.6-1.9-1.2-3-1.5-.3,0-.5-.1-.8-.1-1.3,0-2.6.8-3.9,1.6-.7.5-1.4.9-2.1,1.2,0,0-.1,0-.2,0-.2,0-.4-.1-.6-.3-.1-.2-.2-.4,0-.5,5.2-14.1,5.6-29.2,5.6-44.7v-.4s-.4,0-.4,0c-1.3.2-2.6.4-3.9.4s-2.8-.2-4.1-.5c-3-.7-5.5-2.1-7.1-3.9-1-1.2-1.5-2.5-1.5-3.7v-.3s-.3,0-.3,0c0,0-.2,0-.2,0-1,0-2.1-.3-3.3-.8-4.5-2.1-7.6-5.8-8.3-10.4-.3-2-.3-4.8,1.4-7.1.3-.4.7-.8,1.1-1.3l.2-.2-.2-.2c-2-1.8-3.4-5.8-3-8.4.2-1.2.7-2.1,1.6-2.5h.3c0-.1-.1-.4-.1-.4-.8-1.5-.9-3.8-.4-6.7.6-3.5,2.3-6.7,4.8-8.9,2-1.7,4.4-2.7,6.9-2.7s1.4,0,2,.2c1.4.3,2.8,1,4,2l.4.3v-.5c.7-2.4,2.9-5.2,5.7-5.6.3,0,.7,0,1,0,1.5,0,2.8.4,3.7,1.1l.3.2.2-.3c1.2-2.5,4.2-4.2,6.4-5,1.4-.5,2.8-.7,4.3-.7,5.2,0,10.3,3,13.1,7.6,1.7,2.9,2.5,6.4,2.2,9.7-.2,1.8-.6,3.5-1.4,5.2l-.4.9h.5c.3-.1.6-.2.9-.2,2,0,3.8,1,4.5,2.7.7,1.6.6,3.4-.3,5l-.3.4h.5c.9,0,1.6.1,2.2.4,1.1.5,2.2,1.6,2.9,3.1,1.5,3.1,1.3,6.5.8,8.8-.6,3.2-2,5.9-4,7.8-1.2,1.1-2.7,1.9-4.4,2.5h-.4c0,.1.2.4.2.4.2.3.3.7.4,1,.2,1.5-.4,3.2-1.6,4.5-.8.9-1.9,1.4-2.8,1.4h0c-.3,0-.6,0-.8-.1h-.3c0,0,0,.2,0,.2-1.1,3.5-4.4,6.4-8,7.2-.4,0-.8.1-1.3.1-1.5,0-3.1-.5-4.2-.8-.8-.3-1.5-.5-2.1-.8l-.4-.2v.5c0,1.8,0,3.6,0,5.4-.2,13.5-.3,27.4,4.4,40.2,0,.2,0,.4,0,.5-.1.2-.4.3-.6.3ZM441.4,373.7v-.6c0,0,0,0,0,0h0s-.1,0-.2,0h-.3v.5c0,0,.2,0,.2,0h0c0,0,.4,0,.4,0h0Z"/>
        <path class="cls-3" d="M444.1,369.1s0,0,0,0c0,0,0,0,0,0,0,0,0,0,0,0Z"/>
        <path class="cls-3" d="M438.7,367.7s0,0,0,0c0,0,0,0,0,0,0,0,0,0,0,0Z"/>
        <path class="cls-3" d="M439.4,365.9s0,0,0,0c0,.2,0,0,0,0Z"/>
        <path class="cls-3" d="M431.6,346.4c-1-2-2.8-3.5-4.9-4.4-3.2-1.3-6.9-.2-9.1,2.4-.8,1,.6,2.4,1.4,1.4,1.7-2.1,4.4-3,7-2,2.2.9,4.3,2.9,4.3,5.4,0,1.3,2,1.3,2,0,0-.4,0-.7-.1-1,0,0,.1,0,.2,0,0,0,.1,0,.2,0,0,0,0,0,0,0,0,0,0,0,0,0,0,0,0,0,.1,0,.1,0,.2,0,.3,0,0,0,0,0,0,0,0,0,0,0,0,0,.2,0,.4,0,.6.2,0,0,.2,0,0,0,0,0,0,0,0,0,0,0,0,0,0,0,0,0,.2,0,.3.2,0,0,.2.1.3.2,0,0,0,0,.1,0,.2.1.3.3.4.4,0,0,0,0,.1.1,0,0,0,0,0,0,0,0,0,0,0,0,0,0,.1.2.2.3.3.4.9.7,1.4.4.4-.3.7-.9.4-1.4-1.2-1.8-3.4-2.8-5.5-2.2Z"/>
        <path class="cls-3" d="M435.2,349.4c0,.1,0,0,0,0h0Z"/>
        <path class="cls-3" d="M413.6,365.8c-.2,0-.4,0-.6,0-.1,0-.2,0-.3,0,0,0-.1,0-.1,0-.3,0-.7-.1-1-.3,0,0-.2,0-.3,0,0,0,0,0,0,0-.2,0-.3-.2-.5-.3-.2,0-.3-.2-.4-.3,0,0,0,0,0,0,0,0,0,0,0,0,0,0-.1-.1-.2-.2-.1-.1-.3-.2-.4-.4,0,0-.1-.1-.1-.2,0,0,0,0,0,0,0,0,0,0,0,0-.2-.3-.4-.6-.5-.9,0,0,0,0,0,0,0,0,0,0,0,0,0,0,0-.2-.1-.3,0-.2-.1-.4-.1-.5,0,0,0-.2,0-.2,0,0,0,0,0,0,0,0,0,0,0,0,0-.2,0-.4,0-.6,0-.5-.5-1-1-1-.5,0-1,.4-1,1,0,1.8.7,3.6,2.1,4.8.5.4,1,.8,1.5,1-.1.2-.2.4-.2.6,0,.8.2,1.7.6,2.4.4.7,1,1.4,1.7,1.8.4.3,1.1.1,1.4-.4.3-.5.1-1.1-.4-1.4,0,0-.2-.1-.2-.2,0,0,0,0,0,0-.1-.1-.3-.3-.4-.4,0,0,0,0,0,0,0,0,0-.1-.1-.2,0-.1-.1-.3-.2-.4,0-.2-.2-.5-.2-.7,0-.2,0-.3,0-.5,0,0,0,0,0,0,.6.1,1.2.2,1.8.2.5,0,1-.4,1-1,0-.5-.4-1-1-1ZM413,370s0,0,0,0c0,0,.2.1,0,0Z"/>
      </g>
      <g>
        <path class="cls-2" d="M417,379.5c0,15.2-.3,30.8-5.6,45.3-.3.7.5,1.5,1.2,1.2,2-.8,4.3-3.3,6.6-2.7,2.2.6,4,2.4,6.2,3.1,1.2.4,1.7-1.5.5-1.9-2.4-.8-4.2-2.8-6.8-3.3-2.8-.5-4.7,1.9-7.1,2.8.4.4.8.8,1.2,1.2,5.3-14.6,5.7-30.4,5.7-45.8,0-1.3-2-1.3-2,0h0Z"/>
        <path class="cls-2" d="M422.6,379.6c0,15.8-1.1,32.5,4.4,47.6.4-.4.8-.8,1.2-1.2-1.7-.6-3.3-1.8-4.8-2.8-1.4-.8-3.1-1.9-4.8-2-1.3,0-1.3,2,0,2,1.6,0,3.3,1.4,4.6,2.2,1.5.9,2.9,1.9,4.5,2.5.7.3,1.5-.5,1.2-1.2-5.5-14.9-4.3-31.4-4.3-47.1,0-1.3-2-1.3-2,0h0Z"/>
        <path class="cls-2" d="M423.1,375.8c-3.7,2.2-8.4,3.1-12.7,2.5-2-.3-3.9-1-5.6-2.2-1.9-1.3-4-3.7-2-5.8.9-.9-.5-2.4-1.4-1.4-2,2.2-1.6,4.9.2,7.1,1.8,2.1,4.6,3.4,7.2,4,5,1.2,10.9.1,15.2-2.5,1.1-.7,0-2.4-1-1.7h0Z"/>
        <path class="cls-2" d="M401.2,369.5c-1.1,1.7-4.2-.1-5.4-.8-2-1.2-3.6-2.6-4.7-4.7-1.2-2.3-1.9-5.2-1.1-7.7.8-2.7,3.3-4.7,6.2-4.4,1.3.2,1.3-1.8,0-2-2.9-.3-5.2,1.2-6.8,3.4-1.6,2.1-1.9,4.8-1.5,7.4.8,4.9,4.1,8.6,8.5,10.6,2.2,1,5,1.6,6.5-.7.7-1.1-1-2.1-1.7-1h0Z"/>
        <path class="cls-2" d="M392.3,350.8c-2.1-.8-4.7-8.7-1.2-8.6.8,0,1.4-1.1.7-1.7-1.7-1.5-1.3-4.8-.9-6.8.5-2.9,1.9-5.6,4.1-7.6,2-1.9,5-2.9,7.7-2.3,2.7.7,4.6,2.6,6,5,.7,1.1,2.4,0,1.7-1-1.7-2.8-4-5.2-7.4-5.9-3.3-.7-6.7.3-9.2,2.5-2.6,2.3-4.4,5.7-4.9,9.1-.4,2.6-.7,6.4,1.5,8.3.2-.6.5-1.1.7-1.7-6.4-.3-3.2,10.9.7,12.5,1.2.5,1.7-1.5.5-1.9h0Z"/>
        <path class="cls-2" d="M408.9,325.2c.1-2,2-4.6,4.1-5,1.3-.2,4.2-.1,4.3,1.6.1,1.3,2,1.3,2,0,0-1.9,1.5-3.3,3-4.4,1.6-1.1,3.4-1.8,5.4-2,3.7-.4,7.4,1,10.2,3.5,2.6,2.4,4.3,5.7,4.6,9.3.2,2,0,3.9-.6,5.8-.6,1.8-1.5,4-3,5.2-1,.8.4,2.2,1.4,1.4,1.4-1.1,2.1-2.7,2.8-4.3.8-1.7,1.3-3.5,1.4-5.3.3-3.4-.5-6.9-2.3-9.9-3.5-5.9-11.1-9.3-17.7-7-3.2,1.1-7.2,3.9-7.1,7.7h2c-.3-3.1-3.7-4-6.4-3.6-3.2.4-5.9,3.9-6.1,7,0,1.3,1.9,1.3,2,0h0Z"/>
        <path class="cls-2" d="M442,339c1.6-.7,3.9-.5,4.7,1.3.8,1.6.2,3.8-1.3,4.8-.7.5-.6,2,.5,1.9,1.1-.1,2.4-.4,3.5,0,1.3.5,2.2,1.9,2.7,3.2.9,2.4.8,5.1.3,7.6-.6,2.4-1.7,4.7-3.5,6.4-2.2,2.1-5.4,2.6-8.4,2.6-1.3,0-1.3,2,0,2,3.5,0,7.2-.7,9.8-3.2,2.2-2.1,3.6-5,4.1-7.9.6-3,.5-6.2-.9-9-.7-1.3-1.7-2.6-3.1-3.3-1.5-.7-3.1-.4-4.6-.3.2.6.3,1.2.5,1.9,2.2-1.6,3.3-4.8,2.1-7.3-1.2-2.6-4.5-3.5-7.1-2.4-1.2.5-.7,2.4.5,1.9h0Z"/>
        <path class="cls-2" d="M421.6,379c1.3,1.4,3.3,2.3,5.1,2.9,1.8.6,3.8,1.1,5.7.7,4.4-.9,8.6-5.1,8.7-9.7,0-1.3-2-1.3-2,0,0,3.7-3.7,7.2-7.3,7.8-1.5.2-3.2-.3-4.6-.8-1.4-.5-3-1.2-4.1-2.3-.9-1-2.3.5-1.4,1.4h0Z"/>
        <path class="cls-2" d="M440,375c1.6,1,3.4.2,4.5-1,1.2-1.3,2-3,1.7-4.8-.1-1-.7-1.8-1.6-2.3-.5-.3-1.1-.1-1.4.4-.3.5-.1,1.1.4,1.4,0,0,.1,0,.2.1.1,0-.2-.2,0,0,0,0,.1.1.2.2,0,0,0,0,0,0,0,0-.1-.2,0,0,0,0,0,.1.1.2,0,0,0,0,0,0,0,0,0,0,0,0,0,.1,0,.3.1.4,0,0,0,0,0,.1,0,.2,0,0,0-.1,0,0,0,.2,0,.2,0,.2,0,.3,0,.5,0,.3,0-.1,0,0,0,0,0,.2,0,.2,0,.2,0,.3-.1.5,0,0,0,.1,0,.2,0,0,0,0,0,.1.1-.2,0-.1,0,0,0,.2-.2.3-.2.5,0,.1-.2.3-.2.4,0,0,0,.1-.1.2,0,0,0,.1,0,0,0,0,0,0,0,.1-.2.3-.5.5-.7.7,0,0,.2-.1,0,0,0,0,0,0,0,0,0,0-.1,0-.2.1-.1,0-.3.1-.4.2-.1,0,.2,0,0,0,0,0,0,0-.1,0,0,0-.1,0-.2,0-.3,0,.1,0,0,0,0,0-.2,0-.2,0,0,0,0,0-.1,0-.2,0,0,0,0,0,0,0-.2,0-.2,0,0,0,0,0,0,0-.2,0,0,0,0,0,0,0-.2-.1-.2-.1-.4-.3-1.1-.1-1.4.4-.3.5-.1,1.1.4,1.4h0Z"/>
        <path class="cls-2" d="M439.5,364.7c0,.3,0,.5,0,.8,0,.1,0,.3,0,.4,0,0,0,.2,0,0,0,0,0,.1,0,.2,0,.2,0,.5-.2.7,0,.1,0,.2-.1.3,0,.2.1-.2,0,0,0,0,0,.1,0,.2,0,.1-.1.2-.2.3,0,0,0,0,0,.1,0,0-.2.2,0,0-.2.2-.3.3-.5.5,0,0,0,0,0,0,0,0,0,0,0,0,0,0-.1,0-.2.1,0,0-.2.1-.3.2,0,0-.1,0-.2,0,0,0-.2.1,0,0,.1,0,0,0-.1,0,0,0-.2,0-.2,0-.5.2-.9.7-.7,1.2.2.5.7.9,1.2.7,1.2-.4,2.3-1.2,2.9-2.3.6-1.1.7-2.3.7-3.5,0-.5-.5-1-1-1-.5,0-1,.4-1,1h0Z"/>
        <path class="cls-2" d="M406.5,334.1c.6-1.6,1.5-3.2,3.2-3.9.9-.4,2-.4,3-.3,1,0,1.8.7,2.8.9,1.3.3,1.8-1.6.5-1.9-1.2-.3-2.1-.9-3.4-1-1.4,0-2.7,0-3.9.6-2.1,1-3.3,3.1-4.1,5.1-.2.5.2,1.1.7,1.2.6.2,1-.2,1.2-.7h0Z"/>
        <path class="cls-2" d="M398.6,346.4c-1,1.1-2.1,2-2.5,3.5-.4,1.7,0,3.4.7,5,.2.5.7.9,1.2.7.5-.1.9-.7.7-1.2-.5-1.3-1-2.6-.7-4,.1-.5.4-1,.7-1.4.4-.4.8-.8,1.2-1.3.4-.4.4-1,0-1.4-.4-.4-1-.4-1.4,0h0Z"/>
        <path class="cls-2" d="M419,345.9c1.7-2.1,4.4-3,7-2,2.2.9,4.3,2.9,4.3,5.4,0,1.3,2,1.3,2,0,0-3.4-2.6-6.1-5.6-7.3-3.2-1.3-6.9-.2-9.1,2.4-.8,1,.6,2.4,1.4,1.4h0Z"/>
        <path class="cls-2" d="M432,348.4c0,0,.1,0,.2,0,.1,0-.2,0,0,0,0,0,.2,0,.3,0,0,0,.1,0,.2,0,0,0,.2,0,0,0-.2,0,0,0,0,0,0,0,0,0,.1,0,.1,0,.2,0,.3,0,0,0,.2,0,0,0-.2,0,0,0,0,0,.2,0,.4,0,.6.2,0,0,.2,0,0,0-.1,0,0,0,0,0,.1,0,.2,0,.3.2,0,0,.2.1.3.2,0,0,0,0,.1,0,.2.1-.1,0,0,0,.2.1.3.3.5.4,0,0,0,0,.1.1,0,0,.1.2,0,0,0,0,.1.2.2.3.3.4.9.7,1.4.4.4-.3.7-.9.4-1.4-1.3-2-3.9-3.1-6.1-1.9-.5.2-.6.9-.4,1.4.3.5.9.6,1.4.4h0Z"/>
        <path class="cls-2" d="M406.5,361.2c0,1.8.7,3.6,2.1,4.8,1.4,1.2,3.2,1.8,5.1,1.8.5,0,1-.4,1-1,0-.5-.4-1-1-1-.2,0-.4,0-.6,0-.1,0-.2,0-.3,0,0,0-.3,0,0,0-.4,0-.7-.1-1.1-.3,0,0-.2,0-.3-.1.2,0,0,0,0,0-.2,0-.3-.2-.5-.3-.2,0-.3-.2-.4-.3-.2-.1.1.1,0,0,0,0-.1-.1-.2-.2-.1-.1-.3-.2-.4-.4s-.1-.1-.1-.2c0,0,0,0,0-.1,0,.1,0,.1,0,0-.2-.3-.4-.6-.5-.9-.1-.2,0,.2,0,0,0,0,0-.2-.1-.3,0-.2-.1-.4-.1-.5,0,0,0-.2,0-.2,0-.2,0,.2,0,0,0-.2,0-.4,0-.6,0-.5-.5-1-1-1-.5,0-1,.4-1,1h0Z"/>
        <path class="cls-2" d="M409.9,367.7c0,.8.2,1.7.6,2.4.4.7,1,1.4,1.7,1.8.4.3,1.1.1,1.4-.4.3-.5.1-1.1-.4-1.4,0,0-.2-.2-.3-.2,0,0,.2.2,0,0,0,0,0,0,0,0-.1-.1-.3-.3-.4-.4,0,0,0,0,0-.1,0,0,.2.2,0,0,0,0,0-.1-.1-.2-.1-.2-.2-.3-.3-.5,0,0,0,.2.1.2-.1-.3-.2-.7-.3-1v.3c0-.2,0-.4,0-.6,0-.5-.5-1-1-1-.5,0-1,.4-1,1h0Z"/>
      </g>
    </g>
  </g>
</svg>