<?xml version="1.0" encoding="UTF-8"?>
<svg xmlns="http://www.w3.org/2000/svg" version="1.1" viewBox="0 0 500 500">
  <defs>
    <style>
      .cls-1 {
        fill: #232343;
      }

      .cls-1, .cls-2 {
        stroke-width: 0px;
      }

      .cls-2 {
        fill: #fff;
      }
    </style>
  </defs>
  <g id="BACKGROUND">
    <rect class="cls-2" width="500" height="500"/>
  </g>
  <g id="OBJECTS">
    <g>
      <path class="cls-1" d="M305.8,299.5c-.6-1.9-1.2-3.4-3.2-5.3h0c14.8,1.5,12.6-7.8,12.6-7.8-2.2,10.4-15.6,5.4-15.6,5.4.1.2,2.2,2.8,3.4,5.8,1.2,2.9-.8,6.2-4,6.5-5.6.6-16.1-.3-30.1-10.6,0,0,3.4,9,3.4,15.3s-3.9,6.4-7.2,4.8c-5-2.3-11.7-7.7-15.2-28.8-3.5,21.1-10.2,26.5-15.2,28.8-3.3,1.5-7.2-.8-7.2-4.8,0-6.3,3.4-15.3,3.4-15.3-14,10.3-24.5,11.2-30.1,10.6-3.1-.3-5.1-3.6-4-6.5,1.2-3,3.3-5.7,3.4-5.8,0,0-13.4,5-15.6-5.4,0,0-2.2,9.3,12.6,7.8h0c-2,1.9-2.6,3.4-3.2,5.3-.9,2.7.7,6,3.5,6.7,12.9,3.4,29.1-5.9,29.6-6.2-1.3,2.7-2,5.1-2.4,7.3-1.1,7,6.4,12.2,12.6,8.8,10.3-5.7,12.5-21.4,12.5-21.4,0,0,2.2,15.7,12.5,21.4,6.2,3.4,13.7-1.9,12.6-8.8-.3-2.2-1.1-4.7-2.4-7.3.5.3,16.7,9.7,29.6,6.2,2.7-.7,4.4-4.1,3.5-6.7Z"/>
      <path class="cls-1" d="M316.9,335.9s2.4,9.2,1.2,16.7c-.7,4.1-5,6.2-8.7,4.4-2.3-1.2-4.7-3.3-6.3-6.8,0,0,.9,4.6,4.3,8.2,4.4,4.6,12.2,1.9,13-4.4.3-2.4.4-5.2,0-8.3,0,0,10.7,12.2,27.6,5.2,0,0-20.9,3.7-31.1-14.8Z"/>
      <path class="cls-1" d="M190.6,357c-3.7,1.9-8-.3-8.7-4.4-1.2-7.5,1.2-16.7,1.2-16.7-10.2,18.6-31.1,14.8-31.1,14.8,16.9,7,27.6-5.2,27.6-5.2-.4,3.1-.3,5.9,0,8.3.8,6.3,8.5,9,13,4.4,3.4-3.6,4.3-8.2,4.3-8.2-1.6,3.6-4,5.7-6.3,6.8Z"/>
      <path class="cls-1" d="M448,291.1c-1.7-5.3-5.5-15.8-12-26.6-8-13.5-17.4-23.2-28-28.7-5.1-2.7-10.7-4.1-16.4-4.3-.3-3.4-.9-6.8-1.6-9.5,3.5,3.8,7.3,6.4,11.6,7.8,3.4,1.1,7.1.6,10-1.4,3-2.1,4.9-5.4,5.1-9.1.4-6.5-1.3-13.5-1.4-13.7-8.7-35-22.6-63.9-41.2-86,8.9-1.3,11.9-7.4,13-11.2.8-3,.9-6.5,0-9.9h0c-1.4-6.2-4.8-11-9.9-14.2-9.3-5.7-21.9-4.8-28.2-3.9,2.6-3.6,3.6-8.2,2.6-12.7-1.2-5.6-5.2-10-10.7-11.7-14-4.4-30.5-.7-49.2,11.1-13.5-3.6-27.7-5.4-42.1-5.4s-28.5,1.8-42.1,5.4c-18.6-11.8-35.1-15.5-49.2-11.1-5.4,1.7-9.4,6.1-10.7,11.7-1,4.5,0,9.1,2.6,12.7-6.2-.9-18.9-1.8-28.1,3.9-5.1,3.2-8.5,7.9-9.9,14.2-.8,3.4-.8,6.9,0,9.9,1,3.7,4.1,9.9,13,11.2-18.6,22.1-32.4,51-41.2,86,0,.3-1.8,7.2-1.4,13.7.2,3.7,2.1,7,5.1,9.1,3,2,6.6,2.6,10,1.4,4.3-1.4,8.2-4,11.6-7.8-.7,2.8-1.3,6.1-1.6,9.5-5.7.2-11.3,1.6-16.4,4.3-10.5,5.5-19.9,15.2-28,28.7-6.4,10.8-10.3,21.3-12,26.6-1,3.1-.9,6.3.3,9.1,1.1,2.5,2.7,4.2,4.8,5,1.6.6,3.2.7,4.5.5-5.1,9.3-6.7,17.1-7.1,22.1-.3,3.6,1.2,7,3.9,9.3,2.8,2.3,6.5,3,9.9,2,1.2-.4,2.4-.8,3.4-1.4-3.8,6.2-6.1,12.3-6.8,18.2-.4,3.4,1,6.8,3.7,9.1,2.6,2.2,6.2,3,9.4,2.1,6.6-1.9,12.2-7,16.2-11.7-1,3.4-1.7,6.8-2,10.1-.3,3.7,1.3,7.3,4.3,9.5,1.9,1.3,4,2,6.2,2s2.8-.3,4.2-.9c11-4.7,20-18.6,26.6-32.5.8,1.7,1.6,3.3,2.4,4.9.1,2.2,1.1,16.2,5.9,23.8,1,1.5,2.7,2.5,4.5,2.4,1.4,0,2.6-.6,3.5-1.6.4,1.6,1,3.3,1.8,5,1,1.8,2.8,3,4.8,3.1,1.6,0,3-.4,4.2-1.4,4.3,3.8,8.9,7.2,13.7,10.3.9,1.6,5.3,9.5,9.4,16.9-5.5,2.2-11.2,6.7-16.2,15.3-1.3,2.2-1.5,4.8-.5,7.2.9,2.4,2.9,4.2,5.4,5,3.8,1.2,8-.5,9.8-4,1.1-2,2.4-3.7,3.5-5.1l-.9,11.1c-.2,2.3.6,4.6,2.1,6.3,1.6,1.7,3.7,2.7,6,2.8h.4s0,0,0,0c4,0,7.4-2.9,8.1-6.9l1.9-10.5c2,3.2,3,5.8,3.5,7.6.9,3.3,3.8,5.6,7.2,5.8h.2c2.3,0,4.6-.9,6.2-2.7,1.6-1.8,2.3-4.3,1.9-6.7-1.7-10.3-6.6-16.7-11.8-20.7.6-.7,1.2-1.4,1.7-2.2.7-1,1.4-2.1,2.2-3.1,0,0,0,0,0,0,0,0,.1,0,.1,0,10.8,2.3,22.6,3.5,35,3.5s24.2-1.2,35-3.5c0,0,.1,0,.2,0,0,0,0,0,0,0,.8,1.1,1.5,2.1,2.1,3.1.5.8,1.1,1.5,1.7,2.2-4.9,3.8-10,10.2-11.7,20.7-.4,2.4.3,4.9,1.9,6.7,1.6,1.8,3.8,2.7,6.1,2.7h.2c3.4-.2,6.3-2.5,7.2-5.8.5-1.8,1.5-4.4,3.5-7.6l1.9,10.5c.7,4,4.1,6.9,8.1,6.9h.4c2.3,0,4.5-1,6-2.8,1.6-1.7,2.3-4,2.1-6.3l-.9-11.1c1.1,1.3,2.4,3.1,3.5,5.1,1.9,3.5,6,5.1,9.8,4,2.5-.8,4.4-2.6,5.4-5,.9-2.4.7-5-.5-7.2-5-8.6-10.8-13.2-16.2-15.3,4.1-7.5,8.5-15.4,9.4-16.9,4.8-3.1,9.4-6.5,13.7-10.3,1.1,1,2.6,1.5,4.2,1.4,2.1-.1,3.9-1.3,4.8-3.1.9-1.7,1.4-3.4,1.8-5,.9,1,2.1,1.6,3.5,1.6,1.8,0,3.5-.9,4.5-2.4,4.8-7.7,5.8-21.6,5.9-23.8.8-1.6,1.7-3.2,2.4-4.9,6.6,14,15.7,27.8,26.6,32.5,1.4.6,2.8.9,4.2.9,2.2,0,4.4-.7,6.2-2,3.1-2.2,4.7-5.8,4.3-9.5-.3-3.3-1-6.7-2-10.1,4,4.7,9.6,9.9,16.2,11.7,3.3.9,6.8.2,9.4-2.1,2.7-2.2,4-5.6,3.7-9.1-.7-5.9-2.9-12.1-6.8-18.2,1,.5,2.2,1,3.4,1.4,3.4,1,7.1.3,9.9-2,2.8-2.3,4.3-5.7,3.9-9.3-.4-5-2.1-12.8-7.1-22.1,1.3.2,2.9.1,4.5-.5,2.1-.8,3.8-2.5,4.8-5,1.2-2.8,1.3-6,.3-9.1ZM340.5,58.5c4.6,1.4,7.9,5.1,9,9.8,1,4.8-.5,9.5-4.1,12.8l-4.1,3.6,4.9-1.2c.2,0,18.4-4.3,30,2.9,4.5,2.8,7.5,7.1,8.8,12.6.7,3,.7,6,0,8.7-1.2,4.2-4.4,9.2-13.1,9.6,0,0-.5,0-1.4,0,0,0,0,0,0,0-3.3-.3-11.9-1.6-23.2-8.6,0,0-.9-.6-2.5-1.5,0,0,0,0,0,0-.5-.3-1.1-.6-1.7-.9,0,0-.2,0-.2-.1-.2,0-.4-.2-.6-.3-.1,0-.2-.1-.3-.2-.3-.2-.7-.3-1-.5-.2,0-.3-.2-.5-.2-.2,0-.4-.2-.6-.3-.2,0-.4-.2-.6-.3-.2,0-.3-.2-.5-.2-.4-.2-.7-.3-1.1-.5-.2,0-.3-.1-.5-.2-.3-.1-.6-.2-.9-.4-.2,0-.3-.1-.5-.2-.4-.2-.9-.4-1.3-.6,0,0,0,0-.1,0-.4-.2-.9-.4-1.4-.5-.1,0-.3,0-.4-.1-.5-.2-.9-.3-1.4-.5,0,0-.1,0-.2,0-.6-.2-1.1-.4-1.7-.6,0,0-.1,0-.2,0-.6-.2-1.1-.4-1.7-.6,0,0-.1,0-.2,0-1.3-.4-2.6-.8-4-1.2,0,0,0,0,0,0-14.5-4-34.6-6.2-57.6.6,0,0-.2,0-.3,0-.8.2-1.5.5-2.3.7-.2,0-.4.1-.6.2-.6.2-1.3.4-1.9.6-.3.1-.6.2-.9.3-.5.2-1.1.4-1.7.6-.4.1-.7.3-1.1.4-.5.2-.9.4-1.4.6-.3.1-.6.2-.9.3,0,0,.1-.2.2-.2,12.4-13.7,52.8-54.6,85.7-44.3ZM250,64.3c13.4,0,26.6,1.6,39.2,4.8-2.3,1.6-4.7,3.3-7.1,5.1,0,0,0,0,0,0-.3.2-.5.4-.8.6-15.8,12-27.9,25.7-31.3,29.7-3.4-3.9-15.5-17.6-31.3-29.7-.2-.2-.5-.4-.7-.6,0,0-.1-.1-.2-.2-2.4-1.8-4.7-3.5-7-5,12.7-3.2,25.8-4.8,39.2-4.8ZM115.1,107.8c-.7-2.6-.7-5.6,0-8.7,1.3-5.6,4.2-9.8,8.8-12.6,5.3-3.3,12-4.2,17.7-4.2s12.2,1.2,12.3,1.3l4.9,1.2-4.1-3.6c-3.6-3.3-5.1-8-4.1-12.8,1-4.7,4.4-8.4,9-9.8,32.9-10.3,73.4,30.7,85.7,44.3,0,0,.1.1.2.2-.4-.2-.8-.3-1.3-.5-.2,0-.5-.2-.7-.3-.6-.2-1.1-.4-1.7-.6-.3,0-.5-.2-.8-.3-.6-.2-1.1-.4-1.7-.6-.3,0-.5-.2-.8-.3-.5-.2-1.1-.4-1.6-.5-.3,0-.5-.2-.8-.3-.5-.2-1.1-.3-1.6-.5-.3,0-.5-.2-.8-.2-.5-.1-1-.3-1.5-.4-.3,0-.5-.2-.8-.2-.5-.1-1-.3-1.5-.4-.3,0-.6-.1-.8-.2-.5-.1-1-.2-1.5-.3-.3,0-.6-.1-.8-.2-.5-.1-1-.2-1.5-.3-.3,0-.6-.1-.8-.2-.5,0-1-.2-1.5-.3-.3,0-.5-.1-.8-.1-.5,0-1-.2-1.5-.2-.3,0-.5,0-.8-.1-.5,0-1-.1-1.5-.2-.2,0-.5,0-.7,0-.6,0-1.1-.1-1.7-.2-.2,0-.3,0-.5,0-1.5-.2-2.9-.3-4.3-.4-.3,0-.5,0-.8,0-.5,0-.9,0-1.4,0-.3,0-.6,0-.9,0-.4,0-.8,0-1.2,0-.3,0-.6,0-.9,0-.4,0-.8,0-1.1,0-.3,0-.6,0-.9,0-.4,0-.7,0-1.1,0-.3,0-.6,0-.9,0-.4,0-.7,0-1.1,0-.3,0-.6,0-.9,0-.4,0-.7,0-1.1,0-.3,0-.6,0-.9,0-.4,0-.7,0-1.1,0-.3,0-.6,0-.9,0-.4,0-.7,0-1.1,0-.3,0-.6,0-.8,0-.3,0-.7,0-1,.1-.3,0-.5,0-.8,0-.3,0-.7,0-1,.1-.3,0-.5,0-.8.1-.3,0-.7,0-1,.1-.3,0-.5,0-.8.1-.3,0-.7.1-1,.2-.2,0-.5,0-.7.1-.3,0-.7.1-1,.2-.2,0-.5,0-.7.1-.3,0-.7.1-1,.2-.2,0-.4,0-.7.1-.3,0-.7.1-1,.2-.2,0-.4,0-.6.1-.3,0-.7.1-1,.2-.2,0-.4,0-.6.1-.3,0-.7.2-1,.2-.2,0-.4,0-.6.1-.3,0-.7.2-1,.3-.2,0-.4,0-.5.1-.3,0-.7.2-1,.3-.2,0-.3,0-.5.1-.3,0-.7.2-1,.3-.2,0-.3,0-.5.1-.3,0-.7.2-1,.3-.1,0-.3,0-.4.1-.3.1-.7.2-1,.3-.1,0-.3,0-.4.1-.3.1-.7.2-1,.3-.1,0-.2,0-.3.1-.3.1-.6.2-1,.3-.1,0-.2,0-.3.1-.3.1-.6.2-1,.4,0,0-.2,0-.3.1-.3.1-.6.2-1,.4,0,0-.2,0-.2,0-.3.1-.6.3-.9.4,0,0-.1,0-.2,0-.3.1-.6.3-1,.4,0,0,0,0-.1,0-.3.1-.6.3-1,.4,0,0,0,0,0,0-.3.1-.6.3-1,.4,0,0,0,0,0,0-6,2.7-9.4,4.9-9.5,5-6.7,4.2-12.5,6.4-16.8,7.5-4.3,1.1-7,1.2-7.7,1.2,0,0-.2,0-.2,0-8.7-.4-11.9-5.4-13.1-9.6ZM97.5,227.5c-2.7.9-5.5.5-7.8-1.1-2.4-1.6-3.9-4.2-4-7.2-.4-6.2,1.3-12.9,1.3-13,8.8-35.4,22.9-64.4,41.8-86.3.2,0,.4,0,.7,0,0,0,0,0,0,0,.2,0,.5,0,.7,0,0,0,0,0,.1,0,.3,0,.5,0,.8,0,0,0,.1,0,.2,0,.3,0,.6,0,.9-.1,0,0,.2,0,.3,0,.3,0,.6-.1,1-.2.1,0,.2,0,.3,0,.3,0,.7-.1,1.1-.2.1,0,.3,0,.4,0,.4,0,.8-.2,1.2-.3.2,0,.3,0,.5-.1.4-.1.8-.2,1.2-.4.2,0,.3-.1.5-.2.4-.1.9-.3,1.3-.4.2,0,.4-.1.6-.2.5-.2.9-.3,1.4-.5.2,0,.4-.1.6-.2.5-.2,1-.4,1.5-.6.2,0,.4-.2.6-.3.5-.2,1.1-.5,1.6-.7.2,0,.4-.2.6-.3.6-.3,1.2-.6,1.9-.9.2,0,.3-.2.5-.2.7-.4,1.5-.8,2.2-1.2,0,0,.2,0,.2-.1.8-.5,1.7-1,2.6-1.5.4-.3,41.9-27.9,95-3.3l.7.7.7-.7h0c7.8-3.6,15.3-6.1,22.6-7.7,16.5-3.7,31.3-2.8,43.1-.3,18,3.8,29.2,11.2,29.4,11.4.9.5,1.7,1,2.6,1.5,0,0,0,0,0,0,.8.5,1.6.9,2.4,1.3.1,0,.3.1.4.2.6.3,1.3.7,1.9.9.2,0,.4.2.5.2.6.3,1.1.5,1.7.8.2,0,.4.2.6.2.5.2,1,.4,1.5.6.2,0,.4.1.6.2.5.2,1,.4,1.4.5.2,0,.4.1.5.2.5.2.9.3,1.3.4.2,0,.3,0,.5.1.4.1.8.2,1.2.4.2,0,.3,0,.4.1.4.1.8.2,1.2.3.1,0,.3,0,.4,0,.4,0,.7.2,1.1.2.1,0,.2,0,.3,0,.4,0,.7.1,1,.2,0,0,.2,0,.2,0,.3,0,.6,0,.9.1,0,0,.1,0,.2,0,.3,0,.6,0,.9,0,0,0,0,0,0,0,.6,0,1.1,0,1.5,0,18.9,21.9,33,51,41.8,86.3,0,0,1.7,6.8,1.3,13h0c-.2,2.9-1.6,5.5-4,7.2-2.3,1.6-5.2,2-7.8,1.1-5.5-1.8-10.4-6-14.5-12.4l-6.2-9.7,4,10.8c0,0,3.1,8.6,3.5,16.8,0,.6,0,1.2,0,1.8,0,0,0,0,0,.1,0,.6,0,1.3,0,1.9-.2,2.9-1.7,5.6-4.1,7.3-.6.4-1.2.8-1.9,1.1-2,.9-4.2,1.1-6.3.5-.4,0-.8-.2-1.1-.3-.2,0-.5-.1-.7-.2-.1,0-.3,0-.4-.1-.3-.1-.6-.2-.9-.3,0,0-.1,0-.2,0-.4-.1-.7-.3-1.1-.5,0,0,0,0,0,0-2-.9-4.1-2.2-6.2-4,0,0,0,0,0,0-.3-.3-.7-.6-1-.9,0,0-.2-.2-.3-.3-.3-.3-.6-.6-.9-.9-.1-.1-.3-.3-.4-.4-.3-.3-.5-.6-.8-.9-.2-.2-.3-.4-.5-.6-.2-.3-.5-.6-.7-.9-.2-.2-.3-.4-.5-.7-.2-.3-.4-.6-.6-.9-.2-.2-.3-.5-.5-.7-.2-.4-.5-.7-.7-1.1-.1-.2-.3-.4-.4-.7-.3-.6-.7-1.2-1-1.9l-3-6,.6,6.6s0,0,0,.2c.2,2.5,2.2,31.6-12.8,33.7h-.1s0,0,0,0c-.7.1-19.4,3.2-30.2-33.8l-3.5-11.8,1,12.3c0,.2,1.3,16.4-9.6,22.9-2.6,1.6-5.9,2.4-9.3,2.2-2.2,0-4.3-.3-6.3-.7-1.3-.3-2.6-.6-3.9-1-.6-.2-1.2-.4-1.9-.6-15.8-5.6-24.6-19.9-28-26.7l-1.1-2.2-1.1,2.2c-.3.6-.6,1.3-1,1.9-2.8,5.1-7.9,12.8-15.7,18.7-.1.1-.3.2-.4.3-.2.1-.4.3-.5.4-8,5.5-15.8,7.2-20.6,7.6-.6,0-1.2,0-1.8.1-3.5.1-6.7-.6-9.3-2.2-10.8-6.5-9.6-22.7-9.5-22.9l1-12.3h0s0,0,0,0l-1.2,4c0-.1,0-.2,0-.2-1,3.3-2,7-2.7,9.5-9.9,31.9-25.6,32.7-29.1,32.4-.2,0-.3,0-.5,0,0,0,0,0,0,0-.2,0-.2,0-.2,0h-.1c-15.5-2.1-12.8-33.6-12.8-33.9l.6-6.6h0s0,0,0,0l-3,6c-.3.7-.7,1.3-1,1.9-.1.2-.3.4-.4.7-.2.4-.4.8-.7,1.1-.2.2-.3.5-.5.7-.2.3-.4.6-.7,1-.2.2-.3.4-.5.7-.2.3-.5.6-.7.9-.2.2-.3.4-.5.6-.2.3-.5.6-.8.9-.1.1-.3.3-.4.4-.3.3-.6.6-.9.9,0,0-.2.2-.3.3-.3.3-.7.6-1,.9,0,0,0,0,0,0-2.1,1.8-4.2,3.1-6.2,4,0,0,0,0,0,0-.4.2-.7.3-1.1.5,0,0-.1,0-.2,0-.3.1-.6.2-.9.4-.1,0-.3,0-.4.1-.2,0-.5.2-.7.2-.4.1-.7.2-1.1.3,0,0,0,0,0,0-2.8.7-5.8.1-8.2-1.6-1.5-1.1-2.6-2.5-3.4-4.2,0-.1-.1-.3-.2-.4,0-.2-.2-.4-.2-.6-.2-.7-.3-1.4-.4-2.1,0-.6,0-1.3,0-1.9,0,0,0,0,0,0,0-.6,0-1.2,0-1.8.4-8.2,3.5-16.6,3.5-16.7l4-10.8-6.2,9.7c-4.1,6.4-9,10.5-14.5,12.4ZM106.1,373.8c-2.6,1.1-5.6.8-8-.9-2.3-1.7-3.6-4.4-3.3-7.2.6-6.4,2.6-13,6-19.6h0c.3-.6,2.9-5.3,3.9-6.8,0,0-3.7,1.8-6.1,5.6h0c-.9,1.7-9.4,16.4-21.1,19.8-2.5.7-5.1.1-7.1-1.6-2-1.7-3.1-4.3-2.8-6.9.6-5.3,3-13.7,11.1-23.8h0s5-6.3,5-6.3c-3.1,1.4-6.9,4.7-6.9,4.7h0c-.4.4-3.9,4.3-9,5.9-2.6.8-5.4.2-7.6-1.5-2.2-1.8-3.3-4.4-3-7.1.5-5.2,2.3-13.6,8.2-23.6l2-3.3-3.5,1.5c-.7.3-6.5,2.6-9.1-3.5h0c-1-2.2-1-4.8-.2-7.3,3.1-9.5,14.9-41.4,38.7-53.9,4.7-2.4,9.8-3.8,15.1-4,0,.2,0,.4,0,.6,0,.2,0,.4,0,.7,0,.5,0,1.1,0,1.6,0,0,0,0,0,0,.2,2.8,1.4,5.5,3.3,7.5.6.6,1.2,1.1,1.8,1.6,3,2.1,6.7,2.9,10.2,2,0,0,0,0,0,0,.4,0,.7-.2,1.1-.3.2,0,.4-.1.6-.2.2,0,.3-.1.5-.2.3,0,.5-.2.8-.3.1,0,.2,0,.3-.1.3-.1.6-.2.9-.4,0,0,.1,0,.2,0,.3-.1.7-.3,1-.5,0,0,0,0,0,0,.4-.2.7-.4,1.1-.6,0,0,0,0,0,0,.4-.2.8-.4,1.1-.6,0,0,0,0,0,0,.4-.2.7-.4,1.1-.7,0,0,.1,0,.2-.1.2-.2.5-.3.7-.5,0,0,.2.2.3.3.2.2.3.3.5.5.2.2.4.4.6.7.2.2.3.4.5.6.2.2.4.4.6.7.2.2.3.4.5.6.2.2.3.4.5.6.2.2.3.4.5.7.1.2.3.4.4.6.2.2.3.5.5.7.1.2.3.4.4.6.2.2.3.5.4.7.1.2.3.5.4.7.1.2.3.5.4.7.2.5.5,1,.7,1.5,4.4,9.6,6.2,21.9,5.3,36.4-.6,9.5-2.3,19.1-5.1,28.6-1.1,3.7-2.4,7.5-3.8,11.2,0,0,0,0,0,0-.6,1.6-1.3,3.3-2,4.9,0,.2-.1.3-.2.5-.2.5-.4.9-.6,1.4-6,13.7-15.8,31.8-27.9,37ZM220.2,432.6c.3,1.7-.2,3.4-1.3,4.6-1.1,1.2-2.6,1.9-4.2,1.8h-.2c-2.3-.1-4.3-1.7-5-4-.7-2.4-2.2-6.2-5.5-10.9l-1.7-2.4-3,16.6c-.5,2.8-2.9,4.9-5.7,4.9h-.4c-1.6,0-3.1-.7-4.3-2-1.1-1.2-1.6-2.8-1.5-4.4l1.4-17.9-2.3,2.1c-.2.1-3.8,3.5-6.4,8.3-1.3,2.4-4.2,3.6-6.9,2.8h0c-1.7-.5-3.1-1.8-3.8-3.5-.7-1.7-.5-3.5.4-5,3.3-5.7,8.5-12.1,16.2-14.7h0c.6-.2,1.3-.4,1.9-.6,0,0,.1,0,.2,0,.6-.1,1.3-.3,1.9-.4,0,0,0,0,.1,0,.7,0,1.4-.2,2.1-.2,0,0,0,0,0,0,0,0,0,0,0,0,.7,0,1.5,0,2.3,0,0,0,0,0,0,0,.1,0,.6,0,1.4.2.2,0,.4,0,.5,0h.7c.2.2.4.2.7.3.4.1.9.2,1.5.4.2,0,.5.1.8.2h.1c.1,0,.2.1.4.2.3,0,.6.2.9.3h.3c0,0,.3.3.3.3h.3c.3.1.6.2.8.3.4.2.7.3,1.1.5.2,0,.3.2.5.3,1.2.6,2.4,1.3,3.5,2.1l.8.6h0c4.8,3.6,9.4,9.6,11.1,19.4ZM330.1,423.5c.9,1.5,1,3.4.4,5-.7,1.7-2,3-3.8,3.5h0c-2.7.8-5.6-.3-6.9-2.8-2.6-4.8-6.2-8.1-6.4-8.3l-2.3-2.1,1.4,17.9c.1,1.6-.4,3.2-1.5,4.4-1.1,1.2-2.6,1.9-4.2,1.9h-.4s0,0,0,0c-2.8,0-5.2-2-5.7-4.9l-3-16.6-1.7,2.4c-3.3,4.7-4.8,8.5-5.5,10.9-.6,2.3-2.6,3.9-5,4h-.2c-1.6,0-3.1-.6-4.2-1.8-1.1-1.3-1.6-3-1.3-4.6,1.6-9.8,6.2-15.8,11.1-19.4h0s.8-.5.8-.5c1.1-.8,2.3-1.5,3.5-2.1.2,0,.3-.2.5-.3.4-.2.7-.3,1.1-.5.3-.1.5-.2.8-.3h.3s.2-.2.2-.2h.3c.3-.2.6-.3.9-.4.1,0,.2,0,.3-.1h.1c.3-.1.5-.2.8-.3.5-.1,1-.3,1.4-.4.2,0,.4,0,.7-.1h.7c.2-.2.4-.2.6-.2.6,0,1-.1,1.2-.1h.2c.7,0,1.4,0,2.1,0,0,0,.1,0,.2,0,0,0,0,0,.1,0,.7,0,1.3,0,1.9.2.1,0,.2,0,.3,0,.5,0,1,.2,1.6.3.2,0,.3,0,.5.1.5.1,1,.3,1.5.4,0,0,.1,0,.2,0h.3c7.6,2.8,12.7,9.1,16,14.7ZM361.5,347.5v.3c-.1,0-.2.3-.2.3,0,.2-.8,15.3-5.6,22.9-.5.8-1.3,1.2-2.3,1.2-.9,0-1.6-.5-2-1.2-.5-.9-.8-2.2-.8-3.6h-2.5c0,0,0,5.2-2.3,9.5-.6,1.1-1.6,1.7-2.8,1.8-1.2,0-2.3-.4-2.9-1.4l-.8-1.2-1.1,1c-4.4,4-9.2,7.6-14.2,10.8h-.4l-.4.6c0,0-5.2,9.2-9.8,17.6-1.2-.4-2.5-.6-3.6-.8,0,0,0,0,0,0,0,0,0,0,0,0-.9-.1-1.8-.2-2.7-.2,0,0,0,0-.1,0-.2,0-.3,0-.5,0s-.1,0-.2,0c-.2,0-.3,0-.4,0-.1,0-.2,0-.3,0-.1,0-.2,0-.4,0,0,0-.2,0-.5,0,0,0,0,0,0,0,0,0-.1,0-.2,0,0,0-.2,0-.3,0,0,0,0,0-.1,0,0,0-.2,0-.2,0-.6,0-1.4.2-2.3.4,0,0,0,0,0,0,0,0,0,0,0,0-.5.1-1,.2-1.5.4,0,0,0,0,0,0,0,0,0,0,0,0-.7.2-1.4.4-2.1.7,0,0-.1,0-.2,0l-.9.3h0c0,0-.1,0-.2,0-.1,0-.3.1-.4.2-.1,0-.2,0-.3.1-.1,0-.2,0-.3.1-.2,0-.3.1-.5.2-.1,0-.2.1-.4.2-.2,0-.4.2-.6.3-.4.2-.8.4-1.2.6,0,0-.1,0-.2.1-.1,0-.2.1-.3.2-.3.2-.6.4-1,.6,0,0-.2,0-.3.2-.6-.6-1.2-1.3-1.7-2.1-.6-.9-1.3-1.9-2-2.8,7.8-2.6,9.7-8.2,9.7-8.2-4.3,3.9-9.1,5.8-11.8,6.6h0c-.3,0-.6.1-.9.2-10.6,2.3-22.2,3.4-34.5,3.4s-23.8-1.2-34.5-3.4c-.3,0-.6-.1-.9-.2-2.7-.8-7.5-2.7-11.8-6.6,0,0,1.9,5.7,9.7,8.2-.7,1-1.4,1.9-2,2.8-.5.7-1,1.4-1.7,2.1-.9-.6-1.9-1.2-2.9-1.7-.2-.1-.4-.2-.6-.3-.4-.2-.8-.3-1.2-.5-.3-.1-.6-.2-.9-.4l-.9-.3c-.3-.1-.7-.2-.9-.3-.2,0-.3,0-.4-.1h0c-.3-.1-.6-.2-.9-.3-.5-.2-1.1-.3-1.5-.4-.3,0-.6-.1-.8-.2h-.2c-.2,0-.4-.1-.6-.2-.2,0-.4,0-.5,0-1-.2-1.7-.2-1.7-.2h0c-.4,0-.8,0-1.2,0,0,0-.1,0-.2,0-.3,0-.7,0-1,0,0,0,0,0-.1,0,0,0-.1,0-.2,0-.3,0-.5,0-.8,0,0,0-.2,0-.3,0-.3,0-.6,0-.9.1-.2,0-.4,0-.5,0-.7.1-1.4.2-2.1.4,0,0-.1,0-.2,0,0,0,0,0-.1,0-.2,0-.4,0-.5.1,0,0-.1,0-.2,0-4.6-8.4-9.8-17.5-9.8-17.6l-.2-.3-.3-.2c-5.1-3.2-10-7-14.5-11l-1.1-1-.8,1.2c-.6.9-1.7,1.5-2.9,1.4-1.2,0-2.2-.7-2.8-1.8-2.2-4.3-2.3-9.4-2.3-9.5h-2.5c0,1.4-.3,2.6-.8,3.6-.4.7-1.1,1.2-2,1.2-.9,0-1.8-.4-2.3-1.2-4.8-7.6-5.5-22.8-5.6-22.9v-.3s-.1-.3-.1-.3c-1.2-2.2-2.3-4.5-3.4-6.9,1.5-3.3,2.9-6.6,4.1-9.7,5.3-13.5,8.3-27.1,9.1-40.6.3-5.9.3-11.4-.2-16.5-.8-7.9-2.5-15-5.3-21-.2-.5-.5-1.1-.8-1.6,0-.1-.1-.2-.2-.3-.2-.4-.4-.8-.7-1.2,0-.1-.2-.3-.3-.4-.2-.4-.4-.7-.6-1-.1-.2-.2-.3-.3-.5-.2-.3-.4-.6-.7-.9-.1-.2-.2-.3-.4-.5-.2-.3-.4-.6-.7-.9-.1-.2-.3-.3-.4-.5-.2-.3-.5-.5-.7-.8-.1-.2-.3-.3-.5-.5-.2-.3-.5-.5-.7-.8-.2-.2-.3-.3-.5-.5,0,0,0,0-.1-.1,0,0,.2-.2.2-.2.4-.4.9-.8,1.3-1.2,0,0,.2-.1.2-.2.5-.5,1-1,1.5-1.6.1-.1.2-.2.3-.4.4-.4.8-.9,1.1-1.4.1-.1.2-.3.3-.4.4-.6.9-1.2,1.3-1.9,0,.3,0,.6,0,.9,0,9.9,1.8,28.6,15.1,30.4.6.1,4,.7,8.7-1,6.5-2.3,15.5-9.1,22.3-27.9.7,5.1,2.6,11.8,8,16.3.8.6,1.6,1.2,2.5,1.8,3.1,1.9,6.8,2.8,10.7,2.6,7.9-.3,14.6-2.6,20.2-5.9,1-.6,2-1.2,3-1.9s.9-.7,1.4-1c8.2-6.1,13.6-14.1,16.5-19.5,4.6,8.4,15,23.1,33,27.2,1.3.3,2.6.5,4,.7s2.8.3,4.2.4c3.9.2,7.7-.7,10.7-2.6,7.3-4.4,9.7-12.3,10.5-18.1.3.9.7,1.8,1,2.7.1.3.2.5.3.8.2.6.5,1.2.7,1.7.1.3.3.6.4.9.2.5.5,1,.7,1.6.1.3.2.5.4.8.3.6.6,1.1.9,1.7,0,.1.2.3.2.4.4.7.7,1.3,1.1,2,.1.2.2.3.3.5.3.5.6.9.8,1.3.1.2.3.4.4.6.3.4.5.8.8,1.1.1.2.3.4.4.6.3.4.5.7.8,1.1.1.1.2.3.3.4.4.5.8.9,1.1,1.4,0,0,.1.1.2.2.3.4.6.7.9,1,.1.1.3.3.4.4.3.3.5.5.8.8.1.1.3.3.4.4.3.2.5.5.8.7.1.1.3.2.4.3.3.3.7.5,1,.8,0,0,0,0,.1.1.4.3.7.5,1.1.8.1,0,.2.2.4.2.2.2.5.3.7.5.1,0,.3.2.4.2.2.1.5.3.7.4.1,0,.3.1.4.2.3.1.5.3.7.4,0,0,.2,0,.3.1.3.2.7.3,1,.4.1,0,.2,0,.3.1.2,0,.4.2.7.2.1,0,.3,0,.4.1.2,0,.4.1.6.2.1,0,.3,0,.4.1.2,0,.4,0,.5.1.1,0,.2,0,.3,0,.2,0,.5.1.7.1.1,0,.2,0,.4,0,.2,0,.3,0,.5,0,.1,0,.2,0,.4,0,.1,0,.3,0,.4,0,.1,0,.2,0,.3,0,.1,0,.2,0,.3,0,.1,0,.2,0,.3,0,.1,0,.2,0,.3,0,.4,0,.8,0,1.1,0,0,0,0,0,.1,0,.5,0,.9,0,1.1-.1,0,0,0,0,0,0,.1,0,.2,0,.3,0,0,0,0,0,0,0,8.6-1.2,12.4-9.4,14-17.7,0,0,0-.1,0-.2,0-.4.1-.7.2-1.1.8-4.6.9-9.1.9-12.4.4.7.9,1.3,1.3,1.9.1.1.2.3.3.4.4.5.7.9,1.1,1.4.1.1.2.3.3.4.5.5,1,1.1,1.4,1.5,0,0,.2.2.3.2.4.4.8.8,1.3,1.2,0,0,.2.2.2.2,0,0,0,0-.1.1-.2.2-.3.3-.5.5-.2.3-.5.5-.7.8-.2.2-.3.3-.5.5-.2.3-.5.5-.7.8-.1.2-.3.3-.4.5-.2.3-.4.6-.7.9-.1.2-.2.3-.4.5-.2.3-.4.6-.6.9-.1.2-.2.3-.3.5-.2.3-.4.7-.6,1.1,0,.1-.2.3-.3.4-.2.4-.4.8-.7,1.2,0,.1-.1.2-.2.3-.3.5-.5,1.1-.8,1.6-4.5,10-6.4,22.6-5.5,37.6.2,3.4.5,6.7,1,10.1,1.4,10.1,4.1,20.3,8.1,30.4h0s0,0,0,.1c1.2,3.1,2.6,6.3,4,9.6-1.1,2.4-2.2,4.7-3.4,6.8ZM445.4,299.2h0c-2.6,6.1-8.5,3.7-9.1,3.5l-3.6-1.6,2,3.3c6,10,7.8,18.4,8.2,23.6.2,2.8-.9,5.4-3,7.1-2.2,1.8-4.9,2.3-7.6,1.5-5.1-1.5-8.7-5.4-9-5.9h0s-3.8-3.4-6.9-4.7l5,6.3h0c8.1,10.1,10.5,18.5,11.1,23.8.3,2.6-.8,5.2-2.8,6.9-2,1.7-4.6,2.3-7.1,1.6-11.7-3.3-20.2-18.1-21.1-19.8h0c-2.4-3.8-6.1-5.6-6.1-5.6,1.1,1.5,3.6,6.2,3.9,6.8h0c3.4,6.6,5.4,13.2,6,19.6.3,2.8-1,5.6-3.3,7.2-2.3,1.7-5.3,2-8,.9-12-5.2-21.8-23-27.8-36.7-.2-.6-.5-1.1-.7-1.7,0-.1-.1-.3-.2-.4-.7-1.6-1.3-3.2-2-4.9-5.2-13.2-8.2-26.6-8.9-39.8-.3-5.4-.3-10.6.2-15.4.7-8,2.4-15,5.2-21,0,0,0-.2.1-.3.2-.4.4-.8.6-1.2.1-.2.3-.5.4-.7.1-.2.2-.5.4-.7.1-.2.3-.5.4-.7.1-.2.3-.4.4-.7.2-.2.3-.5.5-.7.1-.2.3-.4.4-.6.2-.2.3-.4.5-.7.2-.2.3-.4.5-.7.2-.2.3-.4.5-.6.2-.2.4-.4.6-.7.2-.2.3-.4.5-.6.2-.2.4-.4.6-.7.2-.2.3-.3.5-.5,0,0,.2-.2.3-.2.2.2.5.3.7.5,0,0,.1,0,.2.1.4.2.7.5,1.1.7,0,0,0,0,0,0,.4.2.7.4,1.1.6,0,0,0,0,0,0,.4.2.7.4,1.1.5,0,0,0,0,0,0,.3.2.7.3,1,.4,0,0,.1,0,.2,0,.3.1.6.2.9.3.1,0,.2,0,.3.1.2,0,.5.2.8.3.2,0,.3.1.5.2.2,0,.4.1.6.2.4.1.7.2,1.1.3,3.5.9,7.3.2,10.2-2,.4-.3.7-.6,1.1-.9,2.4-2.1,3.8-5.1,4.1-8.3,0,0,0,0,0,0,0-.5,0-1.1,0-1.7,0-.2,0-.4,0-.6,0-.2,0-.4,0-.6,5.2.2,10.4,1.5,15.1,4,23.8,12.5,35.6,44.4,38.7,53.9.8,2.5.7,5.1-.2,7.3Z"/>
      <path class="cls-1" d="M405.4,280.3c4.5,5.4,6.6,9.8,7.5,13.2,1.4,5.5-3.2,10.9-8.9,10.2-6.5-.8-10.4-6.1-10.4-6.1,2.6,5.6,3.1,10.3,2.7,14.1-.9,8-11.4,10-15.3,2.9-5.3-9.8-5.9-25.3-5.9-25.3,0,0-2.4,30.2,11.3,32.4,4,.7,8.1-1.1,10.3-4.5,1.7-2.6,2.9-6.6,1.5-12.7,0,0,2.1,1.3,5,1.8,7,1.2,13-4.8,12.2-11.8-.3-2.7-1.4-5.8-4.1-9.3,0,0,6-.5,8-4-7,4.4-13.9-.8-13.9-.8Z"/>
      <path class="cls-1" d="M124.8,289.2s-.6,15.5-5.9,25.3c-3.9,7.1-14.4,5.1-15.3-2.9-.4-3.8.1-8.5,2.7-14.1,0,0-3.9,5.3-10.4,6.1-5.7.7-10.3-4.6-8.9-10.2.9-3.4,3-7.8,7.5-13.2,0,0-7,5.3-13.9.8,1.9,3.6,8,4,8,4-2.7,3.5-3.8,6.6-4.1,9.3-.8,7,5.3,13.1,12.2,11.8,2.9-.5,5-1.8,5-1.8-1.5,6.1-.3,10.1,1.5,12.7,2.2,3.4,6.3,5.2,10.3,4.5,13.7-2.2,11.3-32.4,11.3-32.4Z"/>
      <path class="cls-1" d="M175.2,201.8h.4c3.3,1.2,6.6,1.8,9.9,1.8s5.1-.3,7.6-1c4-1.1,7.5-2.9,10.5-5.5,5.6-4.8,8.8-11.9,9-19.6.2-12.6-1.1-23.1-3.8-31.2-2.4-7.3-8.3-12.8-15.7-14.7-7.2-1.9-14.8,0-20.4,5-9.1,8.3-13.7,21.4-16,31-3.5,14.6,4.5,29.3,18.5,34.1ZM159.1,168.3c2.2-9.2,6.6-21.9,15.2-29.7,5-4.5,11.5-6.2,18-4.5,6.6,1.7,11.8,6.6,14,13.1,2.6,7.8,3.8,18,3.6,30.3-.1,7-3.1,13.4-8.1,17.7-2.7,2.3-5.9,4-9.5,5-5.2,1.4-10.7,1.2-16.1-.6h-.3c-12.8-4.6-20-18-16.8-31.3Z"/>
      <path class="cls-1" d="M189.3,170.5c8.2,0,14.8-6.6,14.8-14.8s-6.6-14.8-14.8-14.8-14.8,6.6-14.8,14.8,6.6,14.8,14.8,14.8Z"/>
      <path class="cls-1" d="M296.5,197.1c3,2.5,6.5,4.4,10.5,5.5,2.5.7,5,1,7.6,1s6.7-.6,9.9-1.7h.4c14-5,21.9-19.7,18.5-34.2-2.3-9.6-6.9-22.7-16-31-5.5-5-13.1-6.9-20.4-5-7.4,1.9-13.3,7.4-15.7,14.7-2.7,8.1-4,18.6-3.8,31.2.1,7.7,3.4,14.8,9,19.6ZM293.6,147.1c2.2-6.5,7.4-11.4,14-13.1,1.7-.4,3.4-.7,5-.7,4.8,0,9.3,1.8,13,5.1,8.6,7.8,13,20.5,15.2,29.7,3.2,13.3-4.1,26.7-16.8,31.2h-.3c-5.4,1.9-10.9,2.1-16.1.7-3.6-1-6.8-2.7-9.5-5-5-4.3-8-10.8-8.1-17.7-.2-12.3,1-22.5,3.6-30.3Z"/>
      <path class="cls-1" d="M310.7,170.5c8.2,0,14.8-6.6,14.8-14.8s-6.6-14.8-14.8-14.8-14.8,6.6-14.8,14.8,6.6,14.8,14.8,14.8Z"/>
      <path class="cls-1" d="M268.7,182.6l-.5-.6c-.2-.3-5.8-7.9-18.3-7.9s-18,7.5-18.3,7.9l-.5.6,18.7,33.3,18.7-33.3ZM250,176.6c9.2,0,14.2,4.6,15.7,6.2l-15.7,28-15.7-28c1.5-1.7,6.5-6.2,15.7-6.2Z"/>
    </g>
  </g>
</svg>