<?xml version="1.0" encoding="UTF-8"?>
<svg xmlns="http://www.w3.org/2000/svg" version="1.1" viewBox="0 0 500 500">
  <defs>
    <style>
      .cls-1, .cls-2 {
        stroke-miterlimit: 10;
      }

      .cls-1, .cls-2, .cls-3, .cls-4, .cls-5 {
        stroke: #000;
      }

      .cls-1, .cls-4, .cls-6 {
        fill: #fff;
      }

      .cls-2 {
        stroke-width: 2px;
      }

      .cls-2, .cls-5 {
        fill: none;
      }

      .cls-3 {
        fill: #000;
      }

      .cls-3, .cls-4, .cls-5 {
        stroke-linecap: round;
        stroke-linejoin: round;
        stroke-width: 3px;
      }

      .cls-6 {
        stroke-width: 0px;
      }
    </style>
  </defs>
  <g id="BACKGROUND">
    <rect class="cls-6" width="500" height="500"/>
  </g>
  <g id="OBJECTS">
    <g>
      <g>
        <path class="cls-4" d="M135.1,315.5c-12,33.4-12.4,70.7-1.2,104.2,10.6-29.7,21.2-59.5,31-89.5.2,0,.3-.1-29.8-14.7Z"/>
        <path class="cls-4" d="M243.7,142.8c8.5-22.1,25.4-40.9,46.5-51.7,21.1-10.8,46.1-13.6,69.1-7.7-30.4,21.3-54,52.2-66.4,87.2-15.3-10.7-32.1-19.2-49.2-27.9Z"/>
        <g>
          <path class="cls-4" d="M391.1,276.1c1.4-18.7,9.5-36.8,22.5-50.2,13-13.5,30.8-22.3,49.4-24.4-9.3,29.8-19.6,61.3-43.3,81.6,11.7,14.4,16,34.5,11.3,52.5-17.2-6.1-35.6-25.9-37.3-47.5"/>
          <path class="cls-4" d="M395.3,289.7c-23.1,33-62,46.4-101.1,56.7-35.2,9.3-73.3,7.8-108.4,1.9,0,0-.1,0-.2,0-3.9-.6-7.8-1.3-11.6-2.1-.7-.1-1.3-.3-2-.4-46.8-10.8-87.3-42.9-110.8-84.1-18.5-32.5-9.5-73.5,20.6-95.9,31.1-23.2,65.1-39.6,101.8-44.6,45.2-6.1,92,9.4,124.4,41.2,0,0,0,0,.1.1,25.9,23,42.8,51.6,58.5,85.6,5.3,11.4,15.1,18.9,27.6,20.4"/>
          <path class="cls-2" d="M62.8,262.9c-2.5-25.7,19.6-36.3,35.4-40,36.6-8.6,99.4,15.9,137.2,49,14.4,12.7,27.4,27.5,44.6,36.2,25.4,12.9,57.4,9.6,81.7-5.3,10.6-6.5,23.5-17.2,32.3-11.4"/>
        </g>
        <g>
          <g>
            <circle class="cls-3" cx="229.2" cy="231.1" r="8.2"/>
            <circle class="cls-6" cx="231" cy="229.5" r="4.1"/>
          </g>
          <g>
            <path class="cls-4" d="M305.9,242.1c3.6,11.8,1,25.1-7,35"/>
            <path class="cls-4" d="M297.2,223.7c6.4,20.4,1.6,43.4-12.7,60.2"/>
            <path class="cls-4" d="M284.3,215.2c4.2,22.3-1.5,46-15.5,64.6"/>
          </g>
        </g>
        <path class="cls-4" d="M284.7,307.6c4.2,44.3,29.1,75.4,68.1,90.6-3.2-33.8-20.4-69.5-23.6-95.5"/>
        <g>
          <path class="cls-4" d="M107.2,303.6c32.3,5,91.4-17.2,130.6-38.5,10.1,16,1.9,38-15.6,50.4-17.5,12.4-42,15.9-63.7,12.6s-40.9-12.8-51.4-24.5Z"/>
          <path class="cls-5" d="M118.9,304.5c2.6,5.5,6.6,10.3,14.2,14.5.5-5.5,2-11,5.4-15.5,6,10.4,14.9,19,25.5,24.6.6-10.9,1.1-21.8.9-31.7,13.5,9.5,27.7,18.1,42.3,25.8,1.1-13.9,2.2-27.9,2.8-42,9,6,17.9,12,27,17.1.2-9.8-1.4-19.7-4.6-29"/>
        </g>
      </g>
      <g>
        <g>
          <circle class="cls-4" cx="222.2" cy="432.9" r="23.5"/>
          <path class="cls-1" d="M228.1,428.4c-4.4-5.3-11-8.7-7.8-11.3,3.2-2.6,11-1.1,15.4,4.3,4.4,5.3,5.4,13.7,2.2,16.4-3.2,2.6-5.3-3.9-9.7-9.3Z"/>
        </g>
        <g>
          <circle class="cls-4" cx="391.6" cy="143.1" r="16.5"/>
          <path class="cls-1" d="M396.7,142c-1.2-4.7-4.3-8.9-1.5-9.6,2.8-.7,7.3,2.7,8.4,7.4,1.2,4.7-.8,10.3-3.6,11s-2.2-4.1-3.3-8.8Z"/>
        </g>
        <g>
          <circle class="cls-4" cx="113.1" cy="83.5" r="19"/>
          <path class="cls-1" d="M119,84.3c.5-5.6-1.3-11.3,2-10.9,3.3.3,6.9,5.6,6.3,11.2-.5,5.6-4.7,10.9-8.1,10.6-3.4-.3-.8-5.3-.2-10.8Z"/>
        </g>
        <g>
          <circle class="cls-4" cx="391.6" cy="376.9" r="13"/>
          <path class="cls-1" d="M393.9,375.9c-2.4-3-6.1-4.8-4.3-6.3s6.1-.6,8.5,2.4c2.4,3,3,7.6,1.2,9s-2.9-2.2-5.4-5.1Z"/>
        </g>
        <g>
          <circle class="cls-4" cx="50.1" cy="350.6" r="13"/>
          <path class="cls-1" d="M52.3,349.7c-2.4-3-6.1-4.8-4.3-6.3s6.1-.6,8.5,2.4c2.4,3,3,7.6,1.2,9-1.8,1.5-2.9-2.2-5.4-5.1Z"/>
        </g>
      </g>
    </g>
  </g>
</svg>