<?xml version="1.0" encoding="UTF-8"?>
<svg xmlns="http://www.w3.org/2000/svg" version="1.1" viewBox="0 0 500 500">
  <defs>
    <style>
      .cls-1 {
        stroke-width: 3px;
      }

      .cls-1, .cls-2 {
        fill: none;
        stroke: #1d1d1b;
        stroke-linecap: round;
        stroke-linejoin: round;
      }

      .cls-2 {
        stroke-width: 1.5px;
      }

      .cls-3 {
        fill: #fff;
        stroke-width: 0px;
      }
    </style>
  </defs>
  <g id="BACKGROUND">
    <rect class="cls-3" y="-.11" width="500" height="500"/>
  </g>
  <g id="OBJECTS">
    <g id="TURTLE">
      <path class="cls-1" d="M206.57,176.74s-14.72,11.04-5.03,45.83c0,0,12.23,43.01,43.01,48.49,30.78,5.48,78.12-48.7,83.81-153.07,0,0,2.53,0,7.27-1.27,0,0,30.36-95.51-74.64-77.8-105,17.71-39.85,191.02-39.85,191.02"/>
      <path class="cls-2" d="M205.5,176.91s-2.17,9.05,2.25,37.35"/>
      <path class="cls-1" d="M335.64,116.72s-39.01,7.38-93.4.84"/>
      <path class="cls-1" d="M245.19,110.19s-6.54,6.75-5.06,17.92"/>
      <path class="cls-2" d="M239.91,103.68s-8.48,4.59-8.32,20.16"/>
      <path class="cls-2" d="M281.56,132.38s15.34,1.74,24.19-4.27"/>
      <path class="cls-2" d="M279.98,230.37s7.17-5.69,10.54-13.49"/>
      <path class="cls-1" d="M252.36,89.1s21.51,19.4,26.99-7.38"/>
      <path class="cls-1" d="M307.81,80.25s.84,15.9,9.28,15.65c8.43-.25,7.17-14.17,7.17-14.17"/>
      <path class="cls-2" d="M257.21,59.64s1.42-8.86,7.75-4.43"/>
      <path class="cls-2" d="M315.24,57.9s3.48-2.85,4.43,3.48"/>
      <path class="cls-2" d="M312.62,119.38s1.2,2.09,1.28,5.1"/>
      <path class="cls-2" d="M293.26,120.99s.47,1.11.4,4.27"/>
      <path class="cls-2" d="M317.05,119.03s.33-2.22.33-5.07"/>
      <path class="cls-2" d="M262.66,119.38s-.55-2.34,0-5.62"/>
      <circle class="cls-2" cx="283.81" cy="101.79" r=".32"/>
      <circle class="cls-2" cx="304.15" cy="101.47" r=".32"/>
      <path class="cls-1" d="M236.15,193.63"/>
      <path class="cls-1" d="M308.63,211.02s38.13,21.63,48.16,92.92c14.62,103.96-34.47,163.25-34.47,163.25l-80.22-.07c-39.81-3.2-37.96-46.48-85.07-56.65-4.11-9.43-8.31-21.91-11.1-34.24-7.89-34.81-5.81-69.05,4.13-98.44.49-1.45,1-2.88,1.53-4.31.14-.38.28-.76.43-1.14,9.57-4.14,12.65-16.63,12.1-24.8,9.07-14.84,20.59-27.45,34.12-36.98"/>
      <path class="cls-1" d="M238.23,284.34s24.14,11.39,47.02-15.5"/>
      <path class="cls-2" d="M263.4,267.83s4.99,6.55,2.99,15.64c0,0,30.15,147.93,11.54,183.72"/>
      <path class="cls-2" d="M214.49,249.35s-4.51,2.31-4.51,14.96c0,0-22.95,94.56-30.17,146.86-.38,2.77-.72,5.42-1.01,7.94"/>
      <path class="cls-2" d="M299.1,230.37s5.76,2.74,5.34,12.86c0,0,31.19,57.91,50.92,106.35,1.25,3.08,2.46,6.12,3.61,9.11"/>
      <path class="cls-2" d="M157.26,268.69c7.6,13.1,36.5,54.1,99.95,53.39,75.48-.84,84.38-67.07,84.38-67.07"/>
      <path class="cls-2" d="M142.25,354.34s36.45,51.76,126.73,51.92c50.58.09,76.19-19,88.94-35.8"/>
      <path class="cls-1" d="M130.44,436.77c.09-53.13-35.51-65.15-58.91-40.48s18.34,70.9,18.34,70.9h152.23"/>
      <path class="cls-1" d="M129.47,422.29s8.68-2.81,18.38,10.26"/>
      <path class="cls-1" d="M134.52,422.39s8.08-12.06,22.51-11.91"/>
      <path class="cls-2" d="M69.15,432.55s-11.39-26.46,11.23-34.21c22.61-7.75,42.38,10.56,37.48,68.85"/>
      <path class="cls-2" d="M136.25,421.36s5.17-1.07,13.18,3.15"/>
      <path class="cls-2" d="M106.65,404.36s1.65-5.09,7.68-6.17"/>
      <path class="cls-2" d="M86.3,396.91s.09-5.05,5.36-7.48"/>
      <path class="cls-1" d="M377.69,435.5c-13.92-56.93,32.89-65.15,55.66-42.33s0,74.02,0,74.02h-111.03"/>
      <path class="cls-1" d="M375.64,424.27s-9.02,1.74-14.08,15.03"/>
      <path class="cls-1" d="M370.34,426.92s-8.24-15.56-20.06-18.12"/>
      <path class="cls-2" d="M396.24,467.19s-19.97-61.2,10.75-71.96c26.35-9.22,37.42,20.5,35.21,33.31"/>
      <path class="cls-2" d="M391.92,393.84s5.53-3.02,11.94,2.76"/>
      <path class="cls-2" d="M411.05,386.48s4.82.67,6.25,7.02"/>
      <path class="cls-2" d="M371.96,425.85s-7.13-.36-15.56,7.44"/>
      <line class="cls-1" x1="47.39" y1="467.19" x2="461.3" y2="467.19"/>
      <path class="cls-1" d="M349.82,272.58c8.42-5.72,20.95-15.54,31.57-29.21,16.06-20.67,25.32-50.03,43.82-41.04,24.01,11.66,27.5,86.29-69.18,97.26"/>
      <path class="cls-2" d="M433.16,235.53c-1.03,11.32-5.89,20.01-12.42,19.42s-12.28-10.25-11.25-21.57c1.03-11.32,7.17-20.02,13.7-19.42s11,10.26,9.96,21.58Z"/>
      <path class="cls-2" d="M407,213.92s4.91-3.16,10.12,2.16"/>
      <path class="cls-2" d="M419.89,205.5s4.27,1.27,4.03,8.06"/>
      <path class="cls-2" d="M430.8,213.92s0,1.92-1.47,3.91"/>
      <path class="cls-1" d="M164.12,247.55c-6.64-7.71-16.18-20.46-22.88-36.43-10.13-24.14-11.42-54.89-31.62-51.04-26.22,5.01-49.02,76.15,41.47,111.91"/>
      <path class="cls-2" d="M93.3,190.08c-1.95,11.2.47,20.86,6.94,21.98s14.52-6.7,16.47-17.9c1.95-11.2-1.71-21.19-8.17-22.32-6.46-1.13-13.29,7.04-15.24,18.24Z"/>
      <path class="cls-2" d="M124.19,176.03s-3.92-4.33-10.34-.55"/>
      <path class="cls-2" d="M113.94,164.54s-4.45.11-5.99,6.74"/>
      <path class="cls-2" d="M101.21,169.83s-.49,1.86.4,4.15"/>
      <path class="cls-1" d="M136.25,280.85s-19.77,57.04,3.75,115.81"/>
      <path class="cls-1" d="M204.07,162.3s-18.06,9.02-16.79,37.49c0,0-9.49,7.59-17.71,18.98"/>
      <path class="cls-1" d="M142.84,439.3"/>
      <path class="cls-1" d="M88.51,218.29c-8.44,8.33-16.07,18.54-22.23,31.06-21.24,43.21-12.77,98.7,13.28,139.19"/>
      <path class="cls-1" d="M189.37,181.92s-25.64-1.75-54.84,8.38"/>
      <path class="cls-2" d="M63.62,356.06s5.17-11.57,15.71-21.83c0,0-4.99-41.46,13.32-73.51,0,0-11.07-14.74-14.51-30.35"/>
      <path class="cls-2" d="M148.74,387.1s-5.68,3.48-11.72,1.43c0,0-29.3-11.85-48.51-43.48,0,0-8.13-54.08,15.9-82.54,0,0,4.39-2.63,18.48-4.95"/>
      <path class="cls-2" d="M85.61,221.26s3.63,15.21,14.59,31.65c0,0,3.47-1.04,13.44-2.21"/>
      <path class="cls-2" d="M150.09,228.3s7.25-14.6,26.65-29.78c0,0-1.34-8.98,2.07-16.72"/>
      <path class="cls-2" d="M68.09,367.22s2.48-7.31,13.4-16.48c0,0,9.81,21.36,31.16,38.43"/>
      <path class="cls-2" d="M121.08,398.19s8.47,10.46,25.79,14.32"/>
      <path class="cls-1" d="M314.43,195.59s7.84,3.69,8.66,28.03"/>
      <path class="cls-2" d="M101.61,149.39s-20.32,5.84-24.6,36.66"/>
      <path class="cls-2" d="M393.23,302.33s23.41-3.37,43.45-29.94"/>
      <path class="cls-2" d="M317.46,32.59s19.94,3.71,27.11,27.05"/>
      <path class="cls-2" d="M58.9,393.17s-10.56,9.86-1.92,37.27"/>
      <path class="cls-2" d="M453.78,420.53s.84,13.7-7.17,37.74"/>
    </g>
  </g>
</svg>