<?xml version="1.0" encoding="UTF-8"?>
<svg xmlns="http://www.w3.org/2000/svg" version="1.1" viewBox="0 0 750 500">
  <defs>
    <style>
      .cls-1 {
        fill: #0C1F37;
      }

    </style>
  </defs>
  <g id="OBJECTS">
    <g>
      <path class="cls-1" d="M72.4,64.7s0,0-.1,0c-2.1-.1-3.5-3.6-5.5-13.2-.1-.5-.2-.9-.2-1.2l-5.2-23.2h0c-.7-3.3-1.1-6.9,1.3-9.3,1.8-1.8,4.5-2,6.4-2.1l16.7-1.1c.1,0,.2,0,.4,0,.6,0,1.1.5,1.1,1.1,0,.4-.1.7-.4.9-.9,1.7-3.6,13.5-4.6,18-.4,1.8-.7,3.2-.9,3.7-.7,2.5-1.3,5.1-1.9,7.7-1.2,5.1-2.5,10.4-4.2,15.5-.3.9-1.1,3.3-2.8,3.3ZM63.5,26.7l5.2,23.2c0,.3.1.7.3,1.2,1.7,8.4,2.8,10.8,3.4,11.3.2-.2.4-.7.8-1.7,1.7-4.9,2.9-10.2,4.1-15.3.6-2.5,1.2-5.2,1.9-7.7.1-.5.4-1.8.8-3.6,2.3-9.9,3.5-14.8,4.3-17.2l-15.1,1c-2,.1-3.8.3-5,1.5-1.6,1.6-1.2,4.5-.7,7.2h0Z"/>
      <path class="cls-1" d="M94.9,68c-.1,0-.3,0-.4,0-.6,0-1.4-.4-2-1.5-1.5-3,1.1-8,4.5-13.6.7-1.2,1.3-2.2,1.6-2.9l8.6-17.9c.2-.3.5-.6.9-.6.4,0,.8.1,1,.4l10.3,13.1q.7.9-4.6,5.8c-2.5,2.4-5.5,5.1-7.5,7-1,.9-1.7,1.6-1.9,1.8-.4.3-.9,1-1.6,1.7-3.4,3.7-6.4,6.8-8.8,6.8ZM108.4,34.6l-7.8,16.3c-.4.8-1,1.8-1.7,3.1-1.9,3.3-5.5,9.4-4.4,11.5.1.3.3.3.3.3,0,0,0,0,.1,0,1.6,0,5.5-4.2,7.1-6.1.7-.8,1.3-1.4,1.7-1.8.2-.2,1-.9,2-1.8,2.7-2.5,9.3-8.6,11.3-10.5l-8.6-11Z"/>
      <path class="cls-1" d="M55,74.3c-2.6,0-6.1-1-10-2.3-1.2-.4-2.3-.8-3-.9-.4,0-1.4-.4-2.7-.8-2.9-.9-10.5-3.1-12-3-.4.2-.9.2-1.2-.1-.5-.4-.5-1.1-.2-1.5l14-18.3c.2-.3.5-.4.9-.4.3,0,.7.1.9.4l11,13.3c.3.4.9,1,1.5,1.6,2.4,2.5,5.7,5.8,5.4,8.6,0,1-.6,1.9-1.5,2.5-.8.6-1.9.8-3.2.8ZM29,65.3c1.9.3,5.2,1.2,11,2.9,1.2.4,2.2.7,2.6.7.8.2,1.9.6,3.2,1,3.5,1.2,9.4,3.1,11.2,1.8.5-.3.5-.6.6-.9.2-1.8-3-5-4.8-6.9-.7-.7-1.3-1.3-1.7-1.8l-10.1-12.3-11.8,15.4ZM27.7,67s0,0,0,0c0,0,0,0,0,0Z"/>
      <path class="cls-1" d="M57.5,102.1c-7.8,0-15.7-.5-23.7-1.6-.6,0-1-.6-.9-1.2,0-.6.6-1,1.2-.9,28.5,3.9,55.9.7,79.2-9.2,25.8-11,46.7-30.6,57.3-53.9.3-.6.9-.8,1.5-.5.6.3.8.9.5,1.5-10.9,23.8-32.2,43.9-58.4,55-17.2,7.3-36.4,11-56.7,11Z"/>
      <path class="cls-1" d="M58.7,138.6c-.4,0-.9-.3-1-.7l-14.2-36.3c-.2-.6,0-1.2.6-1.4.6-.2,1.2,0,1.4.6l12.9,33c1.1-4.8,2.2-9.6,3.2-14.3,1.3-5.8,2.7-11.8,4.1-17.8.1-.6.7-1,1.3-.8.6.1,1,.7.8,1.3-1.4,6-2.7,12-4,17.8-1.3,5.8-2.7,11.8-4.1,17.8-.1.5-.5.8-1,.8,0,0,0,0,0,0Z"/>
      <path class="cls-1" d="M96.5,133.4c-.4,0-.7-.2-.9-.5l-19.7-31.5c-.3-.5-.2-1.2.4-1.5.5-.3,1.2-.2,1.5.4l18,28.9c.6-5.1,1.3-10.1,1.9-15.2.8-6.1,1.5-12.1,2.3-18.3,0-.6.6-1,1.2-1,.6,0,1,.6,1,1.2-.7,6.1-1.5,12.2-2.3,18.3-.8,6.1-1.5,12.1-2.3,18.3,0,.5-.4.8-.9.9,0,0-.2,0-.2,0Z"/>
      <path class="cls-1" d="M138.2,119.4c-.2,0-.5,0-.7-.2l-31.6-24.9c-.5-.4-.6-1.1-.2-1.5.4-.5,1.1-.6,1.5-.2l29.4,23.1c-.8-5.2-1.7-10.3-2.6-15.2-1-5.9-2.1-11.9-3-18,0-.6.3-1.2.9-1.3.6,0,1.2.3,1.3.9.9,6.1,2,12.1,3,18,1,5.9,2.1,11.9,3,18,0,.4-.1.9-.5,1.1-.2.1-.4.2-.6.2Z"/>
      <path class="cls-1" d="M175.4,98.2c-.2,0-.4,0-.5-.1l-37.2-20.5c-.5-.3-.7-1-.4-1.5.3-.5,1-.7,1.5-.4l34.4,19c-5.1-12.1-9.3-24.9-13.1-40.1-.2-.6.2-1.2.8-1.3.6-.2,1.2.2,1.3.8,4.2,16.3,8.7,29.9,14.3,42.7.2.4,0,.9-.3,1.3-.2.2-.5.3-.7.3Z"/>
      <path class="cls-1" d="M33,104.7c-.4,0-.8-.2-1-.7-1.2-2.8-.8-6.2,1-8.7.4-.5,1.1-.6,1.5-.2.5.4.6,1.1.2,1.5-1.4,1.8-1.7,4.4-.8,6.5.2.6,0,1.2-.6,1.4-.1,0-.3,0-.4,0Z"/>
      <path class="cls-1" d="M170.8,45.9c-.4,0-.8-.2-1-.6-1-1.8-3.4-2.8-5.4-2.1-.6.2-1.2-.1-1.4-.7-.2-.6.1-1.2.7-1.4,3-1,6.5.3,8.1,3.1.3.5,0,1.2-.4,1.5-.2,0-.3.1-.5.1Z"/>
      <path class="cls-1" d="M240.1,53c-15.6,0-31-5.7-42.8-15.8-.5-.4-.5-1.1-.1-1.6.4-.5,1.1-.5,1.6-.1,12.4,10.6,28.9,16.2,45.2,15.2,16.3-1,32-8.5,43-20.5.4-.5,1.1-.5,1.6,0,.4.4.5,1.1,0,1.6-11.4,12.5-27.6,20.2-44.5,21.3-1.3,0-2.6.1-3.9.1Z"/>
      <path class="cls-1" d="M293.1,41s0,0,0,0c-.6,0-1.1-.6-1-1.2.2-3.4-1.2-6.9-3.6-9.3-2.5-2.4-6-3.6-9.4-3.3-.6,0-1.1-.4-1.2-1,0-.6.4-1.1,1-1.2,4-.4,8.2,1.1,11.1,3.9,2.9,2.8,4.5,6.9,4.3,11,0,.6-.5,1-1.1,1Z"/>
      <path class="cls-1" d="M269.7,74.4c-5,0-10.2-2.6-13.7-7-3.2-4-5.2-9.4-5.7-15.7,0-.6.4-1.1,1-1.2.6,0,1.1.4,1.2,1,.5,5.8,2.3,10.9,5.3,14.5,3.4,4.2,8.5,6.6,13.3,6.1,5.9-.6,11.2-5.9,12.3-12.2,1-5.9-1.4-12.5-6.2-17.2-.4-.4-.4-1.1,0-1.6.4-.4,1.1-.4,1.6,0,5.3,5.2,8,12.5,6.9,19.1-1.2,7.3-7.3,13.4-14.2,14.1-.5,0-1,0-1.5,0Z"/>
      <path class="cls-1" d="M271.2,59.5c-.4,0-.7-.2-.9-.5l-6.2-10.5c-.3-.5-.1-1.2.4-1.5.5-.3,1.2-.1,1.5.4l6.2,10.5c.3.5.1,1.2-.4,1.5-.2.1-.4.2-.6.2Z"/>
      <path class="cls-1" d="M52.9,259.3c-2.6,0-5.2-1.4-6.8-3.7-1.4-2-1.8-4.3-1-6.4.2-.6.8-.9,1.4-.6.6.2.9.8.6,1.4-.5,1.4-.2,2.9.8,4.3,1.2,1.7,3.2,2.8,5.2,2.7,4.1-.1,7.2-3.8,8.3-7.1,1.2-3.8.8-7.9,0-11.6-7.6.9-15.3-.8-21.2-4.9-7.5-5.2-11.8-14.2-10.9-22.7,1-9.6,7.8-17.2,14.2-23.8-2.5-8.1-4.3-16.3-4.2-24.9,0-6.9,2.3-11.7,6.2-13.5,3.6-1.7,8.3-.6,11.2,2.7,2.5,2.7,3.7,6.6,3.6,11-.4,10-7.3,17.9-14.3,25.3,0,0,0,0,0,0,1.6,5.1,3.6,10.1,5.6,15.1,5.1-4.9,12.8-7.6,18.9-6.2,9.2,2,15.9,11.3,15,20.7-1.1,11-11.2,18.4-20.2,20.6-.6.1-1.1.3-1.7.4.7,3.9,1.2,8.4-.1,12.6-1.6,5-5.9,8.6-10.3,8.7,0,0-.1,0-.2,0ZM44.2,189.3c-5.8,6.2-11.8,13.1-12.7,21.6-.8,7.7,3.2,16,10,20.7,5.4,3.8,12.5,5.4,19.5,4.6-.8-3.5-1.8-7-2.9-10.5-.7,0-1.3,0-2,0-3.3-.5-6.4-2.6-8.1-5.5-2.7-4.9-2.2-10.2,1.3-15,.2-.2.4-.5.6-.7-2-5-4-10-5.7-15.1ZM60.3,225.4c1.1,3.5,2.1,7,2.9,10.5.5-.1,1.1-.2,1.6-.3,8.2-2,17.6-8.7,18.5-18.6.8-8.2-5.3-16.6-13.3-18.4-5.5-1.2-13,1.5-17.5,6.3.2.5.4.9.6,1.4,2.3,5.6,4.6,11.3,6.5,17,1.6-.4,3.1-1.2,4.2-2.3.4-.4,1.1-.4,1.6,0,.4.4.4,1.1,0,1.6-1.4,1.4-3.2,2.4-5.1,2.9ZM50.9,206.8c-2.8,4-3.1,8.3-.9,12.3,1.3,2.4,3.8,4,6.4,4.4.3,0,.6,0,.9,0-1.9-5.6-4.1-11.1-6.3-16.5,0-.1,0-.2-.1-.3ZM49.1,150c-.9,0-1.9.2-2.7.6-4.3,2-5,8.1-5,11.6,0,7.8,1.5,15.5,3.7,23,6.5-6.8,12.6-14.2,12.9-23,.1-3.8-.9-7.1-3-9.4-1.6-1.8-3.9-2.7-6-2.7Z"/>
      <path class="cls-1" d="M139,207.7c-.8,0-1.6,0-2.4-.2-2.9-.5-5.6-2.3-7.5-4.8-2,1.6-4.7,2.3-7.5,1.8-2.8-.5-5.7-2.2-8.2-4.9-3-3.2-9.5-11.4-8.2-20.2-6.7-.1-12-.4-17.1-.8-5.4-.3-11-.7-18.3-.8-.5,0-1-.4-1.1-.9,0-.5.2-1,.7-1.2,7.3-2.8,12.9-5.2,18.4-7.6,5.2-2.3,10.6-4.6,17.5-7.3-2.7-7.5-.7-16.7,4.8-22.2,6.1-6,16.2-7.1,23-2.5,5.5,3.7,8.2,10.7,7.1,16.9,3.6-3.2,7.7-5.4,12-6.4,6.7-1.5,13.7.1,18.4,4.4,5.1,4.6,6.9,12.3,4.3,18.2-1.6,3.6-4.9,6.8-9.2,8.8-3.4,1.6-7.1,2.5-10.8,3.3,1.6,6.4,1,12.7-1.7,17.6-3,5.3-8.6,8.7-14.1,8.7ZM130.6,201.1c1.6,2.2,3.9,3.8,6.4,4.2,5.3,1,11.2-2.1,14.2-7.4,2.6-4.7,3-10.9,1.2-17.1,0-.3,0-.6.1-.9.2-.3.4-.5.7-.5,4-.8,7.9-1.6,11.5-3.3,3.9-1.9,6.8-4.6,8.2-7.8,2.3-5.1.7-11.6-3.7-15.7-4.1-3.7-10.4-5.2-16.4-3.8-5.4,1.2-10.6,4.7-14.6,9.7-.4.5-1,.5-1.5.2-.5-.3-.6-1-.3-1.5,3.8-6,1.7-15.2-4.4-19.2-6-4-14.9-3-20.2,2.3-5.2,5.1-6.8,13.9-3.9,20.8.1.3.1.6,0,.9-.1.3-.3.5-.6.6-7.3,2.8-12.9,5.2-18.4,7.6-4.1,1.8-8.3,3.7-13.3,5.7,4.8.2,8.9.4,12.9.7,5.4.3,11,.7,18.3.8.3,0,.7.2.9.4.2.3.3.6.2.9-2,8.2,4.5,16.4,7.4,19.5,1.5,1.6,3.9,3.7,6.9,4.2,2.2.4,4.4-.2,5.9-1.5-1.5-2.8-1.8-5.8-.9-8.5.1-.3.3-.5.6-.7.3-.1.6-.1.9,0,1.4.7,2.5,2.1,2.9,3.8.5,1.9.2,4-.8,5.5,0,0,0,0,0,0ZM128.7,194.7c-.1,1.3,0,2.7.6,4,.2-.8.3-1.8,0-2.6-.1-.5-.3-1-.6-1.4Z"/>
      <g>
        <path class="cls-1" d="M211.9,122.9h-24.7c-.4,0-.8-.3-1-.7-.2-.4-.1-.9.2-1.2l22.9-26.4-20.9-2c-.6,0-1-.6-1-1.2,0-.6.6-1.1,1.2-1l23.1,2.2c.4,0,.8.3.9.7.2.4,0,.8-.2,1.1l-22.7,26.2h22.3c.6,0,1.1.6,1.1,1.2,0,.6-.5,1.1-1.1,1.1Z"/>
        <path class="cls-1" d="M231.8,102.7s0,0,0,0l-14-.8c-.4,0-.8-.3-.9-.6-.2-.4-.1-.8,0-1.1,3.7-5.1,8-9.7,12.1-14.2l2.6-2.8-12.2-.4c-.6,0-1.1-.5-1.1-1.1,0-.6.6-1.1,1.1-1.1l14.6.5c.4,0,.8.3,1,.7.2.4,0,.9-.2,1.2l-4.3,4.6c-3.7,4-7.4,8-10.7,12.4l12,.7c.6,0,1.1.6,1,1.2,0,.6-.5,1-1.1,1Z"/>
        <path class="cls-1" d="M265.8,114.2h0l-18.8-.3c-.4,0-.8-.3-1-.6-.2-.4-.1-.8.1-1.2l19.7-24.4-18.9.2h0c-.6,0-1.1-.5-1.1-1.1,0-.6.5-1.1,1.1-1.1l21.3-.2h0c.4,0,.8.2,1,.6.2.4.1.8-.1,1.2l-19.8,24.5,16.6.2c.6,0,1.1.5,1.1,1.1,0,.6-.5,1.1-1.1,1.1Z"/>
      </g>
      <path class="cls-1" d="M235.5,188.3c-.5,0-1,0-1.5,0-6.1-.5-11.9-4-14.9-6.1-4.6-3.2-6.7-9.6-8.3-14.2-.2-.6-.4-1.3-.6-1.9-.8-2.3-1.5-4.6-2.5-6.8-1.8-4.2-4.6-9.3-10.6-11.5-.5-.2-.8-.8-.7-1.3.6-2.2,4.5-3.7,13.2-5h.3c3.7-.6,6.9-.4,10.3-.2,1,0,2,.1,3.1.2,10.8.5,19.9,4.4,25.8,10.9,7,7.7,8.4,19.3,3.4,27.1-3.5,5.5-10.3,9-17.1,9ZM199.3,146.2c5.8,2.7,8.6,7.8,10.4,12.1h0c1,2.3,1.8,4.7,2.5,7,.2.6.4,1.3.6,1.9,1.5,4.4,3.5,10.4,7.5,13.2,2.8,1.9,8.2,5.3,13.8,5.7,6.5.5,13.1-2.7,16.5-7.9,4.5-7,3.1-17.4-3.2-24.4-5.5-6.1-14.1-9.7-24.3-10.1-1.1,0-2.1-.1-3.1-.2-3.4-.2-6.3-.4-9.9.1h-.3c-6.7,1.1-9.5,2.1-10.6,2.7Z"/>
      <path class="cls-1" d="M267.8,148.9c-.1,0-.3,0-.4,0-3-.1-6-1.4-9.3-4-1-.8-1.9-1.6-2.8-2.4-1.5-1.3-2.9-2.6-4.5-3.6,0,0,0,0,0,0-.4-.2-1.8-.7-3-1.1-3.3-1-4.6-1.5-5-2.4-.2-.5-.2-1.1,0-1.7.7-1.4,3.1-2.2,6.5-3h.4c5.8-1.5,12.1-1.2,17.6.8,2.9,1,5.1,2.4,6.6,4.1,2,2.3,2.8,5.3,2.1,7.8-1,3.2-4.5,5.5-8.3,5.5ZM251.9,137c1.7,1.1,3.3,2.5,4.8,3.8.9.8,1.8,1.6,2.8,2.3,2.9,2.3,5.5,3.5,8,3.6,2.5,0,5.7-1.2,6.5-3.9.5-1.8,0-4-1.6-5.7-1.3-1.4-3.1-2.5-5.7-3.5-5.1-1.8-10.9-2.1-16.4-.8h-.4c-3.3.8-4.4,1.4-4.9,1.7.7.4,2.4.9,3.4,1.2,1.8.6,2.9.9,3.5,1.3h0Z"/>
      <path class="cls-1" d="M246.9,173.4c-.1,0-.3,0-.4,0-.6-.2-.8-.9-.6-1.4,1.4-3.5.8-7.7-1.5-10.6-.4-.5-.3-1.2.2-1.5.5-.4,1.2-.3,1.5.2,2.8,3.6,3.6,8.6,1.9,12.8-.2.4-.6.7-1,.7Z"/>
      <path class="cls-1" d="M199,193.4c-3.1,0-5.5-2.5-6.5-5.1-1-2.6-.8-5.3-.7-7.8,0-.6,0-1.5,0-2.5-.2-5-.1-9.3,2.1-10.5,1-.6,2.2-.4,3.6.5,3.9,2.6,6.6,8.4,7.8,12.9,0,0,0,0,0,0,.8,3,.8,5.5,0,7.6-1,2.8-3.6,4.8-6.2,4.8h0ZM195.2,169.5c0,0-.1,0-.2,0-1.2.7-1.1,6.2-1,8.5,0,1.1,0,2,0,2.6-.1,2.3-.2,4.8.6,6.9.7,1.8,2.3,3.6,4.4,3.6h0c1.9,0,3.5-1.7,4.1-3.4.6-1.7.6-3.7,0-6.3-1-4-3.4-9.4-6.8-11.6-.5-.3-.9-.5-1.1-.5Z"/>
      <path class="cls-1" d="M344.2,85.2c-5.1,0-10.4-4.9-14.7-9.5-5.2-5.5-7.8-12.2-7.2-18.3.7-7.4,6.5-13.6,13.2-14,4.2-.3,8.7,1.7,12.1,5.3.4.4.8.9,1.2,1.4.8-.9,1.7-1.8,2.7-2.5,4.3-3.1,11.2-3.8,15.5.4,2.9,2.9,4,7.5,2.9,12.2-1.1,4.4-3.9,8-6.2,10.7-6.1,7-11.5,11.5-16.4,13.7-1,.4-2,.6-2.9.6ZM336.3,45.5c-.2,0-.4,0-.6,0-5.5.4-10.5,5.7-11.1,12-.5,5.5,1.9,11.6,6.6,16.6h0c2.7,2.9,10,10.7,15.2,8.4,4.6-2,9.8-6.3,15.7-13.1,2.2-2.5,4.8-5.8,5.7-9.8,1-3.8,0-7.8-2.3-10.1-3-3-8.7-3.1-12.7-.2-1,.7-1.9,1.6-2.7,2.5,1.4,2.2,2.6,4.9,3.7,8.2.7,2,1.2,4.2.8,6.3-.4,2.2-2.2,4.6-4.7,4.9-2.2.2-4.5-1.3-5.5-3.7-.9-2.1-.7-4.4-.5-6.2.5-3.7,1.7-7,3.5-9.6-.5-.6-.9-1.2-1.4-1.7-2.7-2.9-6.3-4.6-9.7-4.6ZM348.7,53.9c-1.6,2.8-2.3,5.9-2.6,7.9-.2,1.5-.4,3.4.3,5,.5,1.2,1.9,2.5,3.3,2.3,1.5-.1,2.5-1.7,2.8-3.1.3-1.6,0-3.2-.8-5.2-.9-2.7-1.9-5-3-6.9Z"/>
      <path class="cls-1" d="M345.3,115.2c-.4,0-.8-.2-1-.6l-7.3-14.4c-8.9-2-17.4-6.9-24-13.9-2.7-2.9-4.8-6.5-6.4-10.8-5-14-2.5-31.5,5.8-40.8,5.6-6.2,13.5-10.7,22.2-12.4,8.1-1.7,16.9-1.1,25.5,1.6,7.6,2.4,13.5,6.1,17.7,10.9,7.2,8.2,10.5,16,10.6,25.1.2,9.4-3,18.8-8.7,25.9-8.4,10.5-16.8,15.2-27.8,15.7l-5.6,13.3c-.2.4-.5.7-1,.7h0ZM339.7,100.7l5.5,10.8,5-11.7c.2-.4.6-.7,1-.7,10.7-.3,18.7-4.7,26.9-14.9,5.4-6.6,8.4-15.6,8.2-24.4-.1-8.5-3.2-15.9-10.1-23.7h0c-3.9-4.5-9.6-7.9-16.7-10.2-8.2-2.6-16.6-3.1-24.4-1.5-8.3,1.7-15.8,5.9-21.1,11.8-7.8,8.7-10.1,25.3-5.4,38.6,1.4,4,3.4,7.4,5.9,10.1,6.3,6.7,14.5,11.5,23,13.3,1,.2,2.1.4,3.4.6.6,0,1,.6,1,1.2,0,.6-.6,1.1-1.1,1h-1.1Z"/>
      <path class="cls-1" d="M287.2,172.1h0c-.6,0-1.1-.5-1.1-1.1v-10c0-.4.4-.8.8-1,.4-.2.9,0,1.2.2l7.7,7.8c.4.4.4,1.1,0,1.6s-1.1.4-1.6,0l-5.9-5.9v7.4c0,.6-.6,1.1-1.2,1.1Z"/>
      <path class="cls-1" d="M299.8,174.1c-.1,0-.3,0-.4,0-.6-.2-.8-.9-.6-1.4l2.2-5-5.1,2.2c-.6.2-1.2,0-1.4-.6-.2-.6,0-1.2.6-1.4l7.7-3.3c.4-.2.9,0,1.2.2.3.3.4.8.2,1.2l-3.3,7.6c-.2.4-.6.7-1,.7Z"/>
      <path class="cls-1" d="M290.7,178.5c0,0-.1,0-.2,0l-11.8-2.4c-.5,0-.8-.5-.9-1,0-.5.2-.9.6-1.1l8.2-3.8c.6-.3,1.2,0,1.5.5.3.6,0,1.2-.5,1.5l-5.1,2.4,8.5,1.7c.6.1,1,.7.9,1.3-.1.5-.6.9-1.1.9Z"/>
      <path class="cls-1" d="M292.1,190.1c-.4,0-.8-.2-1-.6-1.4-2.9-3.7-9.7-3.7-12.5s.5-1.1,1.1-1.1,1.1.5,1.1,1.1c0,1.7,1.2,5.9,2.5,9.1.1-.4.3-.8.5-1.2.6-1.6,1.1-3.1,1.5-3.8,0-.2.2-.5.3-.8.5-1.3,1-2.7,2.1-3.2.6-.3,1.4-.2,2.2-.2.2,0,.4,0,.6,0h3.6s-3.7-2.6-3.7-2.6c-.5-.3-.6-1-.3-1.5.3-.5,1-.6,1.5-.3l6.6,4.5c.4.3.6.8.4,1.2-.1.5-.6.8-1,.8h-7.1c-.2,0-.5,0-.8,0-.3,0-.9,0-1.1,0-.3.2-.7,1.4-.9,1.9-.1.4-.3.7-.4.9-.3.7-.9,2.2-1.4,3.7-.6,1.6-1.1,3.1-1.5,3.9-.2.4-.6.6-1,.6h0Z"/>
      <path class="cls-1" d="M292.8,167.2c-.1,0-.2,0-.3,0-.6-.2-.9-.8-.7-1.4,3.5-12,11.9-22.4,22.8-28.4.5-.3,1.2-.1,1.5.4.3.5.1,1.2-.4,1.5-10.4,5.8-18.4,15.7-21.8,27.1-.1.5-.6.8-1.1.8Z"/>
      <path class="cls-1" d="M322.9,134.4c-.4,0-.8-.2-1-.6-.3-.5-.1-1.2.4-1.5,10.3-5.7,22-9,33.8-9.4.6,0,1.1.5,1.1,1.1,0,.6-.5,1.1-1.1,1.1-11.4.4-22.8,3.6-32.8,9.1-.2,0-.4.1-.5.1Z"/>
      <path class="cls-1" d="M300.3,175.1c-.3,0-.7-.2-.9-.4-.4-.5-.3-1.2.2-1.5,17.2-13,43.3-14.7,66.4-4.4.6.2.8.9.6,1.5-.2.6-.9.8-1.5.6-22.4-10-47.6-8.3-64.2,4.2-.2.1-.4.2-.7.2Z"/>
      <path class="cls-1" d="M311.6,160.8c-.4,0-.8-.3-1-.7-.2-.6,0-1.2.6-1.4,24.6-10.4,53-10.7,77.8-.8.6.2.8.9.6,1.4-.2.6-.9.8-1.4.6-24.3-9.7-52.1-9.4-76.2.7-.1,0-.3,0-.4,0Z"/>
      <path class="cls-1" d="M350.8,135.4c-.5,0-1-.4-1.1-.9-.1-.6.3-1.2.9-1.3,10.6-2.1,21.5-2.3,32.2-.6.6,0,1,.7.9,1.3s-.7,1-1.3.9c-10.4-1.7-21-1.5-31.4.6,0,0-.1,0-.2,0Z"/>
      <g>
        <path class="cls-1" d="M295.2,135.8c-.6,0-1.1-.5-1.1-1.1v-25.5c0-.6.5-1.1,1.1-1.1s1.1.5,1.1,1.1v25.5c0,.6-.5,1.1-1.1,1.1Z"/>
        <path class="cls-1" d="M289.9,122.4c-.6,0-1.1-.5-1.1-1.1,0-.6.5-1.1,1.1-1.1l10.7-.2c.6,0,1.1.5,1.1,1.1,0,.6-.5,1.1-1.1,1.1l-10.7.2h0Z"/>
        <path class="cls-1" d="M317.7,118.6c-.6,0-1.1-.5-1.1-1.1l-.6-14.7c0-.6.4-1.1,1.1-1.1.6,0,1.1.4,1.1,1.1l.6,14.7c0,.6-.4,1.1-1.1,1.1,0,0,0,0,0,0Z"/>
        <path class="cls-1" d="M321.7,111.2h-9.1c-.6,0-1.1-.5-1.1-1.1s.5-1.1,1.1-1.1h9.1c.6,0,1.1.5,1.1,1.1s-.5,1.1-1.1,1.1Z"/>
        <path class="cls-1" d="M288.6,102c-.6,0-1.1-.5-1.1-1l-.6-10.1c0-.6.4-1.1,1-1.2.6,0,1.1.4,1.2,1l.6,10.1c0,.6-.4,1.1-1,1.2,0,0,0,0,0,0Z"/>
        <path class="cls-1" d="M284.9,97.4c-.6,0-1.1-.4-1.1-1,0-.6.4-1.1,1-1.2l7.2-.4c.6,0,1.1.4,1.2,1,0,.6-.4,1.1-1,1.2l-7.2.4s0,0,0,0Z"/>
      </g>
      <path class="cls-1" d="M425.1,52.4c-4.2,0-9.4-1.6-12.1-4.7-3.8-4.4-3.6-11.8-1.2-16.3,3-5.7,9.8-9.1,16.1-8,.6,0,1,.7.9,1.3,0,0,0,0,0,.1.5.2,1,.3,1.5.5,5.6,2.4,9.5,7.6,9.5,12.8,0,6.7-5.3,12.9-12.2,14.2-.8.1-1.6.2-2.5.2ZM417.3,28.2c-1.5,1.1-2.7,2.5-3.6,4.2-2,3.8-2.2,10.2.9,13.9,2.6,3.1,8.7,4.5,12.6,3.8,5.7-1,10.4-6.4,10.4-12,0-4.2-3.4-8.7-8.1-10.7-3.9-1.7-7.7-1.2-10.3,1.4-.4.4-1.1.4-1.6,0-.1-.1-.2-.3-.3-.4Z"/>
      <path class="cls-1" d="M427.2,102c-9.1,0-18.4-2.2-27.5-6.5-.3-.2-.6-.5-.6-.8-.7-5.1-1.4-10.4-.8-15.7.7-6,3.1-11.1,6.9-14.3,5.9-5,14.2-5.3,21.5-4.9,4.6.3,9.9.8,14.4,3.5,4.8,2.9,8.3,8.5,9.5,15.2,1.1,5.9.6,12,.1,17.8,0,.4-.3.8-.7.9-7.4,3.2-15.1,4.8-22.9,4.8ZM401.2,93.7c15.9,7.5,32.2,8.1,47.4,1.7.5-5.5.9-11.1-.1-16.6-1.2-6.1-4.3-11.2-8.5-13.8-4-2.5-9-2.9-13.3-3.2-6.9-.4-14.6-.2-19.9,4.4-3.3,2.9-5.5,7.4-6.1,12.9-.6,4.8,0,9.7.7,14.5ZM449.6,96.2h0,0Z"/>
      <path class="cls-1" d="M498,118c-.4,0-.8-.3-1-.7l-9.5-22.7c-9.9,6.8-20.6,12.7-31.6,17.5-.5.2-1,0-1.3-.3-.3-.4-.3-1,0-1.3,4.3-5.6,8.6-11.1,12.9-16.6,4.1-5.2,8.2-10.5,12.3-15.8-9.7-8.6-17.8-18.6-24.2-29.9-.2-.4-.2-.8,0-1.2.3-.3.7-.5,1.1-.4,11.1,2.5,21.9,6.3,32.2,11.3-.7-5.6-1.5-11.3-2.2-16.7-.8-6.1-1.7-12.5-2.5-18.8,0-.5.2-.9.6-1.1.4-.2,1,0,1.3.3,8.3,9.6,15.5,20.2,21.3,31.5l21.8-22.5c.4-.4.9-.4,1.3-.2.4.3.6.8.5,1.3-3.5,11.6-8.4,22.7-14.7,33.1l26.9,1.1c.5,0,.9.4,1,.9.1.5-.1,1-.6,1.2l-27,14.1c1.3,3.9,2.5,7.7,3.7,11.6,1.3,4.1,2.6,8.3,4,12.5.2.5,0,1-.4,1.3-.4.3-1,.2-1.3,0l-20.9-18.2c0,9.4-.9,18.9-2.8,28.1,0,.5-.5.8-1,.9,0,0,0,0-.1,0ZM488,91.9c.1,0,.2,0,.3,0,.3,0,.6.3.7.6l8.6,20.6c1.5-8.7,2.2-17.6,2.1-26.5,0-.4.2-.8.6-1,.4-.2.9-.1,1.2.2l19.8,17.2c-.9-2.9-1.9-5.8-2.8-8.7-1.3-4.1-2.6-8.3-4-12.5-.2-.5,0-1.1.5-1.3l24.2-12.6-24.7-1c-.4,0-.7-.2-.9-.6-.2-.3-.2-.8,0-1.1,5.8-9.3,10.5-19.3,14-29.7l-19.6,20.2c-.2.3-.6.4-1,.3-.4,0-.7-.3-.8-.6-5.3-10.6-11.8-20.5-19.3-29.6.6,5.1,1.3,10.2,2,15.1.8,6.1,1.7,12.5,2.5,18.8,0,.4-.1.8-.5,1-.3.2-.8.3-1.1,0-9.9-5-20.3-8.8-31-11.4,6.3,10.4,14.1,19.8,23.3,27.8.4.4.5,1,.1,1.5-4.3,5.6-8.6,11.1-12.9,16.6-3.4,4.4-6.8,8.7-10.2,13.1,9.9-4.6,19.4-10,28.4-16.3.2-.1.4-.2.6-.2Z"/>
      <g>
        <path class="cls-1" d="M517.6,143.5c-.4,0-.8-.2-1-.6-.3-.5,0-1.2.5-1.5,36.6-18.8,63.4-55.7,70-96.3,0-.6.7-1,1.3-.9.6,0,1,.7.9,1.3-6.7,41.3-33.9,78.8-71.2,98-.2,0-.3.1-.5.1Z"/>
        <path class="cls-1" d="M556.1,121.2c-2.3,0-4.6-.1-6.9-.3-.6,0-1-.6-1-1.2,0-.6.6-1.1,1.2-1,13.8,1.4,28.1-1.5,40.3-8.1,1.8-.9,3.8-2.4,3.6-4.2-.1-1.2-1.4-2.1-2.4-2.4-1.4-.4-2.9-.1-4.4.1-11.6,2.1-22.9,6.6-32.7,13.2-.5.3-1.2.2-1.5-.3-.3-.5-.2-1.2.3-1.5,10-6.8,21.7-11.4,33.6-13.5,1.7-.3,3.5-.6,5.3,0,1.8.5,3.8,2,4.1,4.2.3,2.4-1.3,4.5-4.7,6.4-10.5,5.7-22.6,8.7-34.6,8.7Z"/>
        <path class="cls-1" d="M561.2,105.2c-.5,0-.9-.3-1.1-.8-3.2-11.3-4.3-23-3.2-34.8.2-1.9.4-3.8,1.4-5.6,1.1-2.1,3.2-3.4,5.3-3.3,1.9,0,3.7,1.3,4.7,3.2.9,1.6,1.2,3.5,1.4,5.1,1.2,10.3.1,21-3.2,30.9-.2.6-.8.9-1.4.7-.6-.2-.9-.8-.7-1.4,3.2-9.6,4.3-19.9,3.1-29.9-.2-1.5-.4-3-1.1-4.3-.7-1.2-1.8-2-2.9-2.1-1.4,0-2.6,1-3.2,2.2-.7,1.4-1,3.1-1.1,4.7-1,11.5,0,22.9,3.2,34,.2.6-.2,1.2-.8,1.4,0,0-.2,0-.3,0Z"/>
        <path class="cls-1" d="M578.7,78.7c-.4,0-.8-.2-1-.6-.3-.5,0-1.2.4-1.5,7.5-4.1,14-9.8,19-16.7.8-1.1,1.6-2.3,1.9-3.7.2-1,0-2.4-.8-3.2-.8-.6-2-.7-3.2-.2-1.1.5-2.1,1.3-3.2,2.5-2.9,3-5.4,6.4-7.4,10-.3.5-1,.7-1.5.4-.5-.3-.7-1-.4-1.5,2.1-3.8,4.7-7.3,7.8-10.5,1.1-1.2,2.4-2.3,4-3,1.9-.8,4-.5,5.4.6,1.4,1.2,2,3.2,1.6,5.3-.4,1.8-1.4,3.2-2.3,4.5-5.2,7.1-12,13.1-19.8,17.3-.2,0-.3.1-.5.1Z"/>
      </g>
      <path class="cls-1" d="M640.6,110.5c-4,0-8.3-.5-12.9-1.6-5.4-1.2-9.4-3.1-12.4-8.4-3.2-5.8-2.4-10.8-1-16.2,4.9-19.1,10.6-38.1,17.1-56.7.7-1.9,1.4-4.1,2.8-6,1.6-2.2,3.9-3.5,6.1-3.5,2.3,0,4.7,1.2,6.4,3.4,1.4,1.8,2.2,3.9,3,6.1,6,17.5,9.5,35.9,12.9,53.7.9,4.8,2,10.7.3,16.1h0c-2.7,8.2-10.5,13-21.5,13.2-.3,0-.5,0-.8,0ZM640.5,20.2s0,0,0,0c-1.6,0-3.2,1-4.4,2.6-1.2,1.6-1.9,3.6-2.5,5.4-6.4,18.5-12.2,37.6-17,56.6-1.4,5.3-2.1,9.5.8,14.6,2.6,4.7,6,6.2,10.9,7.4,4.8,1.1,9.1,1.6,13.2,1.5,4.7,0,16.1-1.4,19.5-11.6h0c1.6-4.9.5-10.3-.4-15-3.4-17.7-6.8-36.1-12.8-53.4-.7-2.1-1.4-3.9-2.6-5.5-1.2-1.6-2.9-2.5-4.5-2.5Z"/>
      <path class="cls-1" d="M640,137.2c-.8,0-1.5,0-2.3-.1-2.2-.2-4.5-.6-6-2.3-1.4-1.7-1.5-3.9-1.5-6l.4-19.9c0-.6.5-1.1,1.1-1.1h0c.6,0,1.1.5,1.1,1.1l-.4,19.9c0,1.8,0,3.5.9,4.5,1,1.1,2.7,1.4,4.5,1.6,2,.2,4,.3,5.3-.7,1.6-1.2,1.7-3.8,1.6-6.3l-.6-18.6c0-.6.5-1.1,1.1-1.1.6,0,1.1.5,1.1,1.1l.6,18.6c.1,3.1-.1,6.3-2.5,8.1-1.3,1-2.9,1.3-4.5,1.3Z"/>
      <path class="cls-1" d="M636,94.5c-.4,0-.9,0-1.3-.1-3-.5-5.5-2.8-6.5-5.7-2.1,1.5-4.9,2-7.4,1.3-3.2-1-5.6-4-5.8-7.4,0-.6.4-1.1,1-1.2.6,0,1.1.4,1.2,1,.2,2.4,2,4.7,4.3,5.4,2.3.7,5.1-.1,6.6-2,.3-.4.8-.5,1.2-.4.4.1.7.5.8,1,.1,2.7,2.4,5.2,5.1,5.7,2.7.5,5.6-1.1,6.7-3.7.1-.3.4-.5.7-.6.3-.1.6,0,.9,0,3.7,2.1,8.8,1.5,11.9-1.3,3.1-2.8,5.5-9.4,3.7-13.4-.2-.6,0-1.2.6-1.4.6-.2,1.2,0,1.4.6,2.1,4.9-.5,12.5-4.3,15.9-3.6,3.2-9.1,4.1-13.5,2.1-1.5,2.5-4.3,4.1-7.2,4.1Z"/>
      <path class="cls-1" d="M645,65.8c-.4,0-.9,0-1.3-.1-2.5-.5-4.6-2.4-5.6-4.7-2.3,2.5-5.1,3.9-8,4h0c-2.2,0-4.5-1-6-2.8-1.3-1.5-1.9-3.3-1.7-5.1,0-.6.6-1,1.2-.9.6,0,1,.6.9,1.2-.1,1.1.3,2.3,1.2,3.4,1.1,1.3,2.8,2,4.4,2h0c3.3,0,6.2-2.5,7.7-4.9.3-.4.8-.6,1.2-.5.5.1.8.6.8,1,0,2.4,2,4.7,4.3,5.2,2.4.5,5-1,5.9-3.2.1-.3.4-.6.8-.6.3,0,.7,0,1,.2,1.4,1.2,3.7,1,4.9-.4.4-.5,1.1-.5,1.6-.1.5.4.5,1.1.1,1.6-1.7,2-4.6,2.5-6.9,1.4-1.4,2.1-3.9,3.5-6.4,3.5Z"/>
      <g>
        <path class="cls-1" d="M455.5,173.9c-.3,0-.5,0-.8-.3-.4-.4-.5-1.1,0-1.6,3.9-4.1,7.4-8.4,10.8-12.6,3.4-4.2,7-8.6,10.9-12.7.4-.4,1.1-.5,1.6,0,.4.4.5,1.1,0,1.6-3.9,4.1-7.4,8.4-10.8,12.6-3.4,4.2-7,8.6-10.9,12.7-.2.2-.5.3-.8.3Z"/>
        <path class="cls-1" d="M482.3,142.7c-.2,0-.5,0-.7-.2-.5-.4-.6-1.1-.2-1.5l3.6-4.7c.4-.5,1.1-.6,1.5-.2.5.4.6,1.1.2,1.5l-3.6,4.7c-.2.3-.5.4-.9.4Z"/>
        <path class="cls-1" d="M459.5,177c-.5,0-1-.4-1.1-.9-.1-.6.3-1.2.9-1.3,13.3-2.6,27-3.8,40.6-3.4.6,0,1.1.5,1.1,1.1,0,.6-.5,1.1-1.1,1.1-13.4-.4-26.9.7-40.1,3.3,0,0-.1,0-.2,0Z"/>
        <path class="cls-1" d="M513.6,174s0,0,0,0l-8.6-.4c-.6,0-1.1-.5-1.1-1.1,0-.6.5-1.1,1.1-1.1l8.6.4c.6,0,1.1.5,1.1,1.1,0,.6-.5,1.1-1.1,1.1Z"/>
        <path class="cls-1" d="M486.7,201.9c-.2,0-.4,0-.6-.2l-28.5-18.9c-.5-.3-.6-1-.3-1.5.3-.5,1-.6,1.5-.3l28.5,18.9c.5.3.6,1,.3,1.5-.2.3-.6.5-.9.5Z"/>
        <path class="cls-1" d="M498.5,208.6c-.2,0-.3,0-.5-.1l-5.2-2.7c-.5-.3-.7-.9-.5-1.5.3-.5.9-.7,1.5-.5l5.2,2.7c.5.3.7.9.5,1.5-.2.4-.6.6-1,.6Z"/>
        <path class="cls-1" d="M465.9,228.6c-.5,0-1-.4-1.1-.9-1.7-11.9-5.7-26.3-11.3-40.6-.2-.6,0-1.2.6-1.4.6-.2,1.2,0,1.4.6,5.6,14.5,9.6,29.1,11.4,41.1,0,.6-.3,1.2-.9,1.2,0,0-.1,0-.2,0Z"/>
        <path class="cls-1" d="M467.9,242.1c-.5,0-1-.4-1.1-1l-1.1-8.6c0-.6.3-1.2.9-1.2.6,0,1.2.3,1.2.9l1.1,8.6c0,.6-.3,1.2-.9,1.2,0,0,0,0-.1,0Z"/>
        <path class="cls-1" d="M435.8,220.6c-.1,0-.3,0-.4,0-.6-.2-.8-.9-.6-1.4,2.3-5.2,4.1-10.4,5.9-15.5,1.8-5.1,3.6-10.4,5.9-15.6.2-.6.9-.8,1.4-.6.6.2.8.9.6,1.4-2.3,5.2-4.1,10.4-5.9,15.5-1.8,5.1-3.6,10.4-5.9,15.6-.2.4-.6.7-1,.7Z"/>
        <path class="cls-1" d="M431.2,233.3c-.1,0-.2,0-.3,0-.6-.2-.9-.8-.7-1.4l1.8-5.6c.2-.6.8-.9,1.4-.7.6.2.9.8.7,1.4l-1.8,5.6c-.1.5-.6.8-1,.8Z"/>
        <path class="cls-1" d="M405.9,204.6c-.5,0-.9-.3-1-.8-.2-.6.1-1.2.7-1.4,12.7-4.2,25-9.9,36.5-16.8.5-.3,1.2-.1,1.5.4.3.5.1,1.2-.4,1.5-11.6,7-24.1,12.7-37,17-.1,0-.2,0-.3,0Z"/>
        <path class="cls-1" d="M392.9,209c-.5,0-.9-.3-1-.8-.2-.6.1-1.2.7-1.4l8.2-2.6c.6-.2,1.2.1,1.4.7.2.6-.1,1.2-.7,1.4l-8.2,2.6c-.1,0-.2,0-.3,0Z"/>
        <path class="cls-1" d="M441.8,181.6c0,0-.2,0-.3,0l-33.2-8c-.6-.1-1-.7-.8-1.3.1-.6.7-1,1.3-.8l33.2,8c.6.1,1,.7.8,1.3-.1.5-.6.8-1.1.8Z"/>
        <path class="cls-1" d="M401.1,172.1s0,0-.1,0l-5.9-.8c-.6,0-1-.6-.9-1.2,0-.6.6-1,1.2-.9l5.9.8c.6,0,1,.6.9,1.2,0,.6-.5,1-1.1,1Z"/>
        <path class="cls-1" d="M444.1,175.3c-.3,0-.6-.1-.8-.4-8.8-10.1-18.7-22.1-25.2-34.1-.3-.5,0-1.2.4-1.5.5-.3,1.2,0,1.5.4,6.4,11.8,16.1,23.7,24.9,33.7.4.5.4,1.2-.1,1.6-.2.2-.5.3-.7.3Z"/>
        <path class="cls-1" d="M416.6,137c-.4,0-.8-.2-1-.6l-4-7.7c-.3-.5,0-1.2.5-1.5.5-.3,1.2,0,1.5.5l4,7.7c.3.5,0,1.2-.5,1.5-.2,0-.3.1-.5.1Z"/>
        <path class="cls-1" d="M449.4,172.8s0,0,0,0c-.6,0-1.1-.6-1-1.2.4-5.6.4-11.4.4-17s0-11.4.4-17.1c0-.6.6-1.1,1.2-1,.6,0,1.1.6,1,1.2-.4,5.6-.4,11.4-.4,17s0,11.4-.4,17.1c0,.6-.5,1-1.1,1Z"/>
        <path class="cls-1" d="M450.3,131c-.6,0-1.1-.5-1.1-1.1l-.2-5.9c0-.6.4-1.1,1.1-1.1.6,0,1.1.4,1.1,1.1l.2,5.9c0,.6-.4,1.1-1.1,1.1,0,0,0,0,0,0Z"/>
      </g>
      <g>
        <path class="cls-1" d="M573.2,201.9c-5.6,0-11.8-2.2-14.3-7.5-1.8-3.7-1.5-8.4.8-13.9,5-12.1,16-21.8,29.4-26.5-7.7-6.4-19.5-8.5-30.9-5.3-9.9,2.8-19.4,8.9-30.1,19.4-.4.4-1.1.4-1.6,0-.4-.4-.4-1.1,0-1.6,10.9-10.8,20.8-17.1,31-20,12.6-3.5,25.7-.9,34,6.6,2.5-.8,5.1-1.3,7.8-1.7,15.6-2.2,32.9,1.8,48.7,11.4.5.3.7,1,.4,1.5-.3.5-1,.7-1.5.4-15.4-9.3-32.1-13.3-47.2-11.1-2.1.3-4.2.7-6.3,1.3,6.9,7.6,9.2,19,5.6,28.7-3.7,9.9-13.2,17.2-23.7,18.2-.6,0-1.3,0-2,0ZM591,155.6c-13.3,4.3-24.3,13.8-29.3,25.6-2,4.9-2.3,9-.8,12.1,2.4,5,8.8,6.7,14.1,6.2,9.7-.9,18.4-7.6,21.8-16.7,3.4-9.1,1.1-19.9-5.6-26.9,0,0-.2-.2-.3-.3Z"/>
        <path class="cls-1" d="M649.2,165.7c0,0-.2,0-.2,0-6.3-1.4-12.6-2-21.2-1.8-.6,0-1.1-.5-1.1-1.1,0-.6.5-1.1,1.1-1.1,7.3-.1,13,.3,18.5,1.2l-12.3-14c-.4-.5-.4-1.2,0-1.6.5-.4,1.2-.4,1.6,0l14.4,16.4c.3.4.4.9.1,1.3-.2.3-.6.5-.9.5Z"/>
      </g>
      <path class="cls-1" d="M706,86.7c-4.8,0-9.7-1.3-14-3.9-7.2-4.3-11.4-11.3-11.2-18.8.2-8.8,4.9-16.8,9.9-24.2.6-.9,1.3-1.8,1.9-2.8,4.3-6.2,8.7-12.5,10.6-19.6.1-.4.5-.8,1-.8.5,0,.9.2,1.1.6v.2c3.6,7.5,7,14.6,12.1,21.5,4.7,6.4,9.8,13.8,11.3,22.1,1.3,7.6-1.1,17.4-9.5,22.1h0c-4,2.3-8.6,3.5-13.1,3.5ZM704.5,20.8c-2.3,6.3-6.2,12-10.1,17.5-.6.9-1.3,1.8-1.9,2.7-4.9,7.1-9.4,14.8-9.5,23-.1,6.7,3.7,13,10.1,16.9,7.7,4.6,17.3,4.7,24.9.4,7.4-4.2,9.6-13,8.4-19.8-1.4-7.8-6.3-15.1-10.9-21.2-4.6-6.3-7.9-12.7-11.1-19.5ZM718.6,82.3h0,0Z"/>
      <path class="cls-1" d="M702.7,80.3c0,0-.1,0-.2,0-6.9-1-12.9-6.4-14.6-13.2-.1-.6.2-1.2.8-1.3.6-.1,1.2.2,1.3.8,1.5,5.9,6.8,10.7,12.8,11.6.6,0,1,.6.9,1.2,0,.5-.5.9-1.1.9Z"/>
      <path class="cls-1" d="M674.4,149.5c-2.9,0-6-.7-8.5-2.8-2.3-1.9-3.5-4.3-3.5-7.1-.1-7.1,7.2-14.6,10.3-17.4,7-6.4,14.9-11.7,23.6-15.7,3.6-1.7,7.9-3.4,12.5-3.5,5,0,9.6,2.1,11.9,5.7,2.4,3.7,2.5,9,.1,13.7-2.1,4.3-5.8,7.5-9.1,10.1-9,7-19,12.4-29.8,15.9-1.9.6-4.6,1.3-7.5,1.3ZM708.9,105.1h-.1c-4.2,0-8.2,1.7-11.6,3.3-8.4,3.9-16.2,9.1-23,15.4-2.3,2.1-9.7,9.4-9.6,15.8,0,2.2.9,4,2.7,5.5,4.2,3.6,10.5,2.2,13.9,1.1h0c10.6-3.4,20.4-8.7,29.1-15.5,3.1-2.4,6.5-5.4,8.5-9.3,2-3.9,2-8.5,0-11.5-1.9-2.9-5.7-4.7-9.9-4.7Z"/>
      <path class="cls-1" d="M697,141.3c-.2,0-.4,0-.6-.2-.5-.3-.7-1-.4-1.5,2.9-4.9,2.6-11.6-.7-16.3-3.3-4.7-9.6-7.1-15.2-5.9-.6.1-1.2-.3-1.3-.9-.1-.6.3-1.2.9-1.3,6.4-1.3,13.6,1.5,17.4,6.8,3.8,5.3,4.2,13,.8,18.7-.2.3-.6.5-.9.5Z"/>
      <g>
        <path class="cls-1" d="M632.5,259.3c-.1,0-.2,0-.3,0-.6-.2-.9-.8-.7-1.4,2.1-6.9,3-14.3,3.8-21.4,1-8.7,2-17.7,5.4-26,5.2-12.8,16.1-23.9,33.2-34.1,5.2-3.1,10.7-6,16-8.8,3.5-1.8,7.1-3.8,10.7-5.7,9.3-5.2,17-10.7,24.3-17.5.2-.2.6-.3.9-.3.3,0,.6.2.8.5,4,6.4,3.3,15.7-1.6,23-3.8,5.6-9.7,10.2-18.5,14.3-2.7,1.3-5.4,2.4-8.1,3.5-4.3,1.8-8.7,3.7-12.8,6-.5.3-1.2.1-1.5-.4-.3-.5-.1-1.2.4-1.5,4.2-2.4,8.7-4.3,13.1-6.1,2.6-1.1,5.4-2.3,8-3.5,8.5-4,14.1-8.3,17.6-13.6,3.5-5.2,5.4-13,2.2-19.4-7.1,6.5-14.7,11.8-23.7,16.8-3.5,2-7.2,3.9-10.7,5.7-5.3,2.8-10.7,5.6-15.9,8.7-16.7,9.9-27.3,20.8-32.3,33.1-3.3,8-4.3,16.9-5.2,25.4-.8,7.3-1.6,14.8-3.9,21.8-.1.5-.6.8-1,.8Z"/>
        <path class="cls-1" d="M677.5,209.4c-.4,0-.8-.2-1-.6-.3-.5-.1-1.2.4-1.5,8.8-5,15.2-8.3,22.3-11.5h.3c7-3.3,14.2-6.6,19.5-12,4.5-4.5,8.8-12.6,6-20.3-.2-.6,0-1.2.7-1.4.6-.2,1.2,0,1.4.7,2.5,7.2,0,16-6.6,22.6-5.6,5.7-13,9-20.1,12.3h-.3c-7,3.3-13.4,6.6-22.1,11.6-.2,0-.4.1-.5.1Z"/>
        <path class="cls-1" d="M672.8,226.2c-.4,0-.8-.2-1-.6-.3-.5,0-1.2.5-1.5,2.2-1.1,4.5-2.3,6.8-3.5,6.5-3.4,13.2-6.9,18.7-9.1,6.3-2.6,12.8-5.2,18-10.8,3.9-4.3,7.2-11.1,4.5-17.6-.2-.6,0-1.2.6-1.4.6-.2,1.2,0,1.4.6,2.6,6.2.7,13.8-4.9,19.9-5.5,6-12.3,8.7-18.8,11.4-5.4,2.2-12.1,5.7-18.5,9-2.3,1.2-4.6,2.4-6.8,3.5-.2,0-.3.1-.5.1Z"/>
        <path class="cls-1" d="M662.1,245.2c-.4,0-.7-.2-1-.5-.3-.5-.1-1.2.4-1.5,4.8-2.8,9.8-5.5,14.8-7.9,2.5-1.2,5.4-2.4,8.4-3.6,13.7-5.6,30.7-12.5,29.6-28.2,0-.6.4-1.1,1-1.2.6,0,1.1.4,1.2,1,1.2,17.2-16.7,24.5-31,30.4-3,1.2-5.9,2.4-8.3,3.6-5,2.4-9.9,5-14.7,7.8-.2.1-.4.2-.6.2Z"/>
      </g>
      <path class="cls-1" d="M208.2,365.5c-1.1,0-2.2,0-3.2-.1-9.6-.6-19.3-1.8-29-3.7-2.3-.4-4.6-.9-6.7-2-2.5-1.2-4.5-3.2-5.5-5.3-1.5-3.3-.5-6.7.2-9h0s4.2-14.5,4.2-14.5c.4-1.5,1-3,1.6-4.6,1.2-3.2,2.4-6.5,2.6-9.6.1-1.7-1.4-3.4-3.1-5.2-1.1-1.2-2.3-2.5-3-4-2.1-4.2-2.6-8.6-1.4-12.3,1.8-5.4,7-9.2,14-10.2,6.1-.9,12.5.2,18.7,1.2l13.1,2.2c3.1.5,6.3,1.1,9.4,2.5,5.7,2.7,10.3,8.3,11.6,14.2,1,4.4-.2,8.4-3.1,10-1.3.8-2.9,1-4.4,1.3-1.6.2-3,.5-4,1.3-1.7,1.5-1.5,4.7-1.2,7.5l2.4,22c.6,5.4.9,11.1-2.4,14.6-2.6,2.8-6.5,3.5-10.8,3.5ZM166.1,346.1c-.8,2.6-1.4,5.1-.3,7.5.7,1.7,2.4,3.2,4.4,4.2,1.9.9,3.9,1.4,6.2,1.8,9.6,1.9,19.2,3.1,28.7,3.6,4.8.3,9.6.2,12.2-2.7,2.7-2.9,2.4-8,1.8-12.9l-2.4-22c-.4-3.4-.6-7.2,2-9.4,1.4-1.2,3.3-1.5,5.1-1.8,1.3-.2,2.6-.4,3.6-1,2.4-1.4,2.6-5,2.1-7.7-1.1-5.2-5.3-10.3-10.4-12.7-2.8-1.3-5.9-1.8-8.9-2.4l-13.1-2.2c-6-1-12.2-2.1-18-1.2-6.1.9-10.7,4.2-12.2,8.8-1,3.1-.6,7,1.3,10.6.6,1.2,1.7,2.4,2.7,3.5,1.9,2,3.8,4.2,3.6,6.8-.2,3.4-1.5,6.9-2.7,10.2-.6,1.6-1.1,3-1.5,4.4l-4.2,14.5h0Z"/>
      <path class="cls-1" d="M268.4,287c-9.9,0-20-3.3-28.2-9.4-10.5-7.9-16.5-18.7-17-30.4-.5-11.8,3.8-23,11.8-31,10.1-9.9,24.9-15.7,38.8-15.2,11.4.5,21.1,5.1,28.1,13.2h0c9,10.5,12.6,24.5,9.7,37.5-1.7,7.6-6.5,16-12.8,22.5-5.8,6-13.4,10.2-21.4,11.9-3,.6-6,.9-9,.9ZM271.9,203.2c-12.7,0-26.1,5.5-35.3,14.6-7.6,7.5-11.7,18.2-11.2,29.3.5,11.1,6.2,21.3,16.1,28.8,10.2,7.6,23.4,10.7,35.4,8.1,7.6-1.6,14.8-5.6,20.3-11.3,6-6.2,10.6-14.2,12.2-21.4,2.8-12.3-.7-25.6-9.2-35.6-6.6-7.7-15.7-12-26.5-12.5-.6,0-1.2,0-1.9,0Z"/>
      <path class="cls-1" d="M62.6,380.1c-.3,0-.6-.1-.8-.3-7.3-7-14.7-14.1-22.1-21.2-7.4-7.1-14.8-14.2-22.1-21.2-.3-.3-.4-.7-.3-1.1,2.6-7.6,5.3-15.4,7.9-23.2,2.7-7.8,5.3-15.5,7.9-23.1.1-.3.4-.6.7-.7.3-.1.7,0,1,.2l38.6,29.2c.3.2.5.7.4,1.1-1.7,10-3.4,19.9-5.1,29.8-1.7,9.9-3.3,19.8-5.1,29.8,0,.4-.4.7-.7.9-.1,0-.2,0-.3,0ZM19.6,336.2c7.2,6.9,14.4,13.8,21.6,20.8,6.9,6.6,13.8,13.3,20.6,19.8,1.6-9.3,3.1-18.5,4.7-27.7,1.6-9.7,3.3-19.4,4.9-29.1l-36.8-27.9c-2.4,7.1-4.9,14.4-7.4,21.7-2.6,7.6-5.2,15.1-7.7,22.5Z"/>
      <path class="cls-1" d="M62,378.7c-.5,0-.9-.3-1.1-.8l-26.7-86.4c-.2-.6.1-1.2.7-1.4.6-.2,1.2.1,1.4.7l26.7,86.4c.2.6-.1,1.2-.7,1.4-.1,0-.2,0-.3,0Z"/>
      <path class="cls-1" d="M27.4,337.4c-2.8,0-5.5-.1-8.3-.4-.6,0-1-.6-1-1.2,0-.6.6-1.1,1.2-1,18.3,1.8,36.9-2.6,52.5-12.2.5-.3,1.2-.2,1.5.4.3.5.2,1.2-.4,1.5-13.6,8.4-29.6,12.9-45.6,12.9Z"/>
      <path class="cls-1" d="M63.5,377.6c-.6,0-1.1-.4-1.1-1l-1.1-16.7c-.8-12.2-1.6-24.9-5.2-36.8-2.8-9.3-8.5-22-20-30-.5-.3-.6-1-.3-1.5.3-.5,1-.6,1.5-.3,12,8.4,18,21.6,20.8,31.2,3.6,12.1,4.5,24.9,5.3,37.3l1.1,16.7c0,.6-.4,1.1-1,1.2,0,0,0,0,0,0Z"/>
      <path class="cls-1" d="M51.9,345.8c-1.7,0-3.4-.1-5.1-.4-8.1-1.2-15.4-4.9-22.5-8.4-.5-.3-.8-.9-.5-1.5.3-.5.9-.8,1.5-.5,6.9,3.4,14.1,7,21.9,8.2,8.4,1.3,16.3-.8,21.2-5.7,2.5-2.4,4.1-5.5,5.9-8.7.7-1.2,1.3-2.4,2.1-3.6,3.5-5.7,7.5-9,11.9-9.9,2.7-.5,5.3,0,7.9.3,1.1.2,2.2.4,3.3.5,9.3.8,18-3.8,27.5-9.5.5-.3,1.2-.1,1.5.4.3.5.1,1.2-.4,1.5-9.8,5.9-18.8,10.7-28.8,9.8-1.2-.1-2.3-.3-3.5-.5-2.5-.4-4.8-.8-7.1-.3-3.8.7-7.3,3.7-10.4,8.8-.7,1.2-1.4,2.4-2,3.6-1.8,3.2-3.6,6.5-6.3,9.2-4.3,4.3-10.8,6.7-18,6.7Z"/>
      <path class="cls-1" d="M142,279.8c-6.5,0-13.5-3.4-19.2-6.2-.8-.4-1.6-.8-2.3-1.1-7.2-3.4-13.5-8.4-18.4-14.3h0c-3.7-4.5-8-11.6-6.9-19.1,1.5-10.5,12.6-16.7,22-15.9,8.3.7,16.5,5.9,22.4,14,2.7-6.3,5.9-13.1,11.5-17.8,6-5.1,16.1-7.1,22.4-1.6,3.6,3.1,5.5,8.3,5.2,13.8-.3,5.3-2.5,10.3-4.4,14-4.1,8-8.3,14.6-12.8,20.1-.6.8-1.3,1.6-1.9,2.4-4.2,5.3-9,11.3-16.6,11.7-.3,0-.7,0-1,0ZM103.8,256.8c4.7,5.7,10.8,10.4,17.6,13.7.8.4,1.5.7,2.3,1.1,6.1,3,12.9,6.3,19.1,6,6.7-.4,10.9-5.7,15-10.9.7-.8,1.3-1.6,2-2.4,4.5-5.4,8.6-11.8,12.6-19.7,1.8-3.5,3.9-8.2,4.2-13.1.3-4.9-1.4-9.4-4.5-12-5.5-4.7-14.2-2.9-19.6,1.6-5.8,4.9-8.9,12.3-11.7,18.8-.2.4-.5.6-.9.7-.4,0-.8-.2-1-.5-5.5-8.5-13.7-14-21.8-14.7-9.3-.8-18.5,5.8-19.7,14-1,6.8,2.9,13.2,6.4,17.4h0Z"/>
      <path class="cls-1" d="M178.9,235.6c-.5,0-1-.4-1.1-.9-.1-.6.3-1.2.9-1.3,7.8-1.6,15.7-2.7,23.6-3.2.6,0,1.1.4,1.2,1,0,.6-.4,1.1-1,1.2-7.8.6-15.6,1.6-23.3,3.2,0,0-.1,0-.2,0Z"/>
      <path class="cls-1" d="M91.9,278.9c-.3,0-.6-.1-.8-.4-.4-.5-.3-1.2.1-1.6,15.6-13.5,21.5-17.9,38.7-26.7.5-.3,1.2,0,1.5.5.3.5,0,1.2-.5,1.5-17,8.7-22.8,13-38.3,26.4-.2.2-.5.3-.7.3Z"/>
      <path class="cls-1" d="M132.1,255.3c0,0-.1,0-.2,0-.6-.1-1-.7-.9-1.3.3-1.8-.9-3.8-2.7-4.3-.6-.2-.9-.8-.8-1.3.2-.6.8-.9,1.3-.8,2.9.8,4.8,3.9,4.3,6.8,0,.5-.6.9-1.1.9Z"/>
      <path class="cls-1" d="M86.3,292.4c0,0-.2,0-.2,0-.6-.1-1-.7-.8-1.3.7-3,2.2-7,4.8-12.2-2.2,0-4.5.4-7,.7-2.1.3-4.3.5-6.7.7-.6,0-1.1-.4-1.2-1,0-.6.4-1.1,1-1.2,2.4-.2,4.6-.5,6.6-.7,3.3-.4,6.1-.8,9.1-.7.4,0,.7.2.9.5.2.3.2.7,0,1.1-3,5.8-4.7,10.2-5.4,13.3-.1.5-.6.9-1.1.9Z"/>
      <path class="cls-1" d="M193.4,241.3c-.3,0-.6-.1-.8-.3-.4-.4-.4-1.1,0-1.6l8.3-8.3c-1.9-2.3-4.4-4.2-7.2-5.4-.6-.2-.8-.9-.6-1.4.2-.6.9-.8,1.4-.6,3.4,1.5,6.4,3.9,8.7,6.9.3.4.3,1.1-.1,1.4l-9,9c-.2.2-.5.3-.8.3Z"/>
      <path class="cls-1" d="M298.7,272.8c-.4,0-.7-.2-.9-.5-1.7-2.7-4.7-4.7-9.4-6.3-1.1-.4-2.2-.7-3.3-1-2.9-.9-5.8-1.8-8.5-3.3-7.2-4.2-11.4-13.1-10-21.4,1.5-8.2,8.5-15.2,16.7-16.6,2-.4,4.1-.4,6.1-.4,1.7,0,3.4,0,5.1-.3,4-.5,7.1-2.4,8.2-5.1.2-.6.9-.8,1.4-.6.6.2.8.9.6,1.4-1.4,3.4-5.1,5.8-9.9,6.4-1.8.2-3.6.3-5.4.3-2,0-3.9,0-5.8.4-7.3,1.3-13.6,7.5-14.9,14.8s2.4,15.4,8.9,19.1c2.5,1.4,5.2,2.2,8,3.1,1.1.3,2.2.7,3.3,1,5.2,1.8,8.6,4.1,10.6,7.2.3.5.2,1.2-.4,1.5-.2.1-.4.2-.6.2Z"/>
      <path class="cls-1" d="M231.2,267c-.3,0-.5,0-.8-.3-.4-.4-.5-1.1,0-1.6,2.5-2.7,6.1-3.3,9.6-3.9,2.9-.5,5.7-1,7.8-2.6,2.9-2.2,3.9-6.2,4.6-9.8.8-4,1.6-8.3.9-12.5-.7-4.4-3.1-8.1-6.4-9.6-1.5-.7-3.1-1-4.8-1.4-.8-.2-1.6-.3-2.4-.5-3.5-.9-5.8-2.4-6.9-4.7-.3-.5,0-1.2.5-1.5.5-.3,1.2,0,1.5.5,1,2.1,3.6,3.1,5.5,3.5.7.2,1.5.3,2.3.5,1.8.3,3.6.7,5.4,1.5,3.9,1.9,6.8,6.1,7.6,11.2.7,4.6-.1,9.3-1,13.3-.8,4-2,8.4-5.5,11-2.5,1.9-5.7,2.5-8.7,3-3.3.6-6.3,1.1-8.3,3.2-.2.2-.5.3-.8.3Z"/>
      <path class="cls-1" d="M187.7,339.1c0,0-.2,0-.2,0-2-.5-3.7-2.2-3.9-4.3,0-.6.3-1.2.9-1.2.6,0,1.2.3,1.2.9.2,1.2,1.1,2.2,2.3,2.5.6.1,1,.7.8,1.3-.1.5-.6.9-1.1.9Z"/>
      <path class="cls-1" d="M199.6,319.9c0,0-.1,0-.2,0-.8-.2-1.4-.7-1.8-1.5-.3-.8-.3-1.7,0-2.3.3-.5,1-.7,1.5-.4.5.3.7,1,.4,1.5,0,0,0,.2,0,.3,0,.1.1.2.2.2.6.1,1,.7.9,1.3-.1.5-.6.9-1.1.9Z"/>
      <path class="cls-1" d="M205.7,336.8c-1.8,0-3.6-1.2-4.3-2.9-.2-.6.1-1.2.7-1.4.6-.2,1.2.1,1.4.7.4,1,1.6,1.7,2.7,1.4.6-.2,1.2.2,1.3.8.2.6-.2,1.2-.8,1.3-.3,0-.7.1-1,.1Z"/>
      <path class="cls-1" d="M187.6,310.8c-1.5,0-2.9-.7-3.7-2-.3-.5-.2-1.2.3-1.5.5-.3,1.2-.2,1.5.3.6.9,2,1.2,2.9.7.5-.3,1.2-.1,1.5.4.3.5.1,1.2-.4,1.5-.6.4-1.4.5-2.1.5Z"/>
      <path class="cls-1" d="M384.8,271.4c-.3,0-.6-.1-.8-.4-16.9-19.1-36.1-36.1-57-50.7-.5-.3-.6-1-.3-1.5.3-.5,1-.6,1.5-.3,21.1,14.7,40.4,31.8,57.4,51,.4.5.4,1.1,0,1.6-.2.2-.5.3-.7.3Z"/>
      <path class="cls-1" d="M331.1,271.7c-.2,0-.4,0-.5-.1-.5-.3-.7-1-.4-1.5,11-19.8,26.8-36.8,45.8-49.1.5-.3,1.2-.2,1.5.3s.2,1.2-.3,1.5c-18.7,12.2-34.2,28.9-45.1,48.4-.2.4-.6.6-1,.6Z"/>
      <path class="cls-1" d="M254.5,384.3c-.4,0-.8-.2-1-.5-4-6.9-8-15.6-11.9-24-3.9-8.4-7.9-17-11.8-23.8-.3-.5-.2-1,.2-1.4.4-.3,1-.4,1.4,0,4.1,3.3,8.1,7.5,12,11.6,3.5,3.7,7.2,7.6,10.8,10.6l2.1-3.3c15.6-24.4,24.3-37.8,43.2-61.5.4-.5,1-.5,1.5-.2.5.3.6,1,.3,1.5-9.7,17.1-16.4,31.4-22.9,45.2-6.5,13.8-13.2,28.2-23,45.4-.2.3-.6.6-1,.6h0ZM234.8,340.5c3,5.7,6,12.1,8.9,18.4,3.6,7.7,7.2,15.6,10.9,22.1,9.2-16.4,15.7-30.2,22-43.5,4.9-10.5,10-21.3,16.5-33.4-13.4,17.5-21.6,30.2-34.6,50.6l-2.8,4.4c-.2.3-.4.4-.7.5-.3,0-.6,0-.9-.2-4.1-3.3-8.1-7.5-12-11.6-2.3-2.4-4.7-4.9-7.1-7.2Z"/>
      <g>
        <path class="cls-1" d="M23.4,428.3c-.5,0-.9-.3-1-.8-.2-.6.1-1.2.7-1.4l58-18.4c.6-.2,1.2.1,1.4.7.2.6-.1,1.2-.7,1.4l-58,18.4c-.1,0-.2,0-.3,0Z"/>
        <path class="cls-1" d="M21.2,440c-.5,0-.9-.3-1.1-.8-.1-.6.2-1.2.8-1.3l68.6-17.2c.6-.1,1.2.2,1.3.8.1.6-.2,1.2-.8,1.3l-68.6,17.2c0,0-.2,0-.3,0Z"/>
        <path class="cls-1" d="M30.1,450.2c-.5,0-.9-.3-1.1-.8-.2-.6.2-1.2.8-1.3l65.3-17.8c.6-.2,1.2.2,1.4.8.2.6-.2,1.2-.8,1.3l-65.3,17.8c0,0-.2,0-.3,0Z"/>
        <path class="cls-1" d="M27,463.5c-.5,0-.9-.3-1.1-.8-.2-.6.2-1.2.8-1.3l76.4-20.1c.6-.2,1.2.2,1.3.8.2.6-.2,1.2-.8,1.3l-76.4,20.1c0,0-.2,0-.3,0Z"/>
        <path class="cls-1" d="M54.1,468.5c-.5,0-1-.4-1.1-.9-.1-.6.2-1.2.8-1.3l41.2-9c.6-.1,1.2.2,1.3.8.1.6-.2,1.2-.8,1.3l-41.2,9c0,0-.2,0-.2,0Z"/>
        <path class="cls-1" d="M77.5,483.2c-.4,0-.8-.2-1-.6l-36.7-68.7c-.3-.5,0-1.2.5-1.5.5-.3,1.2,0,1.5.5l36.7,68.7c.3.5,0,1.2-.5,1.5-.2,0-.3.1-.5.1Z"/>
        <path class="cls-1" d="M89,471.7c-.4,0-.8-.2-1-.6l-32.2-62c-.3-.5,0-1.2.5-1.5.5-.3,1.2,0,1.5.5l32.2,62c.3.5,0,1.2-.5,1.5-.2,0-.3.1-.5.1Z"/>
        <path class="cls-1" d="M99.1,452.4c-.4,0-.8-.2-1-.6l-20.5-35.6c-.3-.5-.1-1.2.4-1.5.5-.3,1.2-.1,1.5.4l20.5,35.6c.3.5.1,1.2-.4,1.5-.2,0-.4.1-.5.1Z"/>
        <path class="cls-1" d="M50.8,462.6c-.4,0-.7-.2-1-.5l-24.6-42.5c-.3-.5-.1-1.2.4-1.5.5-.3,1.2-.1,1.5.4l24.6,42.5c.3.5.1,1.2-.4,1.5-.2.1-.4.1-.5.1Z"/>
      </g>
      <g>
        <path class="cls-1" d="M146.7,474.5c-.3,0-.6-.1-.8-.3-5.2-5.5-10.4-11.4-15.4-17-5-5.6-10.1-11.4-15.3-16.9-.4-.4-.4-1.1,0-1.5l29.4-28.1c.4-.4,1.1-.4,1.6,0,.4.4.4,1.1,0,1.6l-28.6,27.3c4.9,5.3,9.9,10.8,14.6,16.2,5,5.6,10.1,11.4,15.3,16.9.4.4.4,1.1,0,1.6-.2.2-.5.3-.8.3Z"/>
        <path class="cls-1" d="M181.1,472.7c-.2,0-.4,0-.6-.2-.5-.4-.6-1-.3-1.5,4.1-5.7,8.2-11.6,12.3-17.4,3.9-5.6,7.9-11.1,11.7-16.6l-26.4-25.8c-.4-.4-.4-1.1,0-1.6.4-.4,1.1-.4,1.6,0l27,26.5c.4.4.4,1,.1,1.4-4.1,5.7-8.2,11.5-12.3,17.3-4.1,5.9-8.3,11.7-12.3,17.4-.2.3-.6.5-.9.5Z"/>
      </g>
      <path class="cls-1" d="M97.4,380.8c0,0-.1,0-.2,0-8.1-1.1-15-8.4-16.4-17.3-1.2-7.6,1.3-16.1,6.8-23.4,5.6-7.4,13.6-12.6,21.9-14.1,9.1-1.8,18.7.9,24.9,6.9,6.7,6.5,9.1,16.7,5.8,24.9-1.6,4.1-4.5,7.1-7.9,8.2-4.6,1.6-10.3-.5-14-4.9-2.2-2.7-3.5-5.8-4.4-9.1-1,3.7-2.4,7.2-4.1,10.5-2.1,3.9-4.5,5.9-7.3,6-3.4.2-6.2-2.9-6.9-6-.7-3.1.3-6.4,1.2-8.8,3.9-10.3,8.3-14.4,17.3-20.3.5-.3,1.2-.2,1.5.3.3.5.2,1.2-.3,1.5-9,5.8-12.8,9.6-16.4,19.2-.9,2.3-1.7,5-1.1,7.6.5,2.1,2.4,4.3,4.7,4.3,1.9,0,3.8-1.7,5.5-4.9,2.4-4.6,4.1-9.5,4.9-14.6,0-.5.5-.9,1.1-.9.5,0,1,.4,1.1.9,1,4.5,2.2,9.2,5.1,12.8,2.5,3.1,7.2,5.7,11.6,4.2,2.7-.9,5.1-3.5,6.5-6.9,3-7.4.8-16.6-5.3-22.5-5.7-5.5-14.5-8-23-6.3-7.7,1.5-15.2,6.3-20.5,13.3-5.2,6.8-7.5,14.7-6.4,21.7,1.3,8,7.4,14.5,14.5,15.5.6,0,1,.6.9,1.2,0,.5-.5.9-1.1.9Z"/>
      <path class="cls-1" d="M334.9,373.1c-1.3,0-2.5-.3-3.7-.9-2.2-1.2-3.8-3-5.2-4.8-11.3-14.4-18.1-31.3-20.2-50.2-1.2-10.4.3-17.7,4.9-24.6,4.9-7.4,13.2-12,22.2-12.4,15.2-.7,29.7,10.9,31.7,25.2,1.2,8.7-1,17.5-3.1,24.2-3.7,11.8-8.8,23.1-15.1,33.7-1.6,2.7-3.4,5.5-6,7.7-1.6,1.4-3.6,2.1-5.5,2.1ZM334.1,282.3c-.4,0-.7,0-1.1,0-8.3.4-15.9,4.6-20.5,11.4-4.3,6.4-5.6,13.3-4.5,23.2,2.1,18.5,8.7,35,19.8,49.1,1.3,1.6,2.7,3.3,4.5,4.2,2.2,1.2,4.7.8,6.7-.9h0c2.3-2,4-4.6,5.5-7.2,6.2-10.4,11.3-21.6,14.9-33.2,2-6.5,4.2-15,3.1-23.3-1.8-12.7-14.9-23.4-28.3-23.4Z"/>
      <path class="cls-1" d="M334,321.3c-4.5,0-8.8-2.8-10.8-7-2-4.2-1.5-9.5,1.2-13.5h0c2.8-4.2,8-6.8,12.9-6.5,4.1.3,7.3,2.5,9.1,6.2,1.8,3.8,1.6,8.6-.7,12.9-2.4,4.5-6.6,7.5-11,7.9-.3,0-.5,0-.8,0ZM326.2,302c-2.3,3.4-2.7,7.9-1,11.4,1.7,3.6,5.7,6,9.5,5.7,3.6-.3,7.1-2.8,9.2-6.7,1.9-3.6,2.2-7.8.6-10.9-1.5-3-4.1-4.8-7.3-5-4.1-.3-8.6,2-10.9,5.5h0Z"/>
      <path class="cls-1" d="M317.7,384.2c-2.7,0-5.2-.4-7.3-2-4.2-3.2-4.1-9.8-1.3-14,2.8-4.2,7.5-6.7,11.3-8.7.5-.3,1.2,0,1.5.5.3.5,0,1.2-.5,1.5-3.8,2-8,4.2-10.5,7.9-2.2,3.4-2.4,8.6.8,11,2.2,1.7,5.4,1.6,8.2,1.4,19.2-1.2,38.2-6.8,55-16.2,3.8-2.1,8.3-5.1,9.7-9.4.5-1.5.4-2.7-.3-3.7-1.7-2.7-6.5-3.5-8.5-3.8-7.8-1-15.9.4-24,4-.6.2-1.2,0-1.5-.6-.2-.6,0-1.2.6-1.5,8.5-3.8,17-5.2,25.2-4.2,2.9.4,8,1.5,10.1,4.8,1,1.6,1.2,3.5.6,5.6-1.6,5.1-6.6,8.4-10.7,10.7-17.1,9.5-36.4,15.2-56,16.5-.8,0-1.6,0-2.4,0Z"/>
      <g>
        <path class="cls-1" d="M268.6,432.2c-.5,0-.9-.1-1.3-.5-.8-.8-.5-2.1-.1-3.1,1.7-4.5,6.4-8.5,10.2-11.8.5-.4,1-.8,1.4-1.2,4.6-4,9.7-7.6,15-10.6,2.9-1.6,6-3.1,9-4.3.6-.2,1.2-.5,1.9-.8,2.4-1.1,5.4-2.5,7.8-2.4,1.8-.5,4-1,6.2-.8,2.6.3,4.7,1.6,5.8,3.5,1.9,3.5-.3,7.7-2.7,10.2-5,5.1-12,7.6-18.1,9.8l-31.5,11.1c-.3,0-.5.2-.8.3-1,.4-1.9.7-2.7.7ZM312.4,399.5c-1.9,0-4.6,1.2-6.8,2.3-.7.3-1.4.6-1.9.9-3,1.2-6,2.6-8.8,4.2-5.2,2.9-10.2,6.4-14.6,10.3-.4.4-.9.8-1.4,1.2-3.6,3.1-8.1,7-9.5,10.9,0,.3-.2.4-.2.6.4-.1,1-.3,1.4-.5.3-.1.6-.2.9-.3l31.5-11.1c5.9-2.1,12.6-4.5,17.3-9.2,1.9-2,3.7-5.1,2.3-7.6-.7-1.3-2.3-2.2-4.1-2.4-1.8-.2-3.8.3-5.5.8-.1,0-.2,0-.3,0,0,0-.1,0-.2,0Z"/>
        <path class="cls-1" d="M300.2,455.8c-1,0-2-.1-3.1-.3-9.2-1.8-18.1-6.4-25.1-13.1-.2-.2-.4-.4-.7-.6-2.2-2-5.8-5.3-5.4-8.3.1-.8.6-1.9,2.2-2.8,3.5-1.8,9.4.4,13.7,2,.7.3,1.4.5,2,.7,5.9,2,11.5,4.6,16.8,7.8h0c1.9,1.1,4,2.5,5.4,4.6,1.3,2,1.9,5.2.2,7.5-1.2,1.6-3.2,2.5-5.9,2.5ZM271.3,432.3c-.9,0-1.6.1-2.2.4-.9.5-1,.9-1,1.1-.2,1.8,3.2,5,4.7,6.3.3.2.5.5.7.7,6.6,6.4,15.2,10.8,24,12.5,2.4.5,5.5.6,6.9-1.3,1.1-1.5.6-3.6-.2-5-1.1-1.7-3-2.9-4.7-3.9h0c-5.1-3.1-10.7-5.6-16.4-7.6-.6-.2-1.3-.5-2-.7-2.7-1-6.8-2.5-9.8-2.5Z"/>
        <path class="cls-1" d="M260.3,431.8c-.8,0-1.8-.5-2.8-.9-.3-.1-.5-.2-.8-.4l-30.5-13.6c-6-2.7-12.7-5.7-17.3-11.2-2.2-2.7-4.1-7-1.9-10.4,1.2-1.8,3.5-3,6.1-3,2.2,0,4.3.6,6.1,1.3,2.3.2,5.2,1.8,7.5,3.1.7.4,1.3.7,1.8,1,3,1.5,5.9,3.2,8.7,5,5.1,3.4,9.9,7.3,14.1,11.7.4.4.8.9,1.3,1.3,3.5,3.6,7.9,8,9.2,12.6.3,1.1.5,2.4-.4,3.1-.3.3-.7.4-1.1.4ZM213.4,394.5c0,0-.1,0-.2,0-1.8,0-3.5.8-4.3,2-1.5,2.3,0,5.6,1.7,7.8,4.2,5.1,10.7,8,16.5,10.6l30.5,13.6c.3.1.6.3.8.4.4.2,1,.5,1.4.6,0-.2,0-.4-.1-.6-1.1-4.1-5.3-8.3-8.6-11.6-.5-.5-.9-.9-1.3-1.3-4.2-4.3-8.8-8.1-13.8-11.4-2.7-1.8-5.5-3.5-8.4-4.9-.6-.3-1.2-.6-1.9-1-2.2-1.2-4.9-2.7-6.7-2.8-.1,0-.2,0-.3,0-1.6-.6-3.4-1.2-5.2-1.2Z"/>
        <path class="cls-1" d="M227.9,452.9c-3.3,0-5.6-1-6.8-3-1.5-2.5-.7-5.5.8-7.5,1.5-2,3.7-3.2,5.7-4.2h0c5.5-2.7,11.4-4.9,17.4-6.4.6-.1,1.3-.3,2-.5,4.4-1.3,10.5-3,13.8-.9,1.5.9,1.9,2.1,1.9,2.9.2,3-3.7,6-6,7.8-.3.2-.5.4-.7.6-7.5,6.1-16.7,10-26,11-.7,0-1.4.1-2,.1ZM228.5,440.3c-1.7.9-3.7,1.9-5,3.5-1,1.3-1.6,3.4-.6,4.9,1.2,2,4.4,2.1,6.7,1.8,8.9-1,17.8-4.7,24.9-10.5.2-.2.5-.4.8-.6,1.6-1.2,5.3-4.1,5.2-6,0-.2,0-.6-.9-1.2-2.5-1.6-8.5.1-12.1,1.1-.8.2-1.5.4-2.1.6-5.9,1.5-11.6,3.6-16.9,6.2h0Z"/>
        <path class="cls-1" d="M263.8,444.6c-.2,0-.3,0-.5,0-1.1-.3-2.2-1.4-2.7-10.6v-.2c-.2-3.6,0-7.2.8-10.7.5-2.2,1.6-3.4,3.1-3.5,1.1,0,2.1.7,2.7,1.8.4.8.4,1.7.5,2.5h0c0,.2-.1,18.3-2.9,20.4-.3.2-.6.3-1,.3ZM264.2,442.6h0ZM264.6,421.8h0c-.4,0-.8.7-1,1.7-.7,3.3-1,6.7-.8,10.1v.2c.3,4.7.7,6.9,1,7.9,1.1-3.5,1.7-15.1,1.6-17.8h0c0-.6,0-1.2-.3-1.6-.1-.3-.4-.5-.6-.5Z"/>
        <path class="cls-1" d="M262.4,477.3c0,0-.2,0-.3,0-1.1-.2-2.4-1.1-2.7-4.9-.4-4.9-.3-10,.2-15v-.3c1.5-13.6,2.8-14.1,3.6-14.4.5-.2,1,0,1.4.2,2.8,2.2,1.1,28.6,1.1,28.9h0c-.1,1.1-.2,2.2-.7,3.2-.6,1.3-1.6,2.2-2.6,2.2ZM263.6,446.3c-.4,1.6-1,4.8-1.7,11.1v.3c-.6,4.9-.6,9.8-.3,14.6.2,1.9.6,2.8.8,2.9,0,0,.4-.3.6-.8.3-.7.4-1.6.5-2.6h0c.4-3.9.9-20,0-25.4ZM264.2,444.7h0Z"/>
      </g>
      <path class="cls-1" d="M649.6,314.6c-.2,0-.3,0-.5-.1-.6-.3-.8-.9-.5-1.5,11.4-24.4,28.7-46.1,50-62.7.5-.4,1.2-.3,1.5.2.4.5.3,1.2-.2,1.5-21,16.4-38.1,37.8-49.3,61.9-.2.4-.6.6-1,.6Z"/>
      <path class="cls-1" d="M672.9,321.6c-.2,0-.3,0-.5-.1-.5-.3-.8-.9-.5-1.5,11.1-21.9,25.4-41.9,42.5-59.4.4-.4,1.1-.4,1.6,0,.4.4.4,1.1,0,1.6-17,17.4-31.2,37.2-42.1,58.9-.2.4-.6.6-1,.6Z"/>
      <path class="cls-1" d="M724.1,309.8c-.3,0-.6-.1-.8-.4-18.1-20.5-39.4-37.5-63.3-50.6-.5-.3-.7-1-.4-1.5.3-.5,1-.7,1.5-.4,24.2,13.2,45.7,30.4,63.9,51.1.4.5.4,1.2,0,1.6-.2.2-.5.3-.7.3Z"/>
      <path class="cls-1" d="M708,316.1c-.2,0-.5,0-.7-.2-19.6-15.7-41.7-27.5-65.7-35-.6-.2-.9-.8-.7-1.4.2-.6.8-.9,1.4-.7,24.3,7.6,46.6,19.5,66.5,35.4.5.4.5,1.1.2,1.5-.2.3-.5.4-.9.4Z"/>
      <path class="cls-1" d="M528.4,212.2h0c-.6,0-1.1-.5-1.1-1.1l.2-14.8c0-.6.5-1.1,1.1-1.1h0c.6,0,1.1.5,1.1,1.1l-.2,14.8c0,.6-.5,1.1-1.1,1.1Z"/>
      <path class="cls-1" d="M531.5,214.1c-.2,0-.5,0-.7-.2-.5-.4-.6-1.1-.2-1.5l7.9-10.2c.4-.5,1.1-.6,1.5-.2.5.4.6,1.1.2,1.5l-7.9,10.2c-.2.3-.5.4-.9.4Z"/>
      <path class="cls-1" d="M532.4,217.1c-.6,0-1.1-.5-1.1-1,0-.6.4-1.1,1-1.2l13.3-.7c.6,0,1.1.4,1.2,1,0,.6-.4,1.1-1,1.2l-13.3.7s0,0,0,0Z"/>
      <path class="cls-1" d="M528.6,234.6c-.6,0-1.1-.5-1.1-1.1,0-1.6-.1-4.3-.2-6.9,0-2.6-.1-5.2-.2-6.9,0-.6.5-1.1,1.1-1.1h0c.6,0,1.1.5,1.1,1.1,0,1.6.1,4.3.2,6.9,0,2.6.1,5.2.2,6.9,0,.6-.5,1.1-1.1,1.1h0Z"/>
      <path class="cls-1" d="M541.2,230c-.3,0-.5,0-.7-.3-1.3-1.2-3.1-3.2-4.9-5.2-1.8-1.9-3.6-4-4.8-5.1-.4-.4-.5-1.1,0-1.6.4-.4,1.1-.5,1.6,0,1.3,1.2,3.1,3.2,4.9,5.2,1.8,2,3.6,4,4.8,5.1.4.4.5,1.1,0,1.6-.2.2-.5.4-.8.4Z"/>
      <path class="cls-1" d="M518.2,230.6c-.2,0-.4,0-.6-.2-.5-.4-.6-1-.3-1.5,1.2-1.7,2.2-3.4,3.2-5.2,1.1-1.9,2.2-3.8,3.6-5.8.4-.5,1-.6,1.5-.2.5.4.6,1,.2,1.5-1.3,1.8-2.4,3.7-3.5,5.6-1,1.8-2.1,3.6-3.3,5.3-.2.3-.6.5-.9.5Z"/>
      <path class="cls-1" d="M523.4,217.5h-12.1c-.6,0-1.1-.5-1.1-1.1s.5-1.1,1.1-1.1h12.1c.6,0,1.1.5,1.1,1.1s-.5,1.1-1.1,1.1Z"/>
      <path class="cls-1" d="M525.4,214c-.2,0-.4,0-.6-.2-3.9-2.8-7.5-6.1-10.7-9.8-.4-.5-.3-1.2.1-1.5.5-.4,1.2-.3,1.5.1,3,3.5,6.5,6.7,10.3,9.4.5.4.6,1,.3,1.5-.2.3-.6.5-.9.5Z"/>
      <path class="cls-1" d="M367.9,195h0c-.6,0-1.1-.5-1.1-1.1v-9.7c.1-.6.6-1.1,1.2-1.1h0c.6,0,1.1.5,1.1,1.1v9.7c-.1.6-.6,1.1-1.2,1.1Z"/>
      <path class="cls-1" d="M369.9,196.2c-.2,0-.5,0-.7-.2-.5-.4-.6-1.1-.2-1.5l5.2-6.7c.4-.5,1.1-.6,1.5-.2.5.4.6,1.1.2,1.5l-5.2,6.7c-.2.3-.5.4-.9.4Z"/>
      <path class="cls-1" d="M370.5,198.2c-.6,0-1.1-.5-1.1-1,0-.6.4-1.1,1-1.2l8.7-.4c.6,0,1.1.4,1.2,1,0,.6-.4,1.1-1,1.2l-8.7.4s0,0,0,0Z"/>
      <path class="cls-1" d="M368.1,209.6c-.6,0-1.1-.5-1.1-1.1,0-1.1,0-2.8-.1-4.5,0-1.7,0-3.4-.1-4.5,0-.6.5-1.1,1.1-1.1.6,0,1.1.5,1.1,1.1,0,1.1,0,2.8.1,4.5,0,1.7,0,3.4.1,4.5,0,.6-.5,1.1-1.1,1.1h0Z"/>
      <path class="cls-1" d="M376.3,206.6c-.3,0-.5,0-.7-.3-.8-.8-2-2.1-3.3-3.4-1.2-1.3-2.3-2.6-3.1-3.3-.4-.4-.5-1.1,0-1.6.4-.4,1.1-.5,1.6,0,.8.8,2,2.1,3.3,3.4,1.2,1.3,2.4,2.6,3.1,3.3.4.4.5,1.1,0,1.6-.2.2-.5.4-.8.4Z"/>
      <path class="cls-1" d="M361.2,207c-.2,0-.4,0-.6-.2-.5-.4-.6-1-.3-1.5.8-1.1,1.4-2.2,2.1-3.3.7-1.2,1.5-2.5,2.4-3.8.4-.5,1-.6,1.5-.2.5.4.6,1,.2,1.5-.9,1.2-1.6,2.4-2.3,3.6-.7,1.2-1.4,2.4-2.2,3.5-.2.3-.6.5-.9.5Z"/>
      <path class="cls-1" d="M364.6,198.4h-7.9c-.6,0-1.1-.5-1.1-1.1s.5-1.1,1.1-1.1h7.9c.6,0,1.1.5,1.1,1.1s-.5,1.1-1.1,1.1Z"/>
      <path class="cls-1" d="M366,196.1c-.2,0-.4,0-.6-.2-2.6-1.9-5-4-7.1-6.5-.4-.5-.3-1.2.1-1.6.5-.4,1.2-.3,1.6.1,2,2.3,4.2,4.3,6.7,6.1.5.4.6,1,.3,1.5-.2.3-.6.5-.9.5Z"/>
      <path class="cls-1" d="M405.5,313.9c-.4,0-.8-.2-1-.7-5.2-12.2-4.3-26,2.6-37.7,7.5-12.8,20.6-21.3,35.3-22.9,20-2,39,10.5,46.3,30.3.2.6,0,1.2-.7,1.4-.6.2-1.2,0-1.4-.7-6.9-18.9-25-30.8-44-28.9-13.9,1.5-26.5,9.6-33.6,21.8-6.5,11.2-7.4,24.2-2.5,35.7.2.6,0,1.2-.6,1.4-.1,0-.3,0-.4,0Z"/>
      <path class="cls-1" d="M445.1,338.3c-14,0-27.1-6.1-35.3-16.5-.4-.5-.3-1.2.2-1.5.5-.4,1.2-.3,1.5.2,8.3,10.5,21.8,16.4,36,15.6,14-.7,26.8-7.6,34.1-18.3,5-7.3,7.4-16.3,6.7-25.3,0-.6.4-1.1,1-1.2.6,0,1.1.4,1.2,1,.7,9.5-1.8,18.9-7.1,26.7-7.7,11.3-21.1,18.5-35.8,19.2-.8,0-1.7,0-2.5,0Z"/>
      <path class="cls-1" d="M395.7,321.9c-2.1,0-4.4,0-6.5-.8-2.6-.9-4.6-2.8-5.3-5-.8-2.7,0-5.7,2.6-9.1,3.5-4.7,8.2-8.6,13.5-11.1.6-.3,1.2,0,1.5.5.3.5,0,1.2-.5,1.5-5,2.4-9.4,6-12.7,10.4-2.1,2.8-2.8,5.2-2.2,7.1.5,1.6,2,2.9,3.9,3.6,1.9.7,4,.7,6.1.7,10.2,0,20.6-1.2,31.2-3.5,6.8-1.5,13.8-3.4,20.7-5.8,10.8-3.7,26.6-9.7,40-18.9,3.6-2.5,14.5-10,14.7-16,0-1.6-.7-3.1-2.2-4.3-1.4-1.1-3.3-1.4-4.9-1.6-5.1-.5-10,0-13.8,1.2-.6.2-1.2-.1-1.4-.7-.2-.6.1-1.2.7-1.4,4-1.3,9.3-1.8,14.7-1.3,1.9.2,4.3.6,6.1,2.1,2.1,1.7,3.1,3.8,3,6.1-.3,6.3-8.5,12.8-15.6,17.7-13.6,9.4-29.6,15.4-40.5,19.2-7,2.4-14,4.4-20.9,5.9-10.7,2.3-21.3,3.5-31.6,3.5,0,0-.2,0-.3,0Z"/>
      <path class="cls-1" d="M401.3,315.5c-1.5,0-3-.2-4.2-.6-1.9-.7-3.7-2.6-3.6-4.8,0-1.2.8-2.3,1.5-3.2,1.6-2.2,3.5-4.1,5.5-5.8.5-.4,1.2-.3,1.5.1.4.5.3,1.2-.1,1.5-1.9,1.6-3.7,3.5-5.2,5.5-.5.6-1,1.4-1,2.1,0,1.2,1,2.2,2.1,2.6,2.1.7,5.2.5,7.1.1,3-.6,6-1.3,9-2,5.9-1.4,11.9-3,17.7-4.7,16.9-5,33.3-11.4,48.8-18.9l.5-.2c1.9-.9,3.8-1.9,5.3-3.2.6-.5,1.2-1,1.8-1.5,1.1-.8,2.1-1.6,2.8-2.5.8-.9,1.4-2.4,1-3.8-.4-1.2-1.6-2.1-3.1-2.5-1.6-.4-3.3-.2-4.9,0-.6,0-1.1-.4-1.2-1,0-.6.4-1.1,1-1.2,1.7-.2,3.7-.4,5.7,0,2.3.5,4.1,2.1,4.7,4,.6,1.9,0,4-1.4,5.8-.9,1.1-2.1,2-3.2,2.9-.6.5-1.2.9-1.7,1.4-1.7,1.5-3.8,2.5-5.8,3.5l-.5.2c-15.6,7.6-32.2,14-49.2,19.1-5.9,1.7-11.9,3.3-17.9,4.8-3,.7-6,1.4-9,2-1.2.2-2.6.4-4.1.4Z"/>
      <path class="cls-1" d="M451.4,293.3c-.6,0-1.1-.4-1.1-1,0-.6.4-1.1,1-1.2,3.3-.2,6-2.4,8.8-4.6,2-1.6,4.1-3.2,6.4-4.2,1.9-.8,4-1.2,6-1.6,1.1-.2,2.3-.4,3.4-.7,2-.5,5.4-1.9,6.5-4.8.2-.6.8-.9,1.4-.7.6.2.9.8.7,1.4-1.4,3.9-5.6,5.6-8,6.2-1.2.3-2.4.5-3.5.8-2,.4-3.8.7-5.5,1.5-2.1.9-4.1,2.4-6,3.9-3,2.3-6.1,4.7-10,5,0,0,0,0,0,0Z"/>
      <path class="cls-1" d="M403.1,294.9c-.1,0-.3,0-.4,0-.6-.2-.9-.9-.6-1.4,1-2.6,4.1-3.5,6.6-3.2,1.1.1,2.1.4,3,.6,1.1.3,2.2.6,3.3.6,2.8.1,5.4-1.3,8.2-2.8.9-.5,1.8-1,2.7-1.4,4.7-2.2,9.8-3.1,15-2.5.6,0,1,.6,1,1.2,0,.6-.6,1-1.2,1-4.7-.5-9.5.3-13.8,2.3-.9.4-1.8.9-2.6,1.4-2.9,1.6-5.9,3.2-9.4,3.1-1.3,0-2.5-.4-3.7-.7-.9-.2-1.8-.5-2.7-.6-1.7-.2-3.8.4-4.3,1.8-.2.4-.6.7-1,.7Z"/>
      <path class="cls-1" d="M458.6,262.6c-.2,0-.4,0-.6,0-.6,0-1.1-.6-1-1.2,0-.6.6-1.1,1.2-1,2.3.2,4.7-.9,6.1-2.7.4-.5,1.1-.5,1.5-.2.5.4.5,1.1.2,1.5-1.8,2.2-4.6,3.5-7.4,3.5Z"/>
      <path class="cls-1" d="M416,276.4c-2.6,0-5.1-.6-6.9-2.6-.4-.5-.4-1.1,0-1.6.5-.4,1.1-.4,1.6,0,1.8,2,5,2.4,10.1,1.3,9.8-2.2,19.3-5.5,28.3-9.8.5-.3,1.2,0,1.5.5.3.5,0,1.2-.5,1.5-9.2,4.4-18.9,7.8-28.8,10-1.6.3-3.4.7-5.2.7Z"/>
      <path class="cls-1" d="M430.5,324.1c0,0-.2,0-.2,0-.6,0-1.1-.5-1.1-1.1,0-.6.5-1,1.1-1.1,3.6,0,7-1.5,10.6-3.2,2.8-1.3,5.6-2.6,8.7-3.2,2-.4,4-.4,5.9-.4,1.6,0,3.2,0,4.8-.2,3-.4,6.5-1.9,7.5-4.9.2-.6.8-.9,1.4-.7.6.2.9.8.7,1.4-1.3,4-5.7,5.9-9.3,6.3-1.7.2-3.4.2-5,.2-1.9,0-3.7,0-5.5.3-2.8.5-5.5,1.8-8.2,3-3.6,1.7-7.2,3.4-11.3,3.4Z"/>
      <path class="cls-1" d="M464.9,325.3c-.3,0-.5,0-.8,0-.6,0-1-.7-.9-1.3,0-.6.6-1,1.3-.9,1.5.2,2.9-.7,3.6-1.3.7-.6,1.4-1.2,2.1-2,.4-.5.9-.9,1.4-1.3,1.9-1.8,4.3-3.2,6.8-4,.5-.2,1-.3,1.4-.4,1.1-.3,2-.6,2.9-1.1,1.2-.7,3.8-4.1,3.7-5.1,0-.6.5-1.1,1.1-1.1.6,0,1.1.5,1.1,1.1,0,2.2-3.3,6.3-4.9,7.1-1.1.6-2.3.9-3.4,1.3-.5.1-.9.3-1.4.4-2.2.7-4.3,2-6,3.6-.4.4-.9.8-1.3,1.3-.7.7-1.4,1.5-2.3,2.2-1.5,1.1-3.1,1.8-4.5,1.8Z"/>
      <path class="cls-1" d="M589.2,309.8c-3.3,0-6.6-.3-9.9-.9-7.5-1.4-14.7-4.7-20.9-9.4-7.8-5.9-14.4-18-15.8-28.7-1.4-10.8,2.7-24.7,10.2-34.4,10.1-13.2,27.7-19.6,42.7-15.4.5.1.8.6.8,1.2,0,.5-.5.9-1,1-9.1.8-18.3,5.6-24,12.3-5.9,6.9-8.9,16.1-8.3,25.2.9,13.7,11.2,26.1,24.4,29.6,4,1.1,8.5,1.5,11.5,1.7,7.5.5,15-2.9,22-6.4l.4-.2c4.7-2.3,5.5-3.2,5.6-3.5,0-.6.6-1,1.2-.9.6,0,1,.7.9,1.3-.2,1.3-.5,2.6-.9,3.8h0c-2.7,9.1-10.1,16.3-20.8,20.4-5.8,2.2-11.9,3.3-18.2,3.3ZM585.9,221.9c-11.7,0-23.8,5.8-31.4,15.8-7,9.2-11,22.7-9.7,32.8,1.3,10.1,7.6,21.6,14.9,27.2,5.9,4.5,12.9,7.6,20,9,9.1,1.7,18.4,1,26.9-2.3,10-3.8,16.9-10.6,19.4-19h0s0,0,0-.1c-1,.6-2.3,1.3-3.9,2.1l-.4.2c-7.3,3.6-15,7.1-23.1,6.6-3.1-.2-7.7-.6-11.9-1.8-14.1-3.7-25.1-17-26.1-31.6-.7-9.6,2.5-19.4,8.8-26.8,4.9-5.8,11.9-10,19.4-12-1,0-2-.1-3-.1Z"/>
      <path class="cls-1" d="M598.3,265.8c-.2,0-.3,0-.5-.1-.9-.4-.9-1.4-.9-2.4h0c0-1.8,0-3.5,0-5.2l-7.3-2.6c-.4-.2-.7-.6-.7-1,0-.5.3-.9.7-1l7.3-2.5v-5.7c0-.5.4-.9.8-1,.5-.1,1,0,1.2.4l3.1,4.5,7.9-2.7c.7-.3,1.5,0,1.6.8,0,.5-.2.9-.6,1.2-.3.4-1.1,1.6-1.4,2.1-.2.3-.3.6-.4.7l-2.9,4.2,3.7,5.3c.3.4.3.9,0,1.3-.3.4-.8.5-1.2.4l-5.8-2.1-.8,1.2c-.2.3-.4.7-.7,1.1-.5.9-1.1,1.8-1.8,2.5-.2.2-.8.7-1.4.7ZM599.1,264.1h0,0ZM599,259c0,1.2,0,2.4,0,3.6.2-.3.4-.7.6-1,.2-.4.5-.8.7-1.2l.5-.7-1.8-.7ZM604.3,258.5l2,.7-1.3-1.8-.8,1.1ZM599,256.6l3.1,1.1,1.6-2.3-2.5-3.6-2.1.7v2.2c0,.6,0,1.2,0,1.9ZM593.2,254.5l3.6,1.3c0-.4,0-.7,0-1.1v-1.4s-3.6,1.2-3.6,1.2ZM603.4,251.1l1.7,2.4,2.4-3.5c0,0,.1-.2.2-.4l-4.3,1.5ZM599.1,248.8v1.4s.8-.3.8-.3l-.8-1.1Z"/>
      <path class="cls-1" d="M551.1,332c-2.1,0-4.2-.2-6.2-.5h-.5c-7.8-.9-15.7-1.4-23.6-1.5-2.8,0-5.7.1-8.5.3-4.3.3-8.8.6-13.1,0-.6,0-1-.6-1-1.2,0-.6.6-1,1.2-1,4.6.4,8,.2,11.1-.7h0c5.2-1.5,10.4-5.9,10.5-11.7,0-1.2-.2-2.4-.4-3.6-.1-.8-.3-1.7-.4-2.5-.2-2,0-4.8,1.9-6.8,1.1-1.1,2.7-1.7,4.5-1.7,2.2,0,4.4,1.1,5.9,2.7,1.8,2,2.6,4.6,3,7,1.6-1.9,3.4-3.3,5.4-4.1,3.3-1.4,7-1.3,9.8.4,2.5,1.5,4,4.3,4,7,2-.5,4.1-.3,5.9.7,2.4,1.3,4,3.9,4.1,6.7.1,4.7-3.9,8.4-8,9.6-1.8.6-3.7.7-5.6.7ZM520.1,327.9c.3,0,.5,0,.8,0,7.9.1,15.9.6,23.8,1.5h.5c3.7.5,7.5.9,11-.2,3.3-1,6.5-3.9,6.4-7.4,0-2-1.2-3.9-3-4.8-1.7-1-4-.9-5.7,0-.4.2-.9.2-1.2,0-.4-.3-.5-.7-.4-1.2.7-2.3-.5-5.2-2.8-6.6-2.1-1.3-5.1-1.4-7.7-.3-3,1.3-5,3.8-6.1,5.6-.3.4-.7.6-1.2.5-.5-.1-.8-.5-.8-1-.2-2.8-.7-6.3-2.7-8.6-1.1-1.2-2.7-1.9-4.3-2-.8,0-2,.1-2.9,1.1-1.3,1.3-1.4,3.5-1.2,5,0,.8.2,1.6.3,2.4.2,1.3.4,2.6.4,4,0,5.2-3.7,9.6-8,12.1,1.6,0,3.3-.2,4.9-.2Z"/>
      <path class="cls-1" d="M494.5,369.3c-8.6,0-17.3-.1-25.7-.3-4.8,0-9.6-.1-14.5-.2-9.8,0-19.7-.7-29.5-1.7,0,0,0,0,0,0h0c-.6,0-1-.6-1-1.2,0-.6.6-1,1.2-1h0s0,0,0,0c7.3.8,16.1-1,23.8-2.6,1.2-.2,2.3-.5,3.5-.7h.4c.9-.2,1.8-.4,2.8-.6,3.5-.6,7.2-1.2,10.1-2.6,2.3-1,3.9-3.9,5.2-6.2l.2-.3c.6-1,1.1-2.1,1.7-3.2.8-1.6,1.6-3.2,2.6-4.8,2-3.2,4.4-5.3,7-6.4,3.4-1.4,7.2-1,9.6,1.2,1.4,1.3,2.2,3.2,2.2,5.2,0,.3,0,.5,0,.8,3.9-2.1,7.9-3.5,12.1-2.6,2.6.6,4.7,2.1,5.8,4.2.7,1.5.9,3.2.4,4.6,2-.4,4.1-.7,6.3-.3,2.9.5,6.4,2.6,7,6.1.7,4-2.6,7.4-5.5,9.1-5.7,3.2-12.4,3.2-18.4,3.3-2.3,0-4.7,0-7,0ZM440.6,366.2c4.6.3,9.2.4,13.8.5,4.8,0,9.6.1,14.5.2,10.7.2,21.7.3,32.6.2,5.7,0,12.1-.1,17.3-3,2.6-1.4,4.9-4.1,4.5-6.8-.4-2.5-3-4-5.2-4.3-2.6-.4-5.5.3-8,.9-.5.1-1-.1-1.3-.6-.2-.5-.1-1,.3-1.3,1.2-1,1.5-2.9.7-4.5-.7-1.5-2.3-2.6-4.3-3-4.5-1-9.2,1.5-13.6,4.2-.5.3-1.1.2-1.5-.3-.3-.5-.3-1.1.2-1.5.7-.6,1.1-1.6,1.2-2.8,0-1.3-.5-2.7-1.5-3.5-1.8-1.6-4.7-1.9-7.3-.8-2.2.9-4.2,2.8-6,5.6-.9,1.5-1.7,3-2.5,4.6-.6,1.1-1.1,2.2-1.7,3.3l-.2.3c-1.5,2.6-3.3,5.7-6.2,7.1-3.2,1.5-7,2.1-10.6,2.7-.9.2-1.9.3-2.7.5,0,0,0,0,0,0h-.4c-1.1.3-2.3.5-3.4.8-2.8.6-5.7,1.2-8.7,1.7ZM452.9,362.7h0,0Z"/>
      <path class="cls-1" d="M423.8,469.6c-.3,0-.7-.2-.9-.5-.4-.5-.2-1.2.2-1.5,12.6-9.1,20.8-24.4,21.4-40,.3-6.8-1-12.5-3.6-17-3.1-5.3-8.6-8.6-13.9-8.6-3,0-6.1,1-9.4,3.1,3.6,3.1,6.2,7.5,7.1,12.6,1.2,6.7-.4,14.3-4.6,21.2-4,6.5-9.6,11.8-14.6,16-1.8,1.5-3.5,2.9-5.6,3.7-2.6.9-5.3.6-7.1-.8-3.2-2.5-2.8-7.5-2.6-9.1.3-3.7,1-7.4,2-10.9-2.9,4-6.3,7.6-10.3,10.6-2.3,1.7-8.2,5.4-12.9,2.3-2.2-1.5-3.6-4.3-3.6-7.4,0-2.7.9-5.3,1.9-7.6.5-1.1,1-2.1,1.5-3.2-2.4,2.3-5.5,3.8-8.6,2.7-2.3-.8-4.1-3.1-4.7-5.9-.5-2.6,0-5.2.5-7.2,2.4-9.6,8.3-18.1,16.2-23.9,0,0-.1-.1-.2-.2-4.7-5-13-3.8-18.6-1.2-9,4.1-16.2,11.8-19.7,21-.2.6-.8.9-1.4.6-.6-.2-.9-.8-.6-1.4,3.7-9.8,11.3-17.9,20.8-22.2,6.3-2.8,15.5-4.1,21.1,1.7.1.2.3.3.4.5,1.4-.9,2.9-1.8,4.4-2.5,5.9-2.9,11.4-3.3,15.4-1,3.4,1.9,5.2,5.1,6.1,8.3,3.7-1.1,7.3-1.2,10.6-.3,1.8.5,3.5,1.2,5,2.3,3.9-2.6,7.6-3.9,11.2-3.9,0,0,0,0,0,0,6,0,12.2,3.8,15.7,9.7,2.9,4.8,4.2,10.9,3.9,18.2-.6,16.2-9.2,32.2-22.3,41.7-.2.1-.4.2-.6.2ZM415.8,406.5c-.9.7-1.8,1.4-2.8,2.2-11.7,10.2-19.2,24.8-20.6,40.3-.3,3.7.2,6,1.8,7.2,1.5,1.1,3.5,1,5,.5,1.8-.6,3.3-1.9,4.9-3.3,4.8-4.1,10.3-9.2,14.1-15.5,3.9-6.5,5.5-13.5,4.4-19.7-.9-4.7-3.4-8.9-6.9-11.7ZM398.6,404.7c-4.2,1.7-7.9,4.4-10.3,6.4-8.1,6.9-14.6,15.7-18.8,25.5-.9,2.1-1.8,4.4-1.8,6.7,0,2.4,1,4.5,2.6,5.5,3.5,2.3,8.4-.8,10.3-2.2,11.6-8.6,18.7-23,18.4-37.5,0-1.2-.1-2.8-.4-4.4ZM373.7,400.1c-7.5,5.5-13.1,13.6-15.4,22.6-.4,1.8-.9,4-.5,6.2.4,2,1.7,3.7,3.3,4.2,3.1,1.1,6.5-1.9,8.5-4.8,3.5-5.3,5.6-11.5,6-17.9.2-3.1,0-7.1-1.9-10.3ZM375.5,398.8c2.2,3.7,2.5,8.2,2.3,11.6-.2,3.9-1.1,7.8-2.5,11.4,3.4-4.6,7.2-8.8,11.6-12.5,3.7-3.2,7.5-5.5,11.2-6.9-.8-2.8-2.4-5.6-5.1-7.1-4.5-2.5-10.4-.4-13.4,1.1-1.4.7-2.8,1.5-4.1,2.3ZM400.7,404c.4,1.9.5,3.7.5,5.1,0,3.8-.3,7.6-1.2,11.3,3.2-5,7.1-9.5,11.5-13.4.8-.7,1.5-1.3,2.3-1.9-1.2-.7-2.4-1.2-3.6-1.5-3.2-.9-6.5-.6-9.5.3Z"/>
      <path class="cls-1" d="M647.9,345.6c-2.9,0-5.6-1-7.3-2.9-1.4-1.5-2.1-3.8-1.8-6-.6.5-1.3,1-1.9,1.5-1.6,1.2-3.2,2.5-4.9,3.7-2.8,1.8-8.4,4.6-13.8,2.6-2.6-1-4.8-3.4-5.6-6.3-.1-.4-.2-.8-.2-1.2-4,3.9-9.3,6.6-14.8,7.3-7.2,1-14.8-1.2-20.3-5.8-.5-.4-.5-1.1-.1-1.5.4-.5,1.1-.5,1.5-.1,5.1,4.2,12,6.2,18.6,5.3,6.3-.9,12.2-4.4,16-9.5.2-.3.3-.5.5-.7.4-.5,1-.5,1.5-.2.5.4.6,1,.2,1.5-.1.2-.3.4-.4.6-.8,1.4-.6,2.9-.4,3.8.6,2.2,2.3,4.1,4.2,4.8,4.5,1.7,9.3-.8,11.8-2.4,1.6-1.1,3.2-2.3,4.8-3.5,1.9-1.5,3.9-3.1,6.1-4.4,0,0,0,0,0,0,.5-.3,1.2-.1,1.5.4.3.5.1,1.2-.4,1.5,0,0,0,0,0,0-1,.6-1.6,1.6-1.8,2.9-.3,1.6.2,3.3,1.2,4.4,1.9,2,5.2,2.8,8.5,1.8,3.2-.9,5.9-3,8.5-5.1l.7-.6c2.5-2,5-4.1,8.1-5.4.5-.2,1.1,0,1.4.5.3.5.2,1.1-.3,1.4-1.2.9-1.3,2.4-1.2,3.2.1,1.8,1.2,3.6,2.7,4.5,3.1,1.8,7.2.9,10-.1,5.1-1.9,9.8-5,13.4-9,.4-.4,1-.5,1.4-.2.5.3.6.9.4,1.4-.7,1.4-.6,3.1.2,4.7,1.1,2.2,3.3,3.9,5.6,4.4,3.6.7,7.8-.5,12.7-3.7.9-.6,1.9-1.3,2.8-1.9,3.1-2.1,6.2-4.3,9.9-5.4.6-.2,1.2.1,1.4.7.2.6-.1,1.2-.7,1.4-3.3,1-6.2,3-9.3,5.1-1,.7-1.9,1.3-2.9,1.9-5.4,3.5-10.1,4.8-14.3,4-3-.6-5.8-2.8-7.2-5.5-.5-1-.8-2-.9-3-3.4,3.1-7.5,5.6-11.9,7.1-4.8,1.7-8.8,1.7-11.9,0-2.1-1.2-3.6-3.7-3.8-6.2,0-.5,0-1,0-1.4-1.5,1-3,2.2-4.4,3.4l-.7.6c-2.7,2.2-5.7,4.5-9.3,5.5-1.1.3-2.3.5-3.4.5Z"/>
      <path class="cls-1" d="M667.8,384.2c-2.9,0-5.6-1-7.3-2.9-1.4-1.5-2.1-3.8-1.8-6-.6.5-1.3,1-1.9,1.5-1.6,1.3-3.2,2.5-4.9,3.7-2.8,1.8-8.4,4.6-13.8,2.6-2.6-1-4.8-3.4-5.6-6.3-.1-.4-.2-.8-.2-1.2-4,3.9-9.3,6.6-14.8,7.3-7.2,1-14.8-1.2-20.3-5.8-.5-.4-.5-1.1-.1-1.5.4-.5,1.1-.5,1.5-.1,5.1,4.2,12,6.2,18.6,5.3,6.3-.9,12.2-4.4,16-9.5.2-.2.3-.5.5-.7.4-.5,1-.5,1.5-.2.5.4.6,1,.2,1.5-.1.2-.3.4-.4.6-.8,1.4-.6,2.9-.4,3.8.6,2.2,2.3,4.1,4.2,4.8,4.5,1.7,9.3-.8,11.8-2.4,1.6-1.1,3.2-2.3,4.8-3.5,1.9-1.5,3.9-3.1,6.1-4.4,0,0,0,0,0,0,.5-.3,1.2-.1,1.5.4.3.5.1,1.2-.4,1.5,0,0,0,0,0,0-1,.6-1.6,1.6-1.8,2.9-.3,1.6.2,3.3,1.2,4.4,1.9,2,5.2,2.8,8.5,1.8,3.2-.9,5.9-3,8.5-5.1l.7-.6c2.5-2,5-4.1,8.1-5.4.5-.2,1.1,0,1.4.5.3.5.2,1.1-.3,1.4-1.2.9-1.3,2.4-1.2,3.2.1,1.8,1.2,3.6,2.7,4.5,3.1,1.8,7.2.9,10-.1.6-.2,1.2,0,1.4.7.2.6,0,1.2-.7,1.4-4.8,1.7-8.8,1.7-11.9,0-2.1-1.2-3.6-3.7-3.8-6.2,0-.5,0-1,0-1.4-1.5,1-3,2.2-4.4,3.4l-.7.6c-2.7,2.2-5.7,4.5-9.3,5.5-1.1.3-2.3.5-3.4.5Z"/>
      <path class="cls-1" d="M659.5,366.7c-1.5,0-2.9-.2-4.2-.6-4-1.3-7.1-4.7-7.9-8.4-2.2,2.3-4.6,4.6-7.4,6.2-4.2,2.4-8.7,2.9-12.4,1.5-3-1.2-5.5-4.1-6-7.5-3,3.1-6,5.3-9.2,6.6-5,2.1-10.5,2-14.6-.4-3.4-2-5.6-5.6-6-9.3-3.2,3.4-7.3,5.7-11.9,6.7-5.8,1.2-12,0-17-3.1-.5-.3-.7-1-.3-1.5.3-.5,1-.7,1.5-.3,4.5,2.9,10.1,3.9,15.4,2.8,5.3-1.1,10-4.3,12.9-8.8.3-.5.9-.6,1.4-.4.5.2.7.8.6,1.3-1.3,3.8.7,8.5,4.5,10.7,3.5,2,8.2,2.1,12.6.3,3.6-1.5,7-4.3,10.5-8.4.3-.4.9-.5,1.4-.3.5.3.7.8.5,1.3-1.1,3.3,1.5,7,4.5,8.2,3,1.2,6.9.7,10.5-1.3,3.3-1.9,6-4.8,8.7-7.7.3-.3.8-.4,1.3-.3.4.2.7.6.6,1.1-.4,3.7,2.5,7.6,6.5,8.8,3.5,1.1,7.9.4,12-1.9,3.8-2.1,6.9-5.3,10-8.4.3-.3.6-.4,1-.3.4,0,.7.3.8.6,2.3,5.1,7.5,8.8,13,9.3,5.5.5,11.4-2.2,14.5-6.8.3-.5,1-.6,1.5-.3.5.3.6,1,.3,1.5-3.6,5.3-10.1,8.3-16.5,7.8-5.9-.5-11.3-4.1-14.1-9.2-2.8,2.8-5.8,5.6-9.4,7.7-3.1,1.8-6.4,2.7-9.5,2.7Z"/>
      <path class="cls-1" d="M510.1,476.4h0c-.6,0-1.1-.5-1.1-1.1l.5-92.9c0-.6.5-1.1,1.1-1.1h0c.6,0,1.1.5,1.1,1.1l-.5,92.9c0,.6-.5,1.1-1.1,1.1Z"/>
      <path class="cls-1" d="M520.1,430.2h-57.3c-.6,0-1.1-.5-1.1-1.1s.5-1.1,1.1-1.1h57.3c7.3,0,14.7-.1,21.8-.2,5.3,0,10.7-.2,16.1-.2h0c.6,0,1.1.5,1.1,1.1,0,.6-.5,1.1-1.1,1.1-5.3,0-10.8.1-16.1.2-7.2.1-14.6.2-21.9.2Z"/>
      <path class="cls-1" d="M487.5,452.6c-.3,0-.6-.1-.8-.3-.4-.4-.4-1.1,0-1.6l45.7-45.2c.4-.4,1.1-.4,1.6,0,.4.4.4,1.1,0,1.6l-45.7,45.2c-.2.2-.5.3-.8.3Z"/>
      <path class="cls-1" d="M533.8,453.2c-.3,0-.6-.1-.8-.3-2.6-2.6-5.3-5.2-8-7.7-3.6-3.5-7.3-7-10.8-10.6l-28.1-28.1c-.4-.4-.4-1.1,0-1.6.4-.4,1.1-.4,1.6,0l28.1,28.1c3.6,3.6,7.2,7.1,10.8,10.6,2.7,2.6,5.3,5.2,8,7.8.4.4.4,1.1,0,1.6-.2.2-.5.3-.8.3Z"/>
      <path class="cls-1" d="M510.8,414.9c-.2,0-.4,0-.6-.2-.5-.4-.6-1-.3-1.5l11.6-16.3c.4-.5,1-.6,1.5-.3.5.4.6,1,.3,1.5l-11.6,16.3c-.2.3-.6.5-.9.5Z"/>
      <path class="cls-1" d="M510.8,396.7c-.2,0-.4,0-.6-.2-.5-.3-.7-1-.3-1.5l5.6-8.7c.3-.5,1-.7,1.5-.3.5.3.7,1,.3,1.5l-5.6,8.7c-.2.3-.6.5-.9.5Z"/>
      <path class="cls-1" d="M510.7,396.7c-.3,0-.6-.1-.8-.4-2.4-2.9-4.5-6.1-6.1-9.5-.3-.5,0-1.2.5-1.5.5-.3,1.2,0,1.5.5,1.6,3.2,3.6,6.3,5.9,9.1.4.5.3,1.2-.1,1.5-.2.2-.5.3-.7.3Z"/>
      <path class="cls-1" d="M510.4,414.8c-.2,0-.5,0-.7-.3-3.3-2.8-6.1-6.2-8.1-10-.3-.5,0-1.2.5-1.5.5-.3,1.2,0,1.5.5,1.9,3.6,4.5,6.8,7.6,9.4.5.4.5,1.1.1,1.5-.2.3-.5.4-.8.4Z"/>
      <path class="cls-1" d="M525.4,415.9c-.6,0-1.1-.5-1.1-1.1,0-.6.5-1.1,1.1-1.1,3.4,0,6.7-.4,10-1.2.6-.1,1.2.2,1.3.8.1.6-.2,1.2-.8,1.3-3.4.8-7,1.2-10.5,1.2h0Z"/>
      <path class="cls-1" d="M523.1,416.8c0,0-.1,0-.2,0-.6,0-1-.6-.9-1.2l1.8-12.2c0-.6.7-1,1.2-.9.6,0,1,.6.9,1.2l-1.8,12.2c0,.5-.6.9-1.1.9Z"/>
      <path class="cls-1" d="M527.3,429.8c-.3,0-.6-.1-.8-.3-.4-.4-.4-1.1,0-1.6l9-8.7c.4-.4,1.1-.4,1.6,0,.4.4.4,1.1,0,1.6l-9,8.7c-.2.2-.5.3-.8.3Z"/>
      <path class="cls-1" d="M537.2,439.1c-.2,0-.5,0-.7-.3l-10.3-8.5c-.5-.4-.5-1.1-.1-1.5.4-.5,1.1-.5,1.5-.1l10.3,8.5c.5.4.5,1.1.1,1.5-.2.3-.5.4-.8.4Z"/>
      <path class="cls-1" d="M544.5,430c-.4,0-.8-.2-1-.6-.3-.5,0-1.2.5-1.5,3.5-1.7,6.8-3.8,9.9-6.1.5-.4,1.2-.3,1.5.2.4.5.3,1.2-.2,1.5-3.2,2.5-6.7,4.6-10.3,6.4-.2,0-.3.1-.5.1Z"/>
      <path class="cls-1" d="M554.5,437c-.2,0-.4,0-.6-.2l-11.5-6.8c-.5-.3-.7-1-.4-1.5.3-.5,1-.7,1.5-.4l11.5,6.8c.5.3.7,1,.4,1.5-.2.3-.6.5-.9.5Z"/>
      <path class="cls-1" d="M501.2,421c-.5,0-1-.4-1.1-1l-1.9-13.9c0-.6.3-1.2.9-1.2.6,0,1.2.3,1.2.9l1.9,13.9c0,.6-.3,1.2-.9,1.2,0,0,0,0-.1,0Z"/>
      <path class="cls-1" d="M501.5,422s0,0,0,0l-14.5-.8c-.6,0-1.1-.6-1-1.2,0-.6.6-1.1,1.2-1l14.5.8c.6,0,1.1.6,1,1.2,0,.6-.5,1-1.1,1Z"/>
      <path class="cls-1" d="M491.6,411c-.5,0-.9-.3-1.1-.8l-2.3-9.5c-.1-.6.2-1.2.8-1.3.6-.1,1.2.2,1.3.8l2.3,9.5c.1.6-.2,1.2-.8,1.3,0,0-.2,0-.3,0Z"/>
      <path class="cls-1" d="M492,411.9s0,0,0,0l-9.2-.6c-.6,0-1.1-.6-1-1.2,0-.6.5-1.1,1.2-1l9.2.6c.6,0,1.1.6,1,1.2,0,.6-.5,1-1.1,1Z"/>
      <path class="cls-1" d="M524.7,453.8c-.5,0-1-.4-1.1-.9-.4-1.9-.6-4-.9-6.1-.3-2-.5-4.1-.9-5.9,0-.3,0-.7.2-.9.2-.3.5-.4.9-.4l12.2.3c.6,0,1.1.5,1.1,1.1,0,.6-.5,1.1-1.1,1.1l-10.9-.3c.3,1.5.5,3.1.7,4.7.3,2,.5,4.1.9,5.9.1.6-.3,1.2-.9,1.3,0,0-.1,0-.2,0Z"/>
      <path class="cls-1" d="M521.3,457.3c-.3,0-.6-.1-.8-.4-4.2-4.7-7.8-9.8-11-15.2-.3-.5-.1-1.2.4-1.5.5-.3,1.2-.1,1.5.4,3,5.3,6.6,10.3,10.7,14.8.4.5.4,1.1,0,1.6-.2.2-.5.3-.7.3Z"/>
      <path class="cls-1" d="M502.3,455.3c-.2,0-.4,0-.6-.2-.5-.3-.7-1-.4-1.5l8.2-13.4c.3-.5,1-.7,1.5-.4.5.3.7,1,.4,1.5l-8.2,13.4c-.2.3-.6.5-.9.5Z"/>
      <path class="cls-1" d="M498.1,457h0c-.6,0-1.1-.5-1.1-1.1v-15c0-.6.6-1.1,1.2-1.1h0c.6,0,1.1.5,1.1,1.1v15c0,.6-.6,1.1-1.2,1.1Z"/>
      <path class="cls-1" d="M485.4,441.3c-.6,0-1.1-.5-1.1-1.1,0-.6.5-1.1,1.1-1.1h12.7c.6-.2,1.1.3,1.1.9,0,.6-.5,1.1-1.1,1.1h-12.7c0,.1,0,.1,0,.1Z"/>
      <path class="cls-1" d="M477.3,439.1c-.4,0-.7-.2-.9-.5-.3-.5-.2-1.2.3-1.5,5.7-3.7,11.9-6.9,18.2-9.4.6-.2,1.2,0,1.4.6.2.6,0,1.2-.6,1.4-6.2,2.4-12.2,5.5-17.8,9.2-.2.1-.4.2-.6.2Z"/>
      <path class="cls-1" d="M495.9,429.1c-.1,0-.2,0-.4,0-6.1-2.1-11.8-5.3-16.8-9.4-.5-.4-.5-1.1-.2-1.5.4-.5,1.1-.5,1.5-.2,4.8,3.9,10.2,7,16.1,9,.6.2.9.8.7,1.4-.2.5-.6.7-1,.7Z"/>
      <path class="cls-1" d="M464.7,434.2c-.4,0-.8-.2-1-.7-.2-.6,0-1.2.6-1.5,3.3-1.5,6.8-2.7,10.3-3.6-3.2-2.6-5.9-5.5-7.4-7.2-.4-.5-.4-1.1,0-1.6.5-.4,1.1-.4,1.6,0,1.7,2,5.2,5.6,9,8.4.4.3.5.7.4,1.1,0,.4-.4.8-.8.8-4.2.9-8.2,2.2-12.1,4-.1,0-.3,0-.4,0Z"/>
      <path class="cls-1" d="M558.8,407h0c-.6,0-1.1-.5-1.1-1.1l.6-33.2c0-.6.5-1.1,1.1-1.1.6,0,1.1.5,1.1,1.1l-.6,33.2c0,.6-.5,1.1-1.1,1.1Z"/>
      <path class="cls-1" d="M576.5,390.4h-34.9c-.6,0-1.1-.5-1.1-1.1s.5-1.1,1.1-1.1h34.9c.6,0,1.1.5,1.1,1.1s-.5,1.1-1.1,1.1Z"/>
      <path class="cls-1" d="M551.6,397.2c-.3,0-.6-.1-.8-.4-.4-.4-.4-1.1,0-1.6l15-13.7c.4-.4,1.1-.4,1.6,0s.4,1.1,0,1.6l-15,13.7c-.2.2-.5.3-.7.3Z"/>
      <path class="cls-1" d="M563.9,396.2c-.3,0-.5,0-.7-.3-3.9-3.4-7.2-7.4-9.9-11.9-.3-.5-.1-1.2.4-1.5.5-.3,1.2-.1,1.5.4,2.5,4.3,5.7,8.1,9.4,11.4.5.4.5,1.1,0,1.6-.2.2-.5.4-.8.4Z"/>
      <path class="cls-1" d="M569,381.1c-.3,0-.6-.1-.8-.4-.4-.5-.4-1.1,0-1.6l2-1.8c.5-.4,1.1-.4,1.6,0,.4.5.4,1.1,0,1.6l-2,1.8c-.2.2-.5.3-.7.3Z"/>
      <path class="cls-1" d="M551.9,381.3c-.4,0-.9-.3-1-.7l-.8-2.2c-.2-.6,0-1.2.6-1.4.6-.2,1.2,0,1.4.6l.8,2.2c.2.6,0,1.2-.6,1.4-.1,0-.3,0-.4,0Z"/>
      <path class="cls-1" d="M545.2,402.9c-.3,0-.6-.1-.8-.3-.4-.4-.4-1.1,0-1.6l2.7-2.6c.4-.4,1.1-.4,1.6,0,.4.4.4,1.1,0,1.6l-2.7,2.6c-.2.2-.5.3-.8.3Z"/>
      <path class="cls-1" d="M570,400.5c-.2,0-.4,0-.6-.2l-2.2-1.4c-.5-.3-.7-1-.3-1.5.3-.5,1-.7,1.5-.3l2.2,1.4c.5.3.7,1,.3,1.5-.2.3-.6.5-.9.5Z"/>
      <g>
        <path class="cls-1" d="M657.8,427.3c-.6,0-1.1-.4-1.1-1-.4-4.9-.5-10.1-.6-15.2,0-5.1-.2-10.3-.6-15.1,0-.6.4-1.1,1-1.2.6,0,1.1.4,1.2,1,.4,4.9.5,10.1.6,15.2,0,4.7.2,9.5.5,14,1.6,0,3.2,0,4.7-.1,1.5,0,3,0,4.6-.1,0-3.5,0-6.6-.1-9.6-.1-6.1-.2-11.8.1-19.6,0-.6.6-1.1,1.1-1.1.6,0,1.1.5,1.1,1.1-.3,7.8-.2,13.5-.1,19.5,0,3.3.1,6.7.1,10.7s-.5,1.1-1,1.1c-2,.1-3.9.1-5.8.2-1.8,0-3.7,0-5.7.2,0,0,0,0,0,0Z"/>
        <path class="cls-1" d="M684.8,426.7c-.3,0-.5,0-.7-.3-.2-.2-.4-.5-.4-.8-.3-4.7-.6-9.8-.9-14.9-.3-5.1-.6-10.2-.9-14.9,0-.6.4-1.1,1-1.2.6,0,1.1.4,1.2,1,.3,4.7.6,9.8.9,14.9.3,4.7.6,9.4.9,13.8,1.5,0,3,0,4.5,0,1.4,0,2.9,0,4.4,0-.1-4.5-.1-9.2-.2-13.7,0-4.8,0-9.8-.2-14.7,0-.6.5-1.1,1.1-1.1.6,0,1.1.5,1.1,1.1.1,4.9.2,9.9.2,14.7,0,4.8,0,9.8.2,14.7,0,.6-.4,1.1-1,1.1-1.9.1-3.8.2-5.6.2-1.8,0-3.6,0-5.5.2,0,0,0,0,0,0Z"/>
        <path class="cls-1" d="M722.3,427.3c-1.5,0-3,0-4.5,0-1.9,0-3.8,0-5.6,0-.3,0-.6-.1-.8-.3-.2-.2-.3-.5-.3-.8l-.2-31.2c0-.6.5-1.1,1.1-1.1h0c.6,0,1.1.5,1.1,1.1l.2,30.1c1.5,0,3.1,0,4.6,0,1.5,0,3,0,4.5,0,0-5,.1-10.1.2-15.1,0-5.3.2-10.8.2-16.1,0-.6.5-1.1,1.1-1.1h0c.6,0,1.1.5,1.1,1.1,0,5.3-.1,10.8-.2,16.1,0,5.3-.2,10.8-.2,16.1,0,.6-.5,1.1-1.1,1.1-.4,0-.8,0-1.2,0Z"/>
        <path class="cls-1" d="M663.4,456.5c-.6,0-1.1-.5-1.1-1.1v-29.1c0-.6.4-1.1,1.1-1.1h0c.6,0,1.1.5,1.1,1.1v29.1c0,.6-.4,1.1-1.1,1.1h0Z"/>
        <path class="cls-1" d="M689.7,457h0c-.6,0-1.1-.5-1.1-1.1,0-6,0-10.5,0-15,0-4.5,0-9,0-15,0-.6.5-1.1,1.1-1.1h0c.6,0,1.1.5,1.1,1.1,0,6,0,10.5,0,15,0,4.5,0,9,0,15,0,.6-.5,1.1-1.1,1.1Z"/>
        <path class="cls-1" d="M717.8,457.5c-.6,0-1.1-.5-1.1-1.1-.1-6-.3-10.5-.4-14.9-.1-4.5-.3-9-.4-15,0-.6.5-1.1,1.1-1.1h0c.6,0,1.1.5,1.1,1.1.1,6,.3,10.5.4,14.9.1,4.5.3,9,.4,15,0,.6-.5,1.1-1.1,1.1h0Z"/>
        <path class="cls-1" d="M645.2,458.8c-.3,0-.5-.1-.7-.3-.2-.2-.3-.5-.4-.8-.3-9.8-.2-18.5-.2-26.9,0-10.6.2-21.5-.4-34.9,0-.6.4-1.1,1-1.1.6,0,1.1.4,1.1,1,.6,13.4.5,24.4.4,35,0,8.1-.1,16.4.1,25.7,26.4-1.2,54.3-1.6,85.4-1.3.6,0,1.1.5,1.1,1.1,0,.6-.5,1.1-1.1,1.1h0c-31.5-.3-59.7,0-86.4,1.3,0,0,0,0,0,0Z"/>
        <path class="cls-1" d="M657.7,401.5c-.2,0-.5,0-.7-.2-.5-.4-.6-1.1-.2-1.5l3.8-5.1c.4-.5,1.1-.6,1.5-.2.5.4.6,1.1.2,1.5l-3.8,5.1c-.2.3-.5.4-.9.4Z"/>
        <path class="cls-1" d="M657.5,407.2c-.2,0-.4,0-.6-.2-.5-.3-.6-1-.3-1.5,2.5-3.6,5.3-7,8.4-10,.4-.4,1.1-.4,1.6,0,.4.4.4,1.1,0,1.6-3,2.9-5.8,6.2-8.2,9.7-.2.3-.6.5-.9.5Z"/>
        <path class="cls-1" d="M657.2,412.7c-.3,0-.5,0-.7-.3-.5-.4-.5-1.1,0-1.6l11.4-12.5c.4-.4,1.1-.5,1.6,0,.4.4.5,1.1,0,1.6l-11.4,12.5c-.2.2-.5.4-.8.4Z"/>
        <path class="cls-1" d="M657.8,416.9c-.3,0-.6-.1-.8-.4-.4-.5-.4-1.2.1-1.6l11.5-10.1c.5-.4,1.2-.4,1.6.1.4.5.4,1.2-.1,1.6l-11.5,10.1c-.2.2-.5.3-.7.3Z"/>
        <path class="cls-1" d="M657.6,421.9c-.3,0-.7-.2-.9-.5-.3-.5-.2-1.2.3-1.5l11.6-8.1c.5-.3,1.2-.2,1.5.3.3.5.2,1.2-.3,1.5l-11.6,8.1c-.2.1-.4.2-.6.2Z"/>
        <path class="cls-1" d="M659.1,426.8c-.3,0-.7-.2-.9-.5-.4-.5-.3-1.2.2-1.5l10-7.3c.5-.4,1.2-.3,1.5.2.4.5.3,1.2-.2,1.5l-10,7.3c-.2.1-.4.2-.6.2Z"/>
        <path class="cls-1" d="M665.5,426.8c-.3,0-.7-.1-.9-.4-.4-.5-.3-1.2.2-1.5l4.1-3.2c.5-.4,1.2-.3,1.5.2.4.5.3,1.2-.2,1.5l-4.1,3.2c-.2.2-.4.2-.7.2Z"/>
        <path class="cls-1" d="M682.8,401.4c-.3,0-.6-.1-.8-.4-.4-.5-.3-1.2.1-1.6l5.8-5c.5-.4,1.2-.3,1.6.1s.3,1.2-.1,1.6l-5.8,5c-.2.2-.5.3-.7.3Z"/>
        <path class="cls-1" d="M684.2,404.2c-.3,0-.7-.1-.9-.4-.4-.5-.3-1.2.2-1.5l9.8-7.7c.5-.4,1.2-.3,1.5.2.4.5.3,1.2-.2,1.5l-9.8,7.7c-.2.2-.4.2-.7.2Z"/>
        <path class="cls-1" d="M683.7,410c-.3,0-.7-.2-.9-.5-.4-.5-.2-1.2.3-1.5l11.5-8.3c.5-.4,1.2-.2,1.5.3.4.5.2,1.2-.3,1.5l-11.5,8.3c-.2.1-.4.2-.6.2Z"/>
        <path class="cls-1" d="M684.4,416.3c-.3,0-.7-.2-.9-.5-.4-.5-.2-1.2.2-1.5l11.2-8.1c.5-.4,1.2-.2,1.5.2.4.5.2,1.2-.2,1.5l-11.2,8.1c-.2.1-.4.2-.6.2Z"/>
        <path class="cls-1" d="M684.9,420.1c-.4,0-.8-.2-1-.6-.3-.5,0-1.2.5-1.5l10.4-5.5c.5-.3,1.2,0,1.5.5.3.5,0,1.2-.5,1.5l-10.4,5.5c-.2,0-.3.1-.5.1Z"/>
        <path class="cls-1" d="M685.2,424.6c-.4,0-.8-.2-1-.6-.3-.5,0-1.2.5-1.5l10.2-5.1c.5-.3,1.2,0,1.5.5.3.5,0,1.2-.5,1.5l-10.2,5.1c-.2,0-.3.1-.5.1Z"/>
        <path class="cls-1" d="M692.2,425.7c-.4,0-.7-.2-.9-.5-.3-.5-.2-1.2.3-1.5l3.2-2.1c.5-.3,1.2-.2,1.5.3.3.5.2,1.2-.3,1.5l-3.2,2.1c-.2.1-.4.2-.6.2Z"/>
        <path class="cls-1" d="M712.2,400.6c-.3,0-.6-.1-.8-.4-.4-.5-.4-1.1,0-1.6l5.9-5.4c.5-.4,1.1-.4,1.6,0,.4.5.4,1.1,0,1.6l-5.9,5.4c-.2.2-.5.3-.7.3Z"/>
        <path class="cls-1" d="M712.1,405.5c-.3,0-.6-.1-.9-.4-.4-.5-.3-1.2.2-1.5,3.6-2.8,6.9-6,9.9-9.4.4-.5,1.1-.5,1.6,0,.5.4.5,1.1,0,1.6-3.1,3.5-6.5,6.8-10.2,9.7-.2.2-.4.2-.7.2Z"/>
        <path class="cls-1" d="M712.4,411.5c-.3,0-.6-.1-.8-.4-.4-.5-.4-1.1,0-1.6l11.2-10.1c.5-.4,1.1-.4,1.6,0,.4.5.4,1.1,0,1.6l-11.2,10.1c-.2.2-.5.3-.7.3Z"/>
        <path class="cls-1" d="M712.5,416.4c-.3,0-.7-.2-.9-.4-.4-.5-.3-1.2.2-1.5l10.6-7.8c.5-.4,1.2-.3,1.5.2.4.5.3,1.2-.2,1.5l-10.6,7.8c-.2.1-.4.2-.7.2Z"/>
        <path class="cls-1" d="M712.6,421.4c-.4,0-.7-.2-.9-.5-.3-.5-.2-1.2.3-1.5l10.7-7.1c.5-.3,1.2-.2,1.5.3.3.5.2,1.2-.3,1.5l-10.7,7.1c-.2.1-.4.2-.6.2Z"/>
        <path class="cls-1" d="M713.6,426.8c-.3,0-.7-.1-.9-.4-.4-.5-.3-1.2.2-1.5l9.7-7.6c.5-.4,1.2-.3,1.5.2.4.5.3,1.2-.2,1.5l-9.7,7.6c-.2.2-.4.2-.7.2Z"/>
        <path class="cls-1" d="M720.3,426c-.3,0-.7-.1-.9-.4-.4-.5-.3-1.2.2-1.5l3-2.3c.5-.4,1.2-.3,1.5.2.4.5.3,1.2-.2,1.5l-3,2.3c-.2.2-.4.2-.7.2Z"/>
      </g>
      <path class="cls-1" d="M610.4,485.3c0,0-.1,0-.2,0-1.8,0-3.7-1.2-4.7-2.9-.9-1.5-1-3.2-.2-4.6.3-.5,1-.7,1.5-.5.5.3.7,1,.5,1.5-.5,1,0,2,.2,2.4.6,1.1,1.8,1.8,2.9,1.8,2.4,0,4.4-2.1,5.1-4.2.8-2.4.5-5.2.1-7.9-.5-3.2-1.3-6.3-2.1-9.4-4.9.7-9,.6-12.6-.5-4.6-1.4-8.3-4.4-10-8.3-1.8-4.1-1.5-9.2.9-14.1,2.1-4.3,5.4-7.7,8.6-10.9l1-1c.4-.3.7-.7,1.1-1.1-2.4-11.7-2-21.5,1.2-29.8,1.3-3.3,3.1-5.1,5.4-5.3,3.4-.2,5.4,3.3,6.1,6.4,1.6,7.5.2,15.6-4.1,22-1.8,2.7-4,5.1-6.2,7.4.5,2.2,1,4.5,1.7,6.8.5-.3,1-.5,1.6-.8,5.8-2.5,12.5-1.8,17.2,1.6,5.1,3.7,7.3,10.7,5.2,16.3-1.2,3.2-3.7,6-7.1,7.9-2.2,1.3-4.8,2.2-8,2.9.8,3.1,1.6,6.2,2.1,9.4.5,2.9.8,6-.2,8.9-.9,2.8-3.6,5.7-7.1,5.7ZM603,428.4s0,0,0,0l-1,1c-3.1,3-6.2,6.3-8.2,10.3-2.1,4.3-2.4,8.7-.8,12.2,1.4,3.2,4.7,5.9,8.6,7.1,3.2,1,6.9,1.1,11.3.5-.5-1.6-1-3.2-1.5-4.8-2.7.2-5.5-.5-7.7-2.2-3.4-2.7-4.9-7.7-3.5-11.8.8-2.3,2.4-4.4,4.6-6.1,0,0,0-.1,0-.2-.6-2.1-1.1-4.1-1.6-6.1ZM613.5,454.3c.5,1.6,1,3.2,1.5,4.8,3-.6,5.4-1.5,7.5-2.7,2.9-1.7,5.1-4.1,6.1-6.8,1.8-4.7-.2-10.6-4.5-13.8-4.1-3-10-3.5-15.1-1.4-.6.3-1.2.6-1.8.9,1.1,3.7,2.4,7.3,3.6,10.9.7,1.9,1.3,3.9,2,5.9.7-.2,1.4-.5,2-.9,1.5-.9,2.7-2.6,3-4.3.1-.8.2-2-.6-3-.4-.5-.3-1.2.2-1.5.5-.4,1.2-.3,1.5.2,1,1.3,1.4,3,1.1,4.8-.4,2.3-1.9,4.5-4,5.8-.8.5-1.6.8-2.5,1.1ZM605.3,436.8c-1.5,1.3-2.6,2.8-3.2,4.5-1.1,3.3.1,7.3,2.8,9.4,1.6,1.2,3.6,1.9,5.6,1.8-.6-1.8-1.2-3.7-1.9-5.5-1.1-3.3-2.3-6.8-3.4-10.2ZM609.3,392.9s0,0-.1,0c-1.8.1-3,2.5-3.5,3.9-2.9,7.6-3.3,16.5-1.4,27.1,1.8-1.9,3.5-3.8,4.9-6,3.9-6,5.3-13.4,3.8-20.4-.4-1.8-1.6-4.7-3.7-4.7Z"/>
      <path class="cls-1" d="M459.2,394c-.3,0-.5,0-.7-.3-.5-.4-.5-1.1-.1-1.6l6.8-8c.4-.5,1.1-.5,1.6-.1.5.4.5,1.1.1,1.6l-6.8,8c-.2.3-.5.4-.8.4Z"/>
      <path class="cls-1" d="M471,397.8c-.1,0-.3,0-.4,0-.6-.2-.8-.9-.6-1.4l1.8-4.6c.2-.6.9-.8,1.4-.6.6.2.8.9.6,1.4l-1.8,4.6c-.2.4-.6.7-1,.7Z"/>
      <path class="cls-1" d="M371,478.7c-3.8,0-7.6-1.3-10.4-3.8-4-3.6-5.8-9.5-4.6-14.8-5.1,1.6-11,.7-15.3-2.5-4.9-3.7-7.6-10.2-6.6-16.2,0-.6.7-1,1.3-.9.6,0,1,.7.9,1.3-.8,5.3,1.5,10.9,5.8,14.1,4.3,3.2,10.4,3.8,15.2,1.4.4-.2.9-.1,1.2.2.3.3.4.8.3,1.2-2,4.9-.6,11.1,3.4,14.6,3.9,3.5,10.2,4.3,14.9,1.8.5-.3,1.2,0,1.5.5.3.5,0,1.2-.5,1.5-2.2,1.1-4.6,1.7-7,1.7Z"/>
      <path class="cls-1" d="M413,378.8c-.5,0-.9-.3-1-.8-1-3.2-4.1-5.7-7.4-6.1-3.4-.4-6.9,1.4-8.6,4.3-.3.5-1,.7-1.5.4-.5-.3-.7-1-.4-1.5,2.1-3.6,6.5-5.8,10.7-5.3,4.2.5,8,3.6,9.3,7.6.2.6-.1,1.2-.7,1.4-.1,0-.2,0-.3,0Z"/>
      <path class="cls-1" d="M143.5,402.8c-2.6,0-5.2-1.2-7.5-3.4-3.2-3-4.9-7.2-5.2-11.6-4.7.2-9.4,1.7-13.3,4.4-1.7,1.2-5.5,4.3-5.3,8.5,0,.6-.4,1.1-1,1.2-.6,0-1.1-.4-1.2-1-.2-3.7,2-7.5,6.2-10.4,4.3-3,9.4-4.6,14.6-4.8.2-3.3,1.2-6.5,3.2-9.1,9.4-12.6,28.2-9.4,33.8-8.1,11.2,2.6,25.5,7.2,35.8,19.7.4.5.3,1.2-.1,1.5-.5.4-1.2.3-1.5-.1-10-12-23.7-16.4-34.6-19-5.2-1.2-22.9-4.3-31.5,7.2-1.7,2.2-2.6,5-2.8,7.8,4.1.2,8.2,1.2,11.9,3.2,4,2.2,6.1,5.3,5.6,8.4-.4,3-3.3,5.4-6.7,5.5,0,0-.2,0-.3,0ZM133,387.8c.3,3.8,1.8,7.4,4.5,10,1.1,1.1,3.5,2.9,6.2,2.8,2,0,4.3-1.5,4.6-3.6.3-2.5-2.1-4.8-4.5-6.2-3.3-1.8-7-2.8-10.8-3Z"/>
      <path class="cls-1" d="M110.6,403c0,0-.1,0-.2,0-.3,0-.6-.2-.7-.5l-4.5-7.1c-.3-.5-.2-1.2.3-1.5.5-.3,1.2-.2,1.5.3l3.9,6.1,6.2-4.6c.5-.4,1.2-.3,1.5.2.4.5.3,1.2-.2,1.5l-7.1,5.3c-.2.1-.4.2-.7.2Z"/>
    </g>
  </g>
</svg>
